<svg xmlns="http://www.w3.org/2000/svg" xmlns:xlink="http://www.w3.org/1999/xlink" viewBox="0 0 750 500"><defs><style>.cls-1,.cls-20,.cls-22,.cls-23,.cls-25,.cls-28,.cls-30,.cls-31,.cls-33,.cls-34,.cls-46,.cls-47,.cls-48,.cls-49,.cls-5,.cls-8,.cls-9{fill:none;}.cls-2{isolation:isolate;}.cls-3{fill:#eaf4f3;}.cls-4{fill:#235b3c;}.cls-47,.cls-48,.cls-49,.cls-5,.cls-8,.cls-9{stroke:#033a21;}.cls-20,.cls-22,.cls-23,.cls-25,.cls-28,.cls-30,.cls-33,.cls-34,.cls-36,.cls-37,.cls-46,.cls-47,.cls-48,.cls-49,.cls-5,.cls-8,.cls-9{stroke-linecap:round;stroke-linejoin:round;}.cls-5{stroke-width:1.47px;}.cls-6{fill:#77844f;}.cls-7{fill:#94a469;}.cls-8{stroke-width:1.76px;}.cls-9{stroke-width:1.2px;}.cls-10{fill:#e07358;}.cls-11{fill:#b7432c;}.cls-12{clip-path:url(#clip-path);}.cls-13{clip-path:url(#clip-path-2);}.cls-14{clip-path:url(#clip-path-3);}.cls-15{fill:#fee3bc;}.cls-16{fill:#ff985f;}.cls-17{fill:#ffd89f;}.cls-18{fill:#f77237;}.cls-19{fill:#ef481b;}.cls-20{stroke:#ba3000;}.cls-20,.cls-22,.cls-23,.cls-25,.cls-30{stroke-width:0.85px;}.cls-21{fill:#681231;}.cls-22{stroke:#681231;}.cls-23{stroke:#490d25;}.cls-24{fill:#f95c38;}.cls-25{stroke:#b51500;}.cls-26,.cls-36,.cls-37{fill:#fff;}.cls-27{fill:#b51500;}.cls-28{stroke:#fff;}.cls-28,.cls-31,.cls-33{stroke-width:0.77px;}.cls-29{fill:#ffb533;}.cls-30,.cls-36,.cls-37{stroke:#e85105;}.cls-31{stroke:#f96500;stroke-miterlimit:10;}.cls-32{fill:#f96500;}.cls-33{stroke:#ed6435;}.cls-34{stroke:#c93900;stroke-width:1.03px;}.cls-35{fill:#ffce8d;}.cls-36{stroke-width:0.73px;}.cls-37{stroke-width:0.84px;}.cls-38{fill:#fd2653;}.cls-39{mix-blend-mode:multiply;}.cls-40{fill:#ce2e54;}.cls-41{mix-blend-mode:overlay;}.cls-42{fill:#ffe6c7;}.cls-43{fill:#fdfffd;}.cls-44{fill:#ba3000;opacity:0.3;}.cls-45{fill:#a0c1b4;}.cls-46{stroke:#235b3c;stroke-width:4px;}.cls-47{stroke-width:1.29px;}.cls-48{stroke-width:1.04px;}.cls-49{stroke-width:1.33px;}</style><clipPath id="clip-path"><rect class="cls-1" x="248.62" y="361.81" width="204.54" height="20.27"/></clipPath><clipPath id="clip-path-2"><rect class="cls-1" x="248.62" y="389.43" width="204.54" height="20.27" transform="translate(701.77 799.13) rotate(-180)"/></clipPath><clipPath id="clip-path-3"><rect class="cls-1" x="248.62" y="418.5" width="204.54" height="11.82" transform="translate(701.77 848.82) rotate(180)"/></clipPath></defs><g class="cls-2"><g id="OBJECTS"><path class="cls-3" d="M637.34,480.49C636,336.73,519.08,220.6,375,220.6S114,336.73,112.66,480.49Z"/><path class="cls-4" d="M671.43,366c6.67-12.1,8.05-27.92.35-39.4-3.94-5.87-10-10.35-12.71-16.88-4-9.5.23-20.22,4.15-29.74,6-14.55,11.5-30.94,5.92-45.66-4.06-10.7-13.42-18.71-17.55-29.38-2.67-6.89-3-14.58-6.16-21.27s-10.89-12.35-17.68-9.42c-8.11,3.49-7.75,14.81-10.69,23.14-5,14.25-22.64,23.4-22.33,38.51.23,11.55,11.22,20.23,13.39,31.57,3.82,20-20,35-22.82,55.11a42,42,0,0,0,1.23,15.44c4.92,20.59,18.37,38.86,36.13,50.27C643.46,401.7,660.38,386.1,671.43,366Z"/><path class="cls-5" d="M632.53,174.75c14.3,69-11.7,147.24,1.42,216.51V472"/><path class="cls-5" d="M613,228.15a25.75,25.75,0,0,1,6.81,4,10.34,10.34,0,0,1,2.56,2.8,4.78,4.78,0,0,1,.59,3.66c-.14.52-.8.63-1.35.6-4.43-.28-8.15-3.3-11.53-6.17-.85-.71-1.77-1.64-1.6-2.73a2.54,2.54,0,0,1,1.72-1.78C611.3,228.07,611.8,227.7,613,228.15Z"/><path class="cls-5" d="M636.14,196.94a108.49,108.49,0,0,0-14.35-11.15"/><path class="cls-5" d="M645.11,186.15a59.06,59.06,0,0,0-9,10.79"/><path class="cls-5" d="M655.27,216.28c-5.63,3.19-13.9,10.25-19.36,13.72-7.32-5-19.06-12.39-25.44-18.52"/><path class="cls-5" d="M636.31,222.9q-11.23-9-22.67-17.83"/><path class="cls-5" d="M669.69,242.13q-17.76,10.23-34.54,22.06c-6.41-2.31-12.26-6.47-17.41-10.92L597.42,235.7"/><path class="cls-5" d="M646.36,201.24a2.7,2.7,0,0,1,.24,3.6,3.12,3.12,0,0,1-3.64.75,3.63,3.63,0,0,1-2-3.24,2.19,2.19,0,0,1,1-2,2.7,2.7,0,0,1,1.82-.11,16.06,16.06,0,0,1,2.69.75"/><path class="cls-5" d="M666.28,269.94s-5.77,4.74-9.47,7.69c-7.3,5.82-15.12,9.67-23.81,13.1-7.74-6.57-15.51-13.11-23-19.93"/><path class="cls-5" d="M656.9,296.23A238.59,238.59,0,0,1,633,316.06a5.57,5.57,0,0,1-2.19,1.12c-3.31-3.17-7-5.63-10.65-8.46-3-2.39-6.19-4.65-9.12-7.17a45.64,45.64,0,0,1-8.37-8.75"/><path class="cls-5" d="M657.84,306.79c-2,1.72-3.79,2.58-5.5,4.62-1,1.13-1.8,2.35-2.85,3.39a24.13,24.13,0,0,1-3.37,2.65q-7.54,5.19-15.29,10.1c-13.05-6.59-23.89-16.83-34.05-27.34"/><path class="cls-5" d="M616.84,287.75a3.37,3.37,0,1,0,.51.33"/><path class="cls-5" d="M668.91,325.27c-3.3,2-5.87,4.93-8.42,7.8a391.57,391.57,0,0,1-29.06,29.42c-14-6-26.6-16.58-37.92-26.78l-7.66-6.9"/><path class="cls-5" d="M629.76,352.87a236.49,236.49,0,0,1-42-35.42"/><path class="cls-6" d="M418.74,478.91s13.11-46.34,129.35-46.34S693.16,481,693.16,481Z"/><path class="cls-7" d="M56.84,478.91s23.47-41.34,231.58-41.34S548.14,481,548.14,481Z"/><path class="cls-4" d="M61.06,354.13c-8-14.49-9.64-33.44-.42-47.18,4.71-7,12-12.39,15.21-20.21,4.74-11.38-.27-24.22-5-35.62-7.18-17.42-13.76-37.05-7.08-54.67,4.85-12.81,16.06-22.4,21-35.18,3.2-8.26,3.61-17.46,7.38-25.47s13-14.8,21.17-11.29c9.7,4.19,9.28,17.75,12.8,27.71,6,17.07,27.11,28,26.74,46.12-.28,13.82-13.43,24.23-16,37.81-4.58,23.89,24,41.88,27.32,66,.85,6.16,0,12.44-1.47,18.49-5.9,24.66-22,46.54-43.26,60.2C94.55,396.82,74.29,378.15,61.06,354.13Z"/><path class="cls-8" d="M107.63,125.06c-17.12,82.67,14,176.32-1.69,259.26V481"/><path class="cls-8" d="M131.08,189a31,31,0,0,0-8.16,4.78,12.51,12.51,0,0,0-3.06,3.35,5.81,5.81,0,0,0-.71,4.39c.18.62,1,.75,1.62.71,5.3-.33,9.76-3.94,13.81-7.38,1-.86,2.12-2,1.92-3.27a3,3,0,0,0-2.06-2.13C133.06,188.92,132.46,188.47,131.08,189Z"/><path class="cls-8" d="M103.32,151.64a129.2,129.2,0,0,1,17.17-13.35"/><path class="cls-8" d="M92.58,138.72a71.11,71.11,0,0,1,10.74,12.92"/><path class="cls-8" d="M80.41,174.8c6.74,3.81,16.64,12.27,23.18,16.43,8.76-6,22.82-14.83,30.47-22.17"/><path class="cls-8" d="M103.11,182.73q13.44-10.84,27.15-21.36"/><path class="cls-8" d="M63.14,205.75Q84.41,218,104.5,232.16c7.67-2.76,14.68-7.74,20.84-13.07l24.33-21"/><path class="cls-8" d="M91.07,156.78a3.23,3.23,0,0,0-.28,4.32,3.71,3.71,0,0,0,4.35.9,4.36,4.36,0,0,0,2.35-3.88,2.63,2.63,0,0,0-1.13-2.34,3.31,3.31,0,0,0-2.18-.15,19.7,19.7,0,0,0-3.22.9"/><path class="cls-8" d="M67.22,239.05s6.91,5.68,11.34,9.21c8.74,7,18.11,11.58,28.51,15.69,9.26-7.87,18.58-15.7,27.59-23.86"/><path class="cls-8" d="M78.45,270.54a285,285,0,0,0,28.64,23.73,6.44,6.44,0,0,0,2.62,1.35c4-3.8,8.43-6.74,12.75-10.13,3.64-2.86,7.41-5.56,10.91-8.59,4.38-3.78,6.61-5.81,10-10.47"/><path class="cls-8" d="M77.33,283.18c2.43,2.06,4.53,3.09,6.59,5.53,1.14,1.35,2.15,2.81,3.41,4.06a27.66,27.66,0,0,0,4,3.17q9,6.22,18.31,12.1c15.61-7.89,28.6-20.15,40.76-32.74"/><path class="cls-8" d="M126.43,260.37a4.05,4.05,0,1,1-.62.41"/><path class="cls-8" d="M64.08,305.31c4,2.36,7,5.9,10.08,9.34A466.17,466.17,0,0,0,109,349.87c16.77-7.18,31.86-19.85,45.41-32.06l9.18-8.26"/><path class="cls-8" d="M111,338.35a282.75,282.75,0,0,0,50.33-42.41"/><path class="cls-4" d="M178.26,403.71c-5.44-9.88-6.57-22.81-.28-32.18,3.22-4.79,8.16-8.45,10.38-13.78,3.22-7.76-.19-16.52-3.4-24.29-4.89-11.88-9.38-25.27-4.82-37.28,3.31-8.74,11-15.28,14.32-24,2.18-5.63,2.47-11.91,5-17.38s8.9-10.08,14.44-7.69c6.62,2.85,6.33,12.1,8.73,18.9,4.12,11.64,18.49,19.1,18.24,31.45-.19,9.42-9.16,16.52-10.94,25.78-3.12,16.29,16.36,28.56,18.64,45a34.47,34.47,0,0,1-1,12.61,68.56,68.56,0,0,1-29.51,41.05C201.1,432.82,187.29,420.09,178.26,403.71Z"/><path class="cls-9" d="M210,247.49c-11.68,56.38,9.55,120.24-1.16,176.81v56.06"/><path class="cls-9" d="M226,291.11a21,21,0,0,0-5.56,3.25,8.63,8.63,0,0,0-2.1,2.29,4,4,0,0,0-.48,3c.12.43.66.52,1.1.49,3.62-.23,6.66-2.69,9.43-5,.68-.58,1.44-1.34,1.3-2.23a2.06,2.06,0,0,0-1.4-1.45C227.37,291,227,290.74,226,291.11Z"/><path class="cls-9" d="M207.08,265.62a87.5,87.5,0,0,1,11.72-9.1"/><path class="cls-9" d="M199.76,256.81a48.28,48.28,0,0,1,7.32,8.81"/><path class="cls-9" d="M191.46,281.41c4.6,2.6,11.35,8.37,15.81,11.21,6-4.07,15.56-10.12,20.78-15.13"/><path class="cls-9" d="M206.94,286.82q9.18-7.4,18.52-14.57"/><path class="cls-9" d="M179.69,302.52q14.51,8.36,28.2,18c5.23-1.88,10-5.28,14.21-8.91l16.6-14.35"/><path class="cls-9" d="M198.73,269.13a2.22,2.22,0,0,0-.19,2.94,2.54,2.54,0,0,0,3,.61,3,3,0,0,0,1.6-2.64,1.8,1.8,0,0,0-.77-1.6,2.23,2.23,0,0,0-1.49-.1,13.66,13.66,0,0,0-2.19.61"/><path class="cls-9" d="M182.47,325.23s4.71,3.87,7.73,6.28c6,4.75,12.35,7.89,19.44,10.7,6.32-5.37,12.67-10.71,18.82-16.28"/><path class="cls-9" d="M190.13,346.7a193.78,193.78,0,0,0,19.52,16.19,4.7,4.7,0,0,0,1.79.92,109.87,109.87,0,0,1,8.7-6.91c2.48-1.95,5.05-3.8,7.44-5.86a37,37,0,0,0,6.84-7.14"/><path class="cls-9" d="M189.36,355.32c1.66,1.4,3.1,2.11,4.49,3.77.78.92,1.47,1.92,2.33,2.77a19.09,19.09,0,0,0,2.75,2.16q6.16,4.26,12.49,8.26c10.65-5.38,19.51-13.75,27.8-22.33"/><path class="cls-9" d="M222.84,339.77a2.78,2.78,0,1,1-.41.28"/><path class="cls-9" d="M180.32,370.42c2.7,1.6,4.79,4,6.88,6.36a318.23,318.23,0,0,0,23.73,24c11.43-4.9,21.72-13.53,31-21.86l6.25-5.64"/><path class="cls-9" d="M212.29,393A193,193,0,0,0,246.61,364"/><rect class="cls-10" x="248.62" y="361.81" width="204.54" height="20.27"/><rect class="cls-11" x="420.21" y="428.37" width="6.04" height="50.27"/><rect class="cls-11" x="275.51" y="428.37" width="6.04" height="50.27"/><rect class="cls-10" x="248.62" y="389.43" width="204.54" height="20.27"/><rect class="cls-10" x="239.94" y="418.5" width="221.9" height="11.82"/><g class="cls-12"><path class="cls-11" d="M335.67,392.86h33.15a.47.47,0,1,1,0,.94H336.67a.32.32,0,0,1-.17,0h-.21a13.68,13.68,0,0,0-8.36,2.38,8.36,8.36,0,0,0-2.24,11.62,4.89,4.89,0,0,0,3.18,2.1,4.94,4.94,0,0,0,3.74-.76,2.9,2.9,0,0,0,.77-4,1.61,1.61,0,0,0-2.23-.43.47.47,0,0,1-.65-.13.46.46,0,0,1,.13-.65,2.54,2.54,0,0,1,3.53.68,3.84,3.84,0,0,1-1,5.33,5.94,5.94,0,0,1-4.45.91,5.88,5.88,0,0,1-3.78-2.5,9.29,9.29,0,0,1,2.49-12.93A14.62,14.62,0,0,1,335.67,392.86Z"/><path class="cls-11" d="M431.46,390.48h33.15a.47.47,0,1,1,0,.94H432.45a.31.31,0,0,1-.17,0h-.2a13.7,13.7,0,0,0-8.37,2.37,8.37,8.37,0,0,0-2.24,11.63,5,5,0,0,0,6.92,1.34,2.9,2.9,0,0,0,.78-4,1.6,1.6,0,0,0-2.23-.43.47.47,0,0,1-.53-.78,2.55,2.55,0,0,1,3.54.68,3.85,3.85,0,0,1-1,5.33,5.93,5.93,0,0,1-8.23-1.59,9.32,9.32,0,0,1,2.5-12.94A14.66,14.66,0,0,1,431.46,390.48Z"/><path class="cls-11" d="M421.16,371.77h33.15a.47.47,0,1,1,0,.94H422.16a.31.31,0,0,1-.17,0h-.21a13.67,13.67,0,0,0-8.36,2.37,8.37,8.37,0,0,0-2.24,11.63,4.92,4.92,0,0,0,3.18,2.1,5,5,0,0,0,3.74-.76,2.9,2.9,0,0,0,.77-4,1.6,1.6,0,0,0-2.23-.43.47.47,0,0,1-.65-.13.46.46,0,0,1,.13-.65,2.54,2.54,0,0,1,3.53.68,3.84,3.84,0,0,1-1,5.33,5.94,5.94,0,0,1-4.45.91,5.88,5.88,0,0,1-3.78-2.5,9.3,9.3,0,0,1,2.49-12.94A14.69,14.69,0,0,1,421.16,371.77Z"/><path class="cls-11" d="M385.86,400.74H352.71a.47.47,0,1,1,0-.94h32.16a.31.31,0,0,1,.17,0h.2a13.7,13.7,0,0,0,8.37-2.37,8.37,8.37,0,0,0,2.24-11.63,5,5,0,0,0-6.92-1.34,2.9,2.9,0,0,0-.78,4,1.6,1.6,0,0,0,2.23.43.47.47,0,0,1,.53.78,2.55,2.55,0,0,1-3.54-.68,3.84,3.84,0,0,1,1-5.33,5.93,5.93,0,0,1,8.23,1.59,9.32,9.32,0,0,1-2.5,12.94A14.66,14.66,0,0,1,385.86,400.74Z"/><path class="cls-11" d="M254.5,396.8h33.15a.47.47,0,1,1,0,.94H255.49a.43.43,0,0,1-.17,0h-.2a13.63,13.63,0,0,0-8.37,2.37,8.36,8.36,0,0,0-2.24,11.62,5,5,0,0,0,6.92,1.34,2.9,2.9,0,0,0,.78-4,1.61,1.61,0,0,0-2.23-.43.46.46,0,0,1-.65-.13.47.47,0,0,1,.12-.65,2.55,2.55,0,0,1,3.54.68,3.85,3.85,0,0,1-1,5.33,5.93,5.93,0,0,1-8.23-1.59,9.31,9.31,0,0,1,2.5-12.93A14.6,14.6,0,0,1,254.5,396.8Z"/><path class="cls-11" d="M304.69,404.68H271.53a.47.47,0,1,1,0-.94h32.16l.17,0h.21a13.67,13.67,0,0,0,8.36-2.37,8.37,8.37,0,0,0,2.24-11.63,5,5,0,0,0-6.92-1.33,2.89,2.89,0,0,0-.77,4,1.61,1.61,0,0,0,2.23.43.47.47,0,0,1,.65.12.46.46,0,0,1-.13.65,2.54,2.54,0,0,1-3.53-.68,3.83,3.83,0,0,1,1-5.32,5.94,5.94,0,0,1,4.45-.92,5.88,5.88,0,0,1,3.78,2.5A9.3,9.3,0,0,1,313,402.14,14.69,14.69,0,0,1,304.69,404.68Z"/><path class="cls-11" d="M358.67,362.48h33.15a.47.47,0,1,1,0,.94H359.66a.43.43,0,0,1-.17,0h-.2a13.63,13.63,0,0,0-8.37,2.37,8.36,8.36,0,0,0-2.24,11.62,5,5,0,0,0,6.92,1.34,2.9,2.9,0,0,0,.78-4,1.61,1.61,0,0,0-2.23-.43.46.46,0,0,1-.65-.13.47.47,0,0,1,.12-.65,2.55,2.55,0,0,1,3.54.68,3.85,3.85,0,0,1-1,5.33A5.93,5.93,0,0,1,347.9,378,9.31,9.31,0,0,1,350.4,365,14.6,14.6,0,0,1,358.67,362.48Z"/><path class="cls-11" d="M408.86,370.36H375.7a.47.47,0,1,1,0-.94h32.16a.31.31,0,0,1,.17,0h.21A13.67,13.67,0,0,0,416.6,367a8.37,8.37,0,0,0,2.24-11.63,5,5,0,0,0-6.92-1.33,2.88,2.88,0,0,0-.77,4,1.6,1.6,0,0,0,2.23.43.47.47,0,0,1,.65.13.46.46,0,0,1-.13.65,2.54,2.54,0,0,1-3.53-.68,3.83,3.83,0,0,1,1-5.32,5.94,5.94,0,0,1,4.45-.92,5.88,5.88,0,0,1,3.78,2.5,9.3,9.3,0,0,1-2.49,12.94A14.69,14.69,0,0,1,408.86,370.36Z"/><path class="cls-11" d="M277.5,366.42h33.15a.47.47,0,1,1,0,.94H278.49a.43.43,0,0,1-.17,0h-.21a13.6,13.6,0,0,0-8.36,2.37,8.37,8.37,0,0,0-2.24,11.63,5,5,0,0,0,6.92,1.33,2.9,2.9,0,0,0,.78-4,1.62,1.62,0,0,0-2.23-.43.47.47,0,1,1-.53-.78,2.55,2.55,0,0,1,3.54.68,3.85,3.85,0,0,1-1,5.33,5.93,5.93,0,0,1-8.23-1.59A9.32,9.32,0,0,1,269.22,369,14.65,14.65,0,0,1,277.5,366.42Z"/><path class="cls-11" d="M327.68,374.31H294.53a.48.48,0,0,1-.47-.48.47.47,0,0,1,.47-.47h32.16l.17,0h.2a13.68,13.68,0,0,0,8.37-2.37,8.37,8.37,0,0,0,2.24-11.63,5,5,0,0,0-6.92-1.33,2.9,2.9,0,0,0-.78,4,1.62,1.62,0,0,0,2.23.43.47.47,0,1,1,.53.78,2.56,2.56,0,0,1-3.54-.69,3.84,3.84,0,0,1,1-5.32,5.94,5.94,0,0,1,8.23,1.58A9.33,9.33,0,0,1,336,371.76,14.73,14.73,0,0,1,327.68,374.31Z"/></g><rect class="cls-11" x="420.21" y="368.24" width="6.04" height="50.27"/><rect class="cls-11" x="275.51" y="368.24" width="6.04" height="50.27"/><path class="cls-10" d="M424.6,373.13a1.37,1.37,0,1,1-1.36-1.36A1.36,1.36,0,0,1,424.6,373.13Z"/><path class="cls-10" d="M279.9,373.13a1.37,1.37,0,1,1-1.36-1.36A1.36,1.36,0,0,1,279.9,373.13Z"/><g class="cls-13"><path class="cls-11" d="M363.83,419.68H330.68a.47.47,0,1,0,0,.94h32.15a.47.47,0,0,0,.17,0h.21a13.6,13.6,0,0,1,8.36,2.37,8.37,8.37,0,0,1,2.24,11.63,5,5,0,0,1-6.92,1.33,2.89,2.89,0,0,1-.77-4,1.61,1.61,0,0,1,2.23-.43.47.47,0,1,0,.52-.78,2.54,2.54,0,0,0-3.53.68,3.84,3.84,0,0,0,1,5.33,5.92,5.92,0,0,0,8.23-1.59,9.29,9.29,0,0,0-2.49-12.93A14.62,14.62,0,0,0,363.83,419.68Z"/><path class="cls-11" d="M268,417.3H234.89a.47.47,0,0,0,0,.94h32.16a.43.43,0,0,0,.17,0h.2a13.63,13.63,0,0,1,8.37,2.37A8.36,8.36,0,0,1,278,432.25a5,5,0,0,1-6.92,1.34,2.9,2.9,0,0,1-.78-4,1.61,1.61,0,0,1,2.23-.43.46.46,0,0,0,.65-.13.47.47,0,0,0-.12-.65,2.55,2.55,0,0,0-3.54.68,3.85,3.85,0,0,0,1,5.33,5.93,5.93,0,0,0,8.23-1.59,9.31,9.31,0,0,0-2.5-12.93A14.6,14.6,0,0,0,268,417.3Z"/><path class="cls-11" d="M278.34,398.59H245.19a.47.47,0,1,0,0,.94h32.15a.47.47,0,0,0,.17,0l.21,0a13.68,13.68,0,0,1,8.36,2.38,8.36,8.36,0,0,1,2.24,11.62,4.89,4.89,0,0,1-3.18,2.1,4.94,4.94,0,0,1-3.74-.76,2.9,2.9,0,0,1-.77-4,1.61,1.61,0,0,1,2.23-.43.47.47,0,0,0,.52-.78,2.54,2.54,0,0,0-3.53.68,3.84,3.84,0,0,0,1,5.33,5.94,5.94,0,0,0,4.45.91,5.88,5.88,0,0,0,3.78-2.5,9.29,9.29,0,0,0-2.49-12.93A14.62,14.62,0,0,0,278.34,398.59Z"/><path class="cls-11" d="M313.64,427.57h33.15a.48.48,0,0,0,.47-.48.47.47,0,0,0-.47-.47H314.64l-.18,0h-.2a13.65,13.65,0,0,1-8.36-2.37,8.39,8.39,0,0,1-2.25-11.63,5,5,0,0,1,6.92-1.33,2.89,2.89,0,0,1,.78,4,1.62,1.62,0,0,1-2.23.43.47.47,0,0,0-.65.12.48.48,0,0,0,.12.66,2.56,2.56,0,0,0,3.54-.69,3.83,3.83,0,0,0-1-5.32,5.94,5.94,0,0,0-8.23,1.58,9.32,9.32,0,0,0,2.5,12.94A14.7,14.7,0,0,0,313.64,427.57Z"/><path class="cls-11" d="M445,423.62H411.85a.48.48,0,0,0,0,.95H444l.17,0h.2a13.7,13.7,0,0,1,8.37,2.37A8.37,8.37,0,0,1,455,438.58a5,5,0,0,1-6.92,1.33,2.89,2.89,0,0,1-.78-4,1.62,1.62,0,0,1,2.23-.43.47.47,0,0,0,.65-.12.48.48,0,0,0-.12-.66,2.55,2.55,0,0,0-3.54.69,3.84,3.84,0,0,0,1,5.32,5.94,5.94,0,0,0,8.23-1.58,9.32,9.32,0,0,0-2.5-12.94A14.67,14.67,0,0,0,445,423.62Z"/><path class="cls-11" d="M394.81,431.51H428a.47.47,0,0,0,0-.94H395.81a.43.43,0,0,0-.17,0h-.21a13.6,13.6,0,0,1-8.36-2.37,8.37,8.37,0,0,1-2.24-11.63,5,5,0,0,1,6.92-1.33,2.89,2.89,0,0,1,.77,4,1.6,1.6,0,0,1-2.22.43.48.48,0,0,0-.66.12.47.47,0,0,0,.13.66,2.55,2.55,0,0,0,3.53-.68,3.84,3.84,0,0,0-1-5.33,5.92,5.92,0,0,0-8.23,1.59A9.29,9.29,0,0,0,386.54,429,14.62,14.62,0,0,0,394.81,431.51Z"/><path class="cls-11" d="M340.83,389.3H307.68a.47.47,0,1,0,0,.94h32.16a.43.43,0,0,0,.17,0h.2a13.63,13.63,0,0,1,8.37,2.37,8.37,8.37,0,0,1,2.24,11.63,5,5,0,0,1-6.92,1.33,2.9,2.9,0,0,1-.78-4,1.62,1.62,0,0,1,2.23-.43A.47.47,0,0,0,346,401a.48.48,0,0,0-.12-.66,2.56,2.56,0,0,0-3.54.68,3.85,3.85,0,0,0,1,5.33,5.93,5.93,0,0,0,8.23-1.59,9.31,9.31,0,0,0-2.5-12.93A14.6,14.6,0,0,0,340.83,389.3Z"/><path class="cls-11" d="M290.64,397.19H323.8a.48.48,0,0,0,0-.95H291.64l-.17,0h-.21a13.67,13.67,0,0,1-8.36-2.37,8.37,8.37,0,0,1-2.24-11.63,5,5,0,0,1,6.92-1.33,2.89,2.89,0,0,1,.77,4,1.61,1.61,0,0,1-2.23.43.47.47,0,1,0-.52.78,2.54,2.54,0,0,0,3.53-.69,3.83,3.83,0,0,0-1-5.32,5.93,5.93,0,0,0-8.23,1.58,9.3,9.3,0,0,0,2.49,12.94A14.7,14.7,0,0,0,290.64,397.19Z"/><path class="cls-11" d="M422,393.24H388.85a.47.47,0,0,0,0,.94H421l.17,0h.21a13.67,13.67,0,0,1,8.36,2.37A8.37,8.37,0,0,1,432,408.2a5,5,0,0,1-6.92,1.33,2.9,2.9,0,0,1-.78-4,1.62,1.62,0,0,1,2.23-.43.47.47,0,1,0,.53-.78,2.57,2.57,0,0,0-3.54.69,3.84,3.84,0,0,0,1,5.32,5.94,5.94,0,0,0,8.23-1.58,9.33,9.33,0,0,0-2.49-12.94A14.73,14.73,0,0,0,422,393.24Z"/><path class="cls-11" d="M371.82,401.13H405a.47.47,0,0,0,0-.94H372.81a.43.43,0,0,0-.17,0h-.2a13.62,13.62,0,0,1-8.37-2.37,8.37,8.37,0,0,1-2.24-11.63,5,5,0,0,1,3.18-2.1,5,5,0,0,1,3.74.77,2.9,2.9,0,0,1,.78,4,1.61,1.61,0,0,1-2.23.43.48.48,0,0,0-.66.12.49.49,0,0,0,.13.66,2.55,2.55,0,0,0,3.54-.68,3.85,3.85,0,0,0-1-5.33,5.93,5.93,0,0,0-8.23,1.59,9.32,9.32,0,0,0,2.49,12.93A14.65,14.65,0,0,0,371.82,401.13Z"/></g><g class="cls-14"><path class="cls-11" d="M363.83,448.76H330.68a.47.47,0,1,0,0,.94h32.15a.32.32,0,0,0,.17,0h.21a13.74,13.74,0,0,1,8.36,2.37,8.35,8.35,0,0,1,3.53,5.35,8.26,8.26,0,0,1-1.29,6.28,4.89,4.89,0,0,1-3.18,2.1,4.94,4.94,0,0,1-3.74-.76,2.9,2.9,0,0,1-.77-4,1.61,1.61,0,0,1,2.23-.43.47.47,0,0,0,.65-.13.46.46,0,0,0-.13-.65,2.54,2.54,0,0,0-3.53.68,3.84,3.84,0,0,0,1,5.33,5.94,5.94,0,0,0,4.45.91,5.88,5.88,0,0,0,3.78-2.5,9.31,9.31,0,0,0-2.49-12.94A14.69,14.69,0,0,0,363.83,448.76Z"/><path class="cls-11" d="M268,446.38H234.89a.47.47,0,1,0,0,.94h32.16a.31.31,0,0,0,.17,0h.2a13.7,13.7,0,0,1,8.37,2.37A8.37,8.37,0,0,1,278,461.33a5,5,0,0,1-6.92,1.34,2.9,2.9,0,0,1-.78-4,1.6,1.6,0,0,1,2.23-.43.47.47,0,0,0,.53-.78,2.55,2.55,0,0,0-3.54.68,3.85,3.85,0,0,0,1,5.33,5.93,5.93,0,0,0,8.23-1.59,9.32,9.32,0,0,0-2.5-12.94A14.66,14.66,0,0,0,268,446.38Z"/><path class="cls-11" d="M278.34,427.67H245.19a.47.47,0,1,0,0,.94h32.15a.32.32,0,0,0,.17,0h.21a13.67,13.67,0,0,1,8.36,2.37,8.35,8.35,0,0,1,3.53,5.35,8.26,8.26,0,0,1-1.29,6.28,4.92,4.92,0,0,1-3.18,2.1,5,5,0,0,1-3.74-.76,2.9,2.9,0,0,1-.77-4,1.6,1.6,0,0,1,2.23-.43.47.47,0,0,0,.65-.13.46.46,0,0,0-.13-.65,2.54,2.54,0,0,0-3.53.68,3.84,3.84,0,0,0,1,5.33,5.94,5.94,0,0,0,4.45.91,5.88,5.88,0,0,0,3.78-2.5,9.3,9.3,0,0,0-2.49-12.94A14.69,14.69,0,0,0,278.34,427.67Z"/><path class="cls-11" d="M313.64,456.64h33.15a.47.47,0,0,0,0-.94H314.64a.36.36,0,0,0-.18,0h-.2a13.65,13.65,0,0,1-8.36-2.37,8.39,8.39,0,0,1-2.25-11.63,5,5,0,0,1,6.92-1.34,2.9,2.9,0,0,1,.78,4,1.6,1.6,0,0,1-2.23.43.47.47,0,0,0-.53.78,2.55,2.55,0,0,0,3.54-.68,3.84,3.84,0,0,0-1-5.33,5.93,5.93,0,0,0-8.23,1.59,9.32,9.32,0,0,0,2.5,12.94A14.69,14.69,0,0,0,313.64,456.64Z"/><path class="cls-11" d="M445,452.7H411.85a.47.47,0,0,0,0,.94H444a.43.43,0,0,0,.17,0h.2a13.63,13.63,0,0,1,8.37,2.37A8.36,8.36,0,0,1,455,467.65a5,5,0,0,1-6.92,1.34,2.9,2.9,0,0,1-.78-4,1.61,1.61,0,0,1,2.23-.43.46.46,0,0,0,.65-.13.47.47,0,0,0-.12-.65,2.55,2.55,0,0,0-3.54.68,3.85,3.85,0,0,0,1,5.33,5.93,5.93,0,0,0,8.23-1.59,9.31,9.31,0,0,0-2.5-12.93A14.6,14.6,0,0,0,445,452.7Z"/><path class="cls-11" d="M394.81,460.58H428a.47.47,0,0,0,0-.94H395.81a.31.31,0,0,0-.17,0h-.21a13.67,13.67,0,0,1-8.36-2.37,8.37,8.37,0,0,1-2.24-11.63,5,5,0,0,1,6.92-1.33,2.88,2.88,0,0,1,.77,4,1.59,1.59,0,0,1-2.22.43.49.49,0,0,0-.66.13.46.46,0,0,0,.13.65,2.54,2.54,0,0,0,3.53-.68,3.83,3.83,0,0,0-1-5.32,5.94,5.94,0,0,0-4.45-.92,5.88,5.88,0,0,0-3.78,2.5A9.3,9.3,0,0,0,386.54,458,14.69,14.69,0,0,0,394.81,460.58Z"/><path class="cls-11" d="M340.83,418.38H307.68a.47.47,0,0,0,0,.94h32.16a.43.43,0,0,0,.17,0l.2,0a13.71,13.71,0,0,1,8.37,2.38,8.36,8.36,0,0,1,2.24,11.62,5,5,0,0,1-6.92,1.34,2.9,2.9,0,0,1-.78-4,1.61,1.61,0,0,1,2.23-.43.46.46,0,0,0,.65-.13.47.47,0,0,0-.12-.65,2.55,2.55,0,0,0-3.54.68,3.85,3.85,0,0,0,1,5.33,5.93,5.93,0,0,0,8.23-1.59,9.31,9.31,0,0,0-2.5-12.93A14.6,14.6,0,0,0,340.83,418.38Z"/><path class="cls-11" d="M290.64,426.26H323.8a.47.47,0,0,0,0-.94H291.64a.31.31,0,0,0-.17,0h-.21a13.67,13.67,0,0,1-8.36-2.37,8.37,8.37,0,0,1-2.24-11.63,4.92,4.92,0,0,1,3.18-2.1,5,5,0,0,1,3.74.76,2.9,2.9,0,0,1,.77,4,1.6,1.6,0,0,1-2.23.43.47.47,0,0,0-.65.13.46.46,0,0,0,.13.65,2.54,2.54,0,0,0,3.53-.68,3.84,3.84,0,0,0-1-5.33,5.94,5.94,0,0,0-4.45-.91,5.88,5.88,0,0,0-3.78,2.5,9.3,9.3,0,0,0,2.49,12.94A14.69,14.69,0,0,0,290.64,426.26Z"/><path class="cls-11" d="M422,422.32H388.85a.47.47,0,0,0,0,.94H421a.43.43,0,0,0,.17,0h.21a13.6,13.6,0,0,1,8.36,2.37A8.37,8.37,0,0,1,432,437.28a5,5,0,0,1-6.92,1.33,2.9,2.9,0,0,1-.78-4,1.62,1.62,0,0,1,2.23-.43.47.47,0,1,0,.53-.78,2.55,2.55,0,0,0-3.54.68,3.85,3.85,0,0,0,1,5.33,5.93,5.93,0,0,0,8.23-1.59,9.32,9.32,0,0,0-2.49-12.93A14.65,14.65,0,0,0,422,422.32Z"/><path class="cls-11" d="M371.82,430.21H405a.48.48,0,0,0,.47-.48.47.47,0,0,0-.47-.47H372.81l-.17,0h-.2a13.68,13.68,0,0,1-8.37-2.37,8.37,8.37,0,0,1-2.24-11.63,5,5,0,0,1,6.92-1.33,2.9,2.9,0,0,1,.78,4,1.62,1.62,0,0,1-2.23.43.48.48,0,0,0-.66.12.49.49,0,0,0,.13.66,2.57,2.57,0,0,0,3.54-.69,3.84,3.84,0,0,0-1-5.32,5.94,5.94,0,0,0-8.23,1.58,9.33,9.33,0,0,0,2.49,12.94A14.73,14.73,0,0,0,371.82,430.21Z"/></g><path class="cls-15" d="M233.37,225.47s-7.55,43.14-8.34,76,3.75,139.12,3.75,139.12,21,2,29.2,0c0,0,12.41-98,18-152.13.79-7.69,8.86-21.34,9.17-27.3,2.46-48-9.92-35.72-9.92-35.72Z"/><rect class="cls-16" x="292.05" y="436.17" width="15.46" height="29.62"/><rect class="cls-16" x="235.36" y="434.34" width="15.46" height="33.82"/><path class="cls-17" d="M308.32,225.47s7.55,43.14,8.34,76-2.83,139.12-2.83,139.12-21.95,2-30.12,0c0,0-17-125.84-19.43-173.79s2.18-41.36,2.18-41.36Z"/><path class="cls-18" d="M301.87,176.51l22.67-1.75c1.24,5.37,2.44,14.14,2.44,14.14,21.74-1.25,35-1.11,42.26-3.29,4.88-1.47,3-5.29,7.09-5.67l10.19,15.38c-20.1,13.77-45.11,15.75-61.62,16.84-7.31.48-12.19.25-12.82-.23-1.79-1.35-3.43-4.91-4.86-9.34a155.21,155.21,0,0,1-5.35-26.08"/><path class="cls-18" d="M374.15,180.88c2.25-1.26,2.92-3,4.1-4.31.89-1,2.23-2,3.36-1.33,1.95,1.17-.47,4.6-.47,4.6s-2.36.81.69-.68c1-.5.61-.62,2.07.18.55.29.35,1.31.35,1.31l.08,0a2,2,0,0,1,2.31.39c.71.75.41,2.61.59,2.65,2.61.53.21,3.24.21,3.24s2.32.29,1.45,2.26c-3,6.78-.51,5.3-4.33,7"/><path class="cls-19" d="M302.51,181.32c7.15-1,22.34-5.14,22.34-5.14l-.31-1.42-22.67,1.75C302,178.45,302.51,181.32,302.51,181.32Z"/><path class="cls-19" d="M324.94,212.16c-7.3.48-12.19.25-12.81-.23-1.79-1.35-3.44-4.91-4.87-9.34,6.23.26,10.27,2.33,15,6.38A18.23,18.23,0,0,1,324.94,212.16Z"/><path class="cls-20" d="M324.85,189.08c2.6-.18,5.28-.44,7.38-.52"/><path class="cls-21" d="M260.12,110.72c0-.1,1,4.69,1.29,5.59a21,21,0,0,0,2.37,4.75c1.08,6.07-1.24,13.23-3,13.59-.22,0-.45.08-.69.11a10,10,0,0,1-5.41-1.08c-3.05-1.58-4.06-5.88-4-5.89a6.18,6.18,0,0,1-6.76-7.14c.35-2.12,1.76-3.89,3-5.62a77.11,77.11,0,0,0,4.4-7.84c.53,1.72,2.94,3.23,3.32,3.39A7.23,7.23,0,0,0,260.12,110.72Z"/><path class="cls-22" d="M251.29,108.25c-.56,2.14-2.22,3.74-3.6,5.78-1.53,2.26-4.52,4.34-4.76,7.27a6.48,6.48,0,0,0,6.64,6.79,5.38,5.38,0,0,0,2.91-1.19"/><path class="cls-23" d="M251,128.1c3.54-4,6.52-10.64,7.85-15.81"/><path class="cls-23" d="M262.62,120.78a47.64,47.64,0,0,1-3,12.27"/><path class="cls-23" d="M250.47,125a26.91,26.91,0,0,0,3.94-6.57"/><path class="cls-23" d="M247.11,117.07c1.31-2.08,2.53-4.22,3.66-6.4"/><path class="cls-18" d="M283.32,137.75a13.68,13.68,0,0,1-9.56,3.42s-4.54.3-10.89-3.15a4,4,0,0,1-2.24-2.77,16.9,16.9,0,0,0,3.07-7.79c.43-2.89-.19-11.46-.19-11.46h21.11s-.36,9.7,0,12.9a6.86,6.86,0,0,0,1.79,3.74A10.67,10.67,0,0,1,283.32,137.75Z"/><path class="cls-16" d="M293,94a3.41,3.41,0,0,1-2.86-.72,3.88,3.88,0,0,1-2.68,3,3.65,3.65,0,0,1-3.75-1.61c-1.73,2.27-4.76,1.89-6.87.4a12.6,12.6,0,0,1-4.27-5.93,36.32,36.32,0,0,1-3,4.53c-3,3.74-5.06,6-9.8,6h-.49A61.54,61.54,0,0,0,261,114.93a16.41,16.41,0,0,0,7.38,10.4c3.79,2.2,11.37,2.62,16.27.07C295.09,120,296.93,105.15,293,94Z"/><path class="cls-16" d="M259.27,99.52c-1.89-.73-4.17-1.42-5.82-.25a4.66,4.66,0,0,0-1.33,1.59,7.68,7.68,0,0,0-.09,7.7c1.43,2.27,5.92,3.41,8.26,2.07"/><path class="cls-18" d="M273,90.42a7.86,7.86,0,0,0,3.23,6.25c2.11,1.49,5.77,1.37,7.51-.89a3.25,3.25,0,0,0,3.51,1.52,3.91,3.91,0,0,0,2.89-2.77,4.45,4.45,0,0,0,3.26,1.15h.11l-.81-2.61s1.5-7.28-1.61-9.79a18.56,18.56,0,0,0-19.25-2.55c-4-1-7.24,0-11.32,2.6-4.34,2.75-4.28,8.38-3.87,14.11l3.38,2.75c4.74,0,8.22-.53,10.93-4.49a21.88,21.88,0,0,0,2-5.27"/><path class="cls-24" d="M271,106.48a3.9,3.9,0,1,1-3.9-3.9A3.9,3.9,0,0,1,271,106.48Z"/><path class="cls-24" d="M294.87,104.11c0,.47,0,.93,0,1.38,0,1.28-.16,2.36-.16,2.36l-.09,0a3.82,3.82,0,0,1-1,.14,3.91,3.91,0,0,1,0-7.81,3.68,3.68,0,0,1,.82.09l.1,0A28.41,28.41,0,0,1,294.87,104.11Z"/><path class="cls-25" d="M281.41,108.91a3.34,3.34,0,0,0,1.66-3.7,8.72,8.72,0,0,0-.88-2.12c-.49-.91-1-1.82-1.45-2.73a3.85,3.85,0,0,0-.24-.4"/><path class="cls-25" d="M279.28,108.13l-.39.68"/><path class="cls-26" d="M284.62,111.05a27,27,0,0,1-7.6.94s.18,4.31,4.24,4.31S284.62,111.05,284.62,111.05Z"/><path class="cls-27" d="M275.55,100.59c.08.88-.22,1.63-.67,1.67s-.88-.64-1-1.52.21-1.63.66-1.68S275.46,99.7,275.55,100.59Z"/><path class="cls-27" d="M286.36,100.59c.08.88-.22,1.63-.67,1.67s-.88-.64-1-1.52.21-1.63.66-1.68S286.27,99.7,286.36,100.59Z"/><path class="cls-25" d="M254.26,102.74a3.56,3.56,0,0,1,2.38-1.21,3.15,3.15,0,0,1,2.39.85"/><path class="cls-25" d="M257.56,102a2.78,2.78,0,0,0-.88,2.19,2.73,2.73,0,0,0,1.18,2"/><path class="cls-28" d="M257.73,109.17a6.64,6.64,0,1,1-6.58,1.81"/><path class="cls-21" d="M294.76,108.26c-.28,2.4,5,5.09,6.57,6.09a10.64,10.64,0,0,1,5.4,7.79c.7,4-.89,7.59-4.66,8.79a13.84,13.84,0,0,1-5.42.23,8,8,0,0,1-5.92,3.64c-3.09.23-5.6-2.2-6.4-5a22.7,22.7,0,0,1-.34-4S293.07,122.23,294.76,108.26Z"/><path class="cls-22" d="M295.44,111.05c5.87,2.24,17,7.13,11.28,17.3-1.51,2.67-7.72,3.62-9.62.32"/><path class="cls-23" d="M292.14,119.6q1.44,3.87,2.89,7.76a15.54,15.54,0,0,0,1.32,2.94"/><path class="cls-23" d="M294.92,121.85c.72,2,1.5,4,2.35,6"/><path class="cls-23" d="M295.48,111.49l3.28,3c2,1.83,4.12,3.74,5.17,6.27s.72,5.84-1.48,7.45"/><path class="cls-21" d="M272.55,88.84a8.66,8.66,0,0,0,3.67,6.43c2.11,1.49,5.77,1.37,7.51-.89a3.25,3.25,0,0,0,3.51,1.52,3.91,3.91,0,0,0,2.89-2.77c1.92,1.61,4.23,1.5,5.21,0,2.23-3.42-1.15-8.75-4.26-11.26a18.56,18.56,0,0,0-19.25-2.55c-4-1-7.24,0-11.32,2.6-4.34,2.75-4.86,11-4.45,16.75l3.65,1.51c4.74,0,6.67-2.72,9.67-6.47a41,41,0,0,0,3.17-4.87"/><path class="cls-22" d="M256.22,98.32c-1.62-5.35-.79-10.45,1.45-13.7S265,80.69,269,80.91"/><path class="cls-23" d="M260,100a12.61,12.61,0,0,0,11.09-6.5,15.73,15.73,0,0,0,1.23-3.11"/><path class="cls-21" d="M266,80.52a13.17,13.17,0,0,1-7.51-2.23,8.32,8.32,0,0,1-3.6-6.76c.12-4.38,4.83-7.77,9.17-7.17s7.78,4.47,8.65,8.76c.69,3.36-.43,7.51-3.65,8.73"/><path class="cls-22" d="M271.4,78.57c1.32-.3,10.13-2.86,16.6.5,4.23,2.19,7.6,6.4,7.43,11.19-.07,2.09-.48,3.09-2.52,3.53"/><path class="cls-22" d="M266.21,80.91c-3.65-.47-9.76-1.85-11.37-5.39-2.07-4.57,1.47-8.26,5.38-9.91"/><path class="cls-23" d="M257.36,67.28a12.47,12.47,0,0,0,2.77,7.8,14,14,0,0,0,7.2,5"/><path class="cls-23" d="M270.42,79.8c1.2-2.62.91-7.08-.84-9.36a11.52,11.52,0,0,0-7.35-4.09,6.34,6.34,0,0,0-4.67.77"/><path class="cls-23" d="M257.56,67.26a8.25,8.25,0,0,1,1.28.4,17.31,17.31,0,0,1,6.73,4.87,22.51,22.51,0,0,1,4.09,7.27"/><path class="cls-23" d="M255.25,69.85c.09.51.19,1,.31,1.5a12.57,12.57,0,0,0,4.22,6.93A8.89,8.89,0,0,0,267.55,80"/><path class="cls-23" d="M270.1,79.8c0,6,3.36,13,5.28,14.8a5.61,5.61,0,0,0,7.89.1"/><path class="cls-23" d="M283.71,93.8c-.79-4.76-4.32-8.59-8.08-11.61A9.08,9.08,0,0,0,271,79.84c-.27,0-.66.09-.61.36"/><path class="cls-23" d="M271.25,79.36c3.61-1.49,7.79-.42,11.25,1.38a13.31,13.31,0,0,1,2.3,1.45c3.05,2.45,4.18,6.52,5.14,10.31"/><path class="cls-23" d="M283.75,83.14A6.83,6.83,0,0,1,286.32,87"/><path class="cls-23" d="M260,100c3-1.88,4.75-5.87,6.31-9a27.49,27.49,0,0,0,1.85-5c.56-2,1.36-4,1.83-6.08"/><path class="cls-23" d="M257.37,98.77c2.08-8.56,4.8-17.47,12.74-19.35"/><path class="cls-23" d="M293,85.27a8.56,8.56,0,0,1,1.87,5.08"/><path class="cls-29" d="M310,229.27a147.33,147.33,0,0,1-28.55,6.45,180,180,0,0,1-40.73,0l-2.84-53.46,67.47.63Z"/><path class="cls-29" d="M286.05,132.45a14.58,14.58,0,0,0,6.33,4.24,52.68,52.68,0,0,1,10.9,5.3c13.48,8.77,22.84,34.74,22.84,34.74a77.26,77.26,0,0,1-20.82,6.16h-.21l2.59,24.44-51.6,1.11c-3,.66-5.52,1.66-8.48,2.32-.17-6.06.66-7.19.49-13.25L218,199.32s1.74-26.59,8.27-38.75c3.15-5.86,5.1-7.45,8.71-10.69,5.75-5.18,13-7.14,20-10.57A15,15,0,0,0,260.5,135l.47,1.14a13.63,13.63,0,0,0,2.72,2.49c4.31,2.25,8.65,3.33,13.39,2.28,4.2-.93,8-4.19,9-8.29Z"/><path class="cls-30" d="M261.36,136.5a11.36,11.36,0,0,0,2.73,2c4.31,2.25,8.64,3.33,13.39,2.28s9-5.07,9.21-9.93"/><path class="cls-30" d="M261.36,141.66a12,12,0,0,0,2.95,2.05C269,146,273.65,147,278.77,146s10.34-5.4,10.54-10.25"/><path class="cls-30" d="M276.5,141.41l1.11,4.46"/><path class="cls-30" d="M280,140c.17,0,.27.19.35.33l2.28,3.95"/><path class="cls-30" d="M283.44,137.91a18,18,0,0,0,2.5,1.83,6.2,6.2,0,0,0,1.46.72"/><path class="cls-30" d="M285.68,135.29a15.61,15.61,0,0,1,3.36,2.46"/><path class="cls-30" d="M271.16,141.15a14.81,14.81,0,0,0-.52,4.49l0-.26"/><path class="cls-30" d="M267,140.15c-.33,1.07-.67,2.14-1,3.21"/><path class="cls-30" d="M261.17,141.5l1.78-3.07"/><path class="cls-30" d="M257.13,138.69a19.37,19.37,0,0,0,2.78,1.88"/><path class="cls-30" d="M241.54,145.8a22.7,22.7,0,0,1,7.37,8.91"/><path class="cls-30" d="M241,145.84a5,5,0,0,1,1.35,1.64,100.26,100.26,0,0,1,6.5,13.09"/><path class="cls-30" d="M218,199.32a122.4,122.4,0,0,0,12.26-.43c5.47-.48,23.42-2,26.64-2.32a128.2,128.2,0,0,0-6.2-25"/><path class="cls-30" d="M290.28,137.29a9.89,9.89,0,0,1-.71,2.32"/><path class="cls-30" d="M255.41,188.13c-12,1.76-24.74,1.81-36.54,2.61-.21,1.61-.26,3-.46,4.67"/><path class="cls-30" d="M217.92,197.44a11.09,11.09,0,0,1-.06,2.23"/><path class="cls-30" d="M298.75,139.21a36.87,36.87,0,0,1,3.8,12.14"/><path class="cls-30" d="M299.33,140.24q.75,3.72,1.25,7.49"/><path class="cls-30" d="M305.3,182.89c2.65-1,15.49-3,20.6-6.41"/><path class="cls-30" d="M304.65,176.83c6.63-.77,12.56-3.33,18.77-5.76"/><path class="cls-30" d="M301.87,153.48c1.5,14.29,4.2,32.7,4.88,43.9"/><path class="cls-30" d="M253,171.73a26.4,26.4,0,0,1-.17,5.69"/><path class="cls-30" d="M218.87,190.74c.8-5.94,1.83-12,3.07-17.72"/><path class="cls-30" d="M321.94,167.77q2,4.46,4,8.9"/><path class="cls-30" d="M318.79,161.48c.54.88,1.13,2,1.68,3.15.25.5.48,1,.7,1.46"/><path class="cls-31" d="M239,156.78a2.06,2.06,0,1,1-2.06-2.07A2.06,2.06,0,0,1,239,156.78Z"/><path class="cls-31" d="M247.29,177.42a2.07,2.07,0,1,1-2.07-2.07A2.07,2.07,0,0,1,247.29,177.42Z"/><circle class="cls-31" cx="226.06" cy="185.49" r="2.06"/><path class="cls-31" d="M236.15,193.83a2.06,2.06,0,1,1-2.06-2.06A2.06,2.06,0,0,1,236.15,193.83Z"/><path class="cls-31" d="M230.3,169.76a2.06,2.06,0,1,1-2.06-2.06A2.07,2.07,0,0,1,230.3,169.76Z"/><path class="cls-31" d="M258.71,150.26a2.07,2.07,0,1,1-2.06-2.07A2.06,2.06,0,0,1,258.71,150.26Z"/><path class="cls-31" d="M292.34,150.26a2.07,2.07,0,1,1-2.06-2.07A2.06,2.06,0,0,1,292.34,150.26Z"/><path class="cls-31" d="M278.56,160.57a2.06,2.06,0,1,1-2.06-2.06A2.07,2.07,0,0,1,278.56,160.57Z"/><path class="cls-31" d="M278.56,183.42a2.06,2.06,0,1,1-2.06-2.06A2.07,2.07,0,0,1,278.56,183.42Z"/><path class="cls-31" d="M278.56,202.39a2.06,2.06,0,1,1-2.06-2.06A2.07,2.07,0,0,1,278.56,202.39Z"/><path class="cls-31" d="M258,204.2a2.06,2.06,0,1,1-2.06-2.06A2.06,2.06,0,0,1,258,204.2Z"/><circle class="cls-31" cx="251.04" cy="230.39" r="2.06"/><path class="cls-31" d="M245.48,216.73a2.07,2.07,0,1,1-2.07-2.07A2.07,2.07,0,0,1,245.48,216.73Z"/><path class="cls-31" d="M300.81,167.7a2.07,2.07,0,1,1-2.06-2.06A2.06,2.06,0,0,1,300.81,167.7Z"/><path class="cls-31" d="M314.08,167.7a2.07,2.07,0,1,1-2.07-2.06A2.07,2.07,0,0,1,314.08,167.7Z"/><path class="cls-31" d="M310.38,152.87a2.06,2.06,0,1,1-2.06-2.06A2.07,2.07,0,0,1,310.38,152.87Z"/><circle class="cls-31" cx="298.75" cy="195.41" r="2.06"/><circle class="cls-31" cx="304.31" cy="225.47" r="2.06"/><path class="cls-31" d="M294.36,212.35a2.07,2.07,0,1,1-2.07-2.07A2.07,2.07,0,0,1,294.36,212.35Z"/><path class="cls-31" d="M272.2,225.47a2.07,2.07,0,1,1-2.06-2.06A2.06,2.06,0,0,1,272.2,225.47Z"/><path class="cls-31" d="M294.36,181.3a2.07,2.07,0,1,1-2.07-2.06A2.07,2.07,0,0,1,294.36,181.3Z"/><path class="cls-31" d="M261.33,174.58a2.07,2.07,0,1,1-2.06-2.07A2.06,2.06,0,0,1,261.33,174.58Z"/><path class="cls-32" d="M262.46,157a2.19,2.19,0,0,0-1.08,0,2.16,2.16,0,0,0-.89.52v0a4,4,0,0,0-.31.4h0s-.18.42-.2.47h0v0a2.17,2.17,0,0,0,0,1.13v0a4,4,0,0,0,.2.48l0,0a2.94,2.94,0,0,0,.31.41,2,2,0,0,0,2,.52,1.49,1.49,0,0,0,.66-.34,1.47,1.47,0,0,0,.5-.55,1.43,1.43,0,0,0,.23-.72,1.45,1.45,0,0,0,0-.77l-.19-.46a2,2,0,0,0-.7-.7l-.46-.19a2,2,0,0,0-1,0h0l.51-.07h0l.51.07h0l.47.19h0l.39.3a0,0,0,0,1,0,0l.3.39s0,0,0,0l.19.46s0,0,0-.06l.07.52V159l-.07.52s0,0,0-.06c-.06.16-.13.31-.19.47a.05.05,0,0,1,0,0c-.11.13-.21.27-.31.4l0,0-.39.3h0l-.46.19h0l-.52.07h0l-.51-.07h0a1.44,1.44,0,0,0,.77,0,1.43,1.43,0,0,0,.72-.23,1.47,1.47,0,0,0,.55-.5,1.39,1.39,0,0,0,.34-.66c0-.17.05-.34.07-.51a2,2,0,0,0-.26-1l-.31-.39a2,2,0,0,0-.85-.5Z"/><path class="cls-32" d="M286,171.22c2.49,0,2.5-3.87,0-3.87s-2.49,3.87,0,3.87Z"/><path class="cls-32" d="M265.44,194.83h.39a1.47,1.47,0,0,0,.74-.17,1.51,1.51,0,0,0,.63-.4,2.09,2.09,0,0,0,.56-1.37c0-.17,0-.34-.07-.51a1.9,1.9,0,0,0-.49-.86l-.39-.3a1.89,1.89,0,0,0-1-.26h-.39a1.44,1.44,0,0,0-.74.16,1.71,1.71,0,0,0-1,1,1.44,1.44,0,0,0-.16.74c0,.17,0,.34.07.52a1.92,1.92,0,0,0,.49.85l.39.3a2,2,0,0,0,1,.27Z"/><path class="cls-32" d="M302.6,205.66h-.39a1.5,1.5,0,0,0-.75.17,2,2,0,0,0-1.19,1.77c0,.17.05.34.07.51a2,2,0,0,0,.5.86l.39.3a2,2,0,0,0,1,.26h.39a1.46,1.46,0,0,0,.74-.16,1.51,1.51,0,0,0,.63-.4,1.61,1.61,0,0,0,.4-.63,1.46,1.46,0,0,0,.16-.74c0-.17,0-.34-.07-.52a1.92,1.92,0,0,0-.49-.85l-.4-.3a1.84,1.84,0,0,0-1-.27Z"/><path class="cls-32" d="M263.51,215.73h.77a2,2,0,0,0,1.94-1.94c0-.17-.05-.34-.07-.51a2,2,0,0,0-.5-.86l-.39-.3a1.87,1.87,0,0,0-1-.26h-.77a1.47,1.47,0,0,0-.75.16,1.42,1.42,0,0,0-.62.4,1.51,1.51,0,0,0-.4.63,1.44,1.44,0,0,0-.17.74c0,.17.05.34.07.52a1.94,1.94,0,0,0,.5.85l.39.3a2,2,0,0,0,1,.27Z"/><path class="cls-32" d="M289.44,224.63h-.39a1.44,1.44,0,0,0-.74.16,1.61,1.61,0,0,0-.63.4,1.51,1.51,0,0,0-.4.63,1.46,1.46,0,0,0-.16.74l.06.52a2,2,0,0,0,.5.85l.39.3a1.9,1.9,0,0,0,1,.27h.39a1.47,1.47,0,0,0,.74-.17,1.73,1.73,0,0,0,1-1,1.47,1.47,0,0,0,.16-.75c0-.17,0-.34-.07-.51a2,2,0,0,0-.49-.86l-.4-.3a1.93,1.93,0,0,0-1-.26Z"/><path class="cls-32" d="M234.87,177h.38a1.47,1.47,0,0,0,.75-.16,1.73,1.73,0,0,0,1-1,1.47,1.47,0,0,0,.17-.74c0-.17-.05-.35-.07-.52a1.89,1.89,0,0,0-.5-.85l-.39-.3a1.88,1.88,0,0,0-1-.27h-.38a1.48,1.48,0,0,0-.75.17,1.42,1.42,0,0,0-.62.4,1.33,1.33,0,0,0-.4.62,1.48,1.48,0,0,0-.17.75c0,.17,0,.34.07.51a2,2,0,0,0,.5.86l.39.3a2,2,0,0,0,1,.26Z"/><path class="cls-32" d="M291,142.19v.39a1.46,1.46,0,0,0,.16.74,1.73,1.73,0,0,0,1,1,1.35,1.35,0,0,0,.74.17l.52-.07a1.94,1.94,0,0,0,.85-.5l.3-.39a1.84,1.84,0,0,0,.27-1v-.39a2,2,0,0,0-1.94-1.94l-.51.07a1.92,1.92,0,0,0-.86.5l-.3.39a2,2,0,0,0-.26,1Z"/><path class="cls-32" d="M314.6,161.93c2.49,0,2.49-3.87,0-3.87a1.94,1.94,0,0,0,0,3.87Z"/><path class="cls-32" d="M284.79,197.54c2.49,0,2.5-3.88,0-3.88s-2.49,3.88,0,3.88Z"/><path class="cls-32" d="M262.94,233l.39-.38a1.51,1.51,0,0,0,.4-.63,1.46,1.46,0,0,0,.16-.74,1.47,1.47,0,0,0-.16-.75,1.42,1.42,0,0,0-.4-.62l-.4-.3a1.84,1.84,0,0,0-1-.27l-.52.07a1.94,1.94,0,0,0-.85.5l-.39.39a1.42,1.42,0,0,0-.4.62,1.46,1.46,0,0,0-.16.74,1.47,1.47,0,0,0,.16.75,1.42,1.42,0,0,0,.4.62l.39.31a2,2,0,0,0,1,.26l.52-.07a1.94,1.94,0,0,0,.85-.5Z"/><path class="cls-33" d="M269.71,79.81a17.66,17.66,0,0,1-8.84-.39,5.56,5.56,0,0,1-3.14-2,2.47,2.47,0,0,1,.49-3.34C262.56,71.26,268.51,80.07,269.71,79.81Z"/><path class="cls-33" d="M270.67,72.14a8,8,0,0,1,1.41-2.2,6,6,0,0,1,1.77-1.27,3.2,3.2,0,0,1,2.2-.33,2.57,2.57,0,0,1,1.71,2.1,4.8,4.8,0,0,1-.53,2.77,13.68,13.68,0,0,1-6.38,5.87c-1.85.88-1.64-.72-1.48-2.24A15.16,15.16,0,0,1,270.67,72.14Z"/><path class="cls-33" d="M269.47,79.61c-.45,1.15-1.91,1.47-3.13,1.67a13,13,0,0,0-3.42.92,5.37,5.37,0,0,0-2.59,2.32"/><path class="cls-33" d="M269.37,80.14a5.07,5.07,0,0,1-2,2.9,8,8,0,0,0-2.43,2.64"/><path class="cls-16" d="M227.57,199.1s-.7,12.87-.91,16.71a.48.48,0,0,1-.81.33c-3.85-3.55-21.39-18.79-24.68-21.56-3.6-3-9.54-8.83-13.64-11.22-2.44-1.43-5.5-1.61-5.46.37,0,0-2.54-1.63-4.23-.18-1.4,1.19-.12,2.94-.12,2.94l-.17.16a2.82,2.82,0,0,0-3.65,1.28c-.84,1.68,1,3,1,3s0,.18-.05.2c-2.82,1.11-.66,4.77,3.08,8.74,4,4.28,10.33,10,14.66,14C207,227.12,231.05,263,243.05,245.15c2.39-3.55,3.63-18.16,4-22.42.68-7.62.4-18.34.26-25.18Z"/><path class="cls-16" d="M198.83,195.5c.06-1.18.11-2.36.16-3.54.07-1.46.36-3.23,1.73-3.71a2.53,2.53,0,0,1,2.7,1,7.35,7.35,0,0,1,1.09,2.87c.68,3,1.75,6.18,2.43,9.16"/><path class="cls-18" d="M227.41,202.14c6,.28,14,.11,20-.13-.08-1.5.14-3.44.06-4.94,0,0-13.63,1.41-19.9,2"/><path class="cls-34" d="M175.53,191.39c3.88,2.11,6.52,4.53,9,6.24"/><path class="cls-34" d="M177.89,186.7c3.43,2,8,4.69,10.63,7.63"/><path class="cls-34" d="M182.51,184.11a44.24,44.24,0,0,1,9.34,7.37"/><path class="cls-35" d="M280.31,432.39s.4,8.33,2.49,8.66,24.11,2.22,32.17-.53c0,0,2.15-7.12,0-8.94S281,430.44,280.31,432.39Z"/><path class="cls-35" d="M225.29,432.39s.4,8.33,2.48,8.66,24.12,2.22,32.17-.53c0,0,2.15-7.12,0-8.94S226,430.44,225.29,432.39Z"/><path class="cls-29" d="M281.92,241.58a2.28,2.28,0,1,1-2.28-2.29A2.28,2.28,0,0,1,281.92,241.58Z"/><path class="cls-30" d="M284.66,235.53s3.06,17.4-.32,29.46"/><path class="cls-30" d="M257.48,241.24s-3.5,13-20.89,11.82"/><path class="cls-30" d="M297.44,238.69S300.73,250,310.8,249"/><path class="cls-29" d="M299.78,464.8c5.85,0,4.1-5.22,8.61-5.49,8.79-.54,21.59,4.93,25.72,15H290.17V461c0-.87.72-1.49,1.4-1.18C293.17,460.52,293.56,464.8,299.78,464.8Z"/><rect class="cls-36" x="290.17" y="474.64" width="43.94" height="4.27"/><line class="cls-30" x1="314.57" y1="460.2" x2="312.14" y2="463.62"/><line class="cls-30" x1="317.03" y1="460.75" x2="314.57" y2="464.48"/><path class="cls-30" d="M313.91,457.77c0,1.66-2.37,3.35-2.37,3.35s-2.36-1.69-2.36-3.35,1.06-3,2.36-3S313.91,456.11,313.91,457.77Z"/><path class="cls-30" d="M247.35,462.16c-1,1.29-3.95,1.08-3.95,1.08s-.76-2.8.3-4.09,2.73-1.65,3.74-.82S248.41,460.87,247.35,462.16Z"/><path class="cls-30" d="M242.24,459.23c1.33,1,1.25,3.9,1.25,3.9s-2.77.88-4.1-.12-1.77-2.67-1-3.71S240.91,458.22,242.24,459.23Z"/><path class="cls-30" d="M308.1,458.75c1.66-.07,3.44,2.23,3.44,2.23s-1.58,2.43-3.24,2.5-3.06-.93-3.11-2.24S306.44,458.82,308.1,458.75Z"/><path class="cls-29" d="M253.36,474.64h-19.9v-2.41a10,10,0,0,1,9.95-10h0a9.94,9.94,0,0,1,10,10Z"/><rect class="cls-37" x="233.46" y="474.64" width="19.9" height="4.27"/><path d="M393.22,198.62a11.64,11.64,0,1,1,6.22-15.25A11.65,11.65,0,0,1,393.22,198.62Zm-8.56-20.32a10.41,10.41,0,1,0,13.63,5.55A10.41,10.41,0,0,0,384.66,178.3Z"/><path class="cls-38" d="M453.85,199a1.53,1.53,0,0,1-2.06,2l-2.47-1.22-36.93,20.17-7.05,12.84-33.12-26,36.85-42.1,24.58,16.56-10.71,19.49,22.71-9.08.73-3.13a1.29,1.29,0,0,1,1.69-.93,1.21,1.21,0,0,1,.73.66c.11.22.21.46.32.7Z"/><g class="cls-39"><path class="cls-40" d="M449.12,189l-1.05-1.36,1.3,9.31-33.59,16.86,17.87-32.53-29.39,44.84-32-19.29,33.11,26,7.06-12.85,36.93-20.17,2.47,1.22a1.53,1.53,0,0,0,2.06-2Z"/></g><g class="cls-41"><path class="cls-42" d="M422,202.47l24.73-9.94.72-3.13a1.26,1.26,0,0,1,1.42-1l-.09-.19a1.21,1.21,0,0,0-.73-.66,1.29,1.29,0,0,0-1.69.93l-.73,3.13L423,200.72Z"/><polygon class="cls-42" points="409.07 164.68 372.22 206.78 373.33 207.65 409.07 164.68"/></g><path d="M429.47,189.52a.65.65,0,0,1-.6-.07l-25.65-17.7a.62.62,0,0,1-.16-.86.63.63,0,0,1,.87-.16l25.65,17.7a.64.64,0,0,1,.16.87A.71.71,0,0,1,429.47,189.52Z"/><path class="cls-43" d="M385.31,198.42a65.41,65.41,0,0,1,5.28-7.16,62.21,62.21,0,0,1,6.11-6.47.62.62,0,0,1,.88,0,.64.64,0,0,1,.07.75,63.22,63.22,0,0,1-5.28,7.16,67.91,67.91,0,0,1-6.11,6.48.62.62,0,0,1-.88-.05A.63.63,0,0,1,385.31,198.42Z"/><path class="cls-43" d="M400.21,182.34a1.11,1.11,0,0,1-2,.86,1.11,1.11,0,0,1,2-.86Z"/><path class="cls-43" d="M412.53,169.59l-2.16-1.7,0,0a.77.77,0,0,0-1.08.19l-1.71,2.45a.61.61,0,0,0,.08.81.63.63,0,0,0,.88,0l1.56-1.66,1.79,1a.63.63,0,0,0,.79-.16A.62.62,0,0,0,412.53,169.59Z"/><path class="cls-43" d="M432.41,200a37.35,37.35,0,0,1,3.57-1.81,29.15,29.15,0,0,1,3.75-1.41.62.62,0,0,1,.77.43.62.62,0,0,1-.27.7,28.54,28.54,0,0,1-3.57,1.82,37.49,37.49,0,0,1-3.75,1.41.63.63,0,0,1-.78-.43A.63.63,0,0,1,432.41,200Z"/><path class="cls-43" d="M443.08,196a.88.88,0,0,1-.46,1.13.86.86,0,1,1,.46-1.13Z"/><path class="cls-44" d="M381.93,179.52s-7,4.28-7,5.88a1.58,1.58,0,0,0,1.54,1.65s-1.91,1.36-.6,2.59,1.41,1.11,1.41,1.11-1.31,1.34.6,3c0,0-.4,2.14,1.39,2.75s7.27-6,7.27-6Z"/><path class="cls-18" d="M382.41,178.85s-7,4.28-7,5.88a1.58,1.58,0,0,0,1.54,1.65s-1.92,1.36-.61,2.6,1.41,1.11,1.41,1.11c.07,1.88.55,2.14,2.4,1.91,0,0-.41,2.14,1.38,2.74s5.49-4.88,5.49-4.88Z"/><line class="cls-20" x1="377.36" y1="186.27" x2="383.65" y2="182.23"/><line class="cls-20" x1="378.8" y1="189.54" x2="385.79" y2="184.72"/><line class="cls-20" x1="380.87" y1="191.59" x2="385.94" y2="188.28"/><path class="cls-45" d="M461.07,185.6c1.06.05,2.1.06,3.14.19-.73,0-1.47.07-2.2.11a19.58,19.58,0,0,1,2.86.23,25.21,25.21,0,0,1,2.9.51,24.79,24.79,0,0,1,12,6.22L481,194c.37.42.73.86,1.09,1.3a22.31,22.31,0,0,1,2,2.8,33.48,33.48,0,0,1,1.57,3.11,30.9,30.9,0,0,1,1.06,3.38c.17.89.39,1.78.49,2.67s.13,1.8.18,2.7c0,1.42,0,2.83,0,4.25,0,2.82,0,5.63,0,8.43,0,5.6,0,11.18.16,16.75,0,1.08.17,1.9.35,1.81a3.82,3.82,0,0,0,.3-2c0-8.38.06-16.81.26-25.12,0-1,.06-2.07.08-3.11l0-.77c0-.25,0-.66,0-1l-.08-2a27,27,0,0,0-2-8,27.82,27.82,0,0,0-10.33-12.47c-.82-.54-1.61-1-2.48-1.51A20.6,20.6,0,0,0,460,183c-.73.15-1.42.31-2,.47a11,11,0,0,0-1.62.62,5.36,5.36,0,0,0-1.82,1.11c-.2.3-.12.52.19.64a5.82,5.82,0,0,0,1.95.1l1.54-.1,1.88,0c.34,0,.68,0,1,0l1.12.06a20.45,20.45,0,0,1,2.41.18,10.41,10.41,0,0,0-1.75-.26Z"/><path class="cls-45" d="M461.33,189.79c.88.06,1.74.08,2.59.19-.6,0-1.21.08-1.82.12a15.45,15.45,0,0,1,2.36.21,20.35,20.35,0,0,1,2.39.43,20.64,20.64,0,0,1,10,5.09l1,1,.91,1.07a18.22,18.22,0,0,1,1.65,2.31,28,28,0,0,1,1.31,2.56,25.55,25.55,0,0,1,.89,2.81c.14.74.33,1.47.41,2.21l.16,2.25c0,1.42,0,2.83,0,4.24q0,4.23,0,8.43c0,5.6,0,11.18.16,16.75,0,1.08.17,1.9.35,1.81a3.82,3.82,0,0,0,.3-2c0-8.38.06-16.81.26-25.12,0-2.09.17-4.05,0-6.46a22.37,22.37,0,0,0-1.61-6.72A23.48,23.48,0,0,0,474,190.33c-.68-.46-1.35-.85-2.08-1.31a19.18,19.18,0,0,0-2.68-1.22,18.13,18.13,0,0,0-8.88-.62c-.62.14-1.2.28-1.72.43a8.72,8.72,0,0,0-1.36.56,4.25,4.25,0,0,0-1.53,1c-.4.61.3.83,1.87.82l1.29-.05c.48,0,1,0,1.56,0,.28,0,.57,0,.87,0l.92.07a17.38,17.38,0,0,1,2,.16,8.66,8.66,0,0,0-1.44-.24Z"/><path class="cls-45" d="M461.59,194c.69.08,1.37.09,2.05.19-.48,0-1,.1-1.44.12a11.5,11.5,0,0,1,1.86.2,18.45,18.45,0,0,1,1.87.34,16.56,16.56,0,0,1,7.91,4,15,15,0,0,1,4.64,7.66c.11.59.27,1.17.34,1.76L479,210c0,1.41,0,2.82,0,4.23,0,2.82,0,5.63,0,8.43,0,5.6,0,11.18.16,16.75,0,1.08.17,1.9.35,1.81a3.82,3.82,0,0,0,.3-2c0-8.38.06-16.81.26-25.12.05-2.06.15-4.21.06-6a18.43,18.43,0,0,0-1.26-5.43,19.25,19.25,0,0,0-6.91-8.7c-.56-.39-1.1-.72-1.68-1.11a15.16,15.16,0,0,0-2.19-1,14.09,14.09,0,0,0-7.25-.46l-1.4.38a6.26,6.26,0,0,0-1.1.51,3.52,3.52,0,0,0-1.24.95c-.4.61.37.82,1.6.9.31,0,.65,0,1,0s.8.05,1.24.05c.22,0,.45,0,.69,0l.73.07a12.29,12.29,0,0,1,1.55.15,5.53,5.53,0,0,0-1.13-.23Z"/><path class="cls-45" d="M461.85,198.18c.51.08,1,.09,1.5.18-.35,0-.7.11-1.05.13a8.6,8.6,0,0,1,1.35.18,13.54,13.54,0,0,1,1.36.26,12.24,12.24,0,0,1,5.86,2.84,10.86,10.86,0,0,1,3.51,5.6c.07.44.21.87.26,1.31s.06.9.11,1.35c0,1.41,0,2.82,0,4.22q0,4.23,0,8.43c0,5.6,0,11.18.16,16.75,0,1.08.17,1.9.35,1.81a3.82,3.82,0,0,0,.3-2c0-8.38.06-16.81.26-25.12,0-1,.06-2.07.08-3.11l0-.77a5,5,0,0,0,0-.58v-1.08a14,14,0,0,0-.9-4.15,15.09,15.09,0,0,0-5.2-6.81l-1.29-.91a11.9,11.9,0,0,0-1.68-.84,10.19,10.19,0,0,0-5.63-.3l-1.08.34a4.24,4.24,0,0,0-.85.45,2.78,2.78,0,0,0-.94.87c-.2.3-.12.52.19.64a3.62,3.62,0,0,0,1.13.33c.24,0,.51,0,.79.06a9.13,9.13,0,0,0,.93.1c.17,0,.34,0,.51,0l.53.08a9.49,9.49,0,0,1,1.14.13,4,4,0,0,0-.83-.21Z"/><path class="cls-7" d="M485.93,320.11s-12.35-6.3-13.56-30.26,8-40.19,8-40.19,15.37,5.75,16.7,21.54C499.73,302.68,485.93,320.11,485.93,320.11Z"/><path class="cls-7" d="M473.1,339.47s1.21-16.22-7-25.42-18.16-15-21.31-21.78-2.9-9.93-2.9-9.93-10.41,25.9-.49,44.79S473.1,339.47,473.1,339.47Z"/><path class="cls-7" d="M497.79,333.66s-4.36-5.56,1.7-19.61S514,292.51,514,292.51s.49,5.32-2.18,16.22l-2.66,10.89Z"/><path class="cls-7" d="M504.09,328.58s5.08-9.2,15.25-11.38,14.52-.24,14.52-.24-6.78,8.71-14.28,11.14S504.09,328.58,504.09,328.58Z"/><path class="cls-7" d="M502.87,364.41s-1.45-14.28,13.32-26.87,25.9-21.06,25.9-21.06,4.85,12.1-3.39,27.11S522.48,363,515,364.41,502.87,364.41,502.87,364.41Z"/><path class="cls-7" d="M473.58,376.27s-1.93-11.13-9.44-17.67-12.35-2.18-20.09-4.6-10.9-4.6-10.9-4.6-.24,16,11.62,27.36S468,386.44,473.58,376.27Z"/><path class="cls-4" d="M487.16,277.9s-1.57.26-1.83,7,.26,28.12-1,41.66-3.12,40.09-6,50.5-8.33,97.8-8.59,101.44,22.9.52,28.11.78,8.33,2,8.33-.08-13-89.91-15.62-105.27-1.82-46.07-1.3-57.53S487.16,277.9,487.16,277.9Z"/><path class="cls-4" d="M487.23,344.63S509.88,316.4,513,315c1.18-.53-26.33,36.67-26.37,35.11A42.82,42.82,0,0,1,487.23,344.63Z"/><path class="cls-4" d="M452.79,318.25s12.24,9.63,17.45,16.4,13.53,16.92,13.53,16.92l-1,6.24S470.8,340,467.37,335.69C460.6,327.1,452.27,319.81,452.79,318.25Z"/><path class="cls-4" d="M490,379.68s14.44-18.13,22-25.68,13.15-13.37,14.46-13.37-16.93,18.75-22.91,26.56a148.72,148.72,0,0,0-10.94,16.92Z"/><path class="cls-4" d="M450.77,363.61s11.23,3.57,18.2,8.2,10.43,7.51,10.43,7.51l-1,3.42s-4.11-5.17-13.83-10.66C458.93,368.93,450.7,364.53,450.77,363.61Z"/><path class="cls-3" d="M508.05,111.37H360.52a9.64,9.64,0,0,1-9.63-9.28V102A32.13,32.13,0,0,1,378,70.29a46.36,46.36,0,0,1,87.88,6c.22,0,.47,0,.73,0a25.76,25.76,0,0,1,22.13,12.6A19.76,19.76,0,0,1,501.2,86.3,20.22,20.22,0,0,1,516.86,98a1.86,1.86,0,0,0,.1.25C519.73,104.39,514.84,111.37,508.05,111.37Z"/><path class="cls-3" d="M498.34,158h83a5.13,5.13,0,0,0,1.67-.27,5.31,5.31,0,0,0,3.75-5v-.05a18.09,18.09,0,0,0-15.23-17.85,26.1,26.1,0,0,0-49.47,3.36l-.41,0a14.53,14.53,0,0,0-12.46,7.09,11.1,11.1,0,0,0-7-1.42,11.38,11.38,0,0,0-8.81,6.56.78.78,0,0,0-.05.14A5.37,5.37,0,0,0,498.34,158Z"/><line class="cls-46" x1="47.33" y1="481.04" x2="702.67" y2="481.04"/><path class="cls-4" d="M53.27,151.73c-7.75.34-15.66,3.17-20.76,9s-6.73,14.95-2.7,21.57c7.53,1.87,15.77-2.74,19.82-9.35S55.26,159.22,53.27,151.73Z"/><path class="cls-8" d="M53.31,151.49c-7.82,11.88-20.12,20.68-26.09,33.59"/><path class="cls-8" d="M45.19,153.89l.63,6.85c2.44-.12,4.55,0,7-.15"/><path class="cls-8" d="M36.09,158.26l1.83,7.53a8.26,8.26,0,0,0,.89,2.48c3.79.13,8,.57,11.81.31"/><path class="cls-8" d="M30.22,168.82a43.8,43.8,0,0,1,2.07,7.28,44.3,44.3,0,0,0,9.35.12"/><path class="cls-4" d="M178,92c5.66.25,11.44,2.32,15.16,6.59s4.92,10.92,2,15.75c-5.49,1.37-11.51-2-14.47-6.83S176.52,97.49,178,92Z"/><path class="cls-47" d="M178,91.84c5.71,8.68,14.7,15.1,19.06,24.53"/><path class="cls-47" d="M183.88,93.59c-.15,1.67-.31,3.34-.46,5-1.78-.08-3.32,0-5.11-.1"/><path class="cls-47" d="M190.53,96.78c-.45,1.84-.89,3.67-1.34,5.51a6.13,6.13,0,0,1-.65,1.81c-2.77.09-5.86.41-8.63.22"/><path class="cls-47" d="M194.81,104.5a32.61,32.61,0,0,0-1.51,5.32,31.75,31.75,0,0,1-6.82.08"/><path class="cls-4" d="M671.54,55c-7.75.34-15.65,3.18-20.75,9s-6.74,14.94-2.7,21.56c7.52,1.88,15.76-2.73,19.81-9.35S673.53,62.48,671.54,55Z"/><path class="cls-8" d="M671.58,54.74c-7.81,11.89-20.12,20.68-26.09,33.59"/><path class="cls-8" d="M663.46,57.14l.63,6.85c2.44-.12,4.55,0,7-.14"/><path class="cls-8" d="M654.37,61.51c.6,2.51,1.21,5,1.82,7.54a8.2,8.2,0,0,0,.89,2.47c3.79.13,8,.57,11.81.31"/><path class="cls-8" d="M648.5,72.07a45.07,45.07,0,0,1,2.07,7.28,44.19,44.19,0,0,0,9.34.12"/><path class="cls-4" d="M65,55.31c.72,4.1-3.31,9.47-5.56,13.41s-4.88,7.7-5.67,12.12c-1.23,6.77,2.72,14,9.62,15.68a12.69,12.69,0,0,0,9.11-1.3c2.65-1.5,4-4.6,4.79-7.43"/><path class="cls-4" d="M65,55.31c2.21,3.91,8.61,5.39,12.78,7s8.59,3,12,6c5.07,4.49,6.43,12.27,2.35,17.85-3.63,5-10.83,7.3-16.08,3.43"/><path class="cls-8" d="M65.11,56.07c5.37,15.23,8,29.13,17,41.71"/><path class="cls-8" d="M70.44,61.16l-2.06,6.27A44.89,44.89,0,0,1,63,65.31"/><polyline class="cls-8" points="57.81 76.74 72.09 77.19 78.22 65.89"/><path class="cls-8" d="M57.71,86.2c5.35.55,18.58.32,18.58.32s7.46-10.36,11.15-15.68"/><path class="cls-4" d="M544.37,198.27c.42,2.42-2,5.58-3.28,7.89s-2.86,4.54-3.33,7.13c-.72,4,1.6,8.26,5.66,9.23a7.47,7.47,0,0,0,5.36-.76c1.56-.89,2.36-2.71,2.82-4.37"/><path class="cls-4" d="M544.37,198.27c1.3,2.3,5.06,3.18,7.52,4.15s5.05,1.79,7,3.53a7.91,7.91,0,0,1,1.38,10.5c-2.14,2.93-6.37,4.3-9.46,2"/><path class="cls-48" d="M544.42,198.72c3.15,9,4.69,17.14,10,24.55"/><path class="cls-48" d="M547.55,201.72l-1.21,3.69a27.66,27.66,0,0,1-3.16-1.25"/><polyline class="cls-48" points="540.12 210.89 548.52 211.15 552.13 204.5"/><path class="cls-48" d="M540.06,216.45c3.15.32,10.93.19,10.93.19s4.39-6.1,6.57-9.23"/><path class="cls-4" d="M455.72,44.47c-.54,3.11,2.51,7.18,4.22,10.16s3.69,5.84,4.3,9.19c.93,5.14-2.07,10.63-7.3,11.89a9.6,9.6,0,0,1-6.9-1c-2-1.14-3.05-3.48-3.63-5.63"/><path class="cls-4" d="M455.72,44.47c-1.67,3-6.52,4.09-9.68,5.34s-6.52,2.3-9.07,4.55c-3.84,3.4-4.87,9.31-1.78,13.53,2.76,3.76,8.21,5.54,12.19,2.6"/><path class="cls-49" d="M455.66,45c-4.07,11.55-6.05,22.09-12.89,31.63"/><path class="cls-49" d="M451.62,48.9l1.56,4.76a34.77,34.77,0,0,0,4.07-1.61"/><polyline class="cls-49" points="461.19 60.72 450.37 61.05 445.72 52.48"/><path class="cls-49" d="M461.27,67.89c-4,.41-14.09.24-14.09.24s-5.65-7.85-8.45-11.89"/><path class="cls-4" d="M710.53,269c-.54,3.11,2.51,7.18,4.22,10.16s3.69,5.84,4.29,9.19c.93,5.14-2.06,10.63-7.29,11.89a9.63,9.63,0,0,1-6.91-1c-2-1.14-3-3.48-3.62-5.63"/><path class="cls-4" d="M710.53,269c-1.68,3-6.53,4.09-9.69,5.34s-6.51,2.3-9.06,4.55A10.19,10.19,0,0,0,690,292.38c2.76,3.76,8.21,5.54,12.19,2.6"/><path class="cls-49" d="M710.47,269.53c-4.07,11.55-6.05,22.08-12.9,31.62"/><path class="cls-49" d="M706.43,273.39l1.56,4.75a30.89,30.89,0,0,0,4.06-1.61"/><polyline class="cls-49" points="716 285.21 705.18 285.54 700.53 276.97"/><path class="cls-49" d="M716.08,292.38c-4.05.41-14.09.24-14.09.24s-5.65-7.86-8.45-11.89"/></g></g></svg>