<svg xmlns="http://www.w3.org/2000/svg" xmlns:xlink="http://www.w3.org/1999/xlink" viewBox="0 0 750 500"><defs><style>.cls-1,.cls-10,.cls-28,.cls-30,.cls-34,.cls-35,.cls-38,.cls-39,.cls-41,.cls-42,.cls-44,.cls-45,.cls-47,.cls-48,.cls-50,.cls-51,.cls-56,.cls-57,.cls-59,.cls-6,.cls-60,.cls-8,.cls-9{fill:none;}.cls-2{isolation:isolate;}.cls-3{fill:#d0e8cf;}.cls-16,.cls-22,.cls-3,.cls-54{opacity:0.6;}.cls-12,.cls-20,.cls-4{fill:#fff;}.cls-4{opacity:0.45;}.cls-5{fill:#85996a;}.cls-10,.cls-28,.cls-34,.cls-35,.cls-38,.cls-39,.cls-41,.cls-42,.cls-44,.cls-45,.cls-47,.cls-48,.cls-50,.cls-51,.cls-56,.cls-57,.cls-6,.cls-8,.cls-9{stroke:#677559;}.cls-10,.cls-30,.cls-34,.cls-35,.cls-38,.cls-39,.cls-41,.cls-42,.cls-44,.cls-45,.cls-47,.cls-48,.cls-50,.cls-51,.cls-56,.cls-57,.cls-59,.cls-6,.cls-60,.cls-8,.cls-9{stroke-linecap:round;stroke-linejoin:round;}.cls-6{stroke-width:1.42px;}.cls-11,.cls-7{fill:#a59f50;}.cls-8{stroke-width:1.22px;}.cls-9{stroke-width:1.48px;}.cls-10{stroke-width:2.04px;}.cls-11,.cls-16,.cls-17,.cls-19,.cls-21,.cls-22,.cls-23,.cls-25,.cls-31,.cls-32,.cls-56,.cls-57,.cls-61{mix-blend-mode:multiply;}.cls-11,.cls-25,.cls-32,.cls-61{opacity:0.3;}.cls-13,.cls-14{fill:#d1b662;}.cls-13{opacity:0.7;}.cls-15,.cls-16,.cls-17,.cls-32{fill:#a6904e;}.cls-17,.cls-19,.cls-20{opacity:0.2;}.cls-18,.cls-19,.cls-21,.cls-22,.cls-23,.cls-25,.cls-31{fill:#a1bba0;}.cls-21{opacity:0.4;}.cls-23{opacity:0.15;}.cls-24{fill:#768474;}.cls-26{fill:#677559;}.cls-27{clip-path:url(#clip-path);}.cls-28{stroke-miterlimit:10;stroke-width:2.42px;}.cls-29{clip-path:url(#clip-path-2);}.cls-30{stroke:#5b664f;stroke-width:2.65px;}.cls-31{opacity:0.5;}.cls-33{clip-path:url(#clip-path-3);}.cls-34{stroke-width:1.16px;}.cls-35{stroke-width:0.89px;}.cls-36{clip-path:url(#clip-path-4);}.cls-37{clip-path:url(#clip-path-5);}.cls-38{stroke-width:1.51px;}.cls-39{stroke-width:1.16px;}.cls-40{clip-path:url(#clip-path-6);}.cls-41{stroke-width:1.35px;}.cls-42{stroke-width:1.04px;}.cls-43{clip-path:url(#clip-path-7);}.cls-44{stroke-width:1.08px;}.cls-45{stroke-width:0.83px;}.cls-46{clip-path:url(#clip-path-8);}.cls-47{stroke-width:0.95px;}.cls-48{stroke-width:0.73px;}.cls-49{clip-path:url(#clip-path-9);}.cls-50{stroke-width:1.2px;}.cls-51{stroke-width:0.92px;}.cls-52{clip-path:url(#clip-path-10);}.cls-53{clip-path:url(#clip-path-11);}.cls-55{clip-path:url(#clip-path-12);}.cls-56{stroke-width:0.74px;}.cls-57{stroke-width:0.49px;}.cls-58,.cls-61{fill:#f2c7bd;}.cls-59,.cls-60{stroke:#eaa698;}.cls-59{stroke-width:2.21px;}.cls-60{stroke-width:0.94px;}</style><clipPath id="clip-path"><path class="cls-1" d="M594.06,164.74c.24,0,.79-1.77,1.24-4.07s.6-4.19.36-4.24a5.66,5.66,0,0,0-2.8,3.77A5.58,5.58,0,0,0,594.06,164.74Z"/></clipPath><clipPath id="clip-path-2"><path class="cls-1" d="M622.59,170.25c-.24-.05-.08-1.95.36-4.24s1-4.12,1.24-4.07a5.58,5.58,0,0,1,1.2,4.54A5.66,5.66,0,0,1,622.59,170.25Z"/></clipPath><clipPath id="clip-path-3"><path class="cls-1" d="M333.49,244.14a15.39,15.39,0,0,0-10.8-8.94c-5.58-1.18-11.33.85-16.42,3.42,2.36.5,4.76,2.49,6.59,4.06,1.5,1.29,2.74,2.88,4.4,4a11.49,11.49,0,0,0,3.71,1.52C325.19,249.14,330.49,247.11,333.49,244.14Z"/></clipPath><clipPath id="clip-path-4"><path class="cls-1" d="M409.46,230.76a15.39,15.39,0,0,1,12.72-5.91c5.7.26,10.74,3.69,15,7.46-2.41-.12-5.24,1.21-7.41,2.26a45,45,0,0,1-5.25,2.72,11.37,11.37,0,0,1-4,.53C416.23,237.7,411.62,234.39,409.46,230.76Z"/></clipPath><clipPath id="clip-path-5"><path class="cls-1" d="M354.12,332.23A20.08,20.08,0,0,1,336.9,326c-5-5.49-6.55-13.3-7-20.73,2.12,2.32,5.95,3.7,8.93,4.72,2.44.84,5.06,1.17,7.37,2.32a14.82,14.82,0,0,1,4.17,3.17C354.25,319.58,355.47,326.88,354.12,332.23Z"/></clipPath><clipPath id="clip-path-6"><path class="cls-1" d="M420.23,278.92a17.92,17.92,0,0,0,13.56-9.11c3.17-5.84,2.8-12.93,1.62-19.47-1.34,2.47-4.36,4.49-6.72,6-1.93,1.25-4.12,2.11-5.88,3.59a13.24,13.24,0,0,0-2.92,3.65C417.39,268,417.91,274.57,420.23,278.92Z"/></clipPath><clipPath id="clip-path-7"><path class="cls-1" d="M379.48,198.29a14.41,14.41,0,0,0,10.73-7.52c2.44-4.74,2-10.42,1-15.64-1,2-3.43,3.67-5.29,4.93a43.92,43.92,0,0,0-4.66,3,10.65,10.65,0,0,0-2.28,3C377,189.58,377.55,194.85,379.48,198.29Z"/></clipPath><clipPath id="clip-path-8"><path class="cls-1" d="M379.68,198.22a12.56,12.56,0,0,1-10.7-4.09c-3.09-3.49-4-8.39-4.18-13,1.3,1.47,3.69,2.38,5.54,3a38,38,0,0,1,4.59,1.53,9.49,9.49,0,0,1,2.57,2C379.89,190.3,380.58,194.88,379.68,198.22Z"/></clipPath><clipPath id="clip-path-9"><path class="cls-1" d="M428.09,294.07a15.94,15.94,0,0,1,13.16-6.15c5.91.27,11.14,3.81,15.58,7.71-2.5-.12-5.43,1.26-7.67,2.36-1.84.89-3.5,2.17-5.44,2.82a11.73,11.73,0,0,1-4.12.55C435.11,301.25,430.33,297.83,428.09,294.07Z"/></clipPath><clipPath id="clip-path-10"><path class="cls-1" d="M339.34,228.36A15.93,15.93,0,0,1,328,219.29c-2.38-5.41-1.53-11.67,0-17.38,1,2.29,3.54,4.3,5.51,5.83,1.62,1.25,3.5,2.17,4.95,3.62a11.7,11.7,0,0,1,2.32,3.45C342.66,218.89,341.72,224.68,339.34,228.36Z"/></clipPath><clipPath id="clip-path-11"><path class="cls-1" d="M402.74,215.86a15.94,15.94,0,0,0,11.39-9c2.41-5.39,1.58-11.66.08-17.37-1,2.28-3.55,4.28-5.54,5.8-1.62,1.24-3.51,2.16-5,3.6a11.86,11.86,0,0,0-2.34,3.43C399.46,206.37,400.38,212.17,402.74,215.86Z"/></clipPath><clipPath id="clip-path-12"><path class="cls-1" d="M410.48,299c4.65-.73,18.58-4,18.58-4l-.08-1.7s-9.55.42-15.58.84c6-10.11,9.14-16,9.14-16l-2.46-1.7s-14.33,19.51-35.31,50.83c-.37-26.79-.9-49.49-1.49-76.28,3.62-5.69,6.81-10.85,9.56-15.39,4.64-.72,18.57-4,18.57-4l-.07-1.69s-9.55.41-15.59.83c6-10.11,9.15-16,9.15-16L402.44,213S395,223.1,383,240.42c-.29-13.09-.59-30.27-.88-43.37l-5.55-.11c-.18,26.72-.55,53.44-.86,80.16-21.14-31.56-35.6-51.24-35.6-51.24l-2.46,1.7s3.14,5.91,9.14,16c-6-.42-15.58-.84-15.58-.84l-.08,1.7s13.93,3.28,18.58,4c6.31,10.43,15,24.21,25.87,40q-.28,26.94-.36,53.87c-8.91-5.47-22-13.07-22-13.07l-1.48,2.52s15.86,13.8,23.45,19.76c0,13.73.17,25.19.4,38.91l3.16-1.47,3.84,1.12.86-.79,1.7-.22c0-18.09-.11-32.42-.32-50.51C395.64,323,404.23,309.35,410.48,299Z"/></clipPath></defs><g class="cls-2"><g id="BACKGROUND"><rect class="cls-3" width="750" height="500"/><path class="cls-4" d="M717,405.24V449C717,435.19,564.79,424,377,424S37,435.19,37,449V414.69C37,378.22,44.19,340,67.7,311.18c10-12.32,22.22-22.85,31.62-35.68,32.11-43.82,29.35-110.4,72.08-144,34.88-27.39,85.61-20.67,126.13-38.71,23.41-10.42,42.31-28.62,63.51-43,22.45-15.25,48.2-26.42,75.24-28.69s55.45,5,75.88,22.9c19.49,17,30.3,41.88,47.43,61.29,25.49,28.87,65.15,46.18,80.44,81.53,14.15,32.72,3.1,72.27,17.62,104.84,8.81,19.74,25.88,34.32,39.81,50.86S717,381.62,717,405.24Z"/></g><g id="OBJECTS"><path class="cls-5" d="M566.24,399.94c-1.2-11.56-13.17-20.84-24.67-19.11a19.07,19.07,0,0,0-21.11-25.36,23.6,23.6,0,0,0-45,3.87,15.59,15.59,0,0,0-20.75,18.16,13.14,13.14,0,0,0-17.93,16.35c-8.6-.48-13.56,9.93-13.78,18.53-4.77-2.47-11.12,1.68-13.28,6.6s-1.25,10.65.37,15.77h156Z"/><path class="cls-6" d="M490.49,400.63c-1.78,5.52-9.44,8.1-14.19,4.77-3-2.08-4.45-5.68-5.31-9.19A9.75,9.75,0,0,1,453.14,390"/><path class="cls-6" d="M528.54,375.53a9.75,9.75,0,0,0-16.38-6.62,12,12,0,0,0-18.64-3.36"/><path class="cls-7" d="M211.06,408.46c1-10,11.35-18,21.26-16.48a16.43,16.43,0,0,1,18.2-21.86,20.35,20.35,0,0,1,38.76,3.33,13.44,13.44,0,0,1,17.89,15.66,11.33,11.33,0,0,1,15.46,14.1c7.41-.42,11.69,8.55,11.88,16,4.11-2.14,9.59,1.44,11.45,5.69s1.07,9.17-.32,13.59H211.12Z"/><path class="cls-8" d="M276.36,409.05c1.53,4.76,8.14,7,12.23,4.11,2.55-1.79,3.84-4.89,4.58-7.92a8.41,8.41,0,0,0,15.39-5.35"/><path class="cls-8" d="M243.55,387.41a8.42,8.42,0,0,1,14.13-5.71,10.35,10.35,0,0,1,16.07-2.89"/><path class="cls-5" d="M58.08,443.24a16.7,16.7,0,0,1,15-28.27,20.14,20.14,0,0,1,28.46-27,20.14,20.14,0,0,1,39.35-3.17A17.08,17.08,0,0,1,169,402.54c9.1-3.62,20.42,5.68,18.63,15.3,18,.35,18.73,18.57,17.31,25.4Z"/><path class="cls-9" d="M72.75,433.21a7.13,7.13,0,0,1,.4-9,9.3,9.3,0,0,1,9-2.52,7.55,7.55,0,0,1,7.38-12.18"/><path class="cls-9" d="M150.53,404.5a5.35,5.35,0,0,1,9.56,4.74,5.86,5.86,0,0,1,8.56,7.51"/><path class="cls-7" d="M550.81,388.81a17.91,17.91,0,0,1,11.35,1.34,22.8,22.8,0,0,1,33-26.45c1.82-10,13.71-16,23.64-13.7s17.41,10.92,21.08,20.42a22.34,22.34,0,0,1,34.94,21.72,17.76,17.76,0,0,1,12.75,29.46c8,1.15,16.39,6.8,13.57,21.76L533.64,432.05l.9-23.75C535,398.9,541.57,390.62,550.81,388.81Z"/><path class="cls-10" d="M667.17,417.12c3.82-2.89,3.32-9.28-.06-12.68s-8.56-4.29-13.34-4c4.34-3.55,3.78-11.45-1-14.35-3.62-2.19-8.25-1.52-12.33-.41"/><path class="cls-10" d="M557.09,416.85a10.82,10.82,0,0,1,16.67-11.6c.39-9.05,6.24-14.57,15.77-12"/><path class="cls-11" d="M614.15,392.84c-2.3,11.08-4.78,22.22-9.45,32.48a55.92,55.92,0,0,1-6.36,11.1l-32.18-2.17v.5H518.79a20.82,20.82,0,0,1-.8-4.26,414.05,414.05,0,0,1-.56-57.23,4.43,4.43,0,0,1,.72-2.59,4.36,4.36,0,0,1,3-1.15A120.67,120.67,0,0,1,542,369.1a19.26,19.26,0,0,1-.39,11.73c7.75-1.17,15.72,2.67,20.45,8.84a22.7,22.7,0,0,1,25.43-28.55q-1.31,10.14-3.21,20.18c8.9,1,17.68,3.67,26.41,5.93A4.8,4.8,0,0,1,614.15,392.84Z"/><path class="cls-11" d="M205,443l-103.42-3.29c1.41-9.37,6.55-18.68,4-27.83-1-3.63-3.13-6.84-5.17-10q-3.87-6-7.44-12.2a24.5,24.5,0,0,1-2.28-4.8A19.81,19.81,0,0,1,101.51,388a20.14,20.14,0,0,1,39.34-3.17A17.08,17.08,0,0,1,169,402.54c9.09-3.62,20.41,5.68,18.62,15.3C205.4,418.19,206.33,435.92,205,443Z"/><path class="cls-11" d="M259.58,360.06c-4.87,13.7-9.65,27.52-14.87,40.69-2.13,5.35-4.26,10.74-5.34,16.39-1.33,7-1,14.2-.33,21.33H211.11l-.06-30c1-10,11.35-18,21.26-16.48a16.43,16.43,0,0,1,18.21-21.86A20.5,20.5,0,0,1,259.58,360.06Z"/><ellipse class="cls-12" cx="377.01" cy="449.03" rx="340" ry="25.05"/><ellipse class="cls-13" cx="377.01" cy="449.03" rx="340" ry="25.05"/><path class="cls-14" d="M667.61,449c0,11.82-130.11,21.41-290.6,21.41S86.41,460.85,86.41,449,216.51,424,377,424,667.61,437.2,667.61,449Z"/><ellipse class="cls-15" cx="377.01" cy="450.41" rx="117.05" ry="8.63"/><path class="cls-16" d="M494.06,450.41c0,.89-1.84,1.75-5.24,2.57-14.79-3.52-59.25-6.07-111.82-6.07s-97,2.55-111.8,6.07c-3.4-.82-5.24-1.68-5.24-2.57,0-4.76,52.41-8.62,117-8.62S494.06,445.65,494.06,450.41Z"/><ellipse class="cls-17" cx="172.18" cy="449.12" rx="71.54" ry="7.7"/><path class="cls-18" d="M132.35,418.16l7.46-8.42A280.32,280.32,0,0,1,106,374c-6.5-8.2-16.91-25.57-14.74-38.68.86-5.15,3.61-9.16,8.42-12.26,9.29-6,28-4.59,34.47-3.55l1.16-12.06s-26.95-3.36-41.72,6.15c-7.53,4.85-12,11.54-13.43,19.88C76.67,354.41,95,378.33,97.15,381A291.81,291.81,0,0,0,132.35,418.16Z"/><path class="cls-19" d="M90.48,350.93a91.16,91.16,0,0,0,29.64,39.57q-7.41-8-14.15-16.5c-6.5-8.2-16.91-25.57-14.74-38.69.86-5.14,3.61-9.15,8.42-12.25,8.69-5.59,25.66-4.74,33.08-3.76-.28-1.87-.51-3.16-3.21-3.45a126.11,126.11,0,0,0-20.29-.12c-7.07.62-14.45,3.23-18.51,9C85.52,332.22,87.25,342.44,90.48,350.93Z"/><polygon class="cls-18" points="129.59 301.42 213.41 301.42 234.43 446.46 108.57 446.46 129.59 301.42"/><path class="cls-20" d="M138.17,308.45c5.87.63,5.14,12.89-1.89,12.23C131,320.2,131.74,307.76,138.17,308.45Z"/><path class="cls-20" d="M129.17,369.56c4,1.48,6-3.9,6.2-5.15a294.66,294.66,0,0,0,3.93-29.33c.17-1.68.86-7.39-3.73-8.23-3.76-.68-5,3.39-5.33,4.69a178.93,178.93,0,0,0-4.75,32.16C125.41,365.26,126,368.9,129.17,369.56Z"/><path class="cls-18" d="M108.58,446.48c0,3.53,28.17,6.4,62.92,6.4s62.93-2.87,62.93-6.4-28.18-6.41-62.93-6.41S108.58,442.94,108.58,446.48Z"/><polygon class="cls-18" points="216.17 382.57 259.24 307.85 254.8 296.83 279.59 306.88 268.18 310.56 228.06 426.14 216.17 382.57"/><path class="cls-18" d="M129.57,301.52c0,2.35,18.78,4.26,42,4.26s41.95-1.91,41.95-4.26-18.78-4.26-41.95-4.26S129.57,299.17,129.57,301.52Z"/><path class="cls-21" d="M129.57,301.52c0,2.35,18.78,4.26,42,4.26s41.95-1.91,41.95-4.26-18.78-4.26-41.95-4.26S129.57,299.17,129.57,301.52Z"/><path class="cls-22" d="M135.07,301.49c0,1.72,16.32,3.11,36.45,3.11S208,303.21,208,301.49s-16.32-3.11-36.45-3.11S135.07,299.77,135.07,301.49Z"/><path class="cls-18" d="M278.65,307.33a1.51,1.51,0,0,0,1.19-2.11c-.78-1.69-3.23-4.45-10.74-7.47s-11.25-2.88-13.18-2.34a1.53,1.53,0,0,0-.75,2.45c1.29,1.55,4.23,4.09,10.82,6.77C272.85,307.42,276.74,307.57,278.65,307.33Z"/><path class="cls-22" d="M278.65,307.33a1.51,1.51,0,0,0,1.19-2.11c-.78-1.69-3.23-4.45-10.74-7.47s-11.25-2.88-13.18-2.34a1.53,1.53,0,0,0-.75,2.45c1.29,1.55,4.23,4.09,10.82,6.77C272.85,307.42,276.74,307.57,278.65,307.33Z"/><path class="cls-22" d="M276,305.64a1.1,1.1,0,0,0,.89-1.54c-.58-1.23-2.43-3.24-8.07-5.43s-8.45-2.1-9.9-1.71a1.09,1.09,0,0,0-.56,1.78c1,1.13,3.17,3,8.12,4.93C271.65,305.7,274.57,305.81,276,305.64Z"/><path class="cls-23" d="M268.19,310.56,230.48,419.18l3.93,27.13a1,1,0,0,1,0,.17l-.5.81c-3.94,3.16-30.39,5.59-62.43,5.59-32.45,0-59.16-2.5-62.56-5.71v-1.4l0-2.09a87.91,87.91,0,0,1,9.08-1.12q3.15-.22,6.33-.33h.07c8.61-.31,17.26-.24,25.71-1.78.52-.08,1-.19,1.57-.3,19.06-3.9,36.38-17.48,42.73-35.87,3.42-9.91,3.69-20.74,7.5-30.52,3.31-8.51,9.14-15.78,13.4-23.85a74.72,74.72,0,0,0,3.84-8.53l4.16,28.71,35.87-62.24-4.43-11,24.78,10Z"/><path class="cls-24" d="M562.07,360.07a25.41,25.41,0,0,1,18,3.47l-10.49,6.91Z"/><path class="cls-18" d="M523.88,375.74c-.24,16.1-.71,31.53-1,47.64-.09,5.82-.11,11.89,2.49,17.1,2.48,4.95,7.05,8.49,11.69,11.51a112.79,112.79,0,0,0,14.77,8,112.76,112.76,0,0,0,16.69-2c5.43-1.07,11-2.66,15.14-6.34,4.35-3.86,6.59-9.51,8.67-14.94,5.78-15,11.08-29.54,16.85-44.58C589.91,384.65,544.62,375.91,523.88,375.74Z"/><path class="cls-19" d="M609.23,392.21c-.11.26-.21.54-.31.81-11.41,14.32-30.63,21.46-49.08,21.15-4.1-.06-8.21-.45-12.28,0-9.43,1.13-17.43,6.72-24.66,13.14,0-1.33,0-2.65,0-4,.24-16.11.71-31.53,1-47.64C544.62,375.91,589.91,384.65,609.23,392.21Z"/><path class="cls-25" d="M563.34,415.24s-3.63,9.58-4.44,9.42-.62-10.4-.62-10.4l5.91-30.59,5,1Z"/><rect class="cls-15" x="488.32" y="277.69" width="194.78" height="16.09" transform="translate(194.18 806.7) rotate(-79.08)"/><rect class="cls-26" x="589.64" y="194.05" width="24.41" height="16.09" transform="translate(289.39 754.75) rotate(-79.08)"/><path class="cls-26" d="M593.44,161.71l30.86,5.95c-2.94,14.26-5.39,24.53-20.88,25.26-14.11-6.44-12.56-16.88-10-31.21m-2-2.84c-2.75,15.36-5.8,28.92,11.46,36.49,18.83-.61,21-14.33,24.21-29.61l-35.67-6.88Z"/><path class="cls-14" d="M624.17,161.93c.25,0,.08,1.95-.36,4.24s-1,4.12-1.24,4.07l-28.52-5.5c-.24-.05-.08-1.94.37-4.24s1-4.12,1.24-4.07Z"/><path class="cls-15" d="M594.05,164.74c.24,0,.8-1.77,1.24-4.07s.61-4.19.37-4.24-.8,1.78-1.24,4.07S593.81,164.69,594.05,164.74Z"/><path class="cls-15" d="M622.6,170.25c.24.05.79-1.78,1.24-4.07s.6-4.19.36-4.24-.8,1.78-1.24,4.07S622.36,170.2,622.6,170.25Z"/><g class="cls-27"><line class="cls-28" x1="591.45" y1="160.09" x2="603.13" y2="162.34"/></g><g class="cls-29"><line class="cls-28" x1="626.54" y1="166.86" x2="614.87" y2="164.61"/></g><line class="cls-30" x1="592.45" y1="200.54" x2="610.76" y2="204.08"/><line class="cls-30" x1="590.68" y1="209.7" x2="609" y2="213.23"/><path class="cls-18" d="M576.92,379.72,580,363.54c-4.94-.22-4.95.07-9.17-.75s-4.12-1.09-8.8-2.72L559,376.25a3.5,3.5,0,0,1-4,2.79c-12-2-23.28-3.24-31.07-3.31,0,2.43-.07,4.85-.13,7.25,20.83.48,63.38,8.69,82.9,16,.84-2.24,1.71-4.5,2.58-6.77-7.17-2.8-17.91-5.77-29.65-8.4A3.5,3.5,0,0,1,576.92,379.72Z"/><path class="cls-31" d="M576.92,379.72,580,363.54c-4.94-.22-4.95.07-9.17-.75s-4.12-1.09-8.8-2.72L559,376.25a3.5,3.5,0,0,1-4,2.79c-12-2-23.28-3.24-31.07-3.31,0,2.43-.07,4.85-.13,7.25,20.83.48,63.38,8.69,82.9,16,.84-2.24,1.71-4.5,2.58-6.77-7.17-2.8-17.91-5.77-29.65-8.4A3.5,3.5,0,0,1,576.92,379.72Z"/><path class="cls-14" d="M500.22,454.47A23,23,0,0,1,517.61,442c7.27-1,15.07,1.58,21.8-1.33,6.48-2.82,10-9.88,15.82-13.93a20.27,20.27,0,0,1,22.17-.3c4.91,3.23,8.78,8.81,14.64,9.32s11.28-4.28,16.85-2.78c2.82.76,5,3,7.78,3.94,3.69,1.24,7.69-.05,11.58-.18,8.6-.29,17,9.42,19.2,17.74l-95.84,10Z"/><path class="cls-32" d="M640.27,442.39a38.58,38.58,0,0,1-22.47-1.46c-3.58-1.38-7.26-3.33-11-2.7-3.3.56-6,3-9.17,4-5.25,1.59-10.79-1-15.58-3.64s-9.93-5.67-15.38-5c-7.39,1-12.2,8.24-18.88,11.55-10.71,5.34-23.66-.34-35.46,1.64a27.62,27.62,0,0,0-9.22,3.35A22.93,22.93,0,0,1,517.6,442c7.28-1,15.08,1.58,21.81-1.33,6.49-2.82,10-9.89,15.83-13.94a20.23,20.23,0,0,1,22.16-.28c4.91,3.23,8.78,8.81,14.64,9.31s11.29-4.28,16.85-2.78c2.82.76,5,3,7.78,3.94,3.69,1.23,7.69-.06,11.58-.19C632.55,436.58,636.81,439,640.27,442.39Z"/><path class="cls-12" d="M168.31,76.76a16.41,16.41,0,0,1,26.19-6.89,17.58,17.58,0,0,1,30.6-8.94c3.4-2.54,9.77-4,13.89-3,12.07,3,13,15.47,13.56,18.81Z"/><path class="cls-12" d="M555.9,199.35a16.41,16.41,0,0,0-26.19-6.89,17.59,17.59,0,0,0-30.6-8.94c-3.4-2.53-9.77-4-13.89-3-12.07,3-13,15.46-13.56,18.8Z"/><path class="cls-12" d="M212.23,217.4c1.44-5.74-.33-14.19-4.51-18.37a17.59,17.59,0,0,0-16.35-4.56c.37-6.65-3.34-13.24-8.73-17.15a20.44,20.44,0,0,0-19-2.46c-.65-3.39-4.7-6.66-7.93-7.89-6.1-2.33-13.45-2.74-18.77,1.06-4.75,3.38-6.91,9.4-7.54,15.2-5.54-1.41-11.67,2.17-14.77,7s-3.32,11.16-1.2,16.47A9.47,9.47,0,0,0,106,217.4Z"/><path class="cls-12" d="M532.14,99.27c-1.11-4.42.25-10.93,3.47-14.15a13.51,13.51,0,0,1,12.58-3.5c-.27-5.13,2.57-10.2,6.73-13.21a15.71,15.71,0,0,1,14.64-1.89c.5-2.61,3.62-5.13,6.1-6.08,4.7-1.79,10.36-2.1,14.45.82,3.66,2.6,5.33,7.24,5.81,11.7,4.26-1.09,9,1.67,11.37,5.37A14.11,14.11,0,0,1,608.22,91,7.31,7.31,0,0,1,614,99.27Z"/><path class="cls-12" d="M676.3,123a13.42,13.42,0,0,0-23.13-1.56c-.65.95-1.13,2.33-.32,3.15a10.41,10.41,0,0,0-18.5,7.13c-3.05-1.08-7.79,0-10.23,2.1a9.36,9.36,0,0,0-2.94,8.78h76a17.63,17.63,0,0,0-5.47-17.54C685.65,119.43,676.3,123,676.3,123Z"/><path class="cls-12" d="M74,102.77a13.63,13.63,0,0,1,23.48-1.58c.66,1,1.15,2.37.33,3.2a10.56,10.56,0,0,1,18.77,7.24c3.1-1.1,7.91,0,10.38,2.13a9.49,9.49,0,0,1,3,8.91H52.87a17.88,17.88,0,0,1,5.55-17.8C64.52,99.17,74,102.77,74,102.77Z"/><path class="cls-26" d="M400.93,392.83c-.44,0-.89,0-1.33,0a14.5,14.5,0,0,0,1.41-.39,11.33,11.33,0,0,0,1.44-.64,8,8,0,0,0,1.53-1v-.12a11.26,11.26,0,0,0-3.4.6,11.58,11.58,0,0,0-3,1.69l0,0a16.83,16.83,0,0,1-2.13.05,10.85,10.85,0,0,1-8.85-5.46l-.11.06a8.7,8.7,0,0,0,2.19,3.68,4,4,0,0,0-.83,1.56,12.19,12.19,0,0,0-.38,1.85c-.06.57-.15,1.16-.17,1.8a6.75,6.75,0,0,0,.19,2.09l.12.05a19.57,19.57,0,0,0,1.11-3.76c.14-1.11.08-2.22.29-3.29a7.28,7.28,0,0,0,.8.67,10.18,10.18,0,0,0,4.39,1.86,6.43,6.43,0,0,0-.13,1.44,8.61,8.61,0,0,0,.44,2.47,8.23,8.23,0,0,0,1.17,2.21,5.65,5.65,0,0,0,1.92,1.7l.11-.06a19.33,19.33,0,0,1-2-4.27,18.9,18.9,0,0,1-.89-3.4c.19,0,.38.06.57.07a48.38,48.38,0,0,0,5.5-.48c1.71-.09,3.54,0,5.41,0l0-.12A30,30,0,0,0,400.93,392.83Z"/><path class="cls-26" d="M375.85,402a11.27,11.27,0,0,0,.5-1.3c.66-2.11.41-4.32.79-6.43a19.52,19.52,0,0,1,2.06-6.08l-.11-.06a14.65,14.65,0,0,0-2.93,6,16.24,16.24,0,0,0-.38,2.21c-.59.11-1.17.23-1.73.38a16.24,16.24,0,0,0-2.66.94,9.07,9.07,0,0,0-2.45,1.68,4.85,4.85,0,0,0-1.5,2.64l.1.08a10.66,10.66,0,0,1,4.4-3.26c1.24-.6,2.54-1.13,3.77-1.8a15.18,15.18,0,0,1-.57,3.36,21.63,21.63,0,0,1-2.31,4.65c-.45-.17-.86-.32-1.3-.45a6.84,6.84,0,0,0-2.1-.35,6.46,6.46,0,0,0-1.2.18,3.87,3.87,0,0,0-1.1.53,4.18,4.18,0,0,0-1.48,1.74l.07.11a13.82,13.82,0,0,1,1.79-.93,5.17,5.17,0,0,1,1.94-.36c1,0,2,.14,3.07.06,0,.1-.11.19-.17.29a21.68,21.68,0,0,0-1.49,3,9.55,9.55,0,0,0-.71,3.27l.13,0a16.6,16.6,0,0,1,2.9-5.71,34.4,34.4,0,0,0,2.39-3.78c.06.24.13.44.19.63a5.13,5.13,0,0,0,.44.91,4.64,4.64,0,0,0,.65.78,7.05,7.05,0,0,0,1.08.87l.13,0a5.63,5.63,0,0,0-.79-2.31A5.89,5.89,0,0,0,375.85,402Z"/><path class="cls-26" d="M387.79,401.73a9.72,9.72,0,0,0-3-1.05c-.26-.76-.49-1.53-.69-2.3a37.07,37.07,0,0,1-1.4-9.42h-.13a16.48,16.48,0,0,0-.46,4.89c0,.44,0,.89.1,1.32a3.83,3.83,0,0,0-1,.78,5.25,5.25,0,0,0-1.05,1.62,5,5,0,0,0-.34,1.91,3.65,3.65,0,0,0,.54,1.95h.13a12,12,0,0,1,.85-3.4,12.19,12.19,0,0,1,1-2.05,24.71,24.71,0,0,0,.55,2.72,23.17,23.17,0,0,0,1.82,4.57l.24.42a4.51,4.51,0,0,0-1.18,1.36,6.53,6.53,0,0,0-.83,2.28,7.78,7.78,0,0,0,0,2.36,6.3,6.3,0,0,0,.78,2.29h.13a29.76,29.76,0,0,1,.35-4.44,11,11,0,0,1,1-3.37,17,17,0,0,0,2.4,3.08l.11-.07a36.44,36.44,0,0,1-2.65-5.79c.24.2.47.38.7.54a14.92,14.92,0,0,0,1.35.89,15.92,15.92,0,0,0,1.43.73,10.41,10.41,0,0,0,1.78.63l.1-.08A9.69,9.69,0,0,0,387.79,401.73Z"/><path class="cls-26" d="M361.16,400.78a37.69,37.69,0,0,1,5.84-3.15,14.58,14.58,0,0,0,5.56-4.28,27.92,27.92,0,0,0,3.19-6.28l-.12-.05a46.59,46.59,0,0,1-3.87,5.73,10.32,10.32,0,0,1-.81.81,6.74,6.74,0,0,0-1-.43,5.64,5.64,0,0,0-1.78-.37,4.91,4.91,0,0,0-1.89.35,3.43,3.43,0,0,0-1.59,1.23l0,.12a10.35,10.35,0,0,1,3.41-.43c.7,0,1.42.08,2.13.1a19.14,19.14,0,0,1-3.88,2.37c-1,.52-2.09,1-3.15,1.6l-.14.08a2.53,2.53,0,0,0-1.13-1,4.19,4.19,0,0,0-2.14-.4,8.78,8.78,0,0,0-1.75.33,12.56,12.56,0,0,1-1.77.42l-.06.11a3.7,3.7,0,0,0,1.81.47c.62,0,1.24,0,1.86-.07a5.71,5.71,0,0,1,1.8.1,2.67,2.67,0,0,1,.87.36,16,16,0,0,0-2.39,1.71,15,15,0,0,0-4.24,5.86l.11.06a18.85,18.85,0,0,1,4.19-4.67,5.42,5.42,0,0,0-.35.83,6.14,6.14,0,0,0-.24,2.08,6.69,6.69,0,0,0,.44,2,5.19,5.19,0,0,0,1.14,1.81l.12,0a38.44,38.44,0,0,1-.44-3.85A12.36,12.36,0,0,1,361.16,400.78Z"/><path class="cls-26" d="M375.71,386.15l-2.7,6a4.84,4.84,0,0,1,1.74-1,18.73,18.73,0,0,0,3.46-1.75,2.16,2.16,0,0,1,1.22-.55,2,2,0,0,1,.84.29l1.73.89a.78.78,0,0,0,.55.13,1,1,0,0,0,.44-.36c1.55-1.94,4.22.5,5.29.05-.71-.74-2.17-3.43-3.11-4.34Z"/><path class="cls-26" d="M376.61,196.94c-.43,65.24-2.07,124.22-1,189.49l9.61.13c.06-65.26-1.62-124.24-3.07-189.51Z"/><path class="cls-26" d="M420.08,276.42s-16.95,23.07-41,59.33l5.23,3.69c24.65-35.82,38.21-61.32,38.21-61.32Z"/><path class="cls-26" d="M429.06,295l-.08-1.7s-14.91.65-19.24,1.15l.51,4.6C414.66,298.39,429.06,295,429.06,295Z"/><path class="cls-26" d="M402.44,213s-9.31,12.67-23.89,34l4,5.14c14.53-22.72,22.34-37.39,22.34-37.39Z"/><path class="cls-26" d="M411.41,231.57l-.07-1.69s-14.91.65-19.24,1.14l.51,4.6C397,235,411.41,231.57,411.41,231.57Z"/><path class="cls-26" d="M340.15,225.86s17,23.07,41,59.33l-5.23,3.69c-24.65-35.82-38.21-61.32-38.21-61.32Z"/><path class="cls-26" d="M351.82,331.79l1.48-2.52s22.28,13,28.51,17.23l-4.48,6.62C371.12,348.58,351.82,331.79,351.82,331.79Z"/><path class="cls-26" d="M331.17,244.44l.08-1.7s14.91.65,19.24,1.15l-.51,4.6C345.58,247.83,331.17,244.44,331.17,244.44Z"/><path class="cls-7" d="M333.49,244.14a15.39,15.39,0,0,0-10.8-8.94c-5.58-1.18-11.33.85-16.42,3.42,2.36.5,4.76,2.49,6.59,4.06,1.5,1.29,2.74,2.88,4.4,4a11.49,11.49,0,0,0,3.71,1.52C325.19,249.14,330.49,247.11,333.49,244.14Z"/><g class="cls-33"><path class="cls-34" d="M305.71,238.67A62,62,0,0,1,334,244.49"/><path class="cls-35" d="M327.43,241.82a19.13,19.13,0,0,0-7.17,7"/><path class="cls-35" d="M318.16,239.4a7.31,7.31,0,0,0-3,1.91,16.14,16.14,0,0,0-2.15,2.85"/><path class="cls-35" d="M322.14,240.24a21.64,21.64,0,0,1-.94-8"/><path class="cls-35" d="M330.5,242.76a6.85,6.85,0,0,1,.05-5.35"/></g><path class="cls-7" d="M409.46,230.76a15.39,15.39,0,0,1,12.72-5.91c5.7.26,10.74,3.69,15,7.46-2.41-.12-5.24,1.21-7.41,2.26a45,45,0,0,1-5.25,2.72,11.37,11.37,0,0,1-4,.53C416.23,237.7,411.62,234.39,409.46,230.76Z"/><g class="cls-36"><path class="cls-34" d="M437.73,232.51A62.11,62.11,0,0,0,408.88,231"/><path class="cls-35" d="M415.92,230.05a19.12,19.12,0,0,1,5.17,8.54"/><path class="cls-35" d="M425.5,230.06a7.4,7.4,0,0,1,2.4,2.6,16.73,16.73,0,0,1,1.36,3.3"/><path class="cls-35" d="M421.43,229.87a21.63,21.63,0,0,0,2.93-7.51"/><path class="cls-35" d="M412.71,230.19A6.93,6.93,0,0,0,414,225"/></g><path class="cls-7" d="M354.12,332.23A20.08,20.08,0,0,1,336.9,326c-5-5.49-6.55-13.3-7-20.73,2.12,2.32,5.95,3.7,8.93,4.72,2.44.84,5.06,1.17,7.37,2.32a14.82,14.82,0,0,1,4.17,3.17C354.25,319.58,355.47,326.88,354.12,332.23Z"/><g class="cls-37"><path class="cls-38" d="M329.55,304.6a81.17,81.17,0,0,0,25.31,28"/><path class="cls-39" d="M347.49,326.94a25,25,0,0,1,3.07-12.66"/><path class="cls-39" d="M338.62,318.12a9.64,9.64,0,0,1,.18-4.62,21.75,21.75,0,0,1,1.77-4.3"/><path class="cls-39" d="M342.22,322.05a28.05,28.05,0,0,0-9.62,4.24"/><path class="cls-39" d="M350.59,329.77a9,9,0,0,0-6,3.61"/></g><path class="cls-7" d="M420.23,278.92a17.92,17.92,0,0,0,13.56-9.11c3.17-5.84,2.8-12.93,1.62-19.47-1.34,2.47-4.36,4.49-6.72,6-1.93,1.25-4.12,2.11-5.88,3.59a13.24,13.24,0,0,0-2.92,3.65C417.39,268,417.91,274.57,420.23,278.92Z"/><g class="cls-40"><path class="cls-41" d="M435.53,249.69a72.32,72.32,0,0,1-15.87,29.68"/><path class="cls-42" d="M424.83,272.91a22.45,22.45,0,0,0-5.39-10.31"/><path class="cls-42" d="M430.6,263.35a8.53,8.53,0,0,0-1.15-4,19.25,19.25,0,0,0-2.46-3.35"/><path class="cls-42" d="M428.34,267.53a25.12,25.12,0,0,1,9.24,1.6"/><path class="cls-42" d="M422.76,276a8.11,8.11,0,0,1,6,1.83"/></g><path class="cls-7" d="M379.48,198.29a14.41,14.41,0,0,0,10.73-7.52c2.44-4.74,2-10.42,1-15.64-1,2-3.43,3.67-5.29,4.93a43.92,43.92,0,0,0-4.66,3,10.65,10.65,0,0,0-2.28,3C377,189.58,377.55,194.85,379.48,198.29Z"/><g class="cls-43"><path class="cls-44" d="M391.28,174.61a57.9,57.9,0,0,1-12.25,24"/><path class="cls-45" d="M383.07,193.4a18,18,0,0,0-4.49-8.18"/><path class="cls-45" d="M387.54,185.64a6.92,6.92,0,0,0-1-3.15,15.32,15.32,0,0,0-2-2.64"/><path class="cls-45" d="M385.79,189a20.22,20.22,0,0,1,7.44,1.13"/><path class="cls-45" d="M381.46,195.93a6.46,6.46,0,0,1,4.81,1.37"/></g><path class="cls-5" d="M379.68,198.22a12.56,12.56,0,0,1-10.7-4.09c-3.09-3.49-4-8.39-4.18-13,1.3,1.47,3.69,2.38,5.54,3a38,38,0,0,1,4.59,1.53,9.49,9.49,0,0,1,2.57,2C379.89,190.3,380.58,194.88,379.68,198.22Z"/><g class="cls-46"><path class="cls-47" d="M364.61,180.67a50.84,50.84,0,0,0,15.52,17.77"/><path class="cls-48" d="M375.59,194.83a15.66,15.66,0,0,1,2.05-7.88"/><path class="cls-48" d="M370.14,189.22a6,6,0,0,1,.16-2.89,12.85,12.85,0,0,1,1.16-2.67"/><path class="cls-48" d="M372.34,191.72a17.89,17.89,0,0,0-6.06,2.54"/><path class="cls-48" d="M377.49,196.64a5.64,5.64,0,0,0-3.78,2.19"/></g><path class="cls-5" d="M428.09,294.07a15.94,15.94,0,0,1,13.16-6.15c5.91.27,11.14,3.81,15.58,7.71-2.5-.12-5.43,1.26-7.67,2.36-1.84.89-3.5,2.17-5.44,2.82a11.73,11.73,0,0,1-4.12.55C435.11,301.25,430.33,297.83,428.09,294.07Z"/><g class="cls-49"><path class="cls-50" d="M457.38,295.83a64.48,64.48,0,0,0-29.89-1.54"/><path class="cls-51" d="M434.78,293.33a19.83,19.83,0,0,1,5.37,8.83"/><path class="cls-51" d="M444.7,293.32a7.57,7.57,0,0,1,2.49,2.69,16.94,16.94,0,0,1,1.42,3.41"/><path class="cls-51" d="M440.48,293.12a22.25,22.25,0,0,0,3-7.77"/><path class="cls-51" d="M431.45,293.47a7.13,7.13,0,0,0,1.35-5.38"/></g><path class="cls-5" d="M339.34,228.36A15.93,15.93,0,0,1,328,219.29c-2.38-5.41-1.53-11.67,0-17.38,1,2.29,3.54,4.3,5.51,5.83,1.62,1.25,3.5,2.17,4.95,3.62a11.7,11.7,0,0,1,2.32,3.45C342.66,218.89,341.72,224.68,339.34,228.36Z"/><g class="cls-52"><path class="cls-50" d="M327.93,201.33A64.33,64.33,0,0,0,339.8,228.8"/><path class="cls-51" d="M335.71,222.69a19.84,19.84,0,0,1,5.53-8.73"/><path class="cls-51" d="M331.3,213.8a7.62,7.62,0,0,1,1.3-3.42A17,17,0,0,1,335,207.6"/><path class="cls-51" d="M333,217.67a22.42,22.42,0,0,0-8.31.73"/><path class="cls-51" d="M337.31,225.61a7.15,7.15,0,0,0-5.42,1.18"/></g><path class="cls-5" d="M402.74,215.86a15.94,15.94,0,0,0,11.39-9c2.41-5.39,1.58-11.66.08-17.37-1,2.28-3.55,4.28-5.54,5.8-1.62,1.24-3.51,2.16-5,3.6a11.86,11.86,0,0,0-2.34,3.43C399.46,206.37,400.38,212.17,402.74,215.86Z"/><g class="cls-53"><path class="cls-50" d="M414.28,188.88a64.36,64.36,0,0,1-12,27.42"/><path class="cls-51" d="M406.4,210.21a19.88,19.88,0,0,0-5.49-8.76"/><path class="cls-51" d="M410.85,201.34a7.53,7.53,0,0,0-1.29-3.43,16.89,16.89,0,0,0-2.42-2.79"/><path class="cls-51" d="M409.14,205.2a22.44,22.44,0,0,1,8.31.78"/><path class="cls-51" d="M404.78,213.12a7.12,7.12,0,0,1,5.41,1.21"/></g><g class="cls-54"><g class="cls-55"><path class="cls-56" d="M381.53,191.08c-4.35,10.17-4.8,21.58-4.09,32.62s2.53,22,2.46,33.07c0,7.44-.94,14.86-.89,22.3.06,9.62,1.71,19.2,1.49,28.83-.17,7.71-1.53,15.36-1.88,23.07-.73,16.46,3.19,26.69,1.27,43.07-.85,7.23-2.79,14.83-.08,21.6"/><path class="cls-56" d="M386.5,261a40.67,40.67,0,0,0-4.94,20.08c.17,9.2,3.47,18.25,2.65,27.41-.37,4.06-1.54,8-2.09,12-1.13,8.35,1.71,21.46,3.61,29.67"/><path class="cls-56" d="M386.22,352.43c-2.11,2.66-2.58,6.28-2.39,9.67s1,.43,1,3.83c.07,4.6-1.18,9.11-1.86,13.67s-.74,9.45,1.52,13.47"/><path class="cls-56" d="M373.87,353.16c2.1,4.9,2.93,5.41,2.76,11.36a142.2,142.2,0,0,1-1.74,17.4"/><path class="cls-56" d="M374.56,338.26c1.07-7.61,2.37-17,2.59-24.82a105.61,105.61,0,0,0-2.43-24.05"/><path class="cls-56" d="M375.34,235.6c2.28,11.91,3.66,24.07-.65,36.32"/><path class="cls-56" d="M385,196.5A45.46,45.46,0,0,0,383.4,232"/><path class="cls-56" d="M383.29,238.7c-1.54,3.25-1.4,9.7.6,12.68"/><path class="cls-57" d="M375.82,276.54c1.23,3.78,1.39,9-.28,12.77"/><path class="cls-57" d="M344.61,224.69c-1.93,4-.24,8.78,2.21,12.47s5.65,7,7.12,11.14c.85,2.4,1.08,5,2.12,7.34a22.91,22.91,0,0,0,4.19,5.76l5.29,5.87c2.53,2.81,5.26,5.74,8.9,6.75"/><path class="cls-57" d="M338.34,233.94l7.28,6.66a25.27,25.27,0,0,1,3.74,3.93,19.7,19.7,0,0,1,2.38,4.77,42.15,42.15,0,0,1,2.46,11.15"/><path class="cls-57" d="M357.52,263.93c2.13,5.22,8.46,7.26,12,11.65A13.14,13.14,0,0,1,372,287"/><path class="cls-57" d="M358.08,247.28a15.07,15.07,0,0,0,1.52,8.4c2.06,4.1,5.85,7,9.52,9.78"/><path class="cls-57" d="M348.69,249.85A16.35,16.35,0,0,0,333,246.77"/><path class="cls-57" d="M331.66,245.88c1.88-1.23,4.23-1.44,6.47-1.55,3.32-.16,6.82-.12,9.71,1.53a4.77,4.77,0,0,1,1.45,1.19c1.09,1.42.8,3.44.45,5.2"/><path class="cls-57" d="M357.59,329.66c-.44,1.82.76,3.66,2.21,4.86s3.2,2,4.51,3.36a26.05,26.05,0,0,0,1.82,2c2.11,1.76,5.2,1.46,7.92,1.07"/><path class="cls-57" d="M355.23,329.32a7.26,7.26,0,0,0,1.06,4.72,14.53,14.53,0,0,0,3.83,3.62,48.05,48.05,0,0,0,6.9,4.5,25.06,25.06,0,0,1,3.93,2.09,5.06,5.06,0,0,1,2.24,3.67c.08,1.76-1.12,3.28-2.25,4.63"/><path class="cls-57" d="M387.59,339.94a14,14,0,0,1,.91-9.2c1.52-3.27,4.23-5.8,6.39-8.69,2.92-3.92,4.82-8.49,7.45-12.6s6.3-7.94,11.07-9"/><path class="cls-57" d="M387.35,320.71c1.54-2.77,4.32-4.57,6.6-6.77a47.09,47.09,0,0,0,5.33-6.52L412,289.75a33.67,33.67,0,0,0,3.1-4.87,26.31,26.31,0,0,0,2-6.41"/><path class="cls-57" d="M415.78,292.91c-.19.68.44,1.31,1.06,1.64a5.58,5.58,0,0,0,4.77.18c.65-.29,1.24-.7,1.87-1a9.14,9.14,0,0,1,3.25-1"/><path class="cls-57" d="M427,297.86a2.26,2.26,0,0,0-2.32-1.8,12.25,12.25,0,0,0-3.14.68,9.6,9.6,0,0,1-4.3.1,9.36,9.36,0,0,0-2.85-.44c-1.88.2-3.19,2-3.66,3.87"/><path class="cls-57" d="M423.5,280.63a3.67,3.67,0,0,0-3.92.71c-1.25,1.21-1.45,3.11-2.22,4.68a40.27,40.27,0,0,1-2.29,3.39,4.7,4.7,0,0,0-.8,3.89"/><path class="cls-57" d="M414.66,293.8c-3.52,2.95-6.75,6.24-10,9.52a40.13,40.13,0,0,0-3.89,4.36c-1.61,2.2-2.75,4.71-4.28,7a48.7,48.7,0,0,1-4.62,5.53,27.5,27.5,0,0,1-6.79,5.47"/><path class="cls-57" d="M385.78,233c2,.59,4.13-.8,5.45-2.45s2.27-3.64,3.89-5c.76-.64,1.65-1.12,2.34-1.83,1.54-1.57,1.81-4,1.69-6.18,0-1-.17-1.94-.24-2.91"/><path class="cls-57" d="M394.26,236.17c-2.16.69-4.43,1.45-6,3.12a8.59,8.59,0,0,0-2.08,5.55,19.57,19.57,0,0,0,.91,6"/><path class="cls-57" d="M385.16,236c2.09.52,4.29-.45,5.93-1.85a61.38,61.38,0,0,0,4.35-4.75,8.89,8.89,0,0,1,5.47-3.13"/><path class="cls-57" d="M395.4,236a5.72,5.72,0,0,1,3.83-3.18c1.06-.26,2.18-.2,3.23-.48a7.9,7.9,0,0,1,2.66-.61,4.5,4.5,0,0,1,2.44,1.38"/><path class="cls-57" d="M393.55,235.9a6,6,0,0,1,3.57-4,25.38,25.38,0,0,1,5.39-1.45,39,39,0,0,0,7.73-2.58"/><path class="cls-56" d="M385.78,324.08a48.09,48.09,0,0,0-1.42,9.58,11.05,11.05,0,0,0,1.42,5.88"/><path class="cls-56" d="M374.32,341.42a11.33,11.33,0,0,1,.27,11"/></g></g><path class="cls-58" d="M550.11,0l-34,50.71a45.83,45.83,0,0,0-8.8,19.17c-2.65,13.26-5.53,26.49-9.4,39.44-3.05,10.16-6.92,20.47-14.35,28l-78.06,70.49c-6,5.42-15.82,2.31-17.24-5.65-.85-4.68-.13-10.51,4.08-17.37L411,161.55a16.12,16.12,0,0,0-.11-20.26l-.75-.91a16.11,16.11,0,0,0-21.33-3.25l-28.29,18.68,7.86,33.33a14.29,14.29,0,0,1-4.9,15.19l-.65.51A8.52,8.52,0,0,1,349.91,202l-19-48.24a16.81,16.81,0,0,1,4.94-15.57l10.44-9.64-13,4.41L286,176.18a23.23,23.23,0,0,1-21.91,5.24l-.9-.26a5.18,5.18,0,0,1-2.63-8.25l53.25-66.44-47,14.35c-9.58,2.37-15.69-5.29-15.69-5.29a3.62,3.62,0,0,1,.39-5.6c9.83-7.37,30.62-17.16,49.92-25.49l-18.87-4.9a16.31,16.31,0,0,1-12.24-13.73c0-.42-.05-.94-.05-1.48,0-1.84.33-4,2.55-3.77,29.33,3.14,59.09,4,88.47,1.41q10.05-.87,20-2.31a90.41,90.41,0,0,0,28.37-9.1l4.65-2.4c13.64-7,33-35,40.81-48.16Z"/><path class="cls-59" d="M386.66,98.45a23.85,23.85,0,0,0-14.5,6.22L343.51,131"/><path class="cls-59" d="M314.55,106.2s21.24-18.84,41-21.27"/><path class="cls-59" d="M343.22,67.43c-17.9,6.54-27.11,9.47-41.71,17"/><path class="cls-60" d="M260.64,173.3a5.88,5.88,0,0,0,3.73,1.57,7.92,7.92,0,0,0,4.91-1.71,23.15,23.15,0,0,0,3.73-3.74l5.27-6.13"/><path class="cls-60" d="M350.53,201.52A6,6,0,0,0,353.7,199a7.82,7.82,0,0,0,.87-5.12,23.4,23.4,0,0,0-1.47-5.08l-2.84-7.56"/><path class="cls-60" d="M251.91,110.07a5.9,5.9,0,0,0,3.25,2.42,7.89,7.89,0,0,0,5.17-.47,23,23,0,0,0,4.53-2.73l6.59-4.67"/><path class="cls-60" d="M275,61.34a4.59,4.59,0,0,0,.69,3A6.08,6.08,0,0,0,279,66.7a18,18,0,0,0,4,.67l6.19.57"/><path class="cls-60" d="M401.86,210c-1.12-2.26-2.05-4.82-1.41-7.26a10.46,10.46,0,0,1,2.77-4.31,37.8,37.8,0,0,1,10.19-7.65"/><path class="cls-61" d="M389.16,191.66a32,32,0,0,1,3.22-6.84L411,161.55a16.12,16.12,0,0,0-.11-20.26l-.75-.91a16.11,16.11,0,0,0-21.33-3.25l-28.29,18.68s28.51-41.64,53.45-24.25C436.06,147,398.05,183.57,389.16,191.66Z"/><path class="cls-61" d="M550.11,0l-34,50.71a45.83,45.83,0,0,0-8.8,19.17c-2.65,13.26-5.53,26.49-9.4,39.44-3.05,10.16-6.92,20.47-14.35,28l-4.78,4.32q9.82-34.65,19.66-69.3c2.06-7.26,4.14-14.58,7.83-21.16a91.84,91.84,0,0,1,10.42-14.12q16.1-19,33.21-37.09Z"/></g></g></svg>