<svg xmlns="http://www.w3.org/2000/svg" viewBox="0 0 750 500"><defs><style>.cls-1{fill:#fff;}.cls-2{fill:#dcf4ef;}.cls-3{fill:#caeae5;}.cls-4{fill:#2fa597;}.cls-5{fill:#43275b;}.cls-6{fill:#f7b531;}.cls-7{fill:#b26b5d;}.cls-8{fill:#e2907a;}.cls-9{fill:#594789;}.cls-10{fill:#56a3d8;}.cls-11{fill:#6a5184;}.cls-12{fill:#7fc8a9;}.cls-13{fill:#ed4848;}</style></defs><g id="BACKGROUND"><rect class="cls-1" width="750" height="500"/></g><g id="OBJECTS"><path class="cls-2" d="M672.76,460.25a315,315,0,0,0,17.87-104.87C690.63,181.06,549.32,39.75,375,39.75S59.37,181.06,59.37,355.38A315,315,0,0,0,77.24,460.25Z"/><path class="cls-3" d="M626.78,460.25a266.52,266.52,0,0,0,15.11-88.68c0-147.39-119.49-266.88-266.89-266.88S108.11,224.18,108.11,371.57a266.52,266.52,0,0,0,15.11,88.68Z"/><circle class="cls-2" cx="120.69" cy="131.79" r="15.19" transform="translate(-12.36 12.5) rotate(-5.64)"/><circle class="cls-2" cx="545.66" cy="62.57" r="15.19" transform="translate(270.75 538.05) rotate(-66.51)"/><path class="cls-2" d="M149.47,104.69a6.74,6.74,0,1,0,6.74,6.74A6.75,6.75,0,0,0,149.47,104.69Z"/><circle class="cls-2" cx="697.37" cy="444.44" r="6.74"/><circle class="cls-2" cx="586.03" cy="101.07" r="7.98"/><circle class="cls-2" cx="39.86" cy="238.68" r="7.98"/><circle class="cls-2" cx="319.04" cy="27.43" r="7.98"/><circle class="cls-2" cx="47.84" cy="428.62" r="7.98"/><path class="cls-2" d="M694.77,422.63a3.34,3.34,0,1,0-3.33-3.34A3.34,3.34,0,0,0,694.77,422.63Z"/><path class="cls-2" d="M606.16,97.11a4,4,0,1,0,4,4A4,4,0,0,0,606.16,97.11Z"/><path class="cls-2" d="M673.81,221.14a3.95,3.95,0,1,0,4,4A4,4,0,0,0,673.81,221.14Z"/><path class="cls-2" d="M113.13,101.14a4,4,0,1,0-3.95-4A4,4,0,0,0,113.13,101.14Z"/><path class="cls-2" d="M59.37,252.41a4,4,0,1,0,4,4A4,4,0,0,0,59.37,252.41Z"/><path class="cls-2" d="M67.27,229.29a4,4,0,1,0,4,4A4,4,0,0,0,67.27,229.29Z"/><path class="cls-4" d="M673.81,460.25C592.59,440.49,488.5,428.62,375,428.62S157.41,440.49,76.19,460.25Z"/><rect class="cls-5" x="63.51" y="459.88" width="622.98" height="0.75"/><path class="cls-6" d="M472.51,248.59h0a14.64,14.64,0,0,1-10-18.1l14.95-51.88a14.61,14.61,0,0,1,18.09-10h0a14.62,14.62,0,0,1,10,18.09l-14.95,51.88A14.63,14.63,0,0,1,472.51,248.59Z"/><path class="cls-7" d="M438.68,277.62,446,271c4.78-4.15-2.83-16.57-9.67-12.5l-16.07,7.71a4.15,4.15,0,0,0-.83,5.82l.4.53C424,278.09,432.11,282.59,438.68,277.62Z"/><path class="cls-7" d="M484.52,226.72h0a12.64,12.64,0,0,0-17.85-1.21L435.2,259.23l10.53,11.85,37.58-26.51A12.64,12.64,0,0,0,484.52,226.72Z"/><path class="cls-5" d="M224.41,153.38h0a17.83,17.83,0,0,1-17.84-17.84V120.15a17.83,17.83,0,0,1,17.84-17.84h0a17.84,17.84,0,0,1,17.84,17.84v15.39A17.84,17.84,0,0,1,224.41,153.38Z"/><rect class="cls-8" x="212.53" y="134.05" width="21.63" height="35.93"/><path class="cls-5" d="M225.88,106.11h9.89a9.4,9.4,0,0,1,9.4,9.4v8.33a16.39,16.39,0,0,1-16.39,16.39h-2.89a16.39,16.39,0,0,1-16.39-16.39V122.5a16.39,16.39,0,0,1,16.39-16.39Z"/><rect class="cls-8" x="208.92" y="104.69" width="34.75" height="48.7" rx="17.37"/><path class="cls-5" d="M226.29,153.76a17.82,17.82,0,0,1-5.14-.76l.22-.72a17,17,0,0,0,4.92.73,16.83,16.83,0,0,0,7.7-1.84l.34.67A17.61,17.61,0,0,1,226.29,153.76Z"/><path class="cls-8" d="M214.87,130.9a5.95,5.95,0,1,1-6-6A6,6,0,0,1,214.87,130.9Z"/><path class="cls-5" d="M208.92,125h0a4.53,4.53,0,0,1,4.53,4.53v1.42h0a4.07,4.07,0,0,0,4.07-4.08v-7.3h17.92a12.16,12.16,0,0,0,11.83-9.37l1.85-7.84H224.41s-9.25,3.62-14,9S208.92,125,208.92,125Z"/><path class="cls-5" d="M224.27,131.42a1.32,1.32,0,1,1-1.31-1.31A1.32,1.32,0,0,1,224.27,131.42Z"/><path class="cls-5" d="M239.47,131.42a1.32,1.32,0,1,1-1.31-1.31A1.31,1.31,0,0,1,239.47,131.42Z"/><path class="cls-1" d="M225.54,139a5.06,5.06,0,0,0,10.09,0Z"/><path class="cls-5" d="M230.71,137.43l-.26-.7,1.38-.51a1.75,1.75,0,0,0,1-2.4l-1.68-3.55.68-.32,1.68,3.55a2.49,2.49,0,0,1,.05,2,2.53,2.53,0,0,1-1.46,1.41Z"/><path class="cls-5" d="M224.84,128.18a4,4,0,0,0-3.77,0l-.33-.67a4.77,4.77,0,0,1,4.44,0Z"/><path class="cls-5" d="M240.05,128.18a4,4,0,0,0-3.78,0l-.33-.67a4.77,4.77,0,0,1,4.44,0Z"/><path class="cls-5" d="M156.62,430.22s-7,8.95-7.15,20.11h35.28c2.87-5.68-7.35-12.62-9.76-20.11Z"/><path class="cls-5" d="M201.36,430.22s-7,8.95-7.15,20.11h47.47c4.64-13.4-19.54-12.62-22-20.11Z"/><polygon class="cls-9" points="249.7 258.24 185.62 258.24 154.78 431 177.79 431 208.57 325.51 198.76 431 222.09 431 249.7 258.24"/><polygon class="cls-5" points="208.82 325.99 208.1 325.81 218.07 286.96 231.97 281.48 232.25 282.18 218.7 287.52 208.82 325.99"/><path class="cls-10" d="M212.59,158.8c5.35,4.78,16.38,6.1,21.65,0l17.18,6.1C255.87,166.56,263,171.82,262,179l-12.76,89.6H183l-3.61-87.7c-.23-7.62,1.74-14.92,13.73-17.83Z"/><rect class="cls-5" x="155.59" y="426.36" width="23.48" height="0.75"/><rect class="cls-5" x="199.12" y="426.36" width="23.48" height="0.75"/><path class="cls-10" d="M165.83,243.25h0a14.93,14.93,0,0,1-7.8-19.62L179.86,173a14.92,14.92,0,0,1,19.61-7.8h0a14.93,14.93,0,0,1,7.8,19.62l-21.82,50.61A14.94,14.94,0,0,1,165.83,243.25Z"/><path class="cls-10" d="M280.13,241.94h0a14.93,14.93,0,0,0,6.36-20.13L261.08,172.9A14.92,14.92,0,0,0,241,166.53h0a14.93,14.93,0,0,0-6.37,20.13L260,235.57A14.93,14.93,0,0,0,280.13,241.94Z"/><rect class="cls-5" x="182.4" y="206.98" width="30.31" height="0.75" transform="translate(-71.03 306.79) rotate(-66.7)"/><rect class="cls-5" x="241.24" y="209.96" width="32.41" height="0.75" transform="translate(13.86 436.58) rotate(-82.14)"/><path class="cls-8" d="M337.06,253.53,319,249.08c-6.3-1.49-5.33-16.32,2.78-15.9l26.53,1.29a4.24,4.24,0,0,1,3.53,4.86l-.11.67C350.57,247,345.37,254.89,337.06,253.53Z"/><path class="cls-8" d="M263.08,227.41h0a12.92,12.92,0,0,1,15.55-9.59l44.47,15.47L319.24,249l-46.57-6A12.92,12.92,0,0,1,263.08,227.41Z"/><path class="cls-1" d="M256.61,387h0a3,3,0,0,1-3.35-2.57L229.34,204.76a3,3,0,0,1,2.56-3.35h0a3,3,0,0,1,3.35,2.56l23.92,179.69A3,3,0,0,1,256.61,387Z"/><path class="cls-5" d="M276,397.24l-9.54,1.27a4.13,4.13,0,0,1-4.64-3.55l-2.06-15.48-3.47.46-1.23.17-3.47.46,2.06,15.48a4.12,4.12,0,0,1-3.55,4.64L240.57,402A1.83,1.83,0,0,0,239,404l2.64,19.89c2,15.21,9.75,24.3,22.19,26.39a5.36,5.36,0,0,0,2.39-.32c11.46-5.27,16.53-16.06,14.5-31.28l-2.64-19.88A1.85,1.85,0,0,0,276,397.24Z"/><polygon class="cls-11" points="259.67 430.3 259.61 429.95 254.28 401.06 255.02 400.92 260.28 429.47 262.23 429.21 262.32 429.95 259.67 430.3"/><polygon class="cls-11" points="262.32 429.95 262.23 429.21 264.17 428.95 261.78 400.02 262.53 399.96 264.98 429.6 262.32 429.95"/><path class="cls-11" d="M252.87,438.85a1.64,1.64,0,0,1-1.62-1.42l-1.62-12.12a1.62,1.62,0,0,1,.32-1.21,1.66,1.66,0,0,1,1.09-.63,1.64,1.64,0,0,1,1.84,1.4L254.49,437a1.64,1.64,0,0,1-1.4,1.84h-.22Zm-1.61-14.65h-.12a.86.86,0,0,0-.59.34.86.86,0,0,0-.17.66L252,437.33a.9.9,0,0,0,1,.77.94.94,0,0,0,.58-.34.88.88,0,0,0,.18-.66L252.13,425a.91.91,0,0,0-.87-.77Z"/><path class="cls-11" d="M273.35,436.13a1.65,1.65,0,0,1-1.62-1.42l-1.62-12.13a1.66,1.66,0,0,1,1.41-1.84,1.64,1.64,0,0,1,1.84,1.41L275,434.27a1.58,1.58,0,0,1-.32,1.21,1.61,1.61,0,0,1-1.08.63Zm-1.61-14.65h-.12a.88.88,0,0,0-.76,1l1.61,12.13a.86.86,0,0,0,.34.58.87.87,0,0,0,.66.18h0a.88.88,0,0,0,.76-1l-1.61-12.12A.89.89,0,0,0,271.74,421.48Z"/><path class="cls-5" d="M179.84,217.71a16,16,0,0,0-16.56-1.3l-.38-.65a16.79,16.79,0,0,1,17.38,1.33Z"/><path class="cls-8" d="M230.41,231.86l-10,.81c-6.43.62-10.3-13.73-2.49-15.95l17-6.52a4.25,4.25,0,0,1,4.9,3.47l.12.67C241.07,221.28,238.71,230.47,230.41,231.86Z"/><path class="cls-8" d="M160.5,230.18h0a12.92,12.92,0,0,1,11.62-14.1l47.09.3,1.41,16.13-46,9.29A12.91,12.91,0,0,1,160.5,230.18Z"/><path class="cls-5" d="M326.78,450.33c26.51-19.69,68.19-19.69,95.43,0Z"/><circle class="cls-4" cx="375.38" cy="246.21" r="69.91"/><path class="cls-4" d="M424.89,178.93c-1.08,5.07-6,8.32-6,8.32s-3.12-5-2-10,6-8.31,6-8.31S426,173.87,424.89,178.93Z"/><path class="cls-12" d="M333.28,246.3c3.87,2.81,4.78,8.14,4.78,8.14s-5.35.77-9.21-2-4.78-8.13-4.78-8.13S329.42,243.49,333.28,246.3Z"/><path class="cls-12" d="M403.08,226.75c-4.57,1.38-9.37-1.12-9.37-1.12s2.63-4.72,7.2-6.1,9.37,1.12,9.37,1.12S407.65,225.38,403.08,226.75Z"/><path class="cls-12" d="M420.05,269.11c-4.41,1.83-9.43-.17-9.43-.17s2.13-5,6.54-6.79,9.44.17,9.44.17S424.46,267.28,420.05,269.11Z"/><path class="cls-12" d="M364.4,214.7c-3.81-2.89-4.61-8.23-4.61-8.23s5.37-.66,9.17,2.23,4.6,8.24,4.6,8.24S368.2,217.59,364.4,214.7Z"/><path class="cls-12" d="M397.81,276.22c-3.8-2.89-4.6-8.23-4.6-8.23s5.37-.66,9.17,2.23,4.6,8.24,4.6,8.24S401.61,279.11,397.81,276.22Z"/><path class="cls-12" d="M404.44,248.92c-1.31-4.6,1.25-9.36,1.25-9.36s4.69,2.69,6,7.28-1.25,9.35-1.25,9.35S405.75,253.51,404.44,248.92Z"/><path class="cls-4" d="M351.83,333.29c-4.68-1-7.72-5.42-7.72-5.42s4.55-2.92,9.23-2,7.72,5.42,7.72,5.42S356.51,334.24,351.83,333.29Z"/><path class="cls-4" d="M430.08,190.4c-4,1.35-8.3-.71-8.3-.71s2.17-4.25,6.16-5.6,8.31.71,8.31.71S434.07,189.05,430.08,190.4Z"/><rect class="cls-5" x="373.42" y="202.9" width="2" height="237.59"/><path class="cls-5" d="M374.42,238.65v-2A19.57,19.57,0,0,0,394,217.1v-4.65h2v4.65A21.58,21.58,0,0,1,374.42,238.65Z"/><path class="cls-5" d="M374.42,301v-2a35.05,35.05,0,0,0,35-35v-8.16h2V264A37.06,37.06,0,0,1,374.42,301Z"/><path class="cls-5" d="M373.71,338.44a15.08,15.08,0,0,1-15.06-15.07v-3.18h2v3.18a13.08,13.08,0,0,0,13.06,13.07Z"/><path class="cls-5" d="M374.42,288.42a36.58,36.58,0,0,1-36.54-36.53v-8h2v8a34.58,34.58,0,0,0,34.54,34.53Z"/><circle class="cls-5" cx="517.74" cy="133.9" r="26.65" transform="translate(-11.31 211.94) rotate(-22.89)"/><rect class="cls-7" x="508.39" y="140.55" width="21.18" height="35.19" transform="translate(1037.97 316.28) rotate(180)"/><rect class="cls-5" x="499.4" y="112.69" width="36.03" height="44.66" rx="17.09"/><path class="cls-7" d="M531.62,135.77V124.1h-28.4v11.67a5.17,5.17,0,1,0,0,10.33v1.33a14.2,14.2,0,0,0,28.4,0V146.1a5.17,5.17,0,1,0,0-10.33Z"/><path class="cls-5" d="M510.84,139.88a1.09,1.09,0,1,1-1.09-1.09A1.09,1.09,0,0,1,510.84,139.88Z"/><circle class="cls-5" cx="525.09" cy="139.88" r="1.09"/><path class="cls-1" d="M522.41,146.34a5,5,0,1,1-10,0Z"/><path class="cls-5" d="M508.18,137.83l-.54-.52a3.15,3.15,0,0,1,2.35-1.05,3,3,0,0,1,2.22,1.06l-.56.5A2.27,2.27,0,0,0,510,137,2.45,2.45,0,0,0,508.18,137.83Z"/><path class="cls-5" d="M523.35,137.83l-.54-.52a3.07,3.07,0,0,1,2.35-1.05,3,3,0,0,1,2.22,1.06l-.56.5a2.27,2.27,0,0,0-1.67-.81A2.36,2.36,0,0,0,523.35,137.83Z"/><path class="cls-5" d="M517.22,144.66l-.83-.53a2.33,2.33,0,0,1-.9-2.85l1.58-3.86.7.29-1.58,3.85a1.57,1.57,0,0,0,.61,1.94l.82.53Z"/><path class="cls-5" d="M517.42,162a14.57,14.57,0,0,1-9.27-3.33l.47-.58a13.84,13.84,0,0,0,18.23-.55l.51.55A14.55,14.55,0,0,1,517.42,162Z"/><path class="cls-5" d="M503.07,131.9h.15c.54-2.76,1.62-5.22,3.29-6.65,5.92,3.67,15,3.64,21.86,0a11.51,11.51,0,0,1,3.26,6.65h.42l-.23-8.21H503.07Z"/><path class="cls-5" d="M514.75,430.64a50.79,50.79,0,0,1,4.57,19.69h-34.1c-3.89-9.48,8-12.36,10.38-19.69Z"/><path class="cls-5" d="M554.26,430.64s-4.78,9.35-4.43,19.69h45.81c4.55-13.13-19.14-12.36-21.5-19.69Z"/><path class="cls-6" d="M529.59,164.79c-5.24,4.68-16.05,6-21.21,0L489.29,168c-6.85,1.52-11.38,6.77-10.34,13.81l8.91,83.57H549.5L559.81,185c1.45-8.73-1.36-15.4-13.45-17.47Z"/><path class="cls-6" d="M578.3,243.55h0a14.61,14.61,0,0,0,6.23-19.71l-24.88-47.92a14.63,14.63,0,0,0-19.72-6.23h0a14.62,14.62,0,0,0-6.23,19.71l24.89,47.91A14.61,14.61,0,0,0,578.3,243.55Z"/><path class="cls-9" d="M552.64,242.42h-3.46a6.13,6.13,0,0,1-6.12-5.84l-2-45.4a2.43,2.43,0,0,0-2.42-2.31h-43.5a2.75,2.75,0,0,0-2.75,2.88l2,44.35a6,6,0,0,1-6,6.32h-3.26l4.43,189h29.84l2.86-144.9,25.16,144.9h29.29Z"/><rect class="cls-9" x="487.91" y="424.34" width="33.03" height="7.06"/><rect class="cls-9" x="544.36" y="424.34" width="33.03" height="7.06"/><rect class="cls-5" x="489.32" y="423.96" width="30.01" height="0.75"/><rect class="cls-5" x="546.11" y="423.96" width="29.62" height="0.75"/><polygon class="cls-9" points="503.89 198.34 497.83 198.89 494.92 166.75 500.92 165.54 503.89 198.34"/><polygon class="cls-9" points="529.87 197.43 536.02 197.98 538.93 165.85 532.84 164.63 529.87 197.43"/><rect class="cls-5" x="485.21" y="248.71" width="68.28" height="0.75"/><rect class="cls-5" x="485.35" y="254.56" width="68.88" height="0.75"/><rect class="cls-9" x="495.36" y="247.3" width="2.57" height="9.07"/><path class="cls-5" d="M498.3,256.74H495v-9.82h3.32Zm-2.57-.75h1.82v-8.32h-1.82Z"/><rect class="cls-9" x="538.77" y="247.3" width="2.57" height="9.07"/><path class="cls-5" d="M541.71,256.74h-3.32v-9.82h3.32Zm-2.57-.75H541v-8.32h-1.82Z"/><rect class="cls-5" x="519.76" y="254.81" width="0.75" height="31.82" transform="translate(-30.43 68.96) rotate(-7.37)"/><path class="cls-5" d="M520.75,275.84a9.76,9.76,0,0,1-9.63-8.4L509.41,255l.74-.1,1.71,12.45a9,9,0,0,0,8.89,7.75Z"/><polygon class="cls-5" points="497.16 195.67 496.55 188.88 497.3 188.82 497.84 194.88 503.17 194.59 502.69 188.88 503.44 188.82 503.99 195.3 497.16 195.67"/><path class="cls-1" d="M501.72,191.67a1.41,1.41,0,1,1-1.41-1.41A1.41,1.41,0,0,1,501.72,191.67Z"/><polygon class="cls-5" points="536.58 195.67 529.75 195.3 530.31 188.82 531.05 188.88 530.57 194.59 535.9 194.88 536.45 188.82 537.19 188.88 536.58 195.67"/><path class="cls-1" d="M532,191.67a1.41,1.41,0,1,0,1.41-1.41A1.41,1.41,0,0,0,532,191.67Z"/><path class="cls-5" d="M530.85,225.47H505.24a5,5,0,0,1-5-4.81l-.9-21.5h35.3l1.24,21a5,5,0,0,1-5,5.32ZM500.1,199.91l.87,20.72a4.27,4.27,0,0,0,4.27,4.09h25.61a4.26,4.26,0,0,0,4.26-4.53l-1.2-20.28Z"/><rect class="cls-5" x="481.77" y="192.51" width="0.75" height="33.37" transform="translate(-16.87 44.23) rotate(-5.16)"/><rect class="cls-5" x="537.84" y="210.01" width="37.43" height="0.75" transform="translate(276.89 735.56) rotate(-82.67)"/><path class="cls-1" d="M345.28,440.45h57.86c-2.08-11-14.78-89.08,32.11-110.11l5.47-17.95C383.74,307.82,337,355.3,345.28,440.45Z"/><path class="cls-13" d="M543.89,314.47l-1.83.41c-.37-1.66-.79-3.41-1.36-5.67a264.66,264.66,0,0,0-8.5-28,101.46,101.46,0,0,0-6.23-14c-2.63-4.69-5.38-8.92-10.07-9.13a8.21,8.21,0,0,0-6.24,2.36c-3.69,3.57-5.29,10.78-5.24,16.34l-1.88,0c-.05-5.53,1.45-13.48,5.82-17.7a10,10,0,0,1,7.62-2.89c6.12.27,9.43,6.18,11.62,10.09A103.59,103.59,0,0,1,534,280.54a264.5,264.5,0,0,1,8.56,28.21C543.09,311,543.51,312.79,543.89,314.47Z"/><rect class="cls-13" x="463.81" y="321.9" width="17.7" height="1.87" transform="translate(-93.2 409.07) rotate(-43)"/><path class="cls-13" d="M547.59,320.81l-35.21,32.81a3,3,0,0,1-4.27-.25L464.71,302a3,3,0,0,1,.25-4.07l30.39-28.33a3,3,0,0,1,4.08.05l48.2,46.91A3,3,0,0,1,547.59,320.81Z"/><polygon class="cls-13" points="433.34 335.08 446.3 325 441.6 309.28 433.34 335.08"/><polygon class="cls-13" points="507.27 351.91 442.19 326.75 444.06 321.34 497.18 335.1 507.27 351.91"/><rect class="cls-5" x="441.43" y="324.07" width="5.87" height="0.75" transform="translate(-4.48 642.65) rotate(-71.47)"/><polygon class="cls-5" points="506.4 351.92 491.14 333.85 491.71 333.36 506.97 351.44 506.4 351.92"/><rect class="cls-13" x="475.81" y="275.23" width="6.54" height="14.71" rx="1.34" transform="translate(-64.06 402.46) rotate(-42.98)"/><rect class="cls-5" x="476.89" y="283.37" width="6.54" height="0.75" transform="translate(-64.53 403.66) rotate(-43)"/><rect class="cls-5" x="462.15" y="289.75" width="47.94" height="0.75" transform="translate(-67.28 409.43) rotate(-43)"/><rect class="cls-5" x="464.23" y="292.2" width="48.33" height="0.75" transform="translate(-68.33 411.65) rotate(-43)"/><rect class="cls-5" x="466.3" y="294.65" width="48.78" height="0.75" transform="translate(-69.39 413.87) rotate(-43)"/><path class="cls-7" d="M530.66,270.94l7.7-6.17c5-3.87-1.86-16.71-8.92-13L513,258.48a4.15,4.15,0,0,0-1.17,5.76l.36.55C516,270.55,523.8,275.52,530.66,270.94Z"/><path class="cls-7" d="M579.4,222.82h0a12.65,12.65,0,0,0-17.75-2.26l-33.39,31.82,9.82,12.45,39.07-24.26A12.65,12.65,0,0,0,579.4,222.82Z"/><path class="cls-1" d="M463.56,140.78a5.17,5.17,0,0,0-7.19-4.28,9.77,9.77,0,0,0-16.13-7.3,13.19,13.19,0,0,0-25.7,2.87,7.53,7.53,0,0,0-10.62,4.83,5.13,5.13,0,0,0-2.79-.82,5.18,5.18,0,0,0-5.16,4.7Z"/><path class="cls-1" d="M363.1,85.32a7.75,7.75,0,0,0-4.17,1.23,11.29,11.29,0,0,0-15.87-7.23A19.72,19.72,0,0,0,304.65,75,14.61,14.61,0,0,0,280.54,86a7.73,7.73,0,0,0-10.75,6.39h101A7.74,7.74,0,0,0,363.1,85.32Z"/><path class="cls-1" d="M411.69,85A8.79,8.79,0,0,0,406,87.11a14.4,14.4,0,0,0-26.38,5.23h40.76A8.83,8.83,0,0,0,411.69,85Z"/></g></svg>