<svg id="visual" viewBox="0 0 1920 1080" width="1920" height="1080" xmlns="http://www.w3.org/2000/svg" xmlns:xlink="http://www.w3.org/1999/xlink" version="1.1"><rect x="0" y="0" width="1920" height="1080" fill="#001220"></rect><defs><linearGradient id="grad1_0" x1="43.8%" y1="100%" x2="100%" y2="0%"><stop offset="14.444444444444446%" stop-color="#4fc287" stop-opacity="1"></stop><stop offset="85.55555555555554%" stop-color="#4fc287" stop-opacity="1"></stop></linearGradient></defs><defs><linearGradient id="grad1_1" x1="43.8%" y1="100%" x2="100%" y2="0%"><stop offset="14.444444444444446%" stop-color="#4fc287" stop-opacity="1"></stop><stop offset="85.55555555555554%" stop-color="#006571" stop-opacity="1"></stop></linearGradient></defs><defs><linearGradient id="grad1_2" x1="43.8%" y1="100%" x2="100%" y2="0%"><stop offset="14.444444444444446%" stop-color="#001220" stop-opacity="1"></stop><stop offset="85.55555555555554%" stop-color="#006571" stop-opacity="1"></stop></linearGradient></defs><defs><linearGradient id="grad2_0" x1="0%" y1="100%" x2="56.3%" y2="0%"><stop offset="14.444444444444446%" stop-color="#4fc287" stop-opacity="1"></stop><stop offset="85.55555555555554%" stop-color="#4fc287" stop-opacity="1"></stop></linearGradient></defs><defs><linearGradient id="grad2_1" x1="0%" y1="100%" x2="56.3%" y2="0%"><stop offset="14.444444444444446%" stop-color="#006571" stop-opacity="1"></stop><stop offset="85.55555555555554%" stop-color="#4fc287" stop-opacity="1"></stop></linearGradient></defs><defs><linearGradient id="grad2_2" x1="0%" y1="100%" x2="56.3%" y2="0%"><stop offset="14.444444444444446%" stop-color="#006571" stop-opacity="1"></stop><stop offset="85.55555555555554%" stop-color="#001220" stop-opacity="1"></stop></linearGradient></defs><g transform="translate(1920, 1080)"><path d="M-972 0C-960.3 -129 -948.5 -258 -898 -372C-847.5 -485.9 -758.3 -584.9 -661.1 -661.1C-564 -737.4 -459 -790.9 -347.5 -838.9C-236 -886.9 -118 -929.5 0 -972L0 0Z" fill="#00394d"></path><path d="M-648 0C-640.2 -86 -632.3 -172 -598.7 -248C-565 -324 -505.5 -389.9 -440.8 -440.8C-376 -491.6 -306 -527.2 -231.7 -559.3C-157.3 -591.3 -78.7 -619.6 0 -648L0 0Z" fill="#009485"></path><path d="M-324 0C-320.1 -43 -316.2 -86 -299.3 -124C-282.5 -162 -252.8 -195 -220.4 -220.4C-188 -245.8 -153 -263.6 -115.8 -279.6C-78.7 -295.6 -39.3 -309.8 0 -324L0 0Z" fill="#4fc287"></path></g><g transform="translate(0, 0)"><path d="M972 0C911.7 106.1 851.3 212.2 814.9 337.5C778.4 462.9 765.8 607.6 687.3 687.3C608.9 767.1 464.6 781.9 339.1 818.6C213.5 855.2 106.8 913.6 0 972L0 0Z" fill="#00394d"></path><path d="M648 0C607.8 70.7 567.6 141.4 543.2 225C518.9 308.6 510.5 405 458.2 458.2C405.9 511.4 309.7 521.3 226 545.7C142.4 570.1 71.2 609.1 0 648L0 0Z" fill="#009485"></path><path d="M324 0C303.9 35.4 283.8 70.7 271.6 112.5C259.5 154.3 255.3 202.5 229.1 229.1C203 255.7 154.9 260.6 113 272.9C71.2 285.1 35.6 304.5 0 324L0 0Z" fill="#4fc287"></path></g></svg>