<svg id="visual" viewBox="0 0 900 600" width="900" height="600" xmlns="http://www.w3.org/2000/svg" xmlns:xlink="http://www.w3.org/1999/xlink" version="1.1"><rect x="0" y="0" width="900" height="600" fill="#001220"></rect><defs><linearGradient id="grad1_0" x1="33.3%" y1="100%" x2="100%" y2="0%"><stop offset="20%" stop-color="#4fc287" stop-opacity="1"></stop><stop offset="80%" stop-color="#4fc287" stop-opacity="1"></stop></linearGradient></defs><defs><linearGradient id="grad1_1" x1="33.3%" y1="100%" x2="100%" y2="0%"><stop offset="20%" stop-color="#4fc287" stop-opacity="1"></stop><stop offset="80%" stop-color="#006571" stop-opacity="1"></stop></linearGradient></defs><defs><linearGradient id="grad1_2" x1="33.3%" y1="100%" x2="100%" y2="0%"><stop offset="20%" stop-color="#001220" stop-opacity="1"></stop><stop offset="80%" stop-color="#006571" stop-opacity="1"></stop></linearGradient></defs><defs><linearGradient id="grad2_0" x1="0%" y1="100%" x2="66.7%" y2="0%"><stop offset="20%" stop-color="#4fc287" stop-opacity="1"></stop><stop offset="80%" stop-color="#4fc287" stop-opacity="1"></stop></linearGradient></defs><defs><linearGradient id="grad2_1" x1="0%" y1="100%" x2="66.7%" y2="0%"><stop offset="20%" stop-color="#006571" stop-opacity="1"></stop><stop offset="80%" stop-color="#4fc287" stop-opacity="1"></stop></linearGradient></defs><defs><linearGradient id="grad2_2" x1="0%" y1="100%" x2="66.7%" y2="0%"><stop offset="20%" stop-color="#006571" stop-opacity="1"></stop><stop offset="80%" stop-color="#001220" stop-opacity="1"></stop></linearGradient></defs><g transform="translate(900, 600)"><path d="M-486.7 0C-477.4 -62.7 -468.1 -125.3 -446.2 -184.8C-424.4 -244.4 -389.9 -300.7 -344.2 -344.2C-298.4 -387.6 -241.4 -418.2 -182.2 -439.8C-122.9 -461.4 -61.5 -474.1 0 -486.7L0 0Z" fill="#00394d"></path><path d="M-324.5 0C-318.3 -41.8 -312.1 -83.5 -297.5 -123.2C-282.9 -162.9 -259.9 -200.5 -229.5 -229.5C-199 -258.4 -160.9 -278.8 -121.4 -293.2C-81.9 -307.6 -41 -316 0 -324.5L0 0Z" fill="#009485"></path><path d="M-162.2 0C-159.1 -20.9 -156 -41.8 -148.7 -61.6C-141.5 -81.5 -130 -100.2 -114.7 -114.7C-99.5 -129.2 -80.5 -139.4 -60.7 -146.6C-41 -153.8 -20.5 -158 0 -162.2L0 0Z" fill="#4fc287"></path></g><g transform="translate(0, 0)"><path d="M486.7 0C479.6 62.6 472.4 125.2 449.7 186.3C427 247.3 388.7 306.9 336.6 336.6C284.4 366.3 218.4 366.1 160 386.2C101.5 406.2 50.8 446.5 0 486.7L0 0Z" fill="#00394d"></path><path d="M324.5 0C319.7 41.7 314.9 83.5 299.8 124.2C284.7 164.9 259.2 204.6 224.4 224.4C189.6 244.2 145.6 244.1 106.6 257.5C67.7 270.8 33.8 297.7 0 324.5L0 0Z" fill="#009485"></path><path d="M162.2 0C159.9 20.9 157.5 41.7 149.9 62.1C142.3 82.4 129.6 102.3 112.2 112.2C94.8 122.1 72.8 122 53.3 128.7C33.8 135.4 16.9 148.8 0 162.2L0 0Z" fill="#4fc287"></path></g></svg>