<svg id="visual" viewBox="0 0 900 600" width="900" height="600" xmlns="http://www.w3.org/2000/svg" xmlns:xlink="http://www.w3.org/1999/xlink" version="1.1"><rect x="0" y="0" width="900" height="600" fill="#001220"></rect><defs><linearGradient id="grad1_0" x1="33.3%" y1="0%" x2="100%" y2="100%"><stop offset="20%" stop-color="#4fc287" stop-opacity="1"></stop><stop offset="80%" stop-color="#4fc287" stop-opacity="1"></stop></linearGradient></defs><defs><linearGradient id="grad1_1" x1="33.3%" y1="0%" x2="100%" y2="100%"><stop offset="20%" stop-color="#4fc287" stop-opacity="1"></stop><stop offset="80%" stop-color="#006571" stop-opacity="1"></stop></linearGradient></defs><defs><linearGradient id="grad1_2" x1="33.3%" y1="0%" x2="100%" y2="100%"><stop offset="20%" stop-color="#001220" stop-opacity="1"></stop><stop offset="80%" stop-color="#006571" stop-opacity="1"></stop></linearGradient></defs><defs><linearGradient id="grad2_0" x1="0%" y1="0%" x2="66.7%" y2="100%"><stop offset="20%" stop-color="#4fc287" stop-opacity="1"></stop><stop offset="80%" stop-color="#4fc287" stop-opacity="1"></stop></linearGradient></defs><defs><linearGradient id="grad2_1" x1="0%" y1="0%" x2="66.7%" y2="100%"><stop offset="20%" stop-color="#006571" stop-opacity="1"></stop><stop offset="80%" stop-color="#4fc287" stop-opacity="1"></stop></linearGradient></defs><defs><linearGradient id="grad2_2" x1="0%" y1="0%" x2="66.7%" y2="100%"><stop offset="20%" stop-color="#006571" stop-opacity="1"></stop><stop offset="80%" stop-color="#001220" stop-opacity="1"></stop></linearGradient></defs><g transform="translate(900, 0)"><path d="M0 486.7C-65.2 482.1 -130.4 477.5 -186.3 449.7C-242.2 421.9 -288.7 370.9 -318.9 318.9C-349.1 266.9 -362.8 214 -388 160.7C-413.3 107.4 -450 53.7 -486.7 0L0 0Z" fill="#00394d"></path><path d="M0 324.5C-43.5 321.4 -86.9 318.3 -124.2 299.8C-161.4 281.3 -192.5 247.2 -212.6 212.6C-232.7 178 -241.9 142.7 -258.7 107.2C-275.5 71.6 -300 35.8 -324.5 0L0 0Z" fill="#009485"></path><path d="M0 162.2C-21.7 160.7 -43.5 159.2 -62.1 149.9C-80.7 140.6 -96.2 123.6 -106.3 106.3C-116.4 89 -120.9 71.3 -129.3 53.6C-137.8 35.8 -150 17.9 -162.2 0L0 0Z" fill="#4fc287"></path></g><g transform="translate(0, 600)"><path d="M0 -486.7C63.7 -480 127.4 -473.3 186.3 -449.7C245.1 -426.1 299 -385.5 336.6 -336.6C374.1 -287.7 395.3 -230.5 417.6 -173C439.9 -115.5 463.3 -57.7 486.7 0L0 0Z" fill="#00394d"></path><path d="M0 -324.5C42.5 -320 85 -315.6 124.2 -299.8C163.4 -284 199.4 -257 224.4 -224.4C249.4 -191.8 263.5 -153.6 278.4 -115.3C293.3 -77 308.9 -38.5 324.5 0L0 0Z" fill="#009485"></path><path d="M0 -162.2C21.2 -160 42.5 -157.8 62.1 -149.9C81.7 -142 99.7 -128.5 112.2 -112.2C124.7 -95.9 131.8 -76.8 139.2 -57.7C146.6 -38.5 154.4 -19.2 162.2 0L0 0Z" fill="#4fc287"></path></g></svg>