<svg xmlns="http://www.w3.org/2000/svg" xmlns:xlink="http://www.w3.org/1999/xlink" viewBox="0 0 1554.11 520.74"><defs><style>.cls-1,.cls-13,.cls-14,.cls-16,.cls-17,.cls-18,.cls-27,.cls-31,.cls-35,.cls-36,.cls-38,.cls-47,.cls-50,.cls-54,.cls-56,.cls-66,.cls-67{fill:none;}.cls-2{fill:#e5f3fb;}.cls-3{fill:#1d0301;}.cls-4{fill:#e9f3f6;}.cls-5{fill:#e5a264;}.cls-6{clip-path:url(#clip-path);}.cls-7{fill:#d9eceb;}.cls-8{fill:#f7eccb;}.cls-9{fill:#a1d9da;}.cls-10{fill:#cdf6f6;}.cls-11{fill:#e2d0a3;}.cls-12{fill:#f4edb3;}.cls-13,.cls-35{stroke:#fff;}.cls-13,.cls-14,.cls-16,.cls-17,.cls-18,.cls-31,.cls-36,.cls-38,.cls-47,.cls-50,.cls-54,.cls-56,.cls-66,.cls-67{stroke-miterlimit:10;}.cls-13{stroke-width:1.5px;}.cls-14,.cls-17{stroke:#e2d0a3;}.cls-15{fill:#1aa89a;}.cls-16,.cls-18{stroke:#388280;}.cls-16{stroke-width:0.92px;}.cls-17{stroke-width:1.2px;}.cls-18{stroke-width:1.05px;}.cls-19{clip-path:url(#clip-path-2);}.cls-20{fill:#cce2eb;}.cls-21{fill:#fb441f;}.cls-22{clip-path:url(#clip-path-3);}.cls-23{clip-path:url(#clip-path-4);}.cls-24{fill:#902225;}.cls-25{fill:#c3644e;}.cls-26{fill:#fd5752;}.cls-27{stroke:#390f0d;stroke-width:0.48px;}.cls-27,.cls-35,.cls-36,.cls-50,.cls-54,.cls-56,.cls-66,.cls-67{stroke-linecap:round;}.cls-27,.cls-35{stroke-linejoin:round;}.cls-28{fill:#141212;}.cls-29{fill:#de7958;}.cls-30{fill:#111010;}.cls-31{stroke:#9b4332;}.cls-31,.cls-35{stroke-width:0.5px;}.cls-32{fill:#9b4332;}.cls-33{clip-path:url(#clip-path-5);}.cls-34{fill:#fc7ec8;}.cls-36,.cls-56{stroke:#197f84;}.cls-36{stroke-width:4.18px;}.cls-37{fill:#dfa253;}.cls-38{stroke:#c48037;stroke-width:1.14px;}.cls-39{fill:#3fb0bb;}.cls-40{clip-path:url(#clip-path-6);}.cls-41{fill:#89e9ed;}.cls-42{opacity:0.42;}.cls-43{fill:#2e6aba;}.cls-44{opacity:0.5;}.cls-45{fill:#fff;}.cls-46{fill:#e83d3d;}.cls-47{stroke:#ce2929;}.cls-47,.cls-54{stroke-width:0.93px;}.cls-48{fill:#f3b5b3;}.cls-49{fill:#1e1c1c;}.cls-50{stroke:#1e1c1c;stroke-width:0.58px;}.cls-51{fill:#ea9292;}.cls-52{clip-path:url(#clip-path-7);}.cls-53{fill:#f59f9d;}.cls-54,.cls-67{stroke:#eee9e9;}.cls-55{clip-path:url(#clip-path-8);}.cls-56{stroke-width:2.86px;}.cls-57{fill:#939397;}.cls-58{fill:#fdd8d8;}.cls-59{fill:#f29c9c;}.cls-60{fill:#ed4040;}.cls-61{fill:#f9b2b2;}.cls-62{fill:#ff5752;}.cls-63{fill:#faa29f;}.cls-64{fill:#222b45;}.cls-65{fill:#e87e7c;}.cls-66{stroke:#e87e7c;stroke-width:0.62px;}.cls-67{stroke-width:0.95px;}.cls-68{clip-path:url(#clip-path-9);}</style><clipPath id="clip-path" transform="translate(422.91 0.01)"><rect class="cls-1" x="-0.04" y="137.07" width="750" height="362.92"/></clipPath><clipPath id="clip-path-2" transform="translate(422.91 0.01)"><path class="cls-2" d="M452,374.25c-6.12-3.55-8.93-2.86-8.93-2.86l.35-3.37,0-.4.35-3.37s2.61,1.26,9.33-.95c.71-.23,1.4-.51,2.1-.79,1.3-.53,5.38-1.79,12.85-.81,6.62.88,16.36,1.81,21.37,2.27a3.22,3.22,0,0,1,2.91,3.54l-.5,4.79-.11,1.15-.5,4.78a3.23,3.23,0,0,1-3.59,2.87c-5-.58-14.72-1.69-21.38-2.2-7.51-.58-11.24-2.66-12.41-3.45C453.26,375,452.64,374.63,452,374.25Z"/></clipPath><clipPath id="clip-path-3" transform="translate(422.91 0.01)"><path class="cls-2" d="M261,438.84c5.76,4.11,8.62,3.68,8.62,3.68l-.67,3.33-.08.39-.66,3.33s-2.48-1.5-9.38.06c-.73.17-1.44.38-2.16.59-1.34.4-5.52,1.28-12.87-.4-6.51-1.49-16.12-3.33-21.07-4.26a3.21,3.21,0,0,1-2.56-3.81l.94-4.71.23-1.14,1-4.71a3.21,3.21,0,0,1,3.83-2.52c4.93,1.05,14.5,3.06,21.09,4.2,7.42,1.28,10.94,3.7,12,4.6C259.85,437.94,260.43,438.4,261,438.84Z"/></clipPath><clipPath id="clip-path-4" transform="translate(422.91 0.01)"><path class="cls-2" d="M702.89,418.28c6.28,2.84,9.05,2.2,9.05,2.2l-.18,2.82,0,.33-.18,2.82s-2.67-1-9.27,1c-.7.21-1.37.45-2,.7-1.27.47-5.28,1.61-12.79.94-6.65-.59-16.42-1.17-21.44-1.45a3,3,0,0,1-3.08-2.89l.26-4,.07-1,.26-4A3,3,0,0,1,667,413.3c5,.39,14.77,1.11,21.45,1.4,7.53.33,11.35,2,12.55,2.62C701.59,417.66,702.22,418,702.89,418.28Z"/></clipPath><clipPath id="clip-path-5" transform="translate(422.91 0.01)"><path class="cls-3" d="M134.23,164l-4.93.48s.22,2,2.74,1.82A2.37,2.37,0,0,0,134.23,164Z"/></clipPath><clipPath id="clip-path-6" transform="translate(422.91 0.01)"><path class="cls-1" d="M167.26,273c1.89.95,2.73,2,2.64,4.18a413.11,413.11,0,0,1-6.79,58.46c-1.06,5.56-2.17,11.57.29,16.66,2.22,4.6,7.07,7.51,12.08,8.51s10.19.3,15.19-.72c5.72-1.17,11.8-3.07,15.23-7.8,3.88-5.35,3.2-12.79,1-19s-5.61-12.08-6.91-18.56c-.71-3.5-.8-7.24-2.57-10.35a25.57,25.57,0,0,0-4.84-5.46,62.7,62.7,0,0,1-11.47-15.17c-1.53-2.83-2.88-5.84-5.15-8.13s-5.64-4.68-8.65-3.53C167.35,272.09,166.49,272.65,167.26,273Z"/></clipPath><clipPath id="clip-path-7" transform="translate(422.91 0.01)"><path class="cls-2" d="M588.83,275.76c-.06-5.82,1.58-7.55,1.58-7.55l-2.56-1.12-.3-.13L585,265.85s-.16,2.37-4.46,6.29c-.46.42-.93.8-1.41,1.18-.91.72-3.47,3.13-5.79,8.88-2.06,5.1-5.34,12.45-7,16.22a2.64,2.64,0,0,0,1.36,3.52l3.63,1.59.87.38,3.62,1.58a2.66,2.66,0,0,0,3.51-1.4c1.61-3.82,4.76-11.23,7.09-16.21,2.63-5.61,2.65-9.13,2.56-10.28C588.88,277,588.84,276.38,588.83,275.76Z"/></clipPath><clipPath id="clip-path-8" transform="translate(422.91 0.01)"><path class="cls-1" d="M583.6,312c-2.12-.18-3.09,2.55-3.34,4.66a411.43,411.43,0,0,0-2.68,58.93c.15,5.66.29,11.79-3,16.43-2.94,4.19-8.2,6.29-13.31,6.47s-10.13-1.34-14.91-3.15c-5.48-2.08-11.18-4.94-13.81-10.16-3-5.92-1.12-13.17,2-19s7.49-11,9.82-17.24c1.27-3.35,2-7,4.21-9.83a25.88,25.88,0,0,1,5.66-4.62,62.86,62.86,0,0,0,13.79-13.16c2-2.56,3.79-5.31,6.39-7.22s6.28-2.77,9.07-1.15"/></clipPath><clipPath id="clip-path-9" transform="translate(422.91 0.01)"><path class="cls-1" d="M365.25,355c2.56.2,3.2,3.65,3.08,6.22a497.91,497.91,0,0,1-8.23,70.86c-1.27,6.73-2.62,14,.36,20.19,2.69,5.57,8.57,9.1,14.64,10.3s12.35.37,18.41-.87c6.93-1.41,14.3-3.72,18.45-9.45,4.7-6.49,3.89-15.5,1.27-23.08s-6.8-14.63-8.38-22.49c-.85-4.24-1-8.77-3.11-12.54-1.46-2.57-3.74-4.56-5.86-6.62A75.61,75.61,0,0,1,382,369.13c-1.86-3.43-3.5-7.08-6.24-9.85s-7-4.54-10.6-3.14"/></clipPath></defs><g id="BACKGROUND"><rect class="cls-4" x="422.87" width="750" height="500"/><rect class="cls-5" x="422.87" y="283.54" width="750" height="216.46"/><g class="cls-6"><path class="cls-7" d="M795.25,260.94S779.68,217.3,733,214.71s-67.82,14.54-117.6,8.14c-56.34-7.24-65.89-51.32-156.17-56.69s-65.64,32-196,40.15c-83,5.23-114.08-21.54-184-25.24-121.75-6.44-124.53,79.87-124.53,79.87Z" transform="translate(422.91 0.01)"/><rect class="cls-8" x="336.23" y="282.65" width="1084.02" height="238.08"/><path class="cls-9" d="M1072.23,317.06C825,293,575.76,316,327.56,307.15c-148.48-5.3-298.79-21.85-444.45,7.4l28.83-62.33a2460.29,2460.29,0,0,1,503.67-11.63c48.19,3.85,96.3,9.11,144.62,10.57,81.29,2.45,162.51-5.9,243.83-7.21a1410.8,1410.8,0,0,1,264.29,20.63Z" transform="translate(422.91 0.01)"/><path class="cls-10" d="M22.79,293.35c-145.7-5.2-293.17-21.23-436.27,5.82l-9.43,20.38c145.66-29.25,296-12.7,444.45-7.4C269.73,321,519,298,766.21,322.06L764.8,303C518.49,279.39,270.1,302.16,22.79,293.35Z" transform="translate(422.91 0.01)"/><path class="cls-11" d="M-374.17,468.06c88.08,13.47,177.32-39.94,264.57-21.87C-81.67,452-55.35,464.93-27,468.08c17.73,2,35.64,0,53.31-2.37,63-8.54,125.88-22.78,189.33-19.17,38.63,2.2,76.65,11,115.26,13.5,34.18,2.22,68.46-.52,102.71-1.24,106.36-2.24,212.19,15,318.55,17.88,20.84.55,46.51-2.45,54.42-21.74,1.79-4.36,2.21-9.83-.89-13.38-2.46-2.83-6.45-3.69-10.16-4.22-23.89-3.41-48.15,0-72.14,2.63q-59.86,6.69-120.18,7.66a1083,1083,0,0,1-127.1-5.07c-35.71-3.65-71.45-9.34-107.3-7.46-22.22,1.16-44.3,5.22-66.54,4.8-32.34-.61-63.8-10.65-96-13.15-37.77-2.93-75.45,4.55-113.16,8.1-102,9.6-205.15-9.59-307.08.78-56.57,5.76-111.78,20.53-166.71,35.25" transform="translate(422.91 0.01)"/><path class="cls-11" d="M-50.93,373c88.08,13.47,177.32-39.94,264.57-21.87,27.93,5.78,54.25,18.74,82.59,21.89,17.73,2,35.64,0,53.31-2.38,63-8.53,125.88-22.77,189.33-19.16,38.63,2.2,76.65,11,115.26,13.5,34.18,2.22,68.46-.52,102.7-1.24,106.37-2.24,212.2,15,318.55,17.88,20.85.55,46.52-2.45,54.43-21.74,1.79-4.36,2.21-9.83-.89-13.38-2.46-2.83-6.45-3.69-10.16-4.22-23.89-3.41-48.15,0-72.14,2.63q-59.86,6.69-120.18,7.66a1083,1083,0,0,1-127.1-5.07c-35.71-3.65-71.46-9.34-107.3-7.46-22.22,1.16-44.3,5.22-66.55,4.8-32.33-.61-63.79-10.65-96-13.15-37.77-2.93-75.45,4.55-113.16,8.1-102,9.6-205.15-9.59-307.08.78C52.65,346.32-2.56,361.09-57.49,375.81" transform="translate(422.91 0.01)"/></g><circle class="cls-12" cx="265.44" cy="80.74" r="21.68" transform="translate(604.08 345.09) rotate(-89.24)"/><path class="cls-13" d="M214.47,120.85S195.86,99.3,177.81,99.31c-11.9,0-6.07,17-15.94,16.23s-11.89-6.83-20.74-7.08-9.86,8.33-16.44,7.88-10.37-2.9-17.45-2.9-7.59,6.15-13.92,7.41Z" transform="translate(422.91 0.01)"/><path class="cls-13" d="M540.45,95s15.17-15.63,23.67-16.08,7.28,11.68,12.13,11.23,15-9.55,24.66-7.13c6.49,1.61,5.68,11.68,5.23,12S540.45,95,540.45,95Z" transform="translate(422.91 0.01)"/><path class="cls-11" d="M419.88,396.25a1.14,1.14,0,0,1,0-.85,1.23,1.23,0,0,1,.85-.67,2.06,2.06,0,0,1,1.56.23A2.67,2.67,0,0,1,423.6,397l.2,1.6-2.45,1a3,3,0,0,1-1.65.16,3.36,3.36,0,0,1-2.66-2.2,2.72,2.72,0,0,1-.11-1.51,2.14,2.14,0,0,1,.21-.59,1.76,1.76,0,0,1,.27-.43,2.24,2.24,0,0,1,1.17-.77,2.47,2.47,0,0,1,1.21,0,1.54,1.54,0,0,1,1.08.82.62.62,0,0,1-.13.73,1,1,0,0,1-.51.21l-.27.05c-.1,0-.21.05-.13,0A.4.4,0,0,0,420,396s0,0,0,.19a.74.74,0,0,0,.14.39c0,.06,0,0-.16-.11s-.3-.07-.2-.09l.38-.22h0a.56.56,0,0,0,.08-.11,2.71,2.71,0,0,0,.29-.92c0-.21.06-.49.07-.74l0,0,.21.12-.47,2.54a.43.43,0,0,0-.23.12s0,0,0-.08a.49.49,0,0,0,0-.16A5.52,5.52,0,0,0,419.88,396.25Z" transform="translate(422.91 0.01)"/><path class="cls-11" d="M404,423.13a1.63,1.63,0,0,1-1.17-1.68,2.39,2.39,0,0,1,4.37-.85,1.62,1.62,0,0,1-.45,2c-.26.27-.54.5-.77.74l-.15.18-.1.13,0,.06a.9.9,0,0,0-.08.43.79.79,0,0,0-.23-.37l0,0-.15-.09-.2-.11C404.7,423.39,404.35,423.28,404,423.13Z" transform="translate(422.91 0.01)"/><path class="cls-11" d="M366,389.5a2.25,2.25,0,0,1-.28-2,2.14,2.14,0,0,1,3.69-.39,2.23,2.23,0,0,1,.15,2,9.43,9.43,0,0,1-.89,1.75c-.28.44-.46.74-.65.76s-.42-.23-.78-.61A9.48,9.48,0,0,1,366,389.5Z" transform="translate(422.91 0.01)"/><path class="cls-11" d="M386.59,375.16a2.65,2.65,0,0,1-2.62,1.71l1.85-4.94a1.8,1.8,0,0,1,.5.08,2.78,2.78,0,0,1-1.55,5.2,1.75,1.75,0,0,1-.46-.21l1.84-4.94A2.66,2.66,0,0,1,386.59,375.16Z" transform="translate(422.91 0.01)"/><path class="cls-11" d="M320.59,394.92a1,1,0,0,1,.08.54.53.53,0,0,1-.12.28c0,.09-.32.17-.64,0a1.18,1.18,0,0,1-.67-.61c0-.07-.07-.18-.09-.21l-.06-.09a1,1,0,0,1-.09-.21,1.24,1.24,0,0,0-.15-.34,2.49,2.49,0,0,0-.11-.27c-.28-.62-.33-1.09-.12-1.4.44-.63,1.77-.23,2.79.87s1.78,2.06,1.66,2.24-.12,0-.25,0l-.1-.05s0,0-.1,0l-.26-.14c-.36-.18-.67-.33-.95-.44-.53-.23-.9-.22-.86-.19s0-.1,0-.13l0,0A.75.75,0,0,0,320.59,394.92Z" transform="translate(422.91 0.01)"/><path class="cls-11" d="M270.17,416.87c-1.33-.69-2.25-1.56-2.05-1.94s1.44-.13,2.77.56,2.25,1.56,2.05,1.95S271.5,417.57,270.17,416.87Z" transform="translate(422.91 0.01)"/><path class="cls-11" d="M244.9,401.58c1.32-.71,2.61-.88,2.89-.36s-.56,1.5-1.88,2.22-2.61.88-2.89.37S243.58,402.3,244.9,401.58Z" transform="translate(422.91 0.01)"/><path class="cls-11" d="M269,450.21c-1.32.72-2.54,1-2.72.68s.73-1.2,2-1.92,2.53-1,2.72-.68S270.26,449.49,269,450.21Z" transform="translate(422.91 0.01)"/><path class="cls-11" d="M727.8,421.92a1.1,1.1,0,0,1,.15-.83,1.21,1.21,0,0,1,1-.49,2.07,2.07,0,0,1,1.48.53,2.69,2.69,0,0,1,.89,2.28l-.12,1.61-2.6.48a3,3,0,0,1-1.64-.17,3.37,3.37,0,0,1-2.18-2.68,2.75,2.75,0,0,1,.19-1.5,2.4,2.4,0,0,1,.32-.54,1.82,1.82,0,0,1,.36-.37,2.24,2.24,0,0,1,1.3-.53,2.41,2.41,0,0,1,1.19.23,1.53,1.53,0,0,1,.89,1,.62.62,0,0,1-.27.69,1,1,0,0,1-.54.11h-.41a.35.35,0,0,0,.16,0s0,0-.05.18a.82.82,0,0,0,.05.41c0,.07,0,0-.12-.14s-.29-.12-.19-.12l.42-.14h0s0,0,0,0l.1-.09a2.61,2.61,0,0,0,.46-.85,5.43,5.43,0,0,0,.22-.71l0,0a1.26,1.26,0,0,0,.19.16l-1,2.39a.39.39,0,0,0-.24.07s0,0,0-.07a.47.47,0,0,0,0-.15A7.06,7.06,0,0,0,727.8,421.92Z" transform="translate(422.91 0.01)"/><path class="cls-11" d="M706.93,445.14a1.62,1.62,0,0,1-.81-1.88,2.39,2.39,0,0,1,4.45,0,1.63,1.63,0,0,1-.83,1.87c-.32.21-.64.38-.9.57l-.19.14-.12.11,0,.06a.8.8,0,0,0-.15.4.91.91,0,0,0-.16-.4l0-.06-.13-.11-.18-.15C707.56,445.53,707.24,445.36,706.93,445.14Z" transform="translate(422.91 0.01)"/><path class="cls-11" d="M676.26,404.65a2.27,2.27,0,0,1,.13-2,2.11,2.11,0,0,1,2-.9,2.07,2.07,0,0,1,1.74,1.25,2.24,2.24,0,0,1-.25,2,8.77,8.77,0,0,1-1.22,1.53c-.37.39-.59.64-.78.62s-.37-.31-.66-.75A9.26,9.26,0,0,1,676.26,404.65Z" transform="translate(422.91 0.01)"/><path class="cls-11" d="M699.33,394.67a2.67,2.67,0,0,1-2.9,1.17l2.77-4.48a1.62,1.62,0,0,1,.48.17,2.78,2.78,0,0,1-2.54,4.8,2.55,2.55,0,0,1-.41-.3l2.78-4.48A2.65,2.65,0,0,1,699.33,394.67Z" transform="translate(422.91 0.01)"/><path class="cls-11" d="M630.72,401a1,1,0,0,1,0,.55.66.66,0,0,1-.17.25c0,.09-.36.11-.64-.08a1.22,1.22,0,0,1-.54-.74c0-.07,0-.19,0-.23l0-.09a1.55,1.55,0,0,1-.06-.23,1.11,1.11,0,0,0-.07-.35,1.62,1.62,0,0,0-.06-.29c-.14-.67-.11-1.14.16-1.4.56-.53,1.79.13,2.57,1.4s1.33,2.37,1.18,2.52-.12,0-.24-.05l-.1-.07-.08-.06-.23-.19c-.32-.24-.59-.45-.84-.61-.48-.34-.84-.41-.81-.37s0-.09,0-.12a.07.07,0,0,0,0-.05S630.71,401,630.72,401Z" transform="translate(422.91 0.01)"/><path class="cls-11" d="M577,412.58c-1.16-.94-1.89-2-1.62-2.31s1.44.15,2.6,1.09,1.9,2,1.63,2.32S578.13,413.52,577,412.58Z" transform="translate(422.91 0.01)"/><path class="cls-11" d="M555.21,392.6c1.43-.44,2.73-.35,2.91.21s-.85,1.37-2.29,1.81-2.73.35-2.9-.21S553.78,393,555.21,392.6Z" transform="translate(422.91 0.01)"/><path class="cls-11" d="M569.18,445c-1.43.44-2.68.5-2.8.13s1-1,2.39-1.48,2.68-.5,2.8-.13S570.61,444.58,569.18,445Z" transform="translate(422.91 0.01)"/><path class="cls-11" d="M210,410.07a1.12,1.12,0,0,1,.15-.83,1.27,1.27,0,0,1,1-.49,2.12,2.12,0,0,1,1.48.53,2.71,2.71,0,0,1,.89,2.29l-.12,1.61-2.6.47a2.93,2.93,0,0,1-1.64-.16A3.38,3.38,0,0,1,207,410.8a2.77,2.77,0,0,1,.19-1.5,3,3,0,0,1,.32-.54,1.75,1.75,0,0,1,.36-.36,2.24,2.24,0,0,1,1.3-.53,2.41,2.41,0,0,1,1.19.23,1.49,1.49,0,0,1,.89,1,.6.6,0,0,1-.27.69.93.93,0,0,1-.54.12h-.28c-.1,0-.21,0-.13,0a.27.27,0,0,0,.16,0,.36.36,0,0,0,0,.18.88.88,0,0,0,0,.42c0,.06,0,0-.12-.14s-.29-.13-.19-.13l.41-.14h0a.29.29,0,0,0,.1-.09,2.31,2.31,0,0,0,.47-.85,7.31,7.31,0,0,0,.22-.7l0,0a1.38,1.38,0,0,0,.19.15l-1,2.4a.39.39,0,0,0-.24.07s0,0,0-.08a.38.38,0,0,0,0-.14A7.49,7.49,0,0,0,210,410.07Z" transform="translate(422.91 0.01)"/><path class="cls-11" d="M189.13,433.3a1.63,1.63,0,0,1-.81-1.88,2.39,2.39,0,0,1,4.45,0,1.63,1.63,0,0,1-.84,1.87c-.31.2-.63.37-.89.56l-.19.15-.12.11,0,.05a.82.82,0,0,0-.15.41,1,1,0,0,0-.16-.41l0-.05-.13-.12-.18-.14C189.76,433.69,189.44,433.51,189.13,433.3Z" transform="translate(422.91 0.01)"/><path class="cls-11" d="M158.46,392.81a2.23,2.23,0,0,1,.13-2,2.13,2.13,0,0,1,3.69.35,2.24,2.24,0,0,1-.25,2,9.6,9.6,0,0,1-1.22,1.53c-.37.38-.59.64-.79.62s-.36-.31-.65-.75A9.26,9.26,0,0,1,158.46,392.81Z" transform="translate(422.91 0.01)"/><path class="cls-11" d="M181.53,382.83a2.65,2.65,0,0,1-2.91,1.16l2.78-4.48a1.64,1.64,0,0,1,.48.18,2.77,2.77,0,0,1-2.54,4.79,1.55,1.55,0,0,1-.41-.3l2.78-4.48A2.68,2.68,0,0,1,181.53,382.83Z" transform="translate(422.91 0.01)"/><path class="cls-11" d="M112.92,389.17a1,1,0,0,1,0,.55.56.56,0,0,1-.17.24c0,.09-.36.11-.64-.08a1.17,1.17,0,0,1-.54-.73c0-.07,0-.19,0-.23l0-.1a.79.79,0,0,1-.06-.22,1.75,1.75,0,0,0-.07-.36c0-.09,0-.22-.06-.29-.14-.66-.11-1.13.16-1.4.56-.53,1.79.13,2.57,1.41s1.33,2.37,1.18,2.52-.12,0-.24-.05l-.1-.07-.08-.07-.23-.19c-.32-.24-.59-.45-.84-.61-.48-.34-.85-.4-.81-.36s0-.09,0-.13,0,0,0,0A1.9,1.9,0,0,0,112.92,389.17Z" transform="translate(422.91 0.01)"/><path class="cls-11" d="M59.16,400.74c-1.16-.95-1.89-2-1.62-2.32s1.44.16,2.6,1.1,1.9,2,1.63,2.31S60.33,401.68,59.16,400.74Z" transform="translate(422.91 0.01)"/><path class="cls-11" d="M37.41,380.76c1.43-.44,2.73-.35,2.9.21s-.84,1.36-2.28,1.81-2.73.35-2.9-.21S36,381.2,37.41,380.76Z" transform="translate(422.91 0.01)"/><path class="cls-11" d="M51.38,433.17c-1.43.45-2.69.5-2.8.13s1-1,2.39-1.47,2.68-.5,2.8-.13S52.81,432.73,51.38,433.17Z" transform="translate(422.91 0.01)"/><path class="cls-14" d="M418.78,339.55c.58-2.08,3.22-23,19.2-18s39.57-12.48,48.87-1.39,5.24,18.72,5.24,18.72" transform="translate(422.91 0.01)"/><path class="cls-15" d="M706.31,351.67s-11.71-10.71-6-20.75,8.37-8.7,4-17.4-3.35-11,2.68-19.07,0-18.74,6.35-24.09,25.43-12.38,17.07-2S715.34,279.06,719,291.77s10.71,25.43,1.34,30.45-.67,15.39-3.68,24.09S706.31,351.67,706.31,351.67Z" transform="translate(422.91 0.01)"/><path class="cls-16" d="M715,346.31c1.08-1.27,1.34-8,6.35-11.71s5.36-4,5.69-13.05,5.69-14.05,8.37-24.09-1.34-19.41-6.36-11.71-6,8.36-7,17.73-3.68,5-8,16.06S704,359.36,715,346.31Z" transform="translate(422.91 0.01)"/><path class="cls-14" d="M55.36,330.55c-13.91-.14-22.51,15.58-26.21,25.1l58.56-12.38C84.54,335,80.14,328.86,74.14,326,57.4,318,48.6,339.8,45.3,352.4" transform="translate(422.91 0.01)"/><path class="cls-17" d="M631.17,431.41c-16.27-3.5-30.1,12.87-36.72,23.14L666,454c-1.74-10.43-5.42-18.69-11.77-23.49-17.69-13.39-33.21,10.08-40.1,24.05" transform="translate(422.91 0.01)"/><path class="cls-15" d="M55.59,450.44S69,438.23,62.46,426.78s-9.54-9.92-4.58-19.84,3.82-12.59-3.05-21.74,0-21.37-7.25-27.48-29-14.11-19.46-2.28,17.17,12.21,13,26.7-12.21,29-1.52,34.72.76,17.56,4.19,27.48S55.59,450.44,55.59,450.44Z" transform="translate(422.91 0.01)"/><path class="cls-18" d="M45.67,444.34c-1.23-1.46-1.52-9.16-7.25-13.36s-6.1-4.58-6.48-14.88-6.49-16-9.54-27.47,1.52-22.13,7.25-13.35,6.87,9.53,8,20.22,4.2,5.72,9.16,18.31S58.26,459.22,45.67,444.34Z" transform="translate(422.91 0.01)"/><path class="cls-11" d="M48.1,438.15c-11.52-2.48-21.32,9.12-26,16.39l50.69-.36c-1.24-7.39-3.85-13.24-8.34-16.64-12.53-9.48-23.52,7.14-28.4,17" transform="translate(422.91 0.01)"/><path class="cls-11" d="M709.49,343.43c-11.52-2.48-21.32,9.11-26,16.38l50.69-.35c-1.23-7.39-3.84-13.24-8.33-16.64-12.54-9.49-23.53,7.14-28.41,17" transform="translate(422.91 0.01)"/></g><g id="OBJECTS"><path class="cls-2" d="M452,374.25c-6.12-3.55-8.93-2.86-8.93-2.86l.35-3.37,0-.4.35-3.37s2.61,1.26,9.33-.95c.71-.23,1.4-.51,2.1-.79,1.3-.53,5.38-1.79,12.85-.81,6.62.88,16.36,1.81,21.37,2.27a3.22,3.22,0,0,1,2.91,3.54l-.5,4.79-.11,1.15-.5,4.78a3.23,3.23,0,0,1-3.59,2.87c-5-.58-14.72-1.69-21.38-2.2-7.51-.58-11.24-2.66-12.41-3.45C453.26,375,452.64,374.63,452,374.25Z" transform="translate(422.91 0.01)"/><g class="cls-19"><path class="cls-20" d="M440.57,367.52s8.82.2,15.79,3.37l.05,0a44,44,0,0,0,17.32,4.28l14.7.44s2.85-.42,4.88-4.21L492.11,383l-52.58-5.49Z" transform="translate(422.91 0.01)"/></g><polygon class="cls-21" points="867.14 371.65 867.97 364.12 864.31 363.73 863.49 371.26 867.14 371.65"/><path class="cls-2" d="M261,438.84c5.76,4.11,8.62,3.68,8.62,3.68l-.67,3.33-.08.39-.66,3.33s-2.48-1.5-9.38.06c-.73.17-1.44.38-2.16.59-1.34.4-5.52,1.28-12.87-.4-6.51-1.49-16.12-3.33-21.07-4.26a3.21,3.21,0,0,1-2.56-3.81l.94-4.71.23-1.14,1-4.71a3.21,3.21,0,0,1,3.83-2.52c4.93,1.05,14.5,3.06,21.09,4.2,7.42,1.28,10.94,3.7,12,4.6C259.85,437.94,260.43,438.4,261,438.84Z" transform="translate(422.91 0.01)"/><g class="cls-22"><path class="cls-20" d="M271.77,446.61s-8.76-1-15.4-4.83l-.05,0a44.08,44.08,0,0,0-16.84-5.89L224.89,434s-2.88.15-5.26,3.74l2.29-11.4,51.82,10.41Z" transform="translate(422.91 0.01)"/></g><polygon class="cls-21" points="691.42 442.18 689.9 449.6 693.5 450.33 695.03 442.91 691.42 442.18"/><path class="cls-2" d="M702.89,418.28c6.28,2.84,9.05,2.2,9.05,2.2l-.18,2.82,0,.33-.18,2.82s-2.67-1-9.27,1c-.7.21-1.37.45-2,.7-1.27.47-5.28,1.61-12.79.94-6.65-.59-16.42-1.17-21.44-1.45a3,3,0,0,1-3.08-2.89l.26-4,.07-1,.26-4A3,3,0,0,1,667,413.3c5,.39,14.77,1.11,21.45,1.4,7.53.33,11.35,2,12.55,2.62C701.59,417.66,702.22,418,702.89,418.28Z" transform="translate(422.91 0.01)"/><g class="cls-23"><path class="cls-20" d="M714.61,423.66s-8.81,0-15.92-2.48l-.05,0a52.14,52.14,0,0,0-17.5-3.21l-14.69-.07a7.09,7.09,0,0,0-4.67,3.61l.64-9.66,52.74,3.5Z" transform="translate(422.91 0.01)"/></g><polygon class="cls-21" points="1133.67 420.31 1133.21 426.61 1136.88 426.86 1137.34 420.56 1133.67 420.31"/><path class="cls-24" d="M521.89,420.07s22.51,2.82,26.5,1.71c3.47-1,11.31-.26,13.32-.06.1.36.36.86,1,.5,1-.53,1.53-.16,1.53-.16s.67.51,1-.18a10.15,10.15,0,0,0,.5-4c-.18-.76-.95-.43-.95-.43s-.61.23-1.44-.53c-.57-.52-.95-.09-1.14.23-2-.3-9.77-1.55-12.89-3.35-3.59-2.06-26.1-4.89-26.1-4.89a12.07,12.07,0,0,0-1.4,11.16Z" transform="translate(422.91 0.01)"/><path class="cls-25" d="M102.38,279.06c-3.61,19.69.54,51.3.54,51.3.2,4.07,5.93,6.36,10,6.71h0a8.15,8.15,0,0,0,8.77-7l5.89-49.38S103.52,272.84,102.38,279.06Z" transform="translate(422.91 0.01)"/><path class="cls-25" d="M120.6,333.14,92.23,393.28,82,388.92s10-48.27,23.2-63.22Z" transform="translate(422.91 0.01)"/><path class="cls-25" d="M125.6,288.24l25.12,43.62c2.22,3.42,8.58,3.49,12.26,1.75h0a8.14,8.14,0,0,0,4.07-10.46L148.2,277Z" transform="translate(422.91 0.01)"/><path class="cls-25" d="M167.65,326.36l-2.47,67.44-12.48-.09s-6.85-51-2.34-67Z" transform="translate(422.91 0.01)"/><path class="cls-26" d="M105.72,247.08l4.08.39,32.84-3,2.63,7.91c10.39,11.45,11.65,40.28,11.65,40.28s-15.81,3.05-26.11,5.42l-3.12-5.42-.76,6.58c-1,.23-.86,0-1.62.2-7.2,2-27.33-.17-27.33-.17C97.46,285.52,89.63,265.65,105.72,247.08Z" transform="translate(422.91 0.01)"/><polyline class="cls-27" points="550.49 292.86 551.89 275.55 558.8 271.03"/><path class="cls-25" d="M178.69,403.89l-13.18-5.64s.33-8.29.88-19.38q-7.56.38-15.11.69l1.3,16.27c-.14,1.78-.36,3.73-.7,5.84-.54,3.31,3,7.72,10.08,6.09,5-1.15,10.33,1,18.47,1.51C183.5,409.44,189.45,404.41,178.69,403.89Z" transform="translate(422.91 0.01)"/><path class="cls-25" d="M101.19,405.46l-9.25-10.82s3.43-9.45,8.37-19.4C91.71,372,91,372.4,89,371.64l-7.55,16.61c-.8,1.5-2.29,1.8-4,4.46-1.82,2.83-.3,8.29,6.81,9.61,5,.93,9.06,5.08,16.33,8.76C103.37,412.47,110.84,410.23,101.19,405.46Z" transform="translate(422.91 0.01)"/><path class="cls-28" d="M133.35,163.05s11.05-8.2,1.41-16.88Z" transform="translate(422.91 0.01)"/><path class="cls-28" d="M117.44,170.51s-12.72-9.86-5.49-24.24c5-9.88,23.17-7,23.6,3" transform="translate(422.91 0.01)"/><path class="cls-29" d="M121.17,143.51a9,9,0,0,0-2.43,1.35c-6.85,5.31-4.16,17.34.85,23.17,2.77,3.23,7.13,5.06,11.22,4,6-1.54,8.48-7.87,7.93-13.79a17.92,17.92,0,0,0-5.63-11.68C129.84,143.65,125.17,142.06,121.17,143.51Z" transform="translate(422.91 0.01)"/><path class="cls-29" d="M117.9,164.31a4.54,4.54,0,0,1-4.55.53,5,5,0,0,1-2.66-3.8,4,4,0,0,1,1.5-3.81A2.85,2.85,0,0,1,116,158Z" transform="translate(422.91 0.01)"/><path class="cls-29" d="M116.71,160.35l-1,20.63a7.22,7.22,0,0,0,6.29,7.64h0a7.21,7.21,0,0,0,8.12-7.31L129.8,162Z" transform="translate(422.91 0.01)"/><path class="cls-30" d="M130,175l0-2.84A11.61,11.61,0,0,1,119.59,168S121.94,173.69,130,175Z" transform="translate(422.91 0.01)"/><path class="cls-31" d="M115.11,161.81a1.39,1.39,0,0,1-1.54-1.2,1.23,1.23,0,0,1,1-1.09" transform="translate(422.91 0.01)"/><path class="cls-32" d="M133,162.21l1-1.27h0l.08.4a2.49,2.49,0,0,1-.89-.91,5,5,0,0,1-.52-1.07,5.36,5.36,0,0,0,.71.92,2.13,2.13,0,0,0,.89.61l.31.09-.23.31h0l-1.27,1Z" transform="translate(422.91 0.01)"/><path class="cls-3" d="M137.39,157.52a1,1,0,1,1-1-.94A1,1,0,0,1,137.39,157.52Z" transform="translate(422.91 0.01)"/><path class="cls-3" d="M128.94,158.57a1,1,0,1,1-1-.95A1,1,0,0,1,128.94,158.57Z" transform="translate(422.91 0.01)"/><path class="cls-3" d="M134.23,164l-4.93.48s.22,2,2.74,1.82A2.37,2.37,0,0,0,134.23,164Z" transform="translate(422.91 0.01)"/><g class="cls-33"><path class="cls-34" d="M129.35,168.06a1.92,1.92,0,1,0,.71-2.62A1.93,1.93,0,0,0,129.35,168.06Z" transform="translate(422.91 0.01)"/></g><path class="cls-35" d="M131.64,157.6a4.52,4.52,0,1,1-4.87-4.24A4.56,4.56,0,0,1,131.64,157.6Z" transform="translate(422.91 0.01)"/><path class="cls-35" d="M141.7,156.76a3.9,3.9,0,1,1-4.21-4.11A4.18,4.18,0,0,1,141.7,156.76Z" transform="translate(422.91 0.01)"/><path class="cls-35" d="M131.64,157.6a1.63,1.63,0,0,1,2.35-.22" transform="translate(422.91 0.01)"/><line class="cls-35" x1="545.55" y1="158.33" x2="538.32" y2="157.41"/><path class="cls-28" d="M115.55,157.88c1.59,1,3.48,1.15,4-2.94a12.74,12.74,0,0,1,7.1-1.83c10.39.75,14.75-1.9,11.14-9-4.05-7.93-15.87-6.6-21.88-2-4,3-3.91,8-3.42,11A6.75,6.75,0,0,0,115.55,157.88Z" transform="translate(422.91 0.01)"/><path class="cls-35" d="M131.64,157.6a4.52,4.52,0,1,1-4.87-4.24A4.56,4.56,0,0,1,131.64,157.6Z" transform="translate(422.91 0.01)"/><path class="cls-35" d="M141.7,156.76a3.9,3.9,0,1,1-4.21-4.11A4.18,4.18,0,0,1,141.7,156.76Z" transform="translate(422.91 0.01)"/><path class="cls-35" d="M131.64,157.6a1.63,1.63,0,0,1,2.35-.22" transform="translate(422.91 0.01)"/><path class="cls-25" d="M157.4,223.07h0c-5.08.65-6.81,6.9-6.33,12.76l11.07,32.95,10,4.62-3.69-45.51C167.44,224,161.42,222.55,157.4,223.07Z" transform="translate(422.91 0.01)"/><path class="cls-25" d="M167.81,278.16l5.29,3.68-.17-12.24-3.65-2.9-7.44.91h0A14,14,0,0,0,167.81,278.16Z" transform="translate(422.91 0.01)"/><line class="cls-36" x1="594.46" y1="366.48" x2="593.02" y2="182.27"/><polygon class="cls-37" points="613.77 366.78 607.77 397.65 570.14 397.65 577.99 366.78 613.77 366.78"/><line class="cls-38" x1="602.48" y1="397.65" x2="609.34" y2="368"/><line class="cls-38" x1="596.85" y1="397.65" x2="603.72" y2="368"/><line class="cls-38" x1="591.23" y1="397.65" x2="598.09" y2="368"/><line class="cls-38" x1="585.6" y1="397.65" x2="592.47" y2="368"/><line class="cls-38" x1="579.98" y1="397.65" x2="586.85" y2="368"/><line class="cls-38" x1="574.35" y1="397.65" x2="581.22" y2="368"/><path class="cls-39" d="M150.55,362.72h42.28a0,0,0,0,1,0,0V367a3.78,3.78,0,0,1-3.78,3.78H154.33a3.78,3.78,0,0,1-3.78-3.78v-4.32A0,0,0,0,1,150.55,362.72Z" transform="translate(766.3 733.55) rotate(180)"/><path class="cls-39" d="M167.35,272.09c2.12.16,2.64,3,2.55,5.13a413.11,413.11,0,0,1-6.79,58.46c-1.06,5.56-2.17,11.57.29,16.66,2.22,4.6,7.07,7.51,12.08,8.51s10.19.3,15.19-.72c5.72-1.17,11.8-3.07,15.23-7.8,3.88-5.35,3.2-12.79,1-19s-5.61-12.08-6.91-18.56c-.71-3.5-.8-7.24-2.57-10.35a25.57,25.57,0,0,0-4.84-5.46,62.7,62.7,0,0,1-11.47-15.17c-1.53-2.83-2.88-5.84-5.15-8.13s-5.74-3.74-8.74-2.58" transform="translate(422.91 0.01)"/><g class="cls-40"><path class="cls-41" d="M167.94,260.32c-2.46,4.75-5,10-3.79,15.23,1,4.41,4.49,7.81,6.31,11.95,1.41,3.2,1.8,6.82,3.55,9.86,1.88,3.28,5.13,5.52,8.26,7.64s6.13,4.13,9.67,5.05,7.65.47,10.29-2.06c3-2.91,3.3-7.81,1.79-11.71s-4.46-7-7.37-10.06c-9.06-9.39-18.33-18.62-28.65-26.6" transform="translate(422.91 0.01)"/><g class="cls-42"><path class="cls-43" d="M217.34,304.57c-2.9-3.18-8.39-2.06-11.61.8s-5,6.95-7.75,10.3a24.56,24.56,0,0,1-11,7.78c-2.13.74-4.43,1.22-6.16,2.65s-2.57,4.29-1,5.93c2.15,2.29,6.9.5,8.53,3.18,2.15,3.53-4.88,6.53-4.76,10.67.06,1.91,1.69,3.43,2,5.31.39,2.16-.94,4.2-1.87,6.18a17.36,17.36,0,0,0,.22,15.09,16,16,0,0,0,12.37,8.46c6.53.62,12.73-3.07,17.51-7.55,15-14,20-37.62,12.16-56.56-2-4.78-4.81-9.36-9-12.43" transform="translate(422.91 0.01)"/></g><g class="cls-44"><path class="cls-43" d="M169.24,257.72c-2.46,4.75-5,10-3.79,15.23,1,4.41,4.49,7.81,6.31,11.95,1.4,3.21,1.8,6.83,3.55,9.86,1.88,3.29,5.12,5.52,8.26,7.64s6.13,4.14,9.67,5.06,7.65.46,10.28-2.07c3-2.9,3.31-7.8,1.8-11.71s-4.46-7-7.37-10.06c-9.06-9.38-18.33-18.62-28.65-26.6" transform="translate(422.91 0.01)"/></g></g><path class="cls-25" d="M171.58,265.48s4.8-.6,4.67,5.62c0,0-1.45,3.34-9.51,3.86a2,2,0,0,1-1.93-1.87h0A2,2,0,0,1,166,270.9l5.39-1.7Z" transform="translate(422.91 0.01)"/><path class="cls-25" d="M176.25,271.1a6.12,6.12,0,0,1,.57,5,5.45,5.45,0,0,1-.16,4,2.84,2.84,0,0,1,0,2.17,2.75,2.75,0,0,1-2.24,1.76c-1.65.23-4.53.38-6.38-.95a1.4,1.4,0,0,1-.58-1.36c.07-.42-.06-.64.45-.95,0,0-1.15-.46-1.26-1.45a1.67,1.67,0,0,1,1-1.87s-2.52.72-2.25-2.69S176.25,271.1,176.25,271.1Z" transform="translate(422.91 0.01)"/><path class="cls-45" d="M203.92,338a5.71,5.71,0,0,0-1.14-1.95l.85-.74-3.87.37-1.4,4.24.88-.77c.39.34,3.23,2.82,3.07,4.84l1.58-4.43A2.38,2.38,0,0,0,203.92,338Z" transform="translate(422.91 0.01)"/><path class="cls-45" d="M197.61,342.09l.72,4.41,2.51-.52a1.34,1.34,0,0,0,1-1,3.76,3.76,0,0,0-.86-3.24Z" transform="translate(422.91 0.01)"/><path class="cls-45" d="M195.44,336.45l-1-.5c.08-.54.72-4.48,2.41-5.28l-4.27.53a1.9,1.9,0,0,0-1.25.7,5.79,5.79,0,0,0-1,2l-1-.48,2.1,3.61Z" transform="translate(422.91 0.01)"/><path class="cls-45" d="M199.08,331.19a1.22,1.22,0,0,0-1.28-.5,3.26,3.26,0,0,0-2.17,2.36l1.87,3.13,3.17-2.77Z" transform="translate(422.91 0.01)"/><path class="cls-45" d="M193.8,342c-.46.19-3.88,1.49-5.33.24l2.49,3.88a2,2,0,0,0,1.17.87,4.51,4.51,0,0,0,2.09,0l.1,1.19,1.83-3.8-2.45-3.6Z" transform="translate(422.91 0.01)"/><path class="cls-45" d="M190.93,342.26l1.56-3.33-3.73-1.73-1,2.63a1.54,1.54,0,0,0,.22,1.48A2.94,2.94,0,0,0,190.93,342.26Z" transform="translate(422.91 0.01)"/><path class="cls-25" d="M157.72,202.91c-2.77,1.48-5.56,3-8.37,4.37q-3.71,1.89-7.5,3.72l10.75,23.57a8.55,8.55,0,0,0,9.93,4.24,7.09,7.09,0,0,0,4.93-9.27Z" transform="translate(422.91 0.01)"/><path class="cls-45" d="M167.62,226.28c5.84-7.66-16-40.21-19.81-46.62-2.06-3.51-13-3.1-17.34-3.21-2.06,6-13.65,4.11-15.5,3.16A73,73,0,0,0,101.24,184c-5,2.36-8.74,40-1.38,43.72-1.89,13.41-6.34,11-8.16,41.64l63.46-1.87-4.67-34.76S164.91,229.84,167.62,226.28Z" transform="translate(422.91 0.01)"/><path class="cls-45" d="M150.49,232.72a46.75,46.75,0,0,0-1.7-16.16" transform="translate(422.91 0.01)"/><path class="cls-25" d="M138.52,206.91l-2.25,3.72c-.22.34,10.46,4,10.46,4s13-14.09,13.4-15.47-5.28,3.21-5.28,3.21,4.56-5.35,5.11-7.5c.43-1.71-6.88,4.3-6.88,4.3,2.15-2.88,6.47-8,5.66-8.8-1-1-8.28,7.51-8.28,7.51s4.6-6.4,3.93-7.65-10.76,10-10.76,10a8.09,8.09,0,0,0-2.28-5.66,1.87,1.87,0,0,0-2.18,0C141.15,198.17,138.52,206.91,138.52,206.91Z" transform="translate(422.91 0.01)"/><path class="cls-25" d="M141.72,201.86s-26.1,28.21-26.7,26.89c-1-2.2-3.73-7.69-5.47-11.16-1.46,1.67-2.88,3.38-4.37,5-2.85,3.13-5.88,6.12-9,9,2.79,5.22,6.57,11.07,11.14,15.26,17.13,15.67,42.93-38.42,42.93-38.42Z" transform="translate(422.91 0.01)"/><path class="cls-45" d="M115.15,225.88S97.79,252,93.13,246.5c-6.62-7.83-4.91-45.88.8-55.41,1.24-2.06,6.1-6.69,8.06-7.44Z" transform="translate(422.91 0.01)"/><path class="cls-45" d="M115.15,225.88c2-6.82-3.41-10-5.35-19.93" transform="translate(422.91 0.01)"/><path class="cls-46" d="M635.27,340.06,607,321.13a19.94,19.94,0,0,0-20.68-.21h0c-7.78,4.73-10,14-5,21l17.25,24.52,45.33-12Z" transform="translate(422.91 0.01)"/><line class="cls-47" x1="1017.13" y1="338.04" x2="1030.98" y2="353.99"/><path class="cls-48" d="M653.57,392.72h32s2.46-.26,1.55-3.11-7.51-3.11-7.51-3.11a22.35,22.35,0,0,1-10.75-5.7c-4.4-4.53-8.16-2.2-9.84,0s-8.82.13-8.82.13Z" transform="translate(422.91 0.01)"/><path class="cls-48" d="M610.56,387.87c-.54,1.62-1.1,3.24-1.66,4.85h44.67l-.79-11.09-38.13-8C613.27,378.38,612.12,383.22,610.56,387.87Z" transform="translate(422.91 0.01)"/><path class="cls-26" d="M661,343,628.4,332.09l-.69,15.39s-27,6.65-40.5,15.25a11.76,11.76,0,0,0-5.45,11.88,8.28,8.28,0,0,0,.29,1.19c1.26,5.77,5.46,12.74,17.81,15.78a41.62,41.62,0,0,0,9.95,1.14h13.6L625,379.57l20.85-.31c9.12,0,20.26-3.8,21.61-12.25C669.41,354.67,661,343,661,343Z" transform="translate(422.91 0.01)"/><polyline class="cls-47" points="1051.01 339.36 1050.43 347.11 1021.9 356.72"/><path class="cls-24" d="M683.1,303.21a39,39,0,0,1-7.48,4.08,16.58,16.58,0,0,1-5.6,1.43c-4.26.19-8.25-2.2-11.3-5.18-4.48-4.39-7.47-10.1-11.81-14.63-3.06-3.19-6.74-5.74-9.71-9a22.72,22.72,0,0,1-4.89-11.31,14.26,14.26,0,0,1,.62-5.72c1.56-5.67,10-12.92,13.56-12.71s6.57,3.16,9,5.9l9.07,10.05a30,30,0,0,0,6.76,6.12c2.31,1.36,4.94,2.08,7.3,3.35a17.73,17.73,0,0,1,8.2,9.51c.23.62.45,1.28.66,2a15.81,15.81,0,0,1-4.43,16.18Z" transform="translate(422.91 0.01)"/><path class="cls-48" d="M645.13,251.26a8.34,8.34,0,0,1,2.22,1.25c6.27,4.95,3.7,16-1,21.32-2.58,2.95-6.6,4.6-10.36,3.6-5.49-1.47-7.74-7.31-7.19-12.76A16.5,16.5,0,0,1,634.12,254C637.15,251.32,641.45,249.89,645.13,251.26Z" transform="translate(422.91 0.01)"/><path class="cls-48" d="M648,270.42a4.17,4.17,0,0,0,4.18.52,4.53,4.53,0,0,0,2.47-3.47,3.69,3.69,0,0,0-1.35-3.52,2.61,2.61,0,0,0-3.5.64Z" transform="translate(422.91 0.01)"/><path class="cls-48" d="M649.1,266.78l.81,19a6.65,6.65,0,0,1-5.84,7h0a6.65,6.65,0,0,1-7.42-6.79l.4-17.75Z" transform="translate(422.91 0.01)"/><path class="cls-49" d="M636.78,280.2v-2.61a10.67,10.67,0,0,0,9.61-3.76S644.19,279,636.78,280.2Z" transform="translate(422.91 0.01)"/><path class="cls-24" d="M650.88,263.72c-6.8.32-13.43-3.61-17.42-9.13a15.15,15.15,0,0,1,15.09-4C656.38,252.74,650.88,263.72,650.88,263.72Z" transform="translate(422.91 0.01)"/><path class="cls-50" d="M650.57,268.14a1.28,1.28,0,0,0,1.42-1.09,1.11,1.11,0,0,0-.86-1" transform="translate(422.91 0.01)"/><path class="cls-49" d="M634,268.41l-1.11-.85h0l-.24-.38.34-.09a1.53,1.53,0,0,0,.52-.36c.17-.18.34-.37.49-.56a13.41,13.41,0,0,0,.88-1.25c-.19.47-.39.94-.63,1.4-.13.23-.26.46-.41.68a1.74,1.74,0,0,1-.64.62l.1-.46h0l.84,1.12a.11.11,0,0,1,0,.14A.09.09,0,0,1,634,268.41Z" transform="translate(422.91 0.01)"/><path class="cls-49" d="M632.8,270.08a4.24,4.24,0,0,0,1.24.48,2.27,2.27,0,0,0,1.19-.12,3.85,3.85,0,0,0,1-.7c.32-.31.61-.65,1-1-.07.23-.16.44-.25.67s-.24.41-.37.62a2.91,2.91,0,0,1-1.16.94,2.13,2.13,0,0,1-1.53,0A2.3,2.3,0,0,1,632.8,270.08Z" transform="translate(422.91 0.01)"/><path class="cls-49" d="M637.88,262.8a6.05,6.05,0,0,0,.11,1.76c.12.57.46,1,1,.85s.85-.5,1.1-1a6.83,6.83,0,0,0,.55-1.69h0a.18.18,0,0,1,.21-.15.17.17,0,0,1,.15.19,5.59,5.59,0,0,1-.43,1.88A2.07,2.07,0,0,1,639,266a1.29,1.29,0,0,1-1.08-.35,1.8,1.8,0,0,1-.45-1,4.93,4.93,0,0,1,.08-1.92.16.16,0,0,1,.19-.12.14.14,0,0,1,.12.16Z" transform="translate(422.91 0.01)"/><path class="cls-49" d="M630.22,262.36a6.5,6.5,0,0,0,.09,1.47c.1.49.33.83.68.74s.63-.43.82-.86a7.76,7.76,0,0,0,.43-1.42h0a.19.19,0,0,1,.37,0,5.14,5.14,0,0,1-.3,1.59,2.55,2.55,0,0,1-.42.75,1.28,1.28,0,0,1-.83.49,1,1,0,0,1-.93-.39,1.69,1.69,0,0,1-.32-.84,4.57,4.57,0,0,1,.1-1.61.14.14,0,0,1,.18-.12.16.16,0,0,1,.13.16Z" transform="translate(422.91 0.01)"/><path class="cls-45" d="M651.37,281.23a289.52,289.52,0,0,1,10.88,61.64c.44,6.4-9.08,2.82-15,2.68-11.76-.28-14.49.36-19.14-6.2,0,0-1.33-42.43,7.9-54.74C636.84,283.48,651.37,281.23,651.37,281.23Z" transform="translate(422.91 0.01)"/><path class="cls-51" d="M638.6,300.8S625.2,314,615.32,319.4c-14.54,8-35.88-25.06-35.88-25.06l5.63-5.3s20,17.95,20.86,17.32c6.87-5.23,22.84-15.28,22.84-15.28Z" transform="translate(422.91 0.01)"/><path class="cls-45" d="M611.71,299.86s12.11,14.28,12.35,13.9,31.85-20.95,26.06-28.76S611.71,299.86,611.71,299.86Z" transform="translate(422.91 0.01)"/><path class="cls-2" d="M588.83,275.76c-.06-5.82,1.58-7.55,1.58-7.55l-2.56-1.12-.3-.13L585,265.85s-.16,2.37-4.46,6.29c-.46.42-.93.8-1.41,1.18-.91.72-3.47,3.13-5.79,8.88-2.06,5.1-5.34,12.45-7,16.22a2.64,2.64,0,0,0,1.36,3.52l3.63,1.59.87.38,3.62,1.58a2.66,2.66,0,0,0,3.51-1.4c1.61-3.82,4.76-11.23,7.09-16.21,2.63-5.61,2.65-9.13,2.56-10.28C588.88,277,588.84,276.38,588.83,275.76Z" transform="translate(422.91 0.01)"/><g class="cls-52"><path class="cls-20" d="M588.64,264.86s-3.43,6.4-4,12.67v0a36.14,36.14,0,0,1-4,14.14l-5.64,10.71s-1.45,1.87-5,1.79l8.76,3.82,17.38-39.87Z" transform="translate(422.91 0.01)"/></g><polygon class="cls-21" points="1013.01 269.16 1007.29 266.7 1008.49 263.92 1014.22 266.38 1013.01 269.16"/><path class="cls-53" d="M573.77,280.87s-2.36-1.38-3.66,1.85c0,0,0,2,4.08,4.1a1.11,1.11,0,0,0,1.41-.53h0a1.16,1.16,0,0,0-.15-1.41L573,282.81Z" transform="translate(422.91 0.01)"/><path class="cls-53" d="M570.11,282.72a3.42,3.42,0,0,0-1.4,2.46,3,3,0,0,0-.8,2.12,1.52,1.52,0,0,0-.46,1.12,1.55,1.55,0,0,0,.77,1.4,5.32,5.32,0,0,0,3.51.93.79.79,0,0,0,.6-.57c0-.23.17-.32,0-.59a1.19,1.19,0,0,0,1-.47.93.93,0,0,0-.11-1.18s1.14.92,1.75-.89S570.11,282.72,570.11,282.72Z" transform="translate(422.91 0.01)"/><path class="cls-54" d="M636.43,285s-5.89,9.16-7.83,18.09" transform="translate(422.91 0.01)"/><path class="cls-39" d="M583.6,312c-2.12-.18-3.09,2.55-3.34,4.66a411.43,411.43,0,0,0-2.68,58.93c.15,5.66.29,11.79-3,16.43-2.94,4.19-8.2,6.29-13.31,6.47s-10.13-1.34-14.91-3.15c-5.48-2.08-11.18-4.94-13.81-10.16-3-5.92-1.12-13.17,2-19s7.49-11,9.82-17.24c1.27-3.35,2-7,4.21-9.83a25.88,25.88,0,0,1,5.66-4.62,62.86,62.86,0,0,0,13.79-13.16c2-2.56,3.79-5.31,6.39-7.22s6.28-2.77,9.07-1.15" transform="translate(422.91 0.01)"/><g class="cls-55"><path class="cls-41" d="M584.91,300.23c1.66,5.09,3.32,10.71,1.3,15.67-1.7,4.2-5.69,7-8.16,10.81-1.91,3-2.88,6.46-5.09,9.19-2.4,2.94-6,4.63-9.41,6.23s-6.73,3.1-10.37,3.44-7.65-.76-9.85-3.7c-2.51-3.35-2-8.24.11-11.87s5.55-6.25,8.91-8.76c10.46-7.83,21.12-15.47,32.61-21.71" transform="translate(422.91 0.01)"/><g class="cls-42"><path class="cls-43" d="M528.93,336.07c3.38-2.68,8.63-.69,11.36,2.65s3.88,7.68,6,11.44a24.62,24.62,0,0,0,9.68,9.47c2,1.07,4.18,1.91,5.66,3.61s1.86,4.66.07,6c-2.49,1.92-6.9-.62-9,1.77-2.69,3.15,3.78,7.25,3,11.32-.36,1.88-2.22,3.13-2.86,4.93-.74,2.07.25,4.3.85,6.42a17.35,17.35,0,0,1-2.64,14.88A16,16,0,0,1,537.51,415c-6.56-.44-12.1-5.08-16.11-10.28-12.56-16.28-13.78-40.43-2.94-57.9,2.73-4.41,6.26-8.48,10.87-10.85" transform="translate(422.91 0.01)"/></g><g class="cls-44"><path class="cls-43" d="M584,297.45c1.67,5.1,3.32,10.71,1.31,15.68-1.71,4.2-5.7,7-8.17,10.8-1.9,2.95-2.88,6.47-5.09,9.19-2.39,2.94-6,4.63-9.41,6.23s-6.72,3.1-10.37,3.44-7.65-.76-9.84-3.69c-2.52-3.36-2-8.25.1-11.87s5.55-6.25,8.91-8.77c10.47-7.83,21.13-15.47,32.61-21.71" transform="translate(422.91 0.01)"/></g></g><path class="cls-45" d="M536.43,375.81a3.69,3.69,0,0,1,1-1.16l-.48-.58,2.5.65.46,2.93-.49-.59c-.29.18-2.42,1.5-2.53,2.85l-.57-3.08A1.64,1.64,0,0,1,536.43,375.81Z" transform="translate(422.91 0.01)"/><path class="cls-45" d="M540.14,379.14,539.2,382l-1.59-.61a.89.89,0,0,1-.55-.77,2.44,2.44,0,0,1,.91-2Z" transform="translate(422.91 0.01)"/><path class="cls-45" d="M542.16,375.67l.73-.22c0-.36,0-3-1-3.72l2.74.8a1.27,1.27,0,0,1,.75.6,3.63,3.63,0,0,1,.45,1.44l.7-.21-1.77,2.15Z" transform="translate(422.91 0.01)"/><path class="cls-45" d="M540.34,371.83a.81.81,0,0,1,.89-.19,2.18,2.18,0,0,1,1.17,1.78l-1.56,1.86-1.78-2.16Z" transform="translate(422.91 0.01)"/><path class="cls-45" d="M542.64,379.5c.29.17,2.4,1.39,3.48.72l-2,2.29a1.29,1.29,0,0,1-.86.44,2.91,2.91,0,0,1-1.37-.22l-.19.77-.8-2.69,2-2.1Z" transform="translate(422.91 0.01)"/><path class="cls-45" d="M544.51,380l-.67-2.35,2.63-.73.35,1.82a1,1,0,0,1-.3.95A1.92,1.92,0,0,1,544.51,380Z" transform="translate(422.91 0.01)"/><path class="cls-39" d="M575.4,313.59s6.93-4.22,12.37-2.66,4.67,4.67-6.73,5.7" transform="translate(422.91 0.01)"/><path class="cls-48" d="M587.47,316.4l2.5,1.85c.24.16-5.06,5.57-5.06,5.57s-8.66-4.8-9.69-4.72c-7,.56-4.7-6.8,3.1-6.65,4,.07,3.94.85,3.94.85a5.77,5.77,0,0,1,0-4.36,1.33,1.33,0,0,1,1.44-.58C583.37,311.32,587.47,316.4,587.47,316.4Z" transform="translate(422.91 0.01)"/><path class="cls-48" d="M645.2,309.72s-15.73,21.74-25.09,28c-8.4,5.64-40-17.14-40-17.14l3.86-6.69s24.36,11.4,25,10.56c2.08-2.88,5.22-7.17,8.19-11.22,4.69-6.41,19.41-10,26.43-6.3Z" transform="translate(422.91 0.01)"/><path class="cls-45" d="M610.39,319c.57.17,17,15.53,17.12,15.1s35.64-28.34,22.41-44.3C643.72,282.29,610.39,319,610.39,319Z" transform="translate(422.91 0.01)"/><polyline class="cls-54" points="1033.3 318.99 1050.32 334.67 1061.8 324.03"/><line class="cls-47" x1="1030.61" y1="379.37" x2="1049.1" y2="379.87"/><line class="cls-56" x1="759.14" y1="212.83" x2="847.45" y2="387.87"/><polygon class="cls-57" points="844.03 379.97 857.99 391.49 838.6 399.77 844.03 379.97"/><rect class="cls-57" x="396.45" y="393.53" width="62.31" height="2.53" transform="translate(1395.96 597.75) rotate(157.69)"/><rect class="cls-57" x="454.83" y="383.67" width="1.72" height="9.89" transform="translate(1447.68 575.22) rotate(157.7)"/><rect class="cls-57" x="449.59" y="385.82" width="1.72" height="9.89" transform="translate(1438.41 581.35) rotate(157.7)"/><rect class="cls-57" x="444.35" y="387.97" width="1.72" height="9.89" transform="translate(1429.13 587.48) rotate(157.7)"/><rect class="cls-57" x="439.11" y="390.12" width="1.72" height="9.89" transform="translate(1419.86 593.61) rotate(157.7)"/><rect class="cls-57" x="433.86" y="392.27" width="1.72" height="9.89" transform="translate(1410.58 599.74) rotate(157.7)"/><rect class="cls-57" x="428.62" y="394.42" width="1.72" height="9.89" transform="translate(1401.31 605.86) rotate(157.7)"/><rect class="cls-57" x="423.38" y="396.57" width="1.72" height="9.89" transform="translate(1392.04 611.99) rotate(157.7)"/><rect class="cls-57" x="418.14" y="398.72" width="1.72" height="9.89" transform="translate(1382.77 618.09) rotate(157.69)"/><rect class="cls-57" x="412.9" y="400.87" width="1.72" height="9.89" transform="translate(1373.5 624.22) rotate(157.69)"/><rect class="cls-57" x="407.66" y="403.02" width="1.72" height="9.89" transform="translate(1364.23 630.35) rotate(157.69)"/><rect class="cls-57" x="402.42" y="405.17" width="1.72" height="9.89" transform="translate(1354.95 636.48) rotate(157.69)"/><polygon class="cls-57" points="847.19 384.71 841.16 372.67 838.98 373.72 844.58 385.24 847.19 384.71"/><path class="cls-58" d="M393.73,323.52s2.46-1.4-.11-5c0,0-2.19-1.37-7.16,1.56a1.4,1.4,0,0,0-.4,1.87h0a1.44,1.44,0,0,0,1.6.8l4.32-1.28Z" transform="translate(422.91 0.01)"/><path class="cls-58" d="M393.62,318.52a4.3,4.3,0,0,0-1.67-3.17,3.85,3.85,0,0,0-1.72-2.31,2.06,2.06,0,0,0-2.91-1.39c-1.07.53-2.83,1.59-3.39,3.12a1,1,0,0,0,.21,1c.2.23.22.4.64.38a1.52,1.52,0,0,0-.17,1.36,1.21,1.21,0,0,0,1.35.7s-1.78.59-.26,2.48S393.62,318.52,393.62,318.52Z" transform="translate(422.91 0.01)"/><path class="cls-59" d="M388.08,314.63a5.37,5.37,0,0,1-.29-1.22c-2.38,1.35-4.46,2.63-4.46,2.63a7,7,0,0,0-.52-5.22,1.6,1.6,0,0,0-1.79-.51c.74,3.5-3.55,10.07-3.55,10.07l-2.76,2.52c-.26.23,7.67,5.8,7.67,5.8s4.6-2.76,8.68-5.33C390.08,320.46,389.09,317.54,388.08,314.63Z" transform="translate(422.91 0.01)"/><path class="cls-59" d="M315.51,318.68s12.82,18.59,23.24,27.25c15.33,12.75,48-21.41,48-21.41L381.34,317s-27.71,16.62-28.54,15.69c-6.92-7.74-23.49-23.23-23.49-23.23Z" transform="translate(422.91 0.01)"/><path class="cls-45" d="M347.45,323.7s-17.54,14.09-17.74,13.59-32.81-32-24.21-39.86S347.45,323.7,347.45,323.7Z" transform="translate(422.91 0.01)"/><path class="cls-59" d="M333,326.25l-26.64,13.66c-4.22,11.11.15,7.63-5.68,18.12l16.83-6.27L293,381.87l11.34,6.58,36-35.85c11.9-12.89,13.45-25.26,2.63-27.74A14.82,14.82,0,0,0,333,326.25Z" transform="translate(422.91 0.01)"/><path class="cls-59" d="M302.52,370.33l10.16,9.45s-11.54,12.14-13.19,15.75l10.25,11.16c9.62,4.91,2.1,7.06-.63,5.63-7.25-3.78-14.46-10.14-19.47-11.13-7.12-1.42-7.3-5.73-5.44-8.54C289.55,384.58,302.52,370.33,302.52,370.33Z" transform="translate(422.91 0.01)"/><polygon class="cls-60" points="742.85 332.42 747.25 347.86 721.31 362.12 716 346.09 742.85 332.42"/><path class="cls-61" d="M303.45,347.8,344,326.57c15.53-8.52,21.69,4.47,15.19,24L341.14,398l-13-1.33,9.9-37.51-13.82,13.68s-18.9,17.21-35.21,11.06-18.14-24-18.14-24Z" transform="translate(422.91 0.01)"/><path class="cls-61" d="M332,382.26l13.15,4.44s-5.52,15.82-5.54,19.78l13.92,6c10.8.52,4.83,5.57,1.75,5.4-8.17-.48-17.35-3.3-22.33-2.15-7.07,1.64-9-2.22-8.46-5.54C326,400.59,332,382.26,332,382.26Z" transform="translate(422.91 0.01)"/><path class="cls-26" d="M326.08,371,319.3,339.5l-15.85,8.3-32.62,12.12s1.84,17.84,18.14,24,35.21-11.06,35.21-11.06Z" transform="translate(422.91 0.01)"/><path class="cls-62" d="M310.55,283.09s-3.85,4.84-7.45.12c-3-4,.93-2.67-.41-7.83s2.51-10.49,6.82-10.75,7.39-5.77,12.21-2.69,13.73,2.1,11.73,9.42,4.36,7.64-3.6,11.86C322.24,287.26,314,294.87,310.55,283.09Z" transform="translate(422.91 0.01)"/><path class="cls-63" d="M320.55,266a8.85,8.85,0,0,0-2.69.24c-8.19,2-10.52,13.79-8.35,20.95,1.19,4,4.35,7.29,8.41,8,5.93,1,10.63-3.67,12.47-9.15a17.49,17.49,0,0,0-.43-12.6C328.21,269.48,324.68,266.23,320.55,266Z" transform="translate(422.91 0.01)"/><path class="cls-63" d="M309.47,283.17a4.47,4.47,0,0,1-4.26-1.32,4.84,4.84,0,0,1-.87-4.43,3.94,3.94,0,0,1,2.84-2.8,2.77,2.77,0,0,1,3.09,2.15Z" transform="translate(422.91 0.01)"/><path class="cls-63" d="M310,279.17l-9,17.94a7,7,0,0,0,2.59,9.26h0a7,7,0,0,0,10.1-3.31L321,285.79Z" transform="translate(422.91 0.01)"/><path class="cls-30" d="M316,297.46l1.13-2.52a11.3,11.3,0,0,1-7.62-7.8S309.38,293.09,316,297.46Z" transform="translate(422.91 0.01)"/><path class="cls-64" d="M320,282.58l0-.05c-.18-.42-.86-.22-.68.2.34.79,1.6.48,1.27-.38a.72.72,0,0,0-1.36.45c.28.87,1.67.35,1.21-.46s-1.57.07-.9.75c.32.33.81-.19.49-.51Z" transform="translate(422.91 0.01)"/><path class="cls-62" d="M322.71,280.26a21.38,21.38,0,0,0-4.22-1.62c-.65-.17-.88.84-.24,1a20.08,20.08,0,0,1,4,1.52c.6.3,1.08-.61.49-.91Z" transform="translate(422.91 0.01)"/><path class="cls-64" d="M328.72,284.57l0,0c-.18-.42-.86-.22-.68.2.34.79,1.6.48,1.27-.38a.71.71,0,0,0-1.35.45c.27.87,1.66.35,1.2-.46s-1.56.07-.89.75c.32.33.8-.19.49-.52Z" transform="translate(422.91 0.01)"/><path class="cls-65" d="M323.71,287.09l1.28-.74h0l-.12.56a2.27,2.27,0,0,1-.38-1.14,5.65,5.65,0,0,1,0-1.09,4.93,4.93,0,0,0,.31,1,1.71,1.71,0,0,0,.53.74l.35.23-.47.33h0l-1.45.31a.12.12,0,0,1-.14-.09A.12.12,0,0,1,323.71,287.09Z" transform="translate(422.91 0.01)"/><path class="cls-65" d="M324.23,289.43a2.35,2.35,0,0,1-1.48.43,2.23,2.23,0,0,1-1.49-.69,3,3,0,0,1-.71-1.42,5.12,5.12,0,0,1-.07-.77,6.15,6.15,0,0,1,.07-.75l.52,1.35a3.94,3.94,0,0,0,.7,1.12A3,3,0,0,0,324.23,289.43Z" transform="translate(422.91 0.01)"/><path class="cls-62" d="M327,281.3a17.54,17.54,0,0,1,4,.67c.58.17.37,1.15-.2,1a16.73,16.73,0,0,0-3.75-.64c-.58,0-.62-1,0-1Z" transform="translate(422.91 0.01)"/><path class="cls-66" d="M308,279.85a1.36,1.36,0,0,1-.9-1.68,1.19,1.19,0,0,1,1.27-.6" transform="translate(422.91 0.01)"/><path class="cls-62" d="M309.09,273.32s.8,4.74,2.06,5.19,3.94-1.36,4-4.34,5.08-4.61,7.64-.55,4.29,1.82,6.46,1.86.16,4.54,3.57,3.67c0,0,1.48-16.11-14.07-15.14S309.09,273.32,309.09,273.32Z" transform="translate(422.91 0.01)"/><path class="cls-45" d="M272.12,358.74c1.21,1.92,19.72.72,21.65-.38,5.56-3.16,12.15-9.07,15.77-27.42,1.82-9.23,4.61-15.39,7.81-20.23,2.67-4-1.35-13.25-1.35-13.25l-13.89-5.24s-12.77,7.08-21.85,24.52C280.26,316.74,263.63,345.33,272.12,358.74Z" transform="translate(422.91 0.01)"/><line class="cls-67" x1="739.01" y1="299.08" x2="735.69" y2="316.12"/><path class="cls-39" d="M365.25,355c2.56.2,3.2,3.65,3.08,6.22a497.91,497.91,0,0,1-8.23,70.86c-1.27,6.73-2.62,14,.36,20.19,2.69,5.57,8.57,9.1,14.64,10.3s12.35.37,18.41-.87c6.93-1.41,14.3-3.72,18.45-9.45,4.7-6.49,3.89-15.5,1.27-23.08s-6.8-14.63-8.38-22.49c-.85-4.24-1-8.77-3.11-12.54-1.46-2.57-3.74-4.56-5.86-6.62A75.61,75.61,0,0,1,382,369.13c-1.86-3.43-3.5-7.08-6.24-9.85s-7-4.54-10.6-3.14" transform="translate(422.91 0.01)"/><g class="cls-68"><path class="cls-41" d="M366,340.73c-3,5.76-6,12.14-4.6,18.45,1.23,5.35,5.45,9.47,7.65,14.49,1.71,3.88,2.19,8.27,4.3,11.95,2.29,4,6.22,6.69,10,9.26s7.43,5,11.72,6.12,9.27.57,12.46-2.5c3.66-3.52,4-9.46,2.18-14.19s-5.41-8.54-8.93-12.19c-11-11.37-22.22-22.57-34.72-32.24" transform="translate(422.91 0.01)"/><g class="cls-42"><path class="cls-43" d="M425.83,394.36c-3.52-3.85-10.17-2.5-14.07,1s-6.12,8.42-9.39,12.48a29.85,29.85,0,0,1-13.4,9.43c-2.57.89-5.36,1.48-7.45,3.22s-3.12,5.19-1.26,7.18c2.61,2.77,8.37.6,10.34,3.85,2.6,4.28-5.91,7.92-5.76,12.93.07,2.32,2,4.17,2.46,6.44.48,2.62-1.13,5.09-2.26,7.49a21,21,0,0,0,.26,18.29,19.34,19.34,0,0,0,15,10.25c7.9.75,15.42-3.72,21.22-9.15,18.14-17,24.29-45.59,14.74-68.55-2.41-5.79-5.83-11.34-10.88-15.06" transform="translate(422.91 0.01)"/></g><g class="cls-44"><path class="cls-43" d="M367.53,337.58c-3,5.76-6,12.14-4.59,18.46,1.22,5.34,5.44,9.46,7.65,14.48,1.7,3.89,2.18,8.27,4.3,12,2.28,4,6.21,6.69,10,9.26s7.43,5,11.72,6.13,9.28.57,12.47-2.51c3.65-3.52,4-9.45,2.17-14.19s-5.41-8.53-8.93-12.19c-11-11.37-22.22-22.56-34.72-32.24" transform="translate(422.91 0.01)"/></g></g><path class="cls-45" d="M409.17,440.34a4.44,4.44,0,0,0-.91-1.56l.68-.6-3.11.29-1.13,3.41.71-.61c.31.27,2.6,2.26,2.47,3.89l1.27-3.56A1.88,1.88,0,0,0,409.17,440.34Z" transform="translate(422.91 0.01)"/><path class="cls-45" d="M404.1,443.6l.57,3.55,2-.42a1.08,1.08,0,0,0,.8-.81,3,3,0,0,0-.69-2.6Z" transform="translate(422.91 0.01)"/><path class="cls-45" d="M402.36,439.07l-.82-.4c.06-.44.58-3.61,1.93-4.24l-3.43.42a1.55,1.55,0,0,0-1,.56,4.76,4.76,0,0,0-.81,1.64l-.8-.39,1.7,2.91Z" transform="translate(422.91 0.01)"/><path class="cls-45" d="M405.28,434.84a1,1,0,0,0-1-.4,2.63,2.63,0,0,0-1.74,1.9l1.5,2.52,2.55-2.23Z" transform="translate(422.91 0.01)"/><path class="cls-45" d="M401,443.55c-.38.15-3.12,1.19-4.28.19l2,3.12a1.63,1.63,0,0,0,.94.7,3.63,3.63,0,0,0,1.69,0l.08,1,1.46-3.06-2-2.9Z" transform="translate(422.91 0.01)"/><path class="cls-45" d="M398.73,443.74l1.25-2.68-3-1.39-.78,2.12a1.26,1.26,0,0,0,.17,1.19A2.36,2.36,0,0,0,398.73,443.74Z" transform="translate(422.91 0.01)"/><path class="cls-63" d="M357.06,355.77l-3.7.62c-.35.05,3.29,9.09,3.29,9.09s11.06-.71,12.12-.05c7.24,4.45,11.72-5.12,3.23-9.25a10.18,10.18,0,0,0-7.62-.87,7,7,0,0,0,2.43-4.69,1.63,1.63,0,0,0-1.24-1.42C364.28,352.56,357.06,355.77,357.06,355.77Z" transform="translate(422.91 0.01)"/><path class="cls-63" d="M298.57,316.82s5,32.07,11.59,44c5.95,10.69,52.5,3.55,52.5,3.55l-.48-9.34s-32.5-1.12-32.69-2.36c-.66-4.24-1.68-10.59-2.65-16.59-1.53-9.48-15.4-21.47-25-21.33Z" transform="translate(422.91 0.01)"/><path class="cls-45" d="M331,346c-.7-.14-26.85,7.36-26.74,6.83s-21.1-44.9,1.93-54.81C317,293.33,331,346,331,346Z" transform="translate(422.91 0.01)"/><line class="cls-67" x1="721.69" y1="322.83" x2="727.13" y2="352.79"/><path class="cls-63" d="M393.73,323.52s2.46-1.4-.11-5c0,0-2.19-1.37-7.16,1.56a1.4,1.4,0,0,0-.4,1.87h0a1.44,1.44,0,0,0,1.6.8l4.32-1.28Z" transform="translate(422.91 0.01)"/><path class="cls-63" d="M393.62,318.52a4.3,4.3,0,0,0-1.67-3.17,3.85,3.85,0,0,0-1.72-2.31,2.06,2.06,0,0,0-2.91-1.39c-1.07.53-2.83,1.59-3.39,3.12a1,1,0,0,0,.21,1c.2.23.22.4.64.38a1.52,1.52,0,0,0-.17,1.36,1.21,1.21,0,0,0,1.35.7s-1.78.59-.26,2.48S393.62,318.52,393.62,318.52Z" transform="translate(422.91 0.01)"/></g></svg>