<svg width="80" height="75" viewBox="0 0 80 75" fill="none" xmlns="http://www.w3.org/2000/svg">
<path d="M63.3333 9.375H16.6667C12.9848 9.375 10 12.1732 10 15.625V59.375C10 62.8268 12.9848 65.625 16.6667 65.625H63.3333C67.0152 65.625 70 62.8268 70 59.375V15.625C70 12.1732 67.0152 9.375 63.3333 9.375Z" stroke="#212121" stroke-width="2.57658" stroke-linecap="round" stroke-linejoin="round"/>
<path d="M28.334 31.25C31.0954 31.25 33.334 29.1513 33.334 26.5625C33.334 23.9737 31.0954 21.875 28.334 21.875C25.5726 21.875 23.334 23.9737 23.334 26.5625C23.334 29.1513 25.5726 31.25 28.334 31.25Z" stroke="#212121" stroke-width="2.57658" stroke-linecap="round" stroke-linejoin="round"/>
<path d="M69.9993 46.875L53.3327 31.25L16.666 65.625" stroke="#212121" stroke-width="2.57658" stroke-linecap="round" stroke-linejoin="round"/>
</svg>
