<svg id="visual" viewBox="0 0 1920 1080" width="1920" height="1080" xmlns="http://www.w3.org/2000/svg" xmlns:xlink="http://www.w3.org/1999/xlink" version="1.1"><rect x="0" y="0" width="1920" height="1080" fill="#001220"></rect><path d="M0 673L45.7 669.5C91.3 666 182.7 659 274.2 675.2C365.7 691.3 457.3 730.7 548.8 740.5C640.3 750.3 731.7 730.7 823 733.2C914.3 735.7 1005.7 760.3 1097 748.8C1188.3 737.3 1279.7 689.7 1371.2 692.2C1462.7 694.7 1554.3 747.3 1645.8 759C1737.3 770.7 1828.7 741.3 1874.3 726.7L1920 712L1920 1081L1874.3 1081C1828.7 1081 1737.3 1081 1645.8 1081C1554.3 1081 1462.7 1081 1371.2 1081C1279.7 1081 1188.3 1081 1097 1081C1005.7 1081 914.3 1081 823 1081C731.7 1081 640.3 1081 548.8 1081C457.3 1081 365.7 1081 274.2 1081C182.7 1081 91.3 1081 45.7 1081L0 1081Z" fill="#fa7268"></path><path d="M0 792L45.7 779.8C91.3 767.7 182.7 743.3 274.2 746.5C365.7 749.7 457.3 780.3 548.8 802C640.3 823.7 731.7 836.3 823 839C914.3 841.7 1005.7 834.3 1097 822.7C1188.3 811 1279.7 795 1371.2 788.3C1462.7 781.7 1554.3 784.3 1645.8 787.3C1737.3 790.3 1828.7 793.7 1874.3 795.3L1920 797L1920 1081L1874.3 1081C1828.7 1081 1737.3 1081 1645.8 1081C1554.3 1081 1462.7 1081 1371.2 1081C1279.7 1081 1188.3 1081 1097 1081C1005.7 1081 914.3 1081 823 1081C731.7 1081 640.3 1081 548.8 1081C457.3 1081 365.7 1081 274.2 1081C182.7 1081 91.3 1081 45.7 1081L0 1081Z" fill="#ef5f67"></path><path d="M0 920L45.7 915.7C91.3 911.3 182.7 902.7 274.2 899.3C365.7 896 457.3 898 548.8 888C640.3 878 731.7 856 823 838.3C914.3 820.7 1005.7 807.3 1097 815.5C1188.3 823.7 1279.7 853.3 1371.2 854.2C1462.7 855 1554.3 827 1645.8 821.2C1737.3 815.3 1828.7 831.7 1874.3 839.8L1920 848L1920 1081L1874.3 1081C1828.7 1081 1737.3 1081 1645.8 1081C1554.3 1081 1462.7 1081 1371.2 1081C1279.7 1081 1188.3 1081 1097 1081C1005.7 1081 914.3 1081 823 1081C731.7 1081 640.3 1081 548.8 1081C457.3 1081 365.7 1081 274.2 1081C182.7 1081 91.3 1081 45.7 1081L0 1081Z" fill="#e34c67"></path><path d="M0 889L45.7 897C91.3 905 182.7 921 274.2 926.7C365.7 932.3 457.3 927.7 548.8 928.8C640.3 930 731.7 937 823 938.8C914.3 940.7 1005.7 937.3 1097 931.5C1188.3 925.7 1279.7 917.3 1371.2 908.8C1462.7 900.3 1554.3 891.7 1645.8 897.2C1737.3 902.7 1828.7 922.3 1874.3 932.2L1920 942L1920 1081L1874.3 1081C1828.7 1081 1737.3 1081 1645.8 1081C1554.3 1081 1462.7 1081 1371.2 1081C1279.7 1081 1188.3 1081 1097 1081C1005.7 1081 914.3 1081 823 1081C731.7 1081 640.3 1081 548.8 1081C457.3 1081 365.7 1081 274.2 1081C182.7 1081 91.3 1081 45.7 1081L0 1081Z" fill="#d53867"></path><path d="M0 948L45.7 950.3C91.3 952.7 182.7 957.3 274.2 968C365.7 978.7 457.3 995.3 548.8 994.5C640.3 993.7 731.7 975.3 823 971C914.3 966.7 1005.7 976.3 1097 985C1188.3 993.7 1279.7 1001.3 1371.2 1005.2C1462.7 1009 1554.3 1009 1645.8 1009.8C1737.3 1010.7 1828.7 1012.3 1874.3 1013.2L1920 1014L1920 1081L1874.3 1081C1828.7 1081 1737.3 1081 1645.8 1081C1554.3 1081 1462.7 1081 1371.2 1081C1279.7 1081 1188.3 1081 1097 1081C1005.7 1081 914.3 1081 823 1081C731.7 1081 640.3 1081 548.8 1081C457.3 1081 365.7 1081 274.2 1081C182.7 1081 91.3 1081 45.7 1081L0 1081Z" fill="#c62368"></path></svg>