<svg xmlns="http://www.w3.org/2000/svg" xmlns:xlink="http://www.w3.org/1999/xlink" style="margin:auto;background:#012c32;display:block;z-index:1;position:relative" width="1024" height="757" preserveAspectRatio="xMidYMid" viewBox="0 0 1024 757">
<g transform="translate(512,378.5) scale(1,1) translate(-512,-378.5)"><path d="M-100 447.48C-79.72 449.69 -78.66 456.68 -60.52 456.68S-40.64 447 -21.03 447S-1.22 439.84 18.45 439.84S38.98 453.67 57.94 453.67S77.93 455.76 97.42 455.76S118.04 454.65 136.9 454.65S158.04 456.88 176.39 456.88S197.25 452.45 215.87 452.45S235.88 454.79 255.35 454.79S276.81 446.28 294.84 446.28S315.91 445.63 334.32 445.63S355.25 441.79 373.81 441.79S394.16 450.49 413.29 450.49S434.32 449.74 452.77 449.74S473.3 440.96 492.26 440.96S513.67 448.11 531.74 448.11S552.22 455.69 571.23 455.69S591.67 457.13 610.71 457.13S632.04 451.75 650.19 451.75S670.63 440.33 689.68 440.33S709.47 457.28 729.16 457.28S749.52 452.04 768.65 452.04S789.08 440.49 808.13 440.49S829.06 446.98 847.61 446.98S868.52 456.42 887.1 456.42S907.29 444.08 926.58 444.08S947.7 443.82 966.06 443.82S987.5 455.77 1005.55 455.77S1025.69 450.13 1045.03 450.13S1066.02 453.83 1084.52 453.83S1105.35 451.22 1124 451.22S1144.85 442.79 1163.48 442.79L1124 757 L-100 757 Z" fill="#0f3135" stroke-width="0">
  <animate attributeName="d" dur="25s" repeatCount="indefinite" values="M-100 447.48C-79.72 449.69 -78.66 456.68 -60.52 456.68S-40.64 447 -21.03 447S-1.22 439.84 18.45 439.84S38.98 453.67 57.94 453.67S77.93 455.76 97.42 455.76S118.04 454.65 136.9 454.65S158.04 456.88 176.39 456.88S197.25 452.45 215.87 452.45S235.88 454.79 255.35 454.79S276.81 446.28 294.84 446.28S315.91 445.63 334.32 445.63S355.25 441.79 373.81 441.79S394.16 450.49 413.29 450.49S434.32 449.74 452.77 449.74S473.3 440.96 492.26 440.96S513.67 448.11 531.74 448.11S552.22 455.69 571.23 455.69S591.67 457.13 610.71 457.13S632.04 451.75 650.19 451.75S670.63 440.33 689.68 440.33S709.47 457.28 729.16 457.28S749.52 452.04 768.65 452.04S789.08 440.49 808.13 440.49S829.06 446.98 847.61 446.98S868.52 456.42 887.1 456.42S907.29 444.08 926.58 444.08S947.7 443.82 966.06 443.82S987.5 455.77 1005.55 455.77S1025.69 450.13 1045.03 450.13S1066.02 453.83 1084.52 453.83S1105.35 451.22 1124 451.22S1144.85 442.79 1163.48 442.79L1124 757 L-100 757 Z;M-100 439.13C-78.47 443.02 -80.02 440.3 -60.52 440.3S-39 452.17 -21.03 452.17S0.3 447.55 18.45 447.55S38.23 454.5 57.94 454.5S79.24 446.69 97.42 446.69S118.54 444.74 136.9 444.74S158.25 444.33 176.39 444.33S197.28 457.55 215.87 457.55S236.96 452.05 255.35 452.05S275.55 441.71 294.84 441.71S316.3 444.55 334.32 444.55S354.77 455.85 373.81 455.85S395.42 455.16 413.29 455.16S433.33 445.24 452.77 445.24S473.49 444.58 492.26 444.58S512.01 450.97 531.74 450.97S552.59 457.58 571.23 457.58S592.69 448.62 610.71 448.62S632.25 457.19 650.19 457.19S671.42 456.54 689.68 456.54S710.42 453.66 729.16 453.66S748.92 452.03 768.65 452.03S789.01 448.79 808.13 448.79S828.74 453.49 847.61 453.49S868.04 440.63 887.1 440.63S906.89 444.66 926.58 444.66S946.33 439.78 966.06 439.78S986.46 440.06 1005.55 440.06S1026.59 449.83 1045.03 449.83S1066.04 451.13 1084.52 451.13S1105.9 447.46 1124 447.46S1145.48 448.67 1163.48 448.67L1124 757 L-100 757 Z;M-100 447.48C-79.72 449.69 -78.66 456.68 -60.52 456.68S-40.64 447 -21.03 447S-1.22 439.84 18.45 439.84S38.98 453.67 57.94 453.67S77.93 455.76 97.42 455.76S118.04 454.65 136.9 454.65S158.04 456.88 176.39 456.88S197.25 452.45 215.87 452.45S235.88 454.79 255.35 454.79S276.81 446.28 294.84 446.28S315.91 445.63 334.32 445.63S355.25 441.79 373.81 441.79S394.16 450.49 413.29 450.49S434.32 449.74 452.77 449.74S473.3 440.96 492.26 440.96S513.67 448.11 531.74 448.11S552.22 455.69 571.23 455.69S591.67 457.13 610.71 457.13S632.04 451.75 650.19 451.75S670.63 440.33 689.68 440.33S709.47 457.28 729.16 457.28S749.52 452.04 768.65 452.04S789.08 440.49 808.13 440.49S829.06 446.98 847.61 446.98S868.52 456.42 887.1 456.42S907.29 444.08 926.58 444.08S947.7 443.82 966.06 443.82S987.5 455.77 1005.55 455.77S1025.69 450.13 1045.03 450.13S1066.02 453.83 1084.52 453.83S1105.35 451.22 1124 451.22S1144.85 442.79 1163.48 442.79L1124 757 L-100 757 Z"></animate>
  <animateTransform attributeName="transform" type="translate" dur="25s" begin="0s" repeatCount="indefinite" values="0;10;0" calcMode="spline" keySplines="0.3 0 0.7 1;0.3 0 0.7 1"></animateTransform>
</path><path d="M-100 471.64C-79.72 474.48 -79.18 469.31 -59.47 469.31S-38.58 458.11 -18.94 458.11S2.22 463.29 21.59 463.29S42.73 461.87 62.12 461.87S83.37 472.48 102.65 472.48S124.6 459.27 143.18 459.27S165.28 472.14 183.71 472.14S205.08 471.84 224.24 471.84S246.08 469.06 264.77 469.06S285.72 468.48 305.3 468.48S326.49 474.49 345.83 474.49S367.74 471.1 386.36 471.1S407.11 467.17 426.89 467.17S448.71 467.27 467.42 467.27S488.41 475.6 507.95 475.6S529.58 473.08 548.48 473.08S570.23 467.24 589.01 467.24S609.44 467.72 629.54 467.72S649.88 471.64 670.07 471.64S691.72 466.48 710.6 466.48S730.93 471.74 751.13 471.74S773.19 465.15 791.66 465.15S812.01 471.42 832.19 471.42S853.12 476.49 872.72 476.49S893.97 472.55 913.25 472.55S934.4 467.72 953.77 467.72S974.27 473.4 994.3 473.4S1016.26 479.74 1034.83 479.74S1056.15 466.11 1075.36 466.11S1096.22 470.08 1115.89 470.08S1136.29 462.06 1156.42 462.06L1124 757 L-100 757 Z" fill="#254346" stroke-width="0">
  <animate attributeName="d" dur="22.5s" repeatCount="indefinite" values="M-100 471.64C-79.72 474.48 -79.18 469.31 -59.47 469.31S-38.58 458.11 -18.94 458.11S2.22 463.29 21.59 463.29S42.73 461.87 62.12 461.87S83.37 472.48 102.65 472.48S124.6 459.27 143.18 459.27S165.28 472.14 183.71 472.14S205.08 471.84 224.24 471.84S246.08 469.06 264.77 469.06S285.72 468.48 305.3 468.48S326.49 474.49 345.83 474.49S367.74 471.1 386.36 471.1S407.11 467.17 426.89 467.17S448.71 467.27 467.42 467.27S488.41 475.6 507.95 475.6S529.58 473.08 548.48 473.08S570.23 467.24 589.01 467.24S609.44 467.72 629.54 467.72S649.88 471.64 670.07 471.64S691.72 466.48 710.6 466.48S730.93 471.74 751.13 471.74S773.19 465.15 791.66 465.15S812.01 471.42 832.19 471.42S853.12 476.49 872.72 476.49S893.97 472.55 913.25 472.55S934.4 467.72 953.77 467.72S974.27 473.4 994.3 473.4S1016.26 479.74 1034.83 479.74S1056.15 466.11 1075.36 466.11S1096.22 470.08 1115.89 470.08S1136.29 462.06 1156.42 462.06L1124 757 L-100 757 Z;M-100 472.72C-79.1 468.21 -78.82 474.43 -59.47 474.43S-37.78 458.18 -18.94 458.18S2.6 465.88 21.59 465.88S42.76 467.49 62.12 467.49S82.64 473.65 102.65 473.65S124.29 461.85 143.18 461.85S163.59 473.37 183.71 473.37S204.15 474.12 224.24 474.12S245.03 461.86 264.77 461.86S286.86 469.07 305.3 469.07S326.08 472.86 345.83 472.86S367.02 461.45 386.36 461.45S407.38 476.15 426.89 476.15S447.19 463.68 467.42 463.68S489.38 479.03 507.95 479.03S529.98 463.57 548.48 463.57S568.77 473.82 589.01 473.82S610.94 462.33 629.54 462.33S650.75 471.93 670.07 471.93S691.04 459.01 710.6 459.01S731.22 470.64 751.13 470.64S772.6 465.11 791.66 465.11S812.75 476.58 832.19 476.58S852.7 461 872.72 461S893.79 460.92 913.25 460.92S933.6 466.22 953.77 466.22S975.2 468.79 994.3 468.79S1015.23 461.46 1034.83 461.46S1055.37 466.9 1075.36 466.9S1096.94 467.89 1115.89 467.89S1136.81 472.81 1156.42 472.81L1124 757 L-100 757 Z;M-100 471.64C-79.72 474.48 -79.18 469.31 -59.47 469.31S-38.58 458.11 -18.94 458.11S2.22 463.29 21.59 463.29S42.73 461.87 62.12 461.87S83.37 472.48 102.65 472.48S124.6 459.27 143.18 459.27S165.28 472.14 183.71 472.14S205.08 471.84 224.24 471.84S246.08 469.06 264.77 469.06S285.72 468.48 305.3 468.48S326.49 474.49 345.83 474.49S367.74 471.1 386.36 471.1S407.11 467.17 426.89 467.17S448.71 467.27 467.42 467.27S488.41 475.6 507.95 475.6S529.58 473.08 548.48 473.08S570.23 467.24 589.01 467.24S609.44 467.72 629.54 467.72S649.88 471.64 670.07 471.64S691.72 466.48 710.6 466.48S730.93 471.74 751.13 471.74S773.19 465.15 791.66 465.15S812.01 471.42 832.19 471.42S853.12 476.49 872.72 476.49S893.97 472.55 913.25 472.55S934.4 467.72 953.77 467.72S974.27 473.4 994.3 473.4S1016.26 479.74 1034.83 479.74S1056.15 466.11 1075.36 466.11S1096.22 470.08 1115.89 470.08S1136.29 462.06 1156.42 462.06L1124 757 L-100 757 Z"></animate>
  <animateTransform attributeName="transform" type="translate" dur="22.5s" begin="-2.25s" repeatCount="indefinite" values="0;10;0" calcMode="spline" keySplines="0.3 0 0.7 1;0.3 0 0.7 1"></animateTransform>
</path><path d="M-100 487.14C-78.86 478.7 -77.55 493.74 -58.37 493.74S-37.02 483.06 -16.73 483.06S4.34 498.05 24.9 498.05S46.94 496.52 66.53 496.52S87.82 493.38 108.16 493.38S129.25 485.41 149.8 485.41S172.12 495.4 191.43 495.4S214.1 483.84 233.06 483.84S255.16 496.56 274.69 496.56S295.94 493.89 316.33 493.89S337.8 488.07 357.96 488.07S378.82 479.92 399.59 479.92S422.16 486.23 441.22 486.23S462.99 492.79 482.86 492.79S504.19 487.6 524.49 487.6S545.66 490.98 566.12 490.98S588.02 488.74 607.76 488.74S628.58 479.27 649.39 479.27S672.07 485.02 691.02 485.02S712.41 488.93 732.65 488.93S754.37 490.17 774.29 490.17S796.62 476.92 815.92 476.92S837.13 490.66 857.55 490.66S879.13 484.61 899.18 484.61S920.54 491.84 940.82 491.84S962.95 477.06 982.45 477.06S1005.14 496.42 1024.08 496.42S1046.43 482.16 1065.71 482.16S1087.77 494.62 1107.35 494.62S1129.96 485.87 1148.98 485.87L1124 757 L-100 757 Z" fill="#3b5658" stroke-width="0">
  <animate attributeName="d" dur="20s" repeatCount="indefinite" values="M-100 487.14C-78.86 478.7 -77.55 493.74 -58.37 493.74S-37.02 483.06 -16.73 483.06S4.34 498.05 24.9 498.05S46.94 496.52 66.53 496.52S87.82 493.38 108.16 493.38S129.25 485.41 149.8 485.41S172.12 495.4 191.43 495.4S214.1 483.84 233.06 483.84S255.16 496.56 274.69 496.56S295.94 493.89 316.33 493.89S337.8 488.07 357.96 488.07S378.82 479.92 399.59 479.92S422.16 486.23 441.22 486.23S462.99 492.79 482.86 492.79S504.19 487.6 524.49 487.6S545.66 490.98 566.12 490.98S588.02 488.74 607.76 488.74S628.58 479.27 649.39 479.27S672.07 485.02 691.02 485.02S712.41 488.93 732.65 488.93S754.37 490.17 774.29 490.17S796.62 476.92 815.92 476.92S837.13 490.66 857.55 490.66S879.13 484.61 899.18 484.61S920.54 491.84 940.82 491.84S962.95 477.06 982.45 477.06S1005.14 496.42 1024.08 496.42S1046.43 482.16 1065.71 482.16S1087.77 494.62 1107.35 494.62S1129.96 485.87 1148.98 485.87L1124 757 L-100 757 Z;M-100 479.58C-78.69 490.74 -78.69 487.14 -58.37 487.14S-36.05 488.21 -16.73 488.21S5.13 485.88 24.9 485.88S46.56 498.19 66.53 498.19S88.29 493.51 108.16 493.51S130.67 494.58 149.8 494.58S171.36 500.94 191.43 500.94S212.26 487.45 233.06 487.45S255.34 491.85 274.69 491.85S296.65 478.52 316.33 478.52S338.56 485.2 357.96 485.2S378.79 494.28 399.59 494.28S422.08 495.56 441.22 495.56S462.88 487.47 482.86 487.47S503.7 487.05 524.49 487.05S547.16 495.35 566.12 495.35S587.9 501.98 607.76 501.98S629.94 495.35 649.39 495.35S670.43 481.89 691.02 481.89S713.3 482.45 732.65 482.45S754.72 502.3 774.29 502.3S796.45 500.01 815.92 500.01S837.37 492.85 857.55 492.85S878.86 477.49 899.18 477.49S920.84 502.57 940.82 502.57S963.19 495.36 982.45 495.36S1004.36 486.77 1024.08 486.77S1045.81 492.13 1065.71 492.13S1086.76 497.28 1107.35 497.28S1128.22 488.88 1148.98 488.88L1124 757 L-100 757 Z;M-100 487.14C-78.86 478.7 -77.55 493.74 -58.37 493.74S-37.02 483.06 -16.73 483.06S4.34 498.05 24.9 498.05S46.94 496.52 66.53 496.52S87.82 493.38 108.16 493.38S129.25 485.41 149.8 485.41S172.12 495.4 191.43 495.4S214.1 483.84 233.06 483.84S255.16 496.56 274.69 496.56S295.94 493.89 316.33 493.89S337.8 488.07 357.96 488.07S378.82 479.92 399.59 479.92S422.16 486.23 441.22 486.23S462.99 492.79 482.86 492.79S504.19 487.6 524.49 487.6S545.66 490.98 566.12 490.98S588.02 488.74 607.76 488.74S628.58 479.27 649.39 479.27S672.07 485.02 691.02 485.02S712.41 488.93 732.65 488.93S754.37 490.17 774.29 490.17S796.62 476.92 815.92 476.92S837.13 490.66 857.55 490.66S879.13 484.61 899.18 484.61S920.54 491.84 940.82 491.84S962.95 477.06 982.45 477.06S1005.14 496.42 1024.08 496.42S1046.43 482.16 1065.71 482.16S1087.77 494.62 1107.35 494.62S1129.96 485.87 1148.98 485.87L1124 757 L-100 757 Z"></animate>
  <animateTransform attributeName="transform" type="translate" dur="20s" begin="-4s" repeatCount="indefinite" values="0;10;0" calcMode="spline" keySplines="0.3 0 0.7 1;0.3 0 0.7 1"></animateTransform>
</path><path d="M-100 507.87C-76.86 496.28 -77.36 509.87 -57.2 509.87S-34.49 497.85 -14.41 497.85S7.68 514.71 28.39 514.71S50.63 511.02 71.19 511.02S93.76 511.81 113.99 511.81S136.3 508.4 156.78 508.4S178.49 513.07 199.58 513.07S222.46 511.36 242.38 511.36S263.96 524.16 285.17 524.16S307.85 499.79 327.97 499.79S350.09 496.52 370.77 496.52S393.23 503.42 413.57 503.42S436.47 519.44 456.36 519.44S478.35 511.33 499.16 511.33S521.52 513.4 541.96 513.4S563.89 496.08 584.76 496.08S607.03 507.26 627.55 507.26S650.2 525.56 670.35 525.56S692.58 518.34 713.15 518.34S736.4 524.48 755.94 524.48S778.14 521.04 798.74 521.04S821.91 511.85 841.54 511.85S863.59 521.03 884.34 521.03S906.13 500.2 927.13 500.2S949.57 517.79 969.93 517.79S992.22 507.79 1012.73 507.79S1035.67 514.72 1055.52 514.72S1077.25 510.45 1098.32 510.45S1120.09 503.8 1141.12 503.8L1124 757 L-100 757 Z" fill="#51696b" stroke-width="0">
  <animate attributeName="d" dur="17.5s" repeatCount="indefinite" values="M-100 507.87C-76.86 496.28 -77.36 509.87 -57.2 509.87S-34.49 497.85 -14.41 497.85S7.68 514.71 28.39 514.71S50.63 511.02 71.19 511.02S93.76 511.81 113.99 511.81S136.3 508.4 156.78 508.4S178.49 513.07 199.58 513.07S222.46 511.36 242.38 511.36S263.96 524.16 285.17 524.16S307.85 499.79 327.97 499.79S350.09 496.52 370.77 496.52S393.23 503.42 413.57 503.42S436.47 519.44 456.36 519.44S478.35 511.33 499.16 511.33S521.52 513.4 541.96 513.4S563.89 496.08 584.76 496.08S607.03 507.26 627.55 507.26S650.2 525.56 670.35 525.56S692.58 518.34 713.15 518.34S736.4 524.48 755.94 524.48S778.14 521.04 798.74 521.04S821.91 511.85 841.54 511.85S863.59 521.03 884.34 521.03S906.13 500.2 927.13 500.2S949.57 517.79 969.93 517.79S992.22 507.79 1012.73 507.79S1035.67 514.72 1055.52 514.72S1077.25 510.45 1098.32 510.45S1120.09 503.8 1141.12 503.8L1124 757 L-100 757 Z;M-100 501.77C-78.33 506.26 -78.47 511.93 -57.2 511.93S-35.75 511.26 -14.41 511.26S8.51 509.69 28.39 509.69S50.16 501.15 71.19 501.15S93.64 512.74 113.99 512.74S135.72 507.36 156.78 507.36S178.7 509.36 199.58 509.36S222.23 501.05 242.38 501.05S265.29 514.84 285.17 514.84S306.62 499.5 327.97 499.5S349.98 526 370.77 526S392.84 502.32 413.57 502.32S435.92 513.44 456.36 513.44S478.96 502.8 499.16 502.8S520.68 525.42 541.96 525.42S563.47 508.16 584.76 508.16S607.94 522.71 627.55 522.71S649.62 511.65 670.35 511.65S693.02 511.64 713.15 511.64S735.15 504.32 755.94 504.32S778.2 523.99 798.74 523.99S820.56 504.51 841.54 504.51S863.08 520.25 884.34 520.25S906.97 513.07 927.13 513.07S948.6 513.05 969.93 513.05S991.4 501.48 1012.73 501.48S1034.29 514.99 1055.52 514.99S1078.35 509.31 1098.32 509.31S1119.81 516.32 1141.12 516.32L1124 757 L-100 757 Z;M-100 507.87C-76.86 496.28 -77.36 509.87 -57.2 509.87S-34.49 497.85 -14.41 497.85S7.68 514.71 28.39 514.71S50.63 511.02 71.19 511.02S93.76 511.81 113.99 511.81S136.3 508.4 156.78 508.4S178.49 513.07 199.58 513.07S222.46 511.36 242.38 511.36S263.96 524.16 285.17 524.16S307.85 499.79 327.97 499.79S350.09 496.52 370.77 496.52S393.23 503.42 413.57 503.42S436.47 519.44 456.36 519.44S478.35 511.33 499.16 511.33S521.52 513.4 541.96 513.4S563.89 496.08 584.76 496.08S607.03 507.26 627.55 507.26S650.2 525.56 670.35 525.56S692.58 518.34 713.15 518.34S736.4 524.48 755.94 524.48S778.14 521.04 798.74 521.04S821.91 511.85 841.54 511.85S863.59 521.03 884.34 521.03S906.13 500.2 927.13 500.2S949.57 517.79 969.93 517.79S992.22 507.79 1012.73 507.79S1035.67 514.72 1055.52 514.72S1077.25 510.45 1098.32 510.45S1120.09 503.8 1141.12 503.8L1124 757 L-100 757 Z"></animate>
  <animateTransform attributeName="transform" type="translate" dur="17.5s" begin="-5.25s" repeatCount="indefinite" values="0;10;0" calcMode="spline" keySplines="0.3 0 0.7 1;0.3 0 0.7 1"></animateTransform>
</path><path d="M-100 528.44C-77.76 516.93 -76.98 544.16 -55.97 544.16S-32.85 533.51 -11.94 533.51S10.85 547.92 32.09 547.92S55.95 526.24 76.12 526.24S98.7 542.33 120.14 542.33S143.87 522.22 164.17 522.22S187.85 526.83 208.2 526.83S231.7 529.31 252.23 529.31S275.97 538.47 296.26 538.47S319.01 521.96 340.29 521.96S362.71 532.09 384.32 532.09S407.37 523.13 428.35 523.13S451.07 538.83 472.37 538.83S494.52 544.02 516.4 544.02S538.58 535.34 560.43 535.34S583.89 535.16 604.46 535.16S628.08 530.25 648.49 530.25S670.67 515.86 692.52 515.86S715.81 542.1 736.55 542.1S759.14 518.23 780.58 518.23S803.46 540.07 824.6 540.07S848.24 522.08 868.63 522.08S891.33 536.33 912.66 536.33S935.06 539.32 956.69 539.32S978.77 540.47 1000.72 540.47S1024.23 542.2 1044.75 542.2S1068.32 545.08 1088.78 545.08S1111.6 529.91 1132.81 529.91L1124 757 L-100 757 Z" fill="#677d7f" stroke-width="0">
  <animate attributeName="d" dur="15s" repeatCount="indefinite" values="M-100 528.44C-77.76 516.93 -76.98 544.16 -55.97 544.16S-32.85 533.51 -11.94 533.51S10.85 547.92 32.09 547.92S55.95 526.24 76.12 526.24S98.7 542.33 120.14 542.33S143.87 522.22 164.17 522.22S187.85 526.83 208.2 526.83S231.7 529.31 252.23 529.31S275.97 538.47 296.26 538.47S319.01 521.96 340.29 521.96S362.71 532.09 384.32 532.09S407.37 523.13 428.35 523.13S451.07 538.83 472.37 538.83S494.52 544.02 516.4 544.02S538.58 535.34 560.43 535.34S583.89 535.16 604.46 535.16S628.08 530.25 648.49 530.25S670.67 515.86 692.52 515.86S715.81 542.1 736.55 542.1S759.14 518.23 780.58 518.23S803.46 540.07 824.6 540.07S848.24 522.08 868.63 522.08S891.33 536.33 912.66 536.33S935.06 539.32 956.69 539.32S978.77 540.47 1000.72 540.47S1024.23 542.2 1044.75 542.2S1068.32 545.08 1088.78 545.08S1111.6 529.91 1132.81 529.91L1124 757 L-100 757 Z;M-100 524.71C-76.7 525.51 -77.26 533.18 -55.97 533.18S-33.04 531.55 -11.94 531.55S11.32 531.18 32.09 531.18S54.55 527.92 76.12 527.92S98.82 536.49 120.14 536.49S142.91 524.2 164.17 524.2S186.45 542.77 208.2 542.77S231.34 535.37 252.23 535.37S275.47 534.82 296.26 534.82S319.93 543.37 340.29 543.37S363.25 535.79 384.32 535.79S407.34 521.58 428.35 521.58S451.88 538.08 472.37 538.08S495.3 515.85 516.4 515.85S539.72 531.12 560.43 531.12S583.6 526.49 604.46 526.49S627.12 533.43 648.49 533.43S671.05 529.22 692.52 529.22S715.44 541.34 736.55 541.34S759.55 532.52 780.58 532.52S803.51 522.92 824.6 522.92S847.88 530.32 868.63 530.32S891.17 537.08 912.66 537.08S935.28 516.21 956.69 516.21S979.81 536.84 1000.72 536.84S1023.51 518.83 1044.75 518.83S1066.96 548.05 1088.78 548.05S1111.65 532.86 1132.81 532.86L1124 757 L-100 757 Z;M-100 528.44C-77.76 516.93 -76.98 544.16 -55.97 544.16S-32.85 533.51 -11.94 533.51S10.85 547.92 32.09 547.92S55.95 526.24 76.12 526.24S98.7 542.33 120.14 542.33S143.87 522.22 164.17 522.22S187.85 526.83 208.2 526.83S231.7 529.31 252.23 529.31S275.97 538.47 296.26 538.47S319.01 521.96 340.29 521.96S362.71 532.09 384.32 532.09S407.37 523.13 428.35 523.13S451.07 538.83 472.37 538.83S494.52 544.02 516.4 544.02S538.58 535.34 560.43 535.34S583.89 535.16 604.46 535.16S628.08 530.25 648.49 530.25S670.67 515.86 692.52 515.86S715.81 542.1 736.55 542.1S759.14 518.23 780.58 518.23S803.46 540.07 824.6 540.07S848.24 522.08 868.63 522.08S891.33 536.33 912.66 536.33S935.06 539.32 956.69 539.32S978.77 540.47 1000.72 540.47S1024.23 542.2 1044.75 542.2S1068.32 545.08 1088.78 545.08S1111.6 529.91 1132.81 529.91L1124 757 L-100 757 Z"></animate>
  <animateTransform attributeName="transform" type="translate" dur="15s" begin="-6s" repeatCount="indefinite" values="0;10;0" calcMode="spline" keySplines="0.3 0 0.7 1;0.3 0 0.7 1"></animateTransform>
</path><path d="M-100 535.91C-76.52 535.97 -76.93 568.72 -54.67 568.72S-31.55 554.38 -9.33 554.38S13.38 555.49 36 555.49S59.98 552.47 81.33 552.47S104.21 558.02 126.67 558.02S151.05 550.43 172 550.43S195.81 558.32 217.33 558.32S240.94 539.72 262.67 539.72S286.22 564.61 308 564.61S331.65 542.89 353.33 542.89S376.52 566.43 398.67 566.43S422.17 540.45 444 540.45S467.76 571.16 489.33 571.16S512.31 541.07 534.67 541.07S559.17 565.12 580 565.12S604.11 535.69 625.33 535.69S649.08 554.51 670.67 554.51S693.95 544.69 716 544.69S739.91 556.26 761.33 556.26S785.8 546.7 806.67 546.7S830.69 552.83 852 552.83S875.58 540.57 897.33 540.57S921.25 558.2 942.67 558.2S966.17 551.95 988 551.95S1012.43 563.18 1033.33 563.18S1057.41 550.82 1078.67 550.82S1102.07 569.85 1124 569.85S1148.42 538.34 1169.33 538.34L1124 757 L-100 757 Z" fill="#7e9193" stroke-width="0">
  <animate attributeName="d" dur="12.5s" repeatCount="indefinite" values="M-100 535.91C-76.52 535.97 -76.93 568.72 -54.67 568.72S-31.55 554.38 -9.33 554.38S13.38 555.49 36 555.49S59.98 552.47 81.33 552.47S104.21 558.02 126.67 558.02S151.05 550.43 172 550.43S195.81 558.32 217.33 558.32S240.94 539.72 262.67 539.72S286.22 564.61 308 564.61S331.65 542.89 353.33 542.89S376.52 566.43 398.67 566.43S422.17 540.45 444 540.45S467.76 571.16 489.33 571.16S512.31 541.07 534.67 541.07S559.17 565.12 580 565.12S604.11 535.69 625.33 535.69S649.08 554.51 670.67 554.51S693.95 544.69 716 544.69S739.91 556.26 761.33 556.26S785.8 546.7 806.67 546.7S830.69 552.83 852 552.83S875.58 540.57 897.33 540.57S921.25 558.2 942.67 558.2S966.17 551.95 988 551.95S1012.43 563.18 1033.33 563.18S1057.41 550.82 1078.67 550.82S1102.07 569.85 1124 569.85S1148.42 538.34 1169.33 538.34L1124 757 L-100 757 Z;M-100 538.09C-76.71 550.52 -76.61 567.84 -54.67 567.84S-30.44 536.29 -9.33 536.29S14.88 568.25 36 568.25S58.92 543.56 81.33 543.56S105.11 557.4 126.67 557.4S151.04 537.24 172 537.24S196.21 567.92 217.33 567.92S241.58 534.72 262.67 534.72S285.63 547.84 308 547.84S331.57 539.03 353.33 539.03S377.06 555.63 398.67 555.63S421.76 543.59 444 543.59S468.41 564.54 489.33 564.54S513.57 542.19 534.67 542.19S559.13 571.34 580 571.34S603.05 535.18 625.33 535.18S649.87 561.79 670.67 561.79S694.97 536.86 716 536.86S739.52 556.3 761.33 556.3S784.63 567.56 806.67 567.56S829.6 564.45 852 564.45S875.69 543.31 897.33 543.31S921.01 555.35 942.67 555.35S965.45 538.39 988 538.39S1012.16 558.44 1033.33 558.44S1056.87 558.93 1078.67 558.93S1102.68 560.05 1124 560.05S1147.08 543.92 1169.33 543.92L1124 757 L-100 757 Z;M-100 535.91C-76.52 535.97 -76.93 568.72 -54.67 568.72S-31.55 554.38 -9.33 554.38S13.38 555.49 36 555.49S59.98 552.47 81.33 552.47S104.21 558.02 126.67 558.02S151.05 550.43 172 550.43S195.81 558.32 217.33 558.32S240.94 539.72 262.67 539.72S286.22 564.61 308 564.61S331.65 542.89 353.33 542.89S376.52 566.43 398.67 566.43S422.17 540.45 444 540.45S467.76 571.16 489.33 571.16S512.31 541.07 534.67 541.07S559.17 565.12 580 565.12S604.11 535.69 625.33 535.69S649.08 554.51 670.67 554.51S693.95 544.69 716 544.69S739.91 556.26 761.33 556.26S785.8 546.7 806.67 546.7S830.69 552.83 852 552.83S875.58 540.57 897.33 540.57S921.25 558.2 942.67 558.2S966.17 551.95 988 551.95S1012.43 563.18 1033.33 563.18S1057.41 550.82 1078.67 550.82S1102.07 569.85 1124 569.85S1148.42 538.34 1169.33 538.34L1124 757 L-100 757 Z"></animate>
  <animateTransform attributeName="transform" type="translate" dur="12.5s" begin="-6.25s" repeatCount="indefinite" values="0;10;0" calcMode="spline" keySplines="0.3 0 0.7 1;0.3 0 0.7 1"></animateTransform>
</path><path d="M-100 564.76C-75.99 567.11 -75.53 592.49 -53.28 592.49S-29.38 554.79 -6.56 554.79S18.28 589.12 40.15 589.12S64.85 594.12 86.87 594.12S111.63 584.88 133.59 584.88S158.36 558.3 180.31 558.3S205.46 567.24 227.02 567.24S251.84 552.79 273.74 552.79S297.62 577.87 320.46 577.87S343.92 568.45 367.18 568.45S391.9 588.91 413.89 588.91S437.25 579.1 460.61 579.1S485.07 575.69 507.33 575.69S531.11 553.94 554.05 553.94S577.98 593.88 600.76 593.88S625.15 592.72 647.48 592.72S671.47 593.06 694.2 593.06S718.92 554.42 740.92 554.42S764.46 582.97 787.63 582.97S811.3 554.78 834.35 554.78S858 578.24 881.07 578.24S904.44 552.92 927.79 552.92S952.19 589.67 974.5 589.67S998.52 559.2 1021.22 559.2S1046.16 578.57 1067.94 578.57S1093.03 564.09 1114.66 564.09S1138.22 591.03 1161.37 591.03L1124 757 L-100 757 Z" fill="#95a6a7" stroke-width="0">
  <animate attributeName="d" dur="10s" repeatCount="indefinite" values="M-100 564.76C-75.99 567.11 -75.53 592.49 -53.28 592.49S-29.38 554.79 -6.56 554.79S18.28 589.12 40.15 589.12S64.85 594.12 86.87 594.12S111.63 584.88 133.59 584.88S158.36 558.3 180.31 558.3S205.46 567.24 227.02 567.24S251.84 552.79 273.74 552.79S297.62 577.87 320.46 577.87S343.92 568.45 367.18 568.45S391.9 588.91 413.89 588.91S437.25 579.1 460.61 579.1S485.07 575.69 507.33 575.69S531.11 553.94 554.05 553.94S577.98 593.88 600.76 593.88S625.15 592.72 647.48 592.72S671.47 593.06 694.2 593.06S718.92 554.42 740.92 554.42S764.46 582.97 787.63 582.97S811.3 554.78 834.35 554.78S858 578.24 881.07 578.24S904.44 552.92 927.79 552.92S952.19 589.67 974.5 589.67S998.52 559.2 1021.22 559.2S1046.16 578.57 1067.94 578.57S1093.03 564.09 1114.66 564.09S1138.22 591.03 1161.37 591.03L1124 757 L-100 757 Z;M-100 557.59C-75.06 559.19 -75.07 592.82 -53.28 592.82S-29.22 558.45 -6.56 558.45S17.88 583.2 40.15 583.2S64.98 562.73 86.87 562.73S110.25 568.26 133.59 568.26S157.41 562.04 180.31 562.04S203.85 589.71 227.02 589.71S252.1 555.8 273.74 555.8S297.64 580.35 320.46 580.35S343.99 579.25 367.18 579.25S390.91 579.28 413.89 579.28S437.56 571.43 460.61 571.43S485.7 576.69 507.33 576.69S532.37 584.43 554.05 584.43S578.06 585.37 600.76 585.37S624.92 552.9 647.48 552.9S670.98 576.46 694.2 576.46S719.01 594.24 740.92 594.24S766.14 554.3 787.63 554.3S812.33 557.83 834.35 557.83S858.5 588.31 881.07 588.31S905.7 557.51 927.79 557.51S952.62 577.78 974.5 577.78S999.29 560.19 1021.22 560.19S1045.58 592.62 1067.94 592.62S1091.64 567.48 1114.66 567.48S1139.67 588.03 1161.37 588.03L1124 757 L-100 757 Z;M-100 564.76C-75.99 567.11 -75.53 592.49 -53.28 592.49S-29.38 554.79 -6.56 554.79S18.28 589.12 40.15 589.12S64.85 594.12 86.87 594.12S111.63 584.88 133.59 584.88S158.36 558.3 180.31 558.3S205.46 567.24 227.02 567.24S251.84 552.79 273.74 552.79S297.62 577.87 320.46 577.87S343.92 568.45 367.18 568.45S391.9 588.91 413.89 588.91S437.25 579.1 460.61 579.1S485.07 575.69 507.33 575.69S531.11 553.94 554.05 553.94S577.98 593.88 600.76 593.88S625.15 592.72 647.48 592.72S671.47 593.06 694.2 593.06S718.92 554.42 740.92 554.42S764.46 582.97 787.63 582.97S811.3 554.78 834.35 554.78S858 578.24 881.07 578.24S904.44 552.92 927.79 552.92S952.19 589.67 974.5 589.67S998.52 559.2 1021.22 559.2S1046.16 578.57 1067.94 578.57S1093.03 564.09 1114.66 564.09S1138.22 591.03 1161.37 591.03L1124 757 L-100 757 Z"></animate>
  <animateTransform attributeName="transform" type="translate" dur="10s" begin="-6s" repeatCount="indefinite" values="0;10;0" calcMode="spline" keySplines="0.3 0 0.7 1;0.3 0 0.7 1"></animateTransform>
</path><path d="M-100 573.33C-75.03 579.37 -75.06 615.73 -51.81 615.73S-26.66 572.64 -3.62 572.64S21.24 605.56 44.57 605.56S69.15 589.76 92.76 589.76S117.09 572.36 140.94 572.36S166.51 612.84 189.13 612.84S214.7 614.27 237.32 614.27S262.55 590.17 285.51 590.17S310.1 615.09 333.7 615.09S357.96 577.16 381.89 577.16S406.87 612.83 430.08 612.83S454.53 580.28 478.27 580.28S503.45 616.16 526.46 616.16S552.28 583.29 574.65 583.29S600.4 608.61 622.83 608.61S646.99 581.26 671.02 581.26S696.88 615.84 719.21 615.84S743.75 585.37 767.4 585.37S792.9 605.61 815.59 605.61S840.84 581.52 863.78 581.52S888.79 607.37 911.97 607.37S937.48 573.38 960.16 573.38S985.96 610.88 1008.35 610.88S1032.91 579.98 1056.54 579.98S1082.04 589.42 1104.72 589.42S1129.28 588.06 1152.91 588.06L1124 757 L-100 757 Z" fill="#adbcbc" stroke-width="0">
  <animate attributeName="d" dur="7.5s" repeatCount="indefinite" values="M-100 573.33C-75.03 579.37 -75.06 615.73 -51.81 615.73S-26.66 572.64 -3.62 572.64S21.24 605.56 44.57 605.56S69.15 589.76 92.76 589.76S117.09 572.36 140.94 572.36S166.51 612.84 189.13 612.84S214.7 614.27 237.32 614.27S262.55 590.17 285.51 590.17S310.1 615.09 333.7 615.09S357.96 577.16 381.89 577.16S406.87 612.83 430.08 612.83S454.53 580.28 478.27 580.28S503.45 616.16 526.46 616.16S552.28 583.29 574.65 583.29S600.4 608.61 622.83 608.61S646.99 581.26 671.02 581.26S696.88 615.84 719.21 615.84S743.75 585.37 767.4 585.37S792.9 605.61 815.59 605.61S840.84 581.52 863.78 581.52S888.79 607.37 911.97 607.37S937.48 573.38 960.16 573.38S985.96 610.88 1008.35 610.88S1032.91 579.98 1056.54 579.98S1082.04 589.42 1104.72 589.42S1129.28 588.06 1152.91 588.06L1124 757 L-100 757 Z;M-100 586.36C-75.88 587.94 -74.16 583.84 -51.81 583.84S-27.54 577.13 -3.62 577.13S22.11 600.56 44.57 600.56S69.7 577.86 92.76 577.86S118.23 603.86 140.94 603.86S165.2 578.11 189.13 578.11S213.93 577.34 237.32 577.34S263.13 586.04 285.51 586.04S309.66 586.99 333.7 586.99S358.69 571.89 381.89 571.89S407.32 605.78 430.08 605.78S456 585.94 478.27 585.94S503.8 579.49 526.46 579.49S550.89 588.11 574.65 588.11S599.72 578.17 622.83 578.17S648.42 584.19 671.02 584.19S695.92 610.97 719.21 610.97S744.51 577.87 767.4 577.87S791.9 602.35 815.59 602.35S840.74 588.2 863.78 588.2S888.34 613.86 911.97 613.86S936.78 578.48 960.16 578.48S984.91 604.72 1008.35 604.72S1033.17 587.45 1056.54 587.45S1081.62 602.59 1104.72 602.59S1130.7 602.95 1152.91 602.95L1124 757 L-100 757 Z;M-100 573.33C-75.03 579.37 -75.06 615.73 -51.81 615.73S-26.66 572.64 -3.62 572.64S21.24 605.56 44.57 605.56S69.15 589.76 92.76 589.76S117.09 572.36 140.94 572.36S166.51 612.84 189.13 612.84S214.7 614.27 237.32 614.27S262.55 590.17 285.51 590.17S310.1 615.09 333.7 615.09S357.96 577.16 381.89 577.16S406.87 612.83 430.08 612.83S454.53 580.28 478.27 580.28S503.45 616.16 526.46 616.16S552.28 583.29 574.65 583.29S600.4 608.61 622.83 608.61S646.99 581.26 671.02 581.26S696.88 615.84 719.21 615.84S743.75 585.37 767.4 585.37S792.9 605.61 815.59 605.61S840.84 581.52 863.78 581.52S888.79 607.37 911.97 607.37S937.48 573.38 960.16 573.38S985.96 610.88 1008.35 610.88S1032.91 579.98 1056.54 579.98S1082.04 589.42 1104.72 589.42S1129.28 588.06 1152.91 588.06L1124 757 L-100 757 Z"></animate>
  <animateTransform attributeName="transform" type="translate" dur="7.5s" begin="-5.25s" repeatCount="indefinite" values="0;10;0" calcMode="spline" keySplines="0.3 0 0.7 1;0.3 0 0.7 1"></animateTransform>
</path><path d="M-100 596.05C-74.73 593.25 -73.7 592.97 -50.24 592.97S-25.1 593.13 -0.49 593.13S25.93 633.69 49.27 633.69S76.04 600.19 99.02 600.19S125.61 633.64 148.78 633.64S175.05 604.57 198.54 604.57S224.93 635.79 248.29 635.79S274.12 595.8 298.05 595.8S324.36 632.26 347.8 632.26S373.61 608.88 397.56 608.88S424.21 625.13 447.32 625.13S472.37 594.78 497.07 594.78S521.95 622.55 546.83 622.55S573.46 590.77 596.59 590.77S623.13 629.49 646.34 629.49S671.76 600.52 696.1 600.52S722.38 636.16 745.85 636.16S771.08 607.28 795.61 607.28S822.13 631.48 845.37 631.48S870.41 608.67 895.12 608.67S921.81 595.24 944.88 595.24S970.19 606.45 994.63 606.45S1021.17 637.63 1044.39 637.63S1070.22 590.57 1094.15 590.57S1120.36 624.39 1143.9 624.39L1124 757 L-100 757 Z" fill="#c6d2d2" stroke-width="0">
  <animate attributeName="d" dur="5s" repeatCount="indefinite" values="M-100 596.05C-74.73 593.25 -73.7 592.97 -50.24 592.97S-25.1 593.13 -0.49 593.13S25.93 633.69 49.27 633.69S76.04 600.19 99.02 600.19S125.61 633.64 148.78 633.64S175.05 604.57 198.54 604.57S224.93 635.79 248.29 635.79S274.12 595.8 298.05 595.8S324.36 632.26 347.8 632.26S373.61 608.88 397.56 608.88S424.21 625.13 447.32 625.13S472.37 594.78 497.07 594.78S521.95 622.55 546.83 622.55S573.46 590.77 596.59 590.77S623.13 629.49 646.34 629.49S671.76 600.52 696.1 600.52S722.38 636.16 745.85 636.16S771.08 607.28 795.61 607.28S822.13 631.48 845.37 631.48S870.41 608.67 895.12 608.67S921.81 595.24 944.88 595.24S970.19 606.45 994.63 606.45S1021.17 637.63 1044.39 637.63S1070.22 590.57 1094.15 590.57S1120.36 624.39 1143.9 624.39L1124 757 L-100 757 Z;M-100 606.79C-73.61 603.48 -73.54 628.31 -50.24 628.31S-24.84 600.92 -0.49 600.92S25.41 628.72 49.27 628.72S74.83 603.25 99.02 603.25S125.79 627.16 148.78 627.16S173.77 606.09 198.54 606.09S225.03 625.76 248.29 625.76S273.91 593.82 298.05 593.82S324.81 624.84 347.8 624.84S373.78 595.55 397.56 595.55S423.79 630.82 447.32 630.82S473.53 601.29 497.07 601.29S523.33 597.6 546.83 597.6S573.41 606.17 596.59 606.17S622.86 609.36 646.34 609.36S671.27 604.03 696.1 604.03S721.1 623.18 745.85 623.18S772.06 607.55 795.61 607.55S820.55 631.58 845.37 631.58S871.4 590.7 895.12 590.7S921.84 633.13 944.88 633.13S971.54 596.65 994.63 596.65S1020.17 637.61 1044.39 637.61S1069.74 632.9 1094.15 632.9S1119.67 634.23 1143.9 634.23L1124 757 L-100 757 Z;M-100 596.05C-74.73 593.25 -73.7 592.97 -50.24 592.97S-25.1 593.13 -0.49 593.13S25.93 633.69 49.27 633.69S76.04 600.19 99.02 600.19S125.61 633.64 148.78 633.64S175.05 604.57 198.54 604.57S224.93 635.79 248.29 635.79S274.12 595.8 298.05 595.8S324.36 632.26 347.8 632.26S373.61 608.88 397.56 608.88S424.21 625.13 447.32 625.13S472.37 594.78 497.07 594.78S521.95 622.55 546.83 622.55S573.46 590.77 596.59 590.77S623.13 629.49 646.34 629.49S671.76 600.52 696.1 600.52S722.38 636.16 745.85 636.16S771.08 607.28 795.61 607.28S822.13 631.48 845.37 631.48S870.41 608.67 895.12 608.67S921.81 595.24 944.88 595.24S970.19 606.45 994.63 606.45S1021.17 637.63 1044.39 637.63S1070.22 590.57 1094.15 590.57S1120.36 624.39 1143.9 624.39L1124 757 L-100 757 Z"></animate>
  <animateTransform attributeName="transform" type="translate" dur="5s" begin="-4s" repeatCount="indefinite" values="0;10;0" calcMode="spline" keySplines="0.3 0 0.7 1;0.3 0 0.7 1"></animateTransform>
</path><path d="M-100 624.06C-72.55 625.98 -73.29 655.18 -48.57 655.18S-22.76 616.18 2.86 616.18S29.62 643.77 54.29 643.77S80.34 617.94 105.71 617.94S132.42 661.71 157.14 661.71S182.9 627.33 208.57 627.33S234.65 660.47 260 660.47S287.12 626.2 311.43 626.2S337.73 643.48 362.86 643.48S390.32 622.79 414.29 622.79S441.57 659.99 465.71 659.99S492.87 626.95 517.14 626.95S544.05 643.99 568.57 643.99S595.05 623.66 620 623.66S646.78 644.19 671.43 644.19S698.56 662.11 722.86 662.11S750.34 657 774.29 657S800.11 653.89 825.71 653.89S852.81 644.16 877.14 644.16S904.56 623.34 928.57 623.34S955.13 661.84 980 661.84S1006.21 610.24 1031.43 610.24S1058.21 649.15 1082.86 649.15S1109.34 619.32 1134.29 619.32L1124 757 L-100 757 Z" fill="#dfe8e8" stroke-width="0">
  <animate attributeName="d" dur="2.5s" repeatCount="indefinite" values="M-100 624.06C-72.55 625.98 -73.29 655.18 -48.57 655.18S-22.76 616.18 2.86 616.18S29.62 643.77 54.29 643.77S80.34 617.94 105.71 617.94S132.42 661.71 157.14 661.71S182.9 627.33 208.57 627.33S234.65 660.47 260 660.47S287.12 626.2 311.43 626.2S337.73 643.48 362.86 643.48S390.32 622.79 414.29 622.79S441.57 659.99 465.71 659.99S492.87 626.95 517.14 626.95S544.05 643.99 568.57 643.99S595.05 623.66 620 623.66S646.78 644.19 671.43 644.19S698.56 662.11 722.86 662.11S750.34 657 774.29 657S800.11 653.89 825.71 653.89S852.81 644.16 877.14 644.16S904.56 623.34 928.57 623.34S955.13 661.84 980 661.84S1006.21 610.24 1031.43 610.24S1058.21 649.15 1082.86 649.15S1109.34 619.32 1134.29 619.32L1124 757 L-100 757 Z;M-100 619.86C-73.46 626.32 -72.61 650.34 -48.57 650.34S-21.95 645.63 2.86 645.63S29.56 658.31 54.29 658.31S80.36 620.53 105.71 620.53S132.85 660.93 157.14 660.93S184.6 614.17 208.57 614.17S235.04 621.18 260 621.18S287.01 623.14 311.43 623.14S338.36 658.51 362.86 658.51S388.61 618.57 414.29 618.57S441.2 655.22 465.71 655.22S492.26 625.07 517.14 625.07S544.17 651.64 568.57 651.64S594.98 624.17 620 624.17S646.86 620.66 671.43 620.66S697.64 610.01 722.86 610.01S748.99 645.95 774.29 645.95S800.19 612.7 825.71 612.7S851.65 661.57 877.14 661.57S904.18 614.35 928.57 614.35S955.68 655.14 980 655.14S1007.52 623.4 1031.43 623.4S1058.51 653.32 1082.86 653.32S1109.88 611.67 1134.29 611.67L1124 757 L-100 757 Z;M-100 624.06C-72.55 625.98 -73.29 655.18 -48.57 655.18S-22.76 616.18 2.86 616.18S29.62 643.77 54.29 643.77S80.34 617.94 105.71 617.94S132.42 661.71 157.14 661.71S182.9 627.33 208.57 627.33S234.65 660.47 260 660.47S287.12 626.2 311.43 626.2S337.73 643.48 362.86 643.48S390.32 622.79 414.29 622.79S441.57 659.99 465.71 659.99S492.87 626.95 517.14 626.95S544.05 643.99 568.57 643.99S595.05 623.66 620 623.66S646.78 644.19 671.43 644.19S698.56 662.11 722.86 662.11S750.34 657 774.29 657S800.11 653.89 825.71 653.89S852.81 644.16 877.14 644.16S904.56 623.34 928.57 623.34S955.13 661.84 980 661.84S1006.21 610.24 1031.43 610.24S1058.21 649.15 1082.86 649.15S1109.34 619.32 1134.29 619.32L1124 757 L-100 757 Z"></animate>
  <animateTransform attributeName="transform" type="translate" dur="2.5s" begin="-2.25s" repeatCount="indefinite" values="0;10;0" calcMode="spline" keySplines="0.3 0 0.7 1;0.3 0 0.7 1"></animateTransform>
</path></g>
</svg>