<svg width="24" height="24" viewBox="0 0 24 24" fill="none" xmlns="http://www.w3.org/2000/svg">
<path d="M2.34761 4.11755C1.88868 4.11755 1.44853 4.29987 1.12402 4.62438C0.7995 4.9489 0.617188 5.38904 0.617188 5.84798V21.4218C0.617188 21.8807 0.7995 22.3209 1.12402 22.6454C1.44853 22.9699 1.88868 23.1522 2.34761 23.1522H21.3823C21.8412 23.1522 22.2814 22.9699 22.6059 22.6454C22.9304 22.3209 23.1127 21.8807 23.1127 21.4218V5.84798C23.1127 5.38904 22.9304 4.9489 22.6059 4.62438C22.2814 4.29987 21.8412 4.11755 21.3823 4.11755H17.9214" stroke="#000001" stroke-width="0.937313" stroke-linecap="round" stroke-linejoin="round"/>
<path d="M0.617188 11.0393H23.1127" stroke="#000001" stroke-width="0.937313" stroke-linecap="round" stroke-linejoin="round"/>
<path d="M5.80859 0.656738V7.57844" stroke="#000001" stroke-width="0.937313" stroke-linecap="round" stroke-linejoin="round"/>
<path d="M17.9219 0.656738V7.57844" stroke="#000001" stroke-width="0.937313" stroke-linecap="round" stroke-linejoin="round"/>
<path d="M5.80859 4.11755H14.4607" stroke="#000001" stroke-width="0.937313" stroke-linecap="round" stroke-linejoin="round"/>
</svg>
