<svg width="22" height="22" viewBox="0 0 22 22" fill="none" xmlns="http://www.w3.org/2000/svg">
<path d="M14.7885 16.7364V19.9101C14.7885 20.331 14.6213 20.7346 14.3237 21.0322C14.0261 21.3298 13.6225 21.497 13.2017 21.497H2.09369C1.67283 21.497 1.26921 21.3298 0.971614 21.0322C0.674022 20.7346 0.506836 20.331 0.506836 19.9101V2.45477C0.506836 2.03391 0.674022 1.63029 0.971614 1.3327C1.26921 1.03511 1.67283 0.86792 2.09369 0.86792H13.2017C13.6225 0.86792 14.0261 1.03511 14.3237 1.3327C14.6213 1.63029 14.7885 2.03391 14.7885 2.45477V5.62848" stroke="#000001" stroke-width="0.937685" stroke-linecap="round" stroke-linejoin="round"/>
<path d="M10.0283 11.1825H21.1363" stroke="#000001" stroke-width="0.937685" stroke-linecap="round" stroke-linejoin="round"/>
<path d="M17.9619 8.00879L21.1356 11.1825L17.9619 14.3562" stroke="#000001" stroke-width="0.937685" stroke-linecap="round" stroke-linejoin="round"/>
</svg>
