<svg width="23" height="24" viewBox="0 0 23 24" fill="none" xmlns="http://www.w3.org/2000/svg">
<path d="M2.27551 4.58521C1.8357 4.58521 1.4139 4.75992 1.1029 5.07092C0.791903 5.38191 0.617188 5.80371 0.617188 6.24353V21.1684C0.617188 21.6083 0.791903 22.0301 1.1029 22.3411C1.4139 22.6521 1.8357 22.8268 2.27551 22.8268H20.5171C20.9569 22.8268 21.3787 22.6521 21.6897 22.3411C22.0007 22.0301 22.1754 21.6083 22.1754 21.1684V6.24353C22.1754 5.80371 22.0007 5.38191 21.6897 5.07092C21.3787 4.75992 20.9569 4.58521 20.5171 4.58521H17.2004" stroke="#000001" stroke-width="0.937313" stroke-linecap="round" stroke-linejoin="round"/>
<path d="M5.5918 1.26855V7.90185" stroke="#000001" stroke-width="0.937313" stroke-linecap="round" stroke-linejoin="round"/>
<path d="M17.2002 1.26855V7.90185" stroke="#000001" stroke-width="0.937313" stroke-linecap="round" stroke-linejoin="round"/>
<path d="M5.5918 4.58521H13.8834" stroke="#000001" stroke-width="0.937313" stroke-linecap="round" stroke-linejoin="round"/>
<path d="M6.42188 15.3643L9.73852 17.8518L15.5427 11.2185" stroke="#000001" stroke-width="0.937313" stroke-linecap="round" stroke-linejoin="round"/>
</svg>
