<svg width="27" height="23" viewBox="0 0 27 23" fill="none" xmlns="http://www.w3.org/2000/svg">
<path d="M-nan -nanL23.5349 3.11331C22.947 2.52514 22.249 2.05856 21.4807 1.74023C20.7124 1.4219 19.889 1.25806 19.0574 1.25806C18.2258 1.25806 17.4023 1.4219 16.6341 1.74023C15.8658 2.05856 15.1678 2.52514 14.5799 3.11331V3.11331C13.906 3.78715 12.8135 3.78715 12.1397 3.11331V3.11331C10.9522 1.92581 9.34159 1.25867 7.66221 1.25867C5.98282 1.25867 4.37222 1.92581 3.18472 3.11331C1.99721 4.30082 1.33008 5.91142 1.33008 7.5908C1.33008 9.27019 1.99721 10.8808 3.18472 12.0683L4.4048 13.2884L10.7553 19.6389C12.1937 21.0773 14.5259 21.0773 15.9643 19.6389L22.3148 13.2884L23.5349 12.0683C24.123 11.4804 24.5896 10.7824 24.9079 10.0141C25.2263 9.24586 25.3901 8.4224 25.3901 7.5908C25.3901 6.7592 25.2263 5.93575 24.9079 5.16748C24.5896 4.39922 24.123 3.7012 23.5349 3.11331L-nan -nanL-nan -nanZ" stroke="#555555" stroke-width="2.30205" stroke-linecap="round" stroke-linejoin="round"/>
</svg>
