<svg xmlns="http://www.w3.org/2000/svg" viewBox="0 0 500 501.63"><defs><style>.cls-1{fill:#fffcd1;}.cls-2{fill:#fff;}.cls-3{fill:#2f6014;}.cls-4{fill:#fc9200;}.cls-5{fill:#8ec643;}.cls-6{fill:#ffe577;}.cls-7{fill:#0c9143;}.cls-8{fill:#ffc571;}.cls-10,.cls-11,.cls-15,.cls-9{fill:none;stroke-linecap:round;stroke-linejoin:round;}.cls-9{stroke:#2f6014;}.cls-10{stroke:#3f363b;}.cls-11{stroke:#8ec643;}.cls-12{fill:#ff7c66;}.cls-13{fill:#fcb285;}.cls-14{fill:#ffa07d;}.cls-15{stroke:#000;}.cls-16{fill:#fe9200;}.cls-17{fill:#e27b00;}</style></defs><g id="BACKGROUND"><rect class="cls-1" y="1.63" width="500" height="500"/></g><g id="OBJECTS"><rect class="cls-2" x="263.06" y="91.04" width="164.02" height="190.89"/><rect class="cls-3" x="263.06" y="148" width="164.02" height="5.8"/><path class="cls-3" d="M256.73,82V287.66H433.41V82ZM427.08,280.29h-164V89.4h164Z" transform="translate(0 1.63)"/><polygon class="cls-4" points="236.81 340.69 173.16 340.69 160.56 448.6 168.73 448.6 180.3 348.86 229.66 348.86 241.24 448.6 249.41 448.6 236.81 340.69"/><rect class="cls-5" x="168.73" y="331.26" width="72.51" height="9.43"/><polygon class="cls-5" points="231.68 366.22 178.29 366.22 177.34 374.39 232.63 374.39 231.68 366.22"/><path class="cls-3" d="M177.34,279.76h55.29a0,0,0,0,1,0,0V322a9.31,9.31,0,0,1-9.31,9.31H186.65a9.31,9.31,0,0,1-9.31-9.31v-42.2A0,0,0,0,1,177.34,279.76Z"/><path class="cls-6" d="M177.34,294.78a11.57,11.57,0,0,0,12-1.39c8.86-6.59,7.83,4.14,14.81,3.8s7-10.39,14.64-6c5.88,3.4,8.86,6.42,13.86,5V278.12H177.34Z" transform="translate(0 1.63)"/><path class="cls-7" d="M201.41,278.12s-9.7-44.25,24.85-56.34c0,0,1,40.51-18.38,56.34Z" transform="translate(0 1.63)"/><path class="cls-7" d="M188.3,278.12s-17.69-9.53-24.08-38.13c0,0,30,3.58,35.94,38.13Z" transform="translate(0 1.63)"/><path class="cls-7" d="M228,278.12c1.19-1.53,15.32-4.59,19.41-32.68a49.17,49.17,0,0,0-31.66,32.68Z" transform="translate(0 1.63)"/><path class="cls-5" d="M194.26,278.12s-21.11-28.08-9.53-59.06c0,0,24,13.11,19.55,59.06Z" transform="translate(0 1.63)"/><path class="cls-5" d="M219.28,278.12s16.85-12.76,15.66-43.57c0,0-23.32,2.72-28.25,43.57Z" transform="translate(0 1.63)"/><rect class="cls-8" x="115.15" y="160.01" width="49.53" height="8.94"/><path class="cls-4" d="M117.71,168.95h44.43a0,0,0,0,1,0,0v1.91a22.21,22.21,0,0,1-22.21,22.21h0a22.21,22.21,0,0,1-22.21-22.21v-1.92A0,0,0,0,1,117.71,168.95Z"/><path class="cls-9" d="M131.11,158.38a14.23,14.23,0,0,0-4.24-8.06c-4.76-4.2-12.57-2.31-17.17,1.17C95.86,162,107.06,181.11,103.23,195a18.46,18.46,0,0,1-5.54,8.73" transform="translate(0 1.63)"/><path class="cls-9" d="M138.77,158.38c0-1.15,19.28-26.43,35.36,4.47" transform="translate(0 1.63)"/><path class="cls-9" d="M133,158.38s-1.32-24.9-31-24" transform="translate(0 1.63)"/><path class="cls-9" d="M137,158.38s4.6-34.85,37.15-30.39" transform="translate(0 1.63)"/><path class="cls-9" d="M135.07,158.38s5.74-29-17.36-44.43" transform="translate(0 1.63)"/><path class="cls-5" d="M109.7,151.49s-5.78-6.38-10.12,0C99.58,151.49,102.45,154.74,109.7,151.49Z" transform="translate(0 1.63)"/><path class="cls-5" d="M115.82,148.51s2.78,4.89-1.18,7.83C114.64,156.34,111.5,151.66,115.82,148.51Z" transform="translate(0 1.63)"/><path class="cls-5" d="M105.63,155.77s5.31-.2,5.31,7.08C110.94,162.85,104.27,163.76,105.63,155.77Z" transform="translate(0 1.63)"/><path class="cls-5" d="M103.85,159.32A6.87,6.87,0,0,1,95.24,162S97.39,155.16,103.85,159.32Z" transform="translate(0 1.63)"/><path class="cls-5" d="M102.77,164s5.44-.75,6.93,5.76C109.7,169.74,103.54,171.24,102.77,164Z" transform="translate(0 1.63)"/><path class="cls-5" d="M102.55,168.08s-6.8-1.28-7.31,5.87C95.24,174,101.88,174.7,102.55,168.08Z" transform="translate(0 1.63)"/><path class="cls-5" d="M102.89,174s6-2.45,8,4.31C110.94,178.29,105.56,181.15,102.89,174Z" transform="translate(0 1.63)"/><path class="cls-5" d="M103.42,178.86s-6.27-2.48-8.18,4.67C95.24,183.53,102.11,184.13,103.42,178.86Z" transform="translate(0 1.63)"/><path class="cls-5" d="M103.89,183.55a6.85,6.85,0,0,1,7.69,5.72A6.69,6.69,0,0,1,103.89,183.55Z" transform="translate(0 1.63)"/><path class="cls-5" d="M104.05,189.33s-3.7-2.87-7,2.11C97,191.44,101.11,193.86,104.05,189.33Z" transform="translate(0 1.63)"/><path class="cls-5" d="M103.6,193.37s3.77-1.16,5.3,5.86C108.9,199.23,103.14,200.28,103.6,193.37Z" transform="translate(0 1.63)"/><path class="cls-5" d="M102.05,198s-5.15-3.8-8.73,1.25A7.11,7.11,0,0,0,102.05,198Z" transform="translate(0 1.63)"/><path class="cls-5" d="M97.69,203.7s-4.24,1.91-1.43,8.29A6.47,6.47,0,0,0,97.69,203.7Z" transform="translate(0 1.63)"/><path class="cls-5" d="M100.54,200.54s-1.69,4.82,4.1,7.31C104.64,207.85,105.88,201.06,100.54,200.54Z" transform="translate(0 1.63)"/><path class="cls-5" d="M118.22,148s-4.85.77-7.28-4.84C110.94,143.19,117.58,141.63,118.22,148Z" transform="translate(0 1.63)"/><path class="cls-5" d="M125,149.05s-4.87-.5-5,5.75C120,154.8,124.38,154.78,125,149.05Z" transform="translate(0 1.63)"/><path class="cls-5" d="M107.73,134.54s-6.87.6-7.19,5.71A6.27,6.27,0,0,0,107.73,134.54Z" transform="translate(0 1.63)"/><path class="cls-5" d="M112.32,135.25s-4.62-2.05-2.62-7.65C109.7,127.6,114.47,129.09,112.32,135.25Z" transform="translate(0 1.63)"/><path class="cls-5" d="M116.77,136.57s-7-1.71-7.07,3.73C109.7,140.3,115.06,141.83,116.77,136.57Z" transform="translate(0 1.63)"/><path class="cls-5" d="M120.6,138.41s-4.17-3.78-1.62-8.88C119,129.53,123.62,132.49,120.6,138.41Z" transform="translate(0 1.63)"/><path class="cls-5" d="M124.44,141.18s-4.27-4-7.67,0C116.77,141.18,119.94,144.67,124.44,141.18Z" transform="translate(0 1.63)"/><path class="cls-5" d="M127.92,145s-2.84-5.85,1-8.81C128.94,136.17,132.89,139.74,127.92,145Z" transform="translate(0 1.63)"/><path class="cls-5" d="M130.17,148.65s-2.1-4.92-7.23-3.67C122.94,145,125.27,149.39,130.17,148.65Z" transform="translate(0 1.63)"/><path class="cls-5" d="M131.91,152.93c-.22.21-2.33-4.53,1.12-8.16C133,144.77,136.28,148.89,131.91,152.93Z" transform="translate(0 1.63)"/><path class="cls-5" d="M102.05,134.38s-6.94,1.66-10-4C92.05,130.42,100.41,128.1,102.05,134.38Z" transform="translate(0 1.63)"/><path class="cls-5" d="M105.44,134.39s-5.13-3.2-3.39-9.08C102.05,125.31,108.58,128.55,105.44,134.39Z" transform="translate(0 1.63)"/><path class="cls-5" d="M142.24,154.05c-.22-.29,4.83-2.82,8.28.75C150.52,154.8,146,159,142.24,154.05Z" transform="translate(0 1.63)"/><path class="cls-5" d="M145.27,151.47c-.22.21-3.82-3.57.52-8.74C145.79,142.73,150.37,146.66,145.27,151.47Z" transform="translate(0 1.63)"/><path class="cls-5" d="M150.68,148.51s6.73-2,8.9,3.91C159.58,152.42,153.13,154.72,150.68,148.51Z" transform="translate(0 1.63)"/><path class="cls-5" d="M154.34,147.64s-2.16-5.12,4.09-7.34C158.43,140.3,161.27,145.22,154.34,147.64Z" transform="translate(0 1.63)"/><path class="cls-5" d="M162,149s.27-5.87,7.8-4.27C169.79,144.77,169.33,149.79,162,149Z" transform="translate(0 1.63)"/><path class="cls-5" d="M164.8,150.79s-3,.73,0,5.69C164.8,156.48,168.11,154.7,164.8,150.79Z" transform="translate(0 1.63)"/><path class="cls-5" d="M169.24,155.2s3.11-5.63,9.23-1C178.47,154.17,175,157.64,169.24,155.2Z" transform="translate(0 1.63)"/><path class="cls-5" d="M171.54,158.38s-3.87-2-2.3,6.76C169.24,165.14,172.52,164.12,171.54,158.38Z" transform="translate(0 1.63)"/><path class="cls-5" d="M174.13,162.85s5.24-2.3,7.66,4.46C181.79,167.31,175.54,169,174.13,162.85Z" transform="translate(0 1.63)"/><path class="cls-5" d="M117.71,114c.32-.2-3.48-5.1-10-2.55C107.73,111.4,112.73,117,117.71,114Z" transform="translate(0 1.63)"/><path class="cls-5" d="M121.62,116.92a7.5,7.5,0,0,0-8.74,1.76S118.9,121.93,121.62,116.92Z" transform="translate(0 1.63)"/><path class="cls-5" d="M124.55,119.72s-4.08-7.3,2-10.36C126.56,109.36,130.62,115.78,124.55,119.72Z" transform="translate(0 1.63)"/><path class="cls-5" d="M128.67,124.94a8.34,8.34,0,0,0-10.45-1.67S122.78,128.77,128.67,124.94Z" transform="translate(0 1.63)"/><path class="cls-5" d="M131.07,129.14s-2.13-6.21,2-9.42C133,119.72,137.29,125.05,131.07,129.14Z" transform="translate(0 1.63)"/><path class="cls-5" d="M132.63,132.74s-3.44-4.56-8.19-3.6C124.44,129.14,125.34,134.16,132.63,132.74Z" transform="translate(0 1.63)"/><path class="cls-5" d="M134.19,137.73s0-6.41,4.58-6.73C138.77,131,140,137.39,134.19,137.73Z" transform="translate(0 1.63)"/><path class="cls-5" d="M140.17,147.55c0,.31-5-2.27-3.19-8.16C137,139.39,141.31,139.15,140.17,147.55Z" transform="translate(0 1.63)"/><path class="cls-5" d="M145.58,138.41c-.19-.25,4.2-3.39,8.4.44C154,138.85,149.44,143.72,145.58,138.41Z" transform="translate(0 1.63)"/><path class="cls-5" d="M143.65,141.06c-.82,1-6.28-6-.92-11.06C142.73,130,148.28,135.16,143.65,141.06Z" transform="translate(0 1.63)"/><path class="cls-5" d="M149.94,134a7.32,7.32,0,0,1,.74-9.76S154.47,127.05,149.94,134Z" transform="translate(0 1.63)"/><path class="cls-5" d="M154.34,131s5.88-2.16,7.79,3C162.13,134,156.25,136.81,154.34,131Z" transform="translate(0 1.63)"/><path class="cls-5" d="M159,129s-2.27-6.59,3.6-9.29C162.64,119.72,165.9,124.53,159,129Z" transform="translate(0 1.63)"/><path class="cls-5" d="M163.49,128a7,7,0,0,0,6.81,6.57S171,127.82,163.49,128Z" transform="translate(0 1.63)"/><path class="cls-5" d="M169.79,127.6s-1.53-5.86,6.51-6C176.3,121.61,177.71,125.42,169.79,127.6Z" transform="translate(0 1.63)"/><path class="cls-5" d="M174.13,128c-.18-.5,7.92-2.52,9.58,4.61C183.71,132.6,176.65,134.7,174.13,128Z" transform="translate(0 1.63)"/><polyline class="cls-10" points="139.92 0.5 139.92 119.59 127.89 168.95 139.92 193.07 152.16 168.54 156.94 185.14 156.94 190.14"/><line class="cls-10" x1="139.92" y1="119.6" x2="152.16" y2="168.54"/><polyline class="cls-10" points="127.89 168.95 122.5 184.64 122.5 190.14"/><line class="cls-10" x1="139.92" y1="193.07" x2="139.92" y2="197.92"/><rect class="cls-8" x="401.24" y="398.9" width="40.51" height="49.69"/><path class="cls-3" d="M456,355.52a13.56,13.56,0,0,0-8-9.45c.06-5.93-.46-13-5.55-16a27.08,27.08,0,0,1-2.68-1.51,31.62,31.62,0,0,1-2.78-3c-3.93-3.84-10.38-2.59-15.67-1.07-4,1.16-8.61,2.8-10.05,6.74-8.05.52-14.44,9.41-12.35,17.2-3.33,2.27-6.63,5.25-7.27,9.22-.53,3.29.88,6.61.76,9.93-.12,3.09-1.54,6-1.81,9.07-.45,5.13,2.33,9.93,5,14.33,1.41,2.31,3.36,5.06,5.71,6.29h40.51c3-2.49,5.8-6,4.16-9.53a11.63,11.63,0,0,0,8.39-12.84,15.11,15.11,0,0,1-.51-3.39,10.87,10.87,0,0,1,1-3.35A20.81,20.81,0,0,0,456,355.52Z" transform="translate(0 1.63)"/><path class="cls-11" d="M403.53,380.23a9.64,9.64,0,0,1,.56-1.9,3.21,3.21,0,0,1,1.1-1.55,3.45,3.45,0,0,1,2.61-.25,2.1,2.1,0,0,1,.85-1.83,3.88,3.88,0,0,1,4.5-.31" transform="translate(0 1.63)"/><path class="cls-11" d="M436.4,374a4,4,0,0,1,2.5.27,2.27,2.27,0,0,1,1,2.29,2.29,2.29,0,0,1,2.25,3.46" transform="translate(0 1.63)"/><path class="cls-11" d="M423.32,354.73a4.47,4.47,0,0,1,8-1.72,5.52,5.52,0,0,1,2.76-1.8,2.78,2.78,0,0,1,3,1.05,4.39,4.39,0,0,1,.41,2.57,2.18,2.18,0,0,1,.64,4.14" transform="translate(0 1.63)"/><path class="cls-11" d="M412.35,349.76A2.59,2.59,0,0,1,415,346a5.34,5.34,0,0,1,.21-3.27,2.81,2.81,0,0,1,2.5-1.44,3.07,3.07,0,0,1,2.5,1.47,2.32,2.32,0,0,1,2.23-1,3.78,3.78,0,0,1,2.25,1.2" transform="translate(0 1.63)"/><polygon class="cls-5" points="132.9 448.6 74.56 448.6 65.64 376.57 141.83 376.57 132.9 448.6"/><polygon class="cls-2" points="68.22 397.43 139.24 397.43 137.36 412.58 70.34 412.58 68.22 397.43"/><polygon class="cls-2" points="71.39 423.03 136.07 423.03 135.5 427.56 71.96 427.56 71.39 423.03"/><path class="cls-3" d="M102,286.34c-.63.88,1-41.24,19.4-51.45s35.06,5.1,24.85,18.72S124.48,255,102,286.34Z" transform="translate(0 1.63)"/><path class="cls-3" d="M102,300.25s-.69-39.15-26.9-49.36S53.84,272,68.22,272.68,102,285.27,102,300.25Z" transform="translate(0 1.63)"/><path class="cls-3" d="M102,310.12s8.51-39.83,41.87-39.15,20.08,22.81,0,21.79S118.35,285.27,102,310.12Z" transform="translate(0 1.63)"/><path class="cls-3" d="M101.9,325.1c.78,1.52-4-30.3-32.23-31.66s-24.08,23.15-13.24,23.15S88.18,298.21,101.9,325.1Z" transform="translate(0 1.63)"/><path class="cls-3" d="M102,345.53s.68-19.75-18.39-22.13-6,14.16,3.07,9.87S102,345.53,102,345.53Z" transform="translate(0 1.63)"/><path class="cls-3" d="M101.9,352.34S103.4,321,136.07,318s22.45,22.47,7.13,20.43S116.43,329.73,101.9,352.34Z" transform="translate(0 1.63)"/><path class="cls-3" d="M101.9,363.57S95.37,339.14,68.22,335,33.58,346.89,43.11,353.7,54.83,350,73.82,349,101.9,363.57,101.9,363.57Z" transform="translate(0 1.63)"/><path class="cls-3" d="M101.9,370.72c-.52.89,3.23-20.43,18.18-25.19s25.15-2.73,18.18,10.89S118.13,342.8,101.9,370.72Z" transform="translate(0 1.63)"/><path class="cls-3" d="M101.9,333.27s6.57-32.68,20.53-35.06,22.47,10.21,9.19,15.66S115.07,311.14,101.9,333.27Z" transform="translate(0 1.63)"/><path class="cls-11" d="M102,374.94v-90s4.86-29,25.88-36.06" transform="translate(0 1.63)"/><path class="cls-11" d="M142.41,281.7c.19,0-31.21-2.9-40.4,28.42" transform="translate(0 1.63)"/><path class="cls-11" d="M70.53,261.78c2.37,0,24.07,8.06,31.48,31.61" transform="translate(0 1.63)"/><path class="cls-11" d="M141.83,328.17s-30.08-7.07-39.93,24.17" transform="translate(0 1.63)"/><path class="cls-11" d="M51.2,344.25s36.55-12.9,50.7,19.32" transform="translate(0 1.63)"/><path class="cls-11" d="M127.89,352.34s-17.73-4.34-26,18.38" transform="translate(0 1.63)"/><path class="cls-11" d="M60.39,303.88s34.47-7.6,41.51,21.22" transform="translate(0 1.63)"/><path class="cls-11" d="M125.64,306.46s-15.16,1.28-23.74,26.81" transform="translate(0 1.63)"/><path class="cls-11" d="M82.6,327.48s18.38,3.72,19.41,18" transform="translate(0 1.63)"/><polygon class="cls-12" points="324.64 236.18 320.56 226.14 311.52 225.65 312.3 235.25 293.52 249.31 301.28 258.6 328.17 242.9 324.64 236.18"/><path class="cls-8" d="M261.45,245.44c.77-1.15,22.22-9.57,22.22-9.57l29,34.72h0A109.88,109.88,0,0,1,273.76,291l-.95.27Z" transform="translate(0 1.63)"/><path class="cls-8" d="M227,261.78c.51-.51,35.59-11.83,35.59-11.83l1.74,7-36.43,8.28Z" transform="translate(0 1.63)"/><path class="cls-8" d="M285.28,237.8s10.68-16.27,22.77-1.93-8.17,19.43-8.17,19.43l-2.3-2.76s17.44-3.52,7.57-15-18,2.46-18,2.46Z" transform="translate(0 1.63)"/><path class="cls-9" d="M262.57,250s17.72-3.63,24.54-10" transform="translate(0 1.63)"/><path class="cls-7" d="M323.09,248.1s-16.32,65.51-17.85,71.13,16.85,75.06,28.08,100.85c0,0,20.43-2,29.88-11.49l-25.79-79L343,307.48V240Z" transform="translate(0 1.63)"/><path class="cls-7" d="M369.32,238.29s12,27.07,11,64.34-1.53,127.66-1.53,127.66-21.45,2.81-29.62,0L343,307.48V240Z" transform="translate(0 1.63)"/><path class="cls-3" d="M345.34,353.93l3.14,62.82L344.2,418s.79-50.3,0-67.58Z" transform="translate(0 1.63)"/><polygon class="cls-3" points="343.03 309.12 340.28 284.59 341.65 314.53 343.03 309.12"/><path class="cls-13" d="M266.22,267.44a6,6,0,0,0-.55,2.09,44.91,44.91,0,0,0-.36,5.44,5.66,5.66,0,0,0,.87,3.65,5.15,5.15,0,0,0,3.41,1.55,8.56,8.56,0,0,0,4.81-.5,2.4,2.4,0,0,0,1.07-.84,2.94,2.94,0,0,0,.37-1.24,37.36,37.36,0,0,0,.37-6.34,8.4,8.4,0,0,0-.38-2.64,3.33,3.33,0,0,0-1.71-2,4.79,4.79,0,0,0-1.55-.3C270.66,266.19,267.32,265.35,266.22,267.44Z" transform="translate(0 1.63)"/><path class="cls-14" d="M307.28,237.75a29.13,29.13,0,0,0-5.75.85,2.94,2.94,0,0,0-1.64.84,2.17,2.17,0,0,0-.34,1c-.51,3.64,1.24,7.19,2.95,10.53.61,1.19,1.44,2.55,2.9,2.73a4.47,4.47,0,0,0,1.7-.21,35.91,35.91,0,0,0,4.7-1.55c1-.41,2.08-1,2.34-1.93a3,3,0,0,0,0-1.3A37.44,37.44,0,0,0,311,239a1.93,1.93,0,0,0-.57-.79,2.18,2.18,0,0,0-1-.31,17.61,17.61,0,0,0-4,0" transform="translate(0 1.63)"/><path class="cls-14" d="M360.13,220.42l-.76,3.83-34.73,10.3L306.52,240s.51,9.88,2,10,57.45-7.83,61.79-8.59,8.7-6.34,12.24-21.28h0A101.71,101.71,0,0,1,360.13,220.42Z" transform="translate(0 1.63)"/><path class="cls-6" d="M353.56,169.87s20.11,3.95,25.47,9.51S388,219.06,388,219.06,378,222,360.13,220.42l-.76,3.83-34.73,10.3-4.08-10-14-.77s2.8-21.45,3.83-27.45,5.1-19.53,28.08-26.42Z" transform="translate(0 1.63)"/><path class="cls-7" d="M359.37,224.25l.76-3.83s-2.75-43.66,10.63-45.7L367,173.37l-3.75-1.14s-8.17,7.86-9.45,26.24H326.18s-.9-19,5.67-26.24h0l-4,1.88-3,1.74h0s-9.35,18.29-4.25,48.64l4.08,10Z" transform="translate(0 1.63)"/><path class="cls-3" d="M328.35,209.19s15.32,1.53,23.74,0c0,0,3.19,14-11,15.06S328,213.65,328.35,209.19Z" transform="translate(0 1.63)"/><path class="cls-3" d="M324.64,234.55l34.73-10.3.76-3.83s0-.4-.06-1.13l-32.74,12-3.47,1.29Z" transform="translate(0 1.63)"/><path class="cls-14" d="M346.09,175.87h0a7.69,7.69,0,0,1-7.66-7.66V162a7.69,7.69,0,0,1,7.66-7.66h0a7.69,7.69,0,0,1,7.66,7.66v6.26A7.69,7.69,0,0,1,346.09,175.87Z" transform="translate(0 1.63)"/><path class="cls-12" d="M346.09,154.29a7.69,7.69,0,0,0-7.66,7.66v4.36a24.7,24.7,0,0,0,5.87.71,24.2,24.2,0,0,0,9.45-1.9V162A7.69,7.69,0,0,0,346.09,154.29Z" transform="translate(0 1.63)"/><path d="M382,147.25c-15.06-9.46,4.73-19.13-9.7-30.87s-21,2.09-21,2.09h0a24.37,24.37,0,0,1,2.49,43.28c0,.07,0,.13,0,.2v6.26a7.61,7.61,0,0,1-.19,1.66c.06,0,20.11,4,25.47,9.51a13.57,13.57,0,0,1,2.4,4.54h0C400.56,177.67,397,156.72,382,147.25Z" transform="translate(0 1.63)"/><circle class="cls-14" cx="341.37" cy="140.76" r="24.38" transform="translate(0.45 284.24) rotate(-45)"/><path d="M365.75,140.76a24.38,24.38,0,0,0-48.76-.09,24.5,24.5,0,0,0,11.61-11.52,24.29,24.29,0,0,0,27.06,14c.51-1.75,1.72-3,3.13-3,1.87,0,3.39,2.15,3.39,4.79s-1.51,4.78-3.38,4.79a24.46,24.46,0,0,0,1.86,6A24.26,24.26,0,0,0,365.75,140.76Z" transform="translate(0 1.63)"/><path d="M325.45,147.06c.18,1-.15,1.85-.73,1.95s-1.19-.6-1.36-1.57.15-1.84.73-1.95S325.28,146.09,325.45,147.06Z" transform="translate(0 1.63)"/><path d="M334.58,145.88c.18,1-.15,1.85-.73,2s-1.19-.6-1.36-1.57.15-1.84.73-1.95S334.41,144.91,334.58,145.88Z" transform="translate(0 1.63)"/><path class="cls-15" d="M327.09,154.94a5.49,5.49,0,0,0,6.45-.76" transform="translate(0 1.63)"/><path class="cls-16" d="M326,447s-3.49-5.77,21.53-11.14c0,0,2.3,1.2,3.74,5.11,0,0,21.7,3,26.21-1.7,0,0,3,1.76,1.45,7.73Z" transform="translate(0 1.63)"/><path class="cls-14" d="M375.71,430.64h0c-5.25.56-16.07,1.46-23.1.43h0a20.48,20.48,0,0,1,0,5.18l-4,.39a11.11,11.11,0,0,1,2.69,4.29s21.7,3,26.21-1.7C377.49,439.23,375.37,437.8,375.71,430.64Z" transform="translate(0 1.63)"/><path class="cls-12" d="M352.61,431.07h0s.08.61.13,1.48c5.82,1.5,16.41.89,22.95.3,0-.67,0-1.4,0-2.21h0C370.46,431.2,359.64,432.1,352.61,431.07Z" transform="translate(0 1.63)"/><path class="cls-16" d="M347.54,435.82a5.14,5.14,0,0,1,1,.82l4-.39a20.48,20.48,0,0,0,0-5.18s-2.47-.44-3.46-.78l-.08-1.67a20.62,20.62,0,0,1-10,5.76c-2.81.08-4.94-2.84-4.94-2.84s-2.29,2.5-13.19,5.9-6.55,9.52-6.55,9.52H326S322.52,441.19,347.54,435.82Z" transform="translate(0 1.63)"/><path class="cls-17" d="M352.61,436.25a15.05,15.05,0,0,0,.17-2.74l-.17,0s-20.95.53-27.23,6.34-3.23,7.13-3.23,7.13H326s-3.49-5.77,21.53-11.14a5.14,5.14,0,0,1,1,.82Z" transform="translate(0 1.63)"/><path class="cls-14" d="M348.48,416.75a81.93,81.93,0,0,1-12.59,3h0s2.46,6.3,2.46,7.83-4.18,4-4.18,4,2.13,2.92,4.94,2.84a20.62,20.62,0,0,0,10-5.76Z" transform="translate(0 1.63)"/><path class="cls-12" d="M348.48,416.75a81.93,81.93,0,0,1-12.59,3h0s.63,1.61,1.25,3.4a75.34,75.34,0,0,0,11.5-3.08Z" transform="translate(0 1.63)"/><line class="cls-9" x1="46.2" y1="448.6" x2="460.84" y2="448.6"/></g></svg>