<svg xmlns="http://www.w3.org/2000/svg" xmlns:xlink="http://www.w3.org/1999/xlink" viewBox="0 0 758 497.79"><defs><style>.cls-1{fill:none;}.cls-2{isolation:isolate;}.cls-3{clip-path:url(#clip-path);}.cls-4{fill:url(#Безымянный_градиент_16);}.cls-5{fill:#f9d4e6;}.cls-6{fill:#c0c0ff;}.cls-7{fill:#222955;}.cls-8{fill:#889b6d;}.cls-9{fill:#c4c4f7;}.cls-10{fill:#f9d4e3;}.cls-11{fill:#f3f0ff;}.cls-12{fill:#d3d5fe;}.cls-13{fill:#cdcdfc;}.cls-14{fill:#f2c4d9;}.cls-15{fill:#c7ddd3;}.cls-16{fill:#eac5d9;}.cls-17{fill:#fff;}.cls-18{fill:#93521c;}.cls-19{fill:#c2b0d8;}.cls-20{fill:#d2a6a5;}.cls-21{fill:#bc807a;}.cls-22{fill:#56061b;}.cls-23{fill:#030928;}.cls-24{fill:#6a081d;}.cls-25{fill:#ae9bc9;}.cls-26{fill:#21263a;}.cls-27{fill:#405939;}.cls-28{fill:#1b2c3e;}.cls-29{fill:#01061e;}.cls-30{fill:#415b36;}.cls-31{fill:#a15d20;}.cls-32{fill:#354c2e;}.cls-33{fill:#4c6344;}.cls-34{fill:#d08a7b;}.cls-35{fill:#91501a;}.cls-36,.cls-39{fill:#9a5d5d;}.cls-36,.cls-38{mix-blend-mode:multiply;opacity:0.1;}.cls-37{fill:#dd9c83;}.cls-40{fill:#c04930;}.cls-41{fill:#60061e;}</style><clipPath id="clip-path" transform="translate(74 -2.21)"><rect class="cls-1" width="500" height="500" transform="translate(500 500) rotate(180)"/></clipPath><linearGradient id="Безымянный_градиент_16" x1="228.18" y1="-74.7" x2="223.38" y2="483.61" gradientTransform="translate(80.15)" gradientUnits="userSpaceOnUse"><stop offset="0.04" stop-color="#fff" stop-opacity="0.4"/><stop offset="0.52" stop-color="#ffdeed" stop-opacity="0.71"/><stop offset="0.55" stop-color="#ffdcec"/><stop offset="0.66" stop-color="#ecd9f1"/><stop offset="0.93" stop-color="#bed2ff"/></linearGradient></defs><g class="cls-2"><g id="objects"><g class="cls-3"><path class="cls-4" d="M606.67,479l-595.3-.79C-11,467-70.6,312.94-73.68,260.91c-1.18-20,.59-41,11.14-57.92s31.82-28.49,50.92-22.63C6.55,185.94,23.12,205.72,40.49,198c11.68-5.2,14.91-19.91,17.06-32.52,8-47.25,22.8-95.78,57-129.4s92.23-46.72,130.76-18.22c21.25,15.73,33.28,40.87,42.21,65.75s15.79,50.93,30.13,73.15S356,197.2,382.39,195.91c23.18-1.13,43-16.65,59.6-32.87s32.53-34.35,54-43.22,50.65-4.62,61.29,16c9.26,18,1.24,39.49-5.62,58.49-8,22.1-14.36,45.65-11,68.9s18.8,46.09,41.58,51.88c20.83,5.29,43.35-4.17,64.09,1.42,30.8,8.29,44.16,47.86,34.61,78.28s-60.69,71.83-60.7,71.83C616.16,469.66,606.67,479,606.67,479Z" transform="translate(74 -2.21)"/><path class="cls-5" d="M600,500H0c-22.38-11.17-70.6-187.06-73.68-239.09-1.18-20,.59-41,11.14-57.92s31.82-28.49,50.92-22.63C6.55,185.94,23.12,205.72,40.49,198c11.68-5.2,14.91-19.91,17.06-32.52,8-47.25,22.8-95.78,57-129.4s92.23-46.72,130.76-18.22c21.25,15.73,33.28,40.87,42.21,65.75s15.79,50.93,30.13,73.15S356,197.2,382.39,195.91c23.18-1.13,43-16.65,59.6-32.87s32.53-34.35,54-43.22,50.65-4.62,61.29,16c9.26,18,1.24,39.49-5.62,58.49-8,22.1-14.36,45.65-11,68.9s18.8,46.09,41.58,51.88c20.83,5.29,43.35-4.17,64.09,1.42,30.8,8.29,44.16,47.86,34.61,78.28s-60.69,71.83-60.7,71.83C616.16,469.66,600,500,600,500Z" transform="translate(74 -2.21)"/><path class="cls-6" d="M100.48,431.4H67.86a57.3,57.3,0,0,1-11.6-14.6c-6.46-11.46-10.91-24.47-20.52-33.44-4.57-4.27-10.07-7.37-15.19-10.95-11.21-7.83-21.18-19-22.84-32.59-1.18-9.68,2-19.4,1.61-29.15C-1.94,277.94-41.31,255.74-41.17,223c0-8.18,4-17.54,12-19.14,3.74-.75,7.63.39,11,2.19C-7.27,211.83-1.3,223.61,4.63,234.4S18.16,256.51,30,259.82c3,.84,6.17,1.11,9.17,2,13.86,4.25,19.91,20.52,21.46,34.93s.82,30,8.65,42.15c8.48,13.21,25.15,19.33,33.8,32.43,5.87,8.86,7.36,20.08,6.07,30.63C108.16,410.23,106.28,423.29,100.48,431.4Z" transform="translate(74 -2.21)"/><path class="cls-7" d="M58,356.89l.89-.93c-9.14-8.73-18.6-17.76-25.39-28.67C26.42,316,22.42,302.88,18.55,290.21c-3.81-12.49-7.75-25.41-14.64-36.72-4.42-7.27-10.08-13.89-15.55-20.3-7.66-8.95-15.57-18.21-20-29.22l-1.18.48c4.5,11.2,12.49,20.54,20.21,29.58C-7.18,240.39-1.55,247,2.82,254.16c6.8,11.16,10.72,24,14.51,36.42,3.89,12.75,7.91,25.93,15.06,37.39C39.27,339,48.78,348.1,58,356.89Z" transform="translate(74 -2.21)"/><path class="cls-7" d="M43,342.44l1.1-.65A24.87,24.87,0,0,0,30.91,331c-1.42-.49-2.9-.85-4.33-1.2a38.16,38.16,0,0,1-5.16-1.51C15.07,325.76,10.6,320,6.67,315l-1,.79c3.84,4.93,8.61,11.08,15.28,13.74a38.65,38.65,0,0,0,5.34,1.57c1.4.35,2.85.7,4.22,1.17A23.59,23.59,0,0,1,43,342.44Z" transform="translate(74 -2.21)"/><path class="cls-7" d="M22.61,305.69l1.22-.38c-2.34-7.37-1.23-15.26.17-22l.32-1.49c1.54-7.34,3.13-14.92-.33-21.45l-1.13.6c3.25,6.12,1.7,13.47.21,20.58l-.32,1.5C21.32,290,20.18,298.05,22.61,305.69Z" transform="translate(74 -2.21)"/><path class="cls-7" d="M5.72,260.16,7,260c-.6-3.66-3.07-7.21-6.94-10a53.05,53.05,0,0,0-7.57-4.29c-1-.5-2-1-3-1.53-10.91-5.77-19-14.26-22.9-23.88l-1.19.47c4,9.91,12.31,18.62,23.49,24.54,1,.53,2,1,3,1.54A52.22,52.22,0,0,1-.71,251C2.89,253.57,5.17,256.83,5.72,260.16Z" transform="translate(74 -2.21)"/><path class="cls-6" d="M14.32,358.08c2.71-16.26,11.39-31,21.08-44.54,20.38,18.75,28.09,49.34,18.92,75.07-1.6,4.49-3.73,8.92-7.17,12.31-9.4,9.28-19,4.75-24.9-4.39A53.69,53.69,0,0,1,14.32,358.08Z" transform="translate(74 -2.21)"/><path class="cls-8" d="M36.57,424.32a1,1,0,0,0,1-1v-98.6a1,1,0,0,0-2,0v98.6A1,1,0,0,0,36.57,424.32Z" transform="translate(74 -2.21)"/><path class="cls-8" d="M34.68,353.59a1,1,0,0,0,.5-.13,1,1,0,0,0,.37-1.36c-3.48-6.15-6.93-12.44-10.27-18.69a1,1,0,0,0-1.76.94c3.34,6.27,6.81,12.57,10.29,18.73A1,1,0,0,0,34.68,353.59Z" transform="translate(74 -2.21)"/><path class="cls-8" d="M37.12,371.25a1,1,0,0,0,.72-.32,164,164,0,0,0,16-19.85A1,1,0,0,0,52.18,350a163.44,163.44,0,0,1-15.79,19.61,1,1,0,0,0,0,1.41A1,1,0,0,0,37.12,371.25Z" transform="translate(74 -2.21)"/><rect class="cls-9" x="164.18" y="151.02" width="103.23" height="270.12"/><rect class="cls-9" x="179.45" y="126.18" width="72.69" height="72.69"/><rect class="cls-10" x="169.58" y="159.55" width="88.42" height="11.14"/><rect class="cls-10" x="169.58" y="179.21" width="88.42" height="11.14"/><rect class="cls-10" x="169.58" y="200.07" width="88.42" height="11.14"/><rect class="cls-10" x="169.58" y="219.74" width="88.42" height="11.14"/><rect class="cls-10" x="169.58" y="238.51" width="88.42" height="11.14"/><rect class="cls-10" x="169.58" y="258.88" width="88.42" height="11.14"/><rect class="cls-10" x="169.58" y="277.21" width="88.42" height="11.14"/><rect class="cls-10" x="169.58" y="295.99" width="88.42" height="11.14"/><rect class="cls-10" x="169.58" y="317.97" width="88.42" height="11.14"/><rect class="cls-11" x="246.54" y="229.83" width="86.35" height="192.17"/><polygon class="cls-12" points="429.02 193.74 429.02 161.67 417.23 161.67 417.23 146.76 351.27 146.76 351.27 161.67 339.47 161.67 339.47 193.74 332.63 193.74 332.63 423.48 435.86 423.48 435.86 193.74 429.02 193.74"/><polygon class="cls-13" points="494.23 284.57 493.96 267.86 481.9 268.05 481.62 250.22 476.59 250.3 476.3 231.75 458.36 232.03 458.65 250.59 453.62 250.66 453.9 268.49 441.84 268.67 442.1 285.39 426.38 285.63 428.55 424.12 512.12 422.81 509.95 284.32 494.23 284.57"/><rect class="cls-11" x="342.44" y="213.07" width="33.15" height="16.22"/><rect class="cls-11" x="390.86" y="213.07" width="33.15" height="16.22"/><rect class="cls-11" x="342.44" y="237.16" width="33.15" height="16.22"/><rect class="cls-11" x="390.86" y="237.16" width="33.15" height="16.22"/><rect class="cls-11" x="342.44" y="261.25" width="33.15" height="16.22"/><rect class="cls-11" x="390.86" y="261.25" width="33.15" height="16.22"/><rect class="cls-11" x="342.44" y="285.33" width="33.15" height="16.22"/><rect class="cls-11" x="390.86" y="285.33" width="33.15" height="16.22"/><rect class="cls-11" x="342.44" y="309.42" width="33.15" height="16.22"/><rect class="cls-11" x="390.86" y="309.42" width="33.15" height="16.22"/><rect class="cls-11" x="342.44" y="333.51" width="33.15" height="16.22"/><rect class="cls-11" x="390.86" y="333.51" width="33.15" height="16.22"/><rect class="cls-11" x="342.44" y="357.6" width="33.15" height="16.22"/><rect class="cls-11" x="390.86" y="357.6" width="33.15" height="16.22"/><rect class="cls-11" x="390.86" y="381.69" width="33.15" height="16.22"/><rect class="cls-11" x="390.86" y="405.77" width="33.15" height="16.22"/><polygon class="cls-14" points="420.02 348.87 420.02 312.74 387.48 312.74 387.48 348.87 378.9 348.87 378.9 423.48 444.76 423.48 444.76 348.87 420.02 348.87"/><rect class="cls-12" x="384.25" y="359.31" width="6.9" height="29.01"/><rect class="cls-12" x="395.26" y="359.31" width="6.9" height="29.01"/><rect class="cls-12" x="405.31" y="359.31" width="6.9" height="29.01"/><rect class="cls-6" x="440.33" y="297.62" width="15.24" height="15.24"/><rect class="cls-6" x="461.96" y="297.62" width="15.24" height="15.24"/><rect class="cls-6" x="482.12" y="297.62" width="15.24" height="15.24"/><rect class="cls-6" x="440.33" y="320.32" width="15.24" height="15.24"/><rect class="cls-6" x="461.96" y="320.32" width="15.24" height="15.24"/><rect class="cls-6" x="482.12" y="320.32" width="15.24" height="15.24"/><rect class="cls-6" x="440.33" y="342.11" width="15.24" height="15.24"/><rect class="cls-6" x="461.96" y="342.11" width="15.24" height="15.24"/><rect class="cls-6" x="482.12" y="342.11" width="15.24" height="15.24"/><rect class="cls-11" x="366.06" y="159.55" width="36.38" height="39.33"/><rect class="cls-12" x="252.14" y="240.6" width="11.71" height="15.24"/><rect class="cls-12" x="267.75" y="240.6" width="11.71" height="15.24"/><rect class="cls-12" x="284.59" y="240.6" width="11.71" height="15.24"/><rect class="cls-12" x="300.19" y="240.6" width="11.71" height="15.24"/><rect class="cls-12" x="316.41" y="240.6" width="11.71" height="15.24"/><rect class="cls-12" x="252.14" y="261.25" width="11.71" height="15.24"/><rect class="cls-12" x="267.75" y="261.25" width="11.71" height="15.24"/><rect class="cls-12" x="284.59" y="261.25" width="11.71" height="15.24"/><rect class="cls-12" x="300.19" y="261.25" width="11.71" height="15.24"/><rect class="cls-12" x="316.41" y="261.25" width="11.71" height="15.24"/><rect class="cls-12" x="252.14" y="281.89" width="11.71" height="15.24"/><rect class="cls-12" x="267.75" y="281.89" width="11.71" height="15.24"/><rect class="cls-12" x="284.59" y="281.89" width="11.71" height="15.24"/><rect class="cls-12" x="300.19" y="281.89" width="11.71" height="15.24"/><rect class="cls-12" x="316.41" y="281.89" width="11.71" height="15.24"/><rect class="cls-12" x="252.14" y="301.8" width="11.71" height="15.24"/><rect class="cls-12" x="267.75" y="301.8" width="11.71" height="15.24"/><rect class="cls-12" x="284.59" y="301.8" width="11.71" height="15.24"/><rect class="cls-12" x="300.19" y="301.8" width="11.71" height="15.24"/><rect class="cls-12" x="316.41" y="301.8" width="11.71" height="15.24"/><rect class="cls-14" x="122.38" y="253.38" width="98.97" height="162.59"/><rect class="cls-6" x="128.28" y="257.27" width="13.11" height="64.48"/><rect class="cls-6" x="146.23" y="257.27" width="13.11" height="64.48"/><rect class="cls-6" x="165.31" y="257.27" width="13.11" height="64.48"/><rect class="cls-6" x="184.32" y="257.27" width="13.11" height="64.48"/><rect class="cls-6" x="128.28" y="330.04" width="13.11" height="64.48"/><rect class="cls-6" x="146.23" y="330.04" width="13.11" height="64.48"/><rect class="cls-6" x="165.31" y="330.04" width="13.11" height="64.48"/><rect class="cls-6" x="184.32" y="330.04" width="13.11" height="64.48"/><rect class="cls-12" x="171.87" y="334.68" width="95.54" height="81.3"/><path class="cls-14" d="M207.25,357.65a29.89,29.89,0,0,0-5.24-7.14,17,17,0,0,0-10.26-6c-8.7-1.26-16.56,5.88-20.48,13.75a43.24,43.24,0,0,0-4,25.78c1,6.22,3.46,12.42,8.14,16.64.31.27.63.53.95.79,3.12,4.57,7.93,6.66,13.48,6.56,4.16-.08,9.46-2.4,12.64-5a24.37,24.37,0,0,0,8.28-12.12C213.71,380.6,212.32,367.08,207.25,357.65Z" transform="translate(74 -2.21)"/><path class="cls-8" d="M189.31,420.23a1,1,0,0,0,1-1V360.36a1,1,0,0,0-2,0v58.87A1,1,0,0,0,189.31,420.23Z" transform="translate(74 -2.21)"/><path class="cls-8" d="M188.69,378.05a1,1,0,0,0,.62-.22,1,1,0,0,0,.15-1.41c-4.35-5.37-8.53-11-12.42-16.69a1,1,0,0,0-1.66,1.13c3.93,5.75,8.14,11.41,12.53,16.82A1,1,0,0,0,188.69,378.05Z" transform="translate(74 -2.21)"/><path class="cls-8" d="M177.18,382.18a1,1,0,0,0,.7-.3,1,1,0,0,0,0-1.41c-2.11-2.12-4.13-4.36-6-6.66a1,1,0,0,0-1.41-.14,1,1,0,0,0-.14,1.4c1.91,2.35,4,4.64,6.13,6.81A1,1,0,0,0,177.18,382.18Z" transform="translate(74 -2.21)"/><path class="cls-8" d="M188.35,395.34a1,1,0,0,0,.77-.36,1,1,0,0,0-.12-1.41,53.73,53.73,0,0,1-7.65-7.8,1,1,0,1,0-1.56,1.24,55.2,55.2,0,0,0,7.93,8.1A.94.94,0,0,0,188.35,395.34Z" transform="translate(74 -2.21)"/><path class="cls-8" d="M189.9,368.26a1,1,0,0,0,.82-.43A135.73,135.73,0,0,1,199.16,357a1,1,0,0,0-1.51-1.31,137.65,137.65,0,0,0-8.57,11,1,1,0,0,0,.25,1.39A1,1,0,0,0,189.9,368.26Z" transform="translate(74 -2.21)"/><path class="cls-8" d="M190,392.25a1,1,0,0,0,.73-.32l13.68-14.85a1,1,0,1,0-1.47-1.35L189.3,390.57a1,1,0,0,0,.74,1.68Z" transform="translate(74 -2.21)"/><path class="cls-8" d="M190.78,404.55a1,1,0,0,0,.75-.33,49,49,0,0,1,7.57-6.89,1,1,0,0,0-1.19-1.61,52.41,52.41,0,0,0-7.87,7.16,1,1,0,0,0,.08,1.42A1,1,0,0,0,190.78,404.55Z" transform="translate(74 -2.21)"/><path class="cls-15" d="M220.48,358.08c2.71-16.26,11.39-31,21.08-44.54,20.38,18.75,28.09,49.34,18.92,75.07-1.6,4.49-3.73,8.92-7.17,12.31-9.4,9.28-19,4.75-24.9-4.39A53.69,53.69,0,0,1,220.48,358.08Z" transform="translate(74 -2.21)"/><path class="cls-8" d="M242.73,424.32a1,1,0,0,0,1-1v-98.6a1,1,0,0,0-2,0v98.6A1,1,0,0,0,242.73,424.32Z" transform="translate(74 -2.21)"/><path class="cls-8" d="M240.84,353.59a1,1,0,0,0,.49-.13,1,1,0,0,0,.38-1.36c-3.48-6.15-6.93-12.44-10.27-18.69a1,1,0,0,0-1.77.94c3.35,6.27,6.81,12.57,10.3,18.73A1,1,0,0,0,240.84,353.59Z" transform="translate(74 -2.21)"/><path class="cls-8" d="M243.27,371.25a1,1,0,0,0,.73-.32,164,164,0,0,0,16-19.85,1,1,0,0,0-1.65-1.13,163.44,163.44,0,0,1-15.79,19.61,1,1,0,0,0,0,1.41A1,1,0,0,0,243.27,371.25Z" transform="translate(74 -2.21)"/><path class="cls-6" d="M214.39,411.69c-3.43-2.85-7.06-6.55-6.6-11a2.42,2.42,0,0,1,.78-1.73c.92-.72,2.25-.11,3.41-.23,2.45-.25,3.31-3.65,2.25-5.86s-3.22-3.67-4.84-5.51a13.47,13.47,0,0,1-2.94-5.64c-.67-2.71.24-6.44,3-6.73,2-.22,3.62,1.53,5.12,2.89s3.95,2.45,5.4,1c1.26-1.22.73-3.29.23-5a39,39,0,0,1-1.61-12.66c.12-3,.64-6.07,2.39-8.48s5-3.92,7.81-2.86c2.6,1,4,3.8,4.63,6.52,1.64,7.41-1.09,15-1.93,22.52-.2,1.78.15,4.17,1.92,4.46,1.24.2,2.28-.84,3.24-1.66a12.51,12.51,0,0,1,8.5-3,2.92,2.92,0,0,1,1.51.37c1,.66,1,2.15.61,3.29-1.67,5.29-7.61,8.51-8.77,13.93a2.47,2.47,0,0,0,.28,2.13,2.3,2.3,0,0,0,1.42.68c2.19.34,4.32-.71,6.47-1.23s4.92-.21,5.85,1.79c.71,1.51,0,3.3-.83,4.73-2.64,4.39-7,7.53-11.69,9.6-4.2,1.86-9.88,4-14.54,4.08C221.1,418.22,217.55,414.31,214.39,411.69Z" transform="translate(74 -2.21)"/><path class="cls-8" d="M226.26,423.36a1,1,0,0,0,1-1V363.07a1,1,0,1,0-2,0v59.29A1,1,0,0,0,226.26,423.36Z" transform="translate(74 -2.21)"/><path class="cls-8" d="M218.38,389.39a1,1,0,0,0,.72-.31,1,1,0,0,0,0-1.41l-7.39-7.11a1,1,0,0,0-1.42,0,1,1,0,0,0,0,1.41l7.39,7.11A1,1,0,0,0,218.38,389.39Z" transform="translate(74 -2.21)"/><path class="cls-8" d="M225.51,396.22a1,1,0,0,0,.73-1.68l-3.65-3.92a1,1,0,1,0-1.46,1.37l3.65,3.91A1,1,0,0,0,225.51,396.22Z" transform="translate(74 -2.21)"/><path class="cls-8" d="M225.51,414.71a1,1,0,0,0,.68-1.74c-4.33-4-8.8-8-13.28-11.84a1,1,0,0,0-1.31,1.52c4.47,3.86,8.92,7.83,13.23,11.8A1.05,1.05,0,0,0,225.51,414.71Z" transform="translate(74 -2.21)"/><path class="cls-8" d="M226.64,405.28a1,1,0,0,0,.8-.4c4.14-5.53,8.41-11.1,12.7-16.56a1,1,0,0,0-1.57-1.24c-4.3,5.47-8.59,11.05-12.73,16.6a1,1,0,0,0,.2,1.4A1,1,0,0,0,226.64,405.28Z" transform="translate(74 -2.21)"/><path class="cls-12" d="M430.9,403.68c-4.41-3.66-9.07-8.43-8.48-14.14a3.14,3.14,0,0,1,1-2.23c1.19-.92,2.9-.14,4.39-.29,3.15-.32,4.26-4.7,2.89-7.55s-4.14-4.71-6.22-7.09a17.33,17.33,0,0,1-3.79-7.25c-.86-3.49.31-8.28,3.89-8.66,2.59-.28,4.65,2,6.58,3.73s5.08,3.14,7,1.32c1.61-1.57.93-4.23.29-6.39a50.11,50.11,0,0,1-2.07-16.29c.15-3.83.82-7.81,3.07-10.91s6.46-5,10-3.68c3.35,1.27,5.19,4.9,6,8.39,2.12,9.53-1.41,19.28-2.48,29-.26,2.29.18,5.36,2.46,5.73,1.6.27,3-1.07,4.17-2.13a16.08,16.08,0,0,1,10.94-3.83,3.73,3.73,0,0,1,1.95.47c1.29.86,1.25,2.77.78,4.24-2.14,6.8-9.79,10.95-11.29,17.92a3.19,3.19,0,0,0,.37,2.74,2.85,2.85,0,0,0,1.82.87c2.82.44,5.56-.91,8.33-1.58s6.33-.27,7.53,2.31c.91,1.94,0,4.24-1.07,6.08-3.4,5.65-9,9.7-15,12.36-5.41,2.39-12.72,5.2-18.72,5.24C439.55,412.09,435,407.05,430.9,403.68Z" transform="translate(74 -2.21)"/><path class="cls-8" d="M447.06,422.17a1,1,0,0,0,1-1V335.62a1,1,0,0,0-2,0v85.55A1,1,0,0,0,447.06,422.17Z" transform="translate(74 -2.21)"/><path class="cls-8" d="M446.47,384.9a1,1,0,0,0,.73-1.68c-7.24-7.8-14.76-15.52-22.35-22.94a1,1,0,0,0-1.42,0,1,1,0,0,0,0,1.42c7.57,7.4,15.07,15.1,22.28,22.87A1,1,0,0,0,446.47,384.9Z" transform="translate(74 -2.21)"/><path class="cls-8" d="M446.47,408.49a1,1,0,0,0,.75-.35,1,1,0,0,0-.1-1.41c-6.64-5.78-13.52-11.49-20.43-17a1,1,0,0,0-1.25,1.57c6.9,5.46,13.75,11.15,20.37,16.91A1,1,0,0,0,446.47,408.49Z" transform="translate(74 -2.21)"/><path class="cls-8" d="M447.88,389.54a1,1,0,0,0,.74-.32c6.46-7.06,13.13-14.1,19.82-20.94a1,1,0,0,0-1.43-1.4c-6.71,6.86-13.39,13.91-19.87,21a1,1,0,0,0,.74,1.67Z" transform="translate(74 -2.21)"/><path class="cls-14" d="M425.77,375.39a24.59,24.59,0,0,0-4.29-5.84,13.9,13.9,0,0,0-8.4-4.94c-7.12-1-13.55,4.81-16.76,11.25A35.44,35.44,0,0,0,393,397c.8,5.09,2.84,10.17,6.67,13.62.25.22.51.44.78.64a12.41,12.41,0,0,0,11,5.37,18.8,18.8,0,0,0,10.34-4.12,19.94,19.94,0,0,0,6.78-9.92A38.9,38.9,0,0,0,425.77,375.39Z" transform="translate(74 -2.21)"/><path class="cls-8" d="M411,425.69a1,1,0,0,0,1-1v-52a1,1,0,0,0-2,0v52A1,1,0,0,0,411,425.69Z" transform="translate(74 -2.21)"/><path class="cls-8" d="M408.87,397.1a1,1,0,0,0,.65-.25,1,1,0,0,0,.11-1.41l-12.52-14.52a1,1,0,1,0-1.52,1.3l12.52,14.53A1,1,0,0,0,408.87,397.1Z" transform="translate(74 -2.21)"/><path class="cls-8" d="M400.9,401.64a1,1,0,0,0,.77-1.63c-1.71-2.11-3.5-4.2-5.34-6.22a1,1,0,1,0-1.48,1.34c1.81,2,3.58,4.06,5.27,6.14A1,1,0,0,0,400.9,401.64Z" transform="translate(74 -2.21)"/><path class="cls-8" d="M410.58,413.25a1,1,0,0,0,.69-.27,1,1,0,0,0,0-1.42c-2.27-2.39-4.49-4.88-6.61-7.41a1,1,0,0,0-1.4-.12,1,1,0,0,0-.13,1.41c2.14,2.55,4.39,5.08,6.68,7.5A1,1,0,0,0,410.58,413.25Z" transform="translate(74 -2.21)"/><path class="cls-8" d="M411.16,390.51a1,1,0,0,0,.79-.39c3-3.88,5.86-7.9,8.63-11.95a1,1,0,0,0-.26-1.39,1,1,0,0,0-1.39.26c-2.75,4-5.63,8-8.57,11.87a1,1,0,0,0,.19,1.4A1,1,0,0,0,411.16,390.51Z" transform="translate(74 -2.21)"/><path class="cls-8" d="M411.48,407.38a1,1,0,0,0,.74-.33c2.64-2.94,5.37-5.88,8.11-8.73a1,1,0,0,0-1.45-1.39c-2.75,2.87-5.49,5.83-8.15,8.78a1,1,0,0,0,.08,1.42A1,1,0,0,0,411.48,407.38Z" transform="translate(74 -2.21)"/><path class="cls-15" d="M54.85,357.65a30.44,30.44,0,0,0-5.24-7.14,17,17,0,0,0-10.27-6c-8.7-1.26-16.55,5.88-20.48,13.75a43.24,43.24,0,0,0-4,25.78c1,6.22,3.46,12.42,8.14,16.64.31.27.63.53,1,.79,3.13,4.57,7.93,6.66,13.49,6.56,4.15-.08,9.45-2.4,12.63-5a24.37,24.37,0,0,0,8.28-12.12C61.3,380.6,59.91,367.08,54.85,357.65Z" transform="translate(74 -2.21)"/><path class="cls-8" d="M36.9,420.23a1,1,0,0,0,1-1V360.36a1,1,0,0,0-2,0v58.87A1,1,0,0,0,36.9,420.23Z" transform="translate(74 -2.21)"/><path class="cls-8" d="M36.28,378.05a1,1,0,0,0,.77-1.63c-4.35-5.37-8.53-11-12.42-16.69a1,1,0,0,0-1.39-.26,1,1,0,0,0-.26,1.39c3.92,5.75,8.13,11.41,12.52,16.82A1,1,0,0,0,36.28,378.05Z" transform="translate(74 -2.21)"/><path class="cls-8" d="M24.77,382.18a1,1,0,0,0,.7-.3,1,1,0,0,0,0-1.41c-2.1-2.11-4.12-4.35-6-6.66a1,1,0,0,0-1.55,1.26c1.92,2.36,4,4.65,6.13,6.81A1,1,0,0,0,24.77,382.18Z" transform="translate(74 -2.21)"/><path class="cls-8" d="M36,395.34a1,1,0,0,0,.64-1.77,53.66,53.66,0,0,1-7.64-7.8A1,1,0,0,0,27.38,387a55.71,55.71,0,0,0,7.93,8.1A1,1,0,0,0,36,395.34Z" transform="translate(74 -2.21)"/><path class="cls-8" d="M37.49,368.26a1,1,0,0,0,.82-.43A135.73,135.73,0,0,1,46.75,357a1,1,0,1,0-1.51-1.31,135.87,135.87,0,0,0-8.57,11,1,1,0,0,0,.25,1.39A1,1,0,0,0,37.49,368.26Z" transform="translate(74 -2.21)"/><path class="cls-8" d="M37.63,392.25a1,1,0,0,0,.73-.32L52,377.08a1,1,0,0,0,0-1.41,1,1,0,0,0-1.42.06L36.89,390.57A1,1,0,0,0,37,392,1,1,0,0,0,37.63,392.25Z" transform="translate(74 -2.21)"/><polygon class="cls-16" points="595.01 430.25 72.54 450.39 52.87 413.44 595.01 413.44 595.01 430.25"/><path class="cls-17" d="M570.89,201.5c-5.2,1.67-12.42.5-17.52.5h-30.6c-15.7,0-32.23,1.51-47.85,0-10.9-1-20.91-8.61-22.85-19.82-.48-2.82-.35-6,1.57-8.14,3.05-3.38,8.56-2.23,12.8-.56,6.83,2.71,14.31,7.43,14.66,14.77q-2.72-8.26-5.44-16.53c-1.26-3.83-2.54-7.78-2.26-11.81s2.49-8.19,6.29-9.54c4.65-1.65,9.72,1.39,12.89,5.17,6.42,7.65,8.19,18,9.72,27.92-.15-2.76-.28-5.59.6-8.21s3.05-5,5.79-5.28,5.55,1.75,6.9,4.29,1.64,5.48,1.9,8.35c1-4.41,0-10.26,4-12.42,2.44-1.33,5.64-.22,7.53,1.81s2.8,4.78,3.63,7.43q.74-6.51,1.86-13c1-5.94,2.87-12.59,8.22-15.38,4.57-2.38,10.49-.92,14.28,2.57s5.71,8.62,6.43,13.73a11.25,11.25,0,0,1,19.73.08c1.64,3,1.82,6.64,1.48,10.07-.78,7.77-4.22,16.26-9.92,21.76A9.68,9.68,0,0,1,570.89,201.5Z" transform="translate(74 -2.21)"/></g><path class="cls-17" d="M23.81,83H129.23c0-1.27,6.66-17.23,6.36-26.35-.11-3.46-1.15-7.56-4.43-8.66s-6.82,1.78-8.49,4.94-2.48,6.84-5,9.42a25.54,25.54,0,0,0-9.09-24.11c-2.42-1.92-5.39-3.43-8.48-3.22-4.58.31-8.19,4.38-9.46,8.79s-.69,9.11-.1,13.66c-.85-4.37-4.71-8.34-9.16-8.12s-8,5.85-5.46,9.51A35.14,35.14,0,0,0,51.07,36c-4.47-1-9.87-.89-12.81,2.64A11.55,11.55,0,0,0,36,45.57a23.63,23.63,0,0,0,6.71,17.56c-3.31-3.73-6.86-7.4-11.29-9.69s-9.93-3-14.38-.81C11.3,55.51,8.7,63,10.63,69.15S17.52,81.7,23.81,83Z" transform="translate(74 -2.21)"/><path class="cls-18" d="M110.17,121.54c.32.17.58.45.89.63a44.07,44.07,0,0,1,4-3.68c-12.29-8.67-44.69,43.55-45.72,46-.64,1.53-.79,1.74.65,2.6.8.48,3.61,2.85,4.13,1.47C75.37,165.35,107.05,120,110.17,121.54Z" transform="translate(74 -2.21)"/><path class="cls-19" d="M235.9,188.12a174.41,174.41,0,0,1-21.28,6.81c-1.31.33-2.8.61-3.93-.12a4.9,4.9,0,0,1-1.5-2,199.16,199.16,0,0,1-9.81-21.31c-1.86-4.83-3.5-9.88-3.28-15,.19-4.39,4.64-35.8,9.52-35.41,3.59.29,11.07,20.67,12.48,23.89C219.67,148.56,236.21,188,235.9,188.12Z" transform="translate(74 -2.21)"/><path class="cls-20" d="M156.94,78.83c1.21.15,3.38,3.61,4.42,4.28a41.21,41.21,0,0,1,9.24,8.54c1.35,1.64,2.63,3.34,3.87,5.07.89,1.24,2.41,2.72,2.56,4.3.21,2.2-.95,5-1.42,7.15a3.13,3.13,0,0,1-.49,1.26,2.58,2.58,0,0,1-.85.64,17.23,17.23,0,0,1-11.38,1.5A36.81,36.81,0,0,1,152,107.35a2.81,2.81,0,0,1-1.09-.86,1.77,1.77,0,0,1-.24-.95C151.74,101.9,155.69,83.18,156.94,78.83Z" transform="translate(74 -2.21)"/><path class="cls-21" d="M175.41,108.9a17.8,17.8,0,0,1-11.84-8.15,21.21,21.21,0,0,1-2.79-9.26,19.53,19.53,0,0,1,.71-8.29,41.55,41.55,0,0,1,9.11,8.45c1.35,1.64,2.63,3.34,3.87,5.07.89,1.24,2.41,2.72,2.56,4.3.21,2.2-.95,5-1.42,7.15C175.55,108.41,175.49,108.66,175.41,108.9Z" transform="translate(74 -2.21)"/><path class="cls-22" d="M199.89,78.34a45.34,45.34,0,0,1-4.08,5.36,7.11,7.11,0,0,1-2.25,1.87q1.08-3.87,2.37-7.68a13.25,13.25,0,0,1,.72-1.8,2.44,2.44,0,0,1,.69-.9,2.25,2.25,0,0,1,1.24-.39c.62,0,2.09.1,2.41.77S200.28,77.74,199.89,78.34Z" transform="translate(74 -2.21)"/><path class="cls-20" d="M156.7,71.33a17.72,17.72,0,0,1,3.22-7.1c2.76-3.45,7.34-4.9,11.73-5.37a21.75,21.75,0,0,1,6,.08,25.25,25.25,0,0,1,3.51.94,34.3,34.3,0,0,1,12,6.6c1.51,1.34,3.44,3.1,4,5.06a14.18,14.18,0,0,1-.31,7.64c-.69,2.46-2.21,4.24-3.37,6.47-.93,1.77-4,9.55-5,11.46a23.73,23.73,0,0,1-2.76,4.17,10.38,10.38,0,0,1-8.82,3.73,11.48,11.48,0,0,1-3.65-1.18c-6.37-3.14-10.47-9.54-13.38-16-1.87-4.15-3.4-8.55-3.5-13.1A14.34,14.34,0,0,1,156.7,71.33Z" transform="translate(74 -2.21)"/><path class="cls-23" d="M182,94.9a.75.75,0,0,0,.83-.07,1.12,1.12,0,0,0,.29-.49,28.14,28.14,0,0,0,1.21-6.58,26.25,26.25,0,0,1,1.32-6.8.28.28,0,0,0-.14-.36.28.28,0,0,0-.35.17,26.57,26.57,0,0,0-1.36,7,27.69,27.69,0,0,1-1.18,6.44.55.55,0,0,1-.12.23c-.12.1-.38-.05-.57-.25a10.82,10.82,0,0,1-2.22-3.59.24.24,0,0,0-.34-.14.29.29,0,0,0-.16.36,11.26,11.26,0,0,0,2.33,3.77A1.56,1.56,0,0,0,182,94.9Z" transform="translate(74 -2.21)"/><path class="cls-23" d="M179.79,97.88a.3.3,0,0,0,.36-.19.3.3,0,0,0-.18-.38,15.1,15.1,0,0,1-2.54-1,4.91,4.91,0,0,1-1.92-1.75,8,8,0,0,1-.51-1.16.3.3,0,0,0-.38-.18.3.3,0,0,0-.17.38,7.3,7.3,0,0,0,.55,1.26,5.59,5.59,0,0,0,2.15,2,15.51,15.51,0,0,0,2.63,1.05Z" transform="translate(74 -2.21)"/><path class="cls-24" d="M188.84,83.21c-.86-1.09.18-2.61.8-3.7.3-.54.72-1.11,1.34-1.17a1.89,1.89,0,0,1,1.22.46A11.11,11.11,0,0,1,196,83.34c.51,1.14-.64,2.19-1.42,2.85a1.94,1.94,0,0,1-1,.55,2,2,0,0,1-1.39-.62c-1.07-.87-2.11-1.78-3.13-2.7A1.94,1.94,0,0,1,188.84,83.21Z" transform="translate(74 -2.21)"/><path class="cls-24" d="M181.09,80a.62.62,0,0,1-.13.37.67.67,0,0,1-.37.14,10.58,10.58,0,0,1-3.4-.3l-4.62-.93A.84.84,0,0,1,172,79a.75.75,0,0,1,0-.59,5.4,5.4,0,0,1,1.68-2.56,6.08,6.08,0,0,1,3-1.73c1.25-.23,3.59,0,4.43,1.16S181.28,78.73,181.09,80Z" transform="translate(74 -2.21)"/><path class="cls-23" d="M188.25,87.35a1.64,1.64,0,0,1,1.23,0,1.6,1.6,0,0,1,.9.83,1.6,1.6,0,0,1-.78,2.13,1.74,1.74,0,0,1-1.23,0,1.68,1.68,0,0,1-.9-.84,1.6,1.6,0,0,1,.78-2.12Z" transform="translate(74 -2.21)"/><path class="cls-23" d="M174.24,82.23A1.73,1.73,0,0,1,175.6,82a1.42,1.42,0,0,1,.61.28,1.3,1.3,0,0,1,.48.48,1.77,1.77,0,0,1-.52,2.44,1.66,1.66,0,0,1-1.35.24,2,2,0,0,1-1.09-.75,1.78,1.78,0,0,1,.51-2.45Z" transform="translate(74 -2.21)"/><path class="cls-20" d="M158.38,74.17a7.45,7.45,0,0,0-4.19-1.34A3.72,3.72,0,0,0,151,74.5a4.48,4.48,0,0,0,0,3.59,12.4,12.4,0,0,0,2.5,4.28c.95,1.06,2.31,2,3.72,1.74a5,5,0,0,0,1.86-1c1.53-1.1,3-2.29,2.64-4.31A7.23,7.23,0,0,0,158.38,74.17Z" transform="translate(74 -2.21)"/><path class="cls-21" d="M158.31,78.14a7.68,7.68,0,0,0-2-2.06,4.67,4.67,0,0,0-2.92-1.14,1.36,1.36,0,0,0-.79.24,1.78,1.78,0,0,0-.48,1.63,6.3,6.3,0,0,0,2.34,4.62,3.35,3.35,0,0,0,2.41.68C159.11,81.78,159.28,79.73,158.31,78.14Z" transform="translate(74 -2.21)"/><path class="cls-23" d="M153.55,79.34a17.69,17.69,0,0,1,3.39-.51l0-.35a18.32,18.32,0,0,0-3.45.52Z" transform="translate(74 -2.21)"/><path class="cls-23" d="M158.64,81.32l.3-.18a16.07,16.07,0,0,0-5.89-5.86l-.17.31A15.67,15.67,0,0,1,158.64,81.32Z" transform="translate(74 -2.21)"/><path class="cls-24" d="M199.32,57.36c3.47,1.36,6.84,3.42,8.78,6.61s2.05,7.68-.51,10.4c-1.74,1.85-4.35,2.6-6.86,3a36.12,36.12,0,0,1-24.08-4.7A21.4,21.4,0,0,1,170.2,67l-7.34,13a17.84,17.84,0,0,0-5.93-7,1.73,1.73,0,0,1-.67-.67,1.6,1.6,0,0,1,0-.87c.3-1.76.69-3.51,1.16-5.23a18.49,18.49,0,0,1,2.45-5.84,8,8,0,0,1,5.11-3.5,5.6,5.6,0,0,1,3.05.39c.76.33,1.64,1.57,2.37,1.64s2.42-1.08,3.22-1.4A32.31,32.31,0,0,1,177,56.38a35.35,35.35,0,0,1,14.43-1.07A33.41,33.41,0,0,1,199.32,57.36Z" transform="translate(74 -2.21)"/><path class="cls-19" d="M205.64,120.61s-24.18-9.55-29.26-11.75c-8.72,4.83-20.79,2.39-26.95-5.45.54.69-26.5,11.35-28.81,12.29-4.22,1.72-8.21,3.91-12.38,5.74-.95.42,2.55,24.68,2.76,27.21q1.16,13.89,1.78,27.84,1.25,27.87.37,55.78c0,1.26-.66,3.92-.18,5,.66,1.54,1.5,1.32,3.4,1.59,3.54.49,7.11.79,10.68.94a186,186,0,0,0,21.51-.55c10.65-.79,21.28-1.89,31.95-2.53,2.59-.15,7.44-.12,10-.42,0,0,4.88-59.46,10.41-77.3C202.13,155.19,207.56,123.81,205.64,120.61Z" transform="translate(74 -2.21)"/><path class="cls-25" d="M187,208.67c-3.28-1.37-6.23-3.47-9.61-4.6-5.24-1.75-11.12-1.94-16.56-2.72-5-.7-10-1.66-14.54-3.93-11-5.55-14.4-17.66-15.81-29-.83-6.77-1.09-13.61-2.13-20.36a84.79,84.79,0,0,0-3.79-14.61c-1.8-5.19-4.3-11.24-8.06-15.87-2.75,1.3-5.46,2.68-8.24,3.9-.95.42,2.55,24.68,2.76,27.21q1.16,13.89,1.78,27.84,1.25,27.87.37,55.78c0,1.26-.66,3.92-.18,5,.66,1.54,1.5,1.32,3.4,1.59,3.54.49,7.11.79,10.68.94a186,186,0,0,0,21.51-.55c10.65-.79,21.28-1.89,31.95-2.53,2.59-.15,7.44-.12,10-.42,0,0,1-11.74,2.52-26.35A17.32,17.32,0,0,1,187,208.67Z" transform="translate(74 -2.21)"/><path class="cls-26" d="M168.22,113.35a18.19,18.19,0,0,0,2.32-.15,11.91,11.91,0,0,0,7.18-3.37l-.51-.48a11.29,11.29,0,0,1-6.76,3.16,25.79,25.79,0,0,1-7.71-.45c-7.13-1.3-11.88-3.81-14.54-7.67l-.58.4c2.77,4,7.67,6.63,15,8A31.57,31.57,0,0,0,168.22,113.35Z" transform="translate(74 -2.21)"/><path class="cls-27" d="M153.34,141A8.92,8.92,0,0,0,157,144c1.49.5,3.46-.07,3.92-1.57.53-1.75-1.19-3.37-2.85-4.15,3.09-4.44,6.22-8.92,10.29-12.48s9.25-6.14,14.65-6,10.64,3.19,12.51,8.1c4.07,4.38,5.67,11.09,4.54,17.1-1.42,7.61-6.4,14.13-12.15,19.32a32.56,32.56,0,0,0-4.36-9.67q-.09,4.36-.2,8.71a4.73,4.73,0,0,1-.38,2.12,4.44,4.44,0,0,1-2.19,1.75,38.1,38.1,0,0,1-13.13,3.6l-.24-9.84c-1.88,3.63-4.09,7.56-7.93,9a16.56,16.56,0,0,1-4.38.76l-15.76,1.29A74.93,74.93,0,0,1,153.34,141Z" transform="translate(74 -2.21)"/><path class="cls-28" d="M206.92,179.68a302.84,302.84,0,0,0,4.14-40c.15-3.95.16-7.79-1.3-11.28-1.38-3.3-4.79-6.77-9-6.57-2.81.13-5.19,1.76-7.58,3.56-17.09,12.91-33.28,27.43-48.94,41.47l.79.88c15.64-14,31.81-28.53,48.87-41.4,2.23-1.69,4.44-3.21,6.91-3.33,3.69-.17,6.69,2.91,7.91,5.84,1.37,3.27,1.35,7,1.21,10.79a300.42,300.42,0,0,1-4.12,39.82Z" transform="translate(74 -2.21)"/><path class="cls-29" d="M243.31,459.24c1.05-.24,2.13.05,3.13-.28h.06c.56,1,1,2.09,1.49,3.14-1.28.51-7.16,3.91-10.62,4-.59,0-2.07-3.57-2.39-4.93Z" transform="translate(74 -2.21)"/><rect class="cls-20" x="223.03" y="416.37" width="15.8" height="29.11" transform="translate(675.59 747.53) rotate(158.89)"/><path class="cls-24" d="M246.82,443.33l9.77,3.09s4.9-.49,12-1a72.52,72.52,0,0,0,11.16-2.48.4.4,0,0,1,.31.74c-13.47,8.07-23.24,10.76-43,19.3a1.92,1.92,0,0,1-1.71.11,2,2,0,0,1-.7-1l-8.63-19.67c-.34-.77,14.26-7.44,15.47-7.16C242.05,435.36,246.82,443.33,246.82,443.33Z" transform="translate(74 -2.21)"/><path class="cls-29" d="M32.83,451.54c.66.85,1.51,1.26,2.22,2,0,0-.65.73-.64.75-.7.92-1.49,1.78-2.25,2.65-1-1-6.52-4.9-8-8-.26-.52,2.39-3.36,3.5-4.22C29.36,447,31.1,449.27,32.83,451.54Z" transform="translate(74 -2.21)"/><rect class="cls-20" x="45.57" y="413.99" width="15.8" height="29.11" transform="translate(-134.26 769.86) rotate(-135.58)"/><path class="cls-30" d="M45,414.41l22.57,18.65,70.58-84.18,16.56-83.72,2-.16,61.91,170.89,26.44-7.47L189.61,236.34l-76.67,1-2,31.31h0l-6.74,64.05Z" transform="translate(74 -2.21)"/><path class="cls-24" d="M26.7,444.9,41,428.9c.56-.62,12.68,9.9,12.93,11.12,0,.14-3.4,4.25-7.15,8.44.58,2.73,1.2,5.46,1.59,8.22.16,1.13,10.11,6.93,14,9.32,2.56,1.56,5.18,3,7.82,4.44l-.66.05c-7-.71-22.84-3.2-24.56-4.93-6.43-6.49-7.14-6.81-9.91-10.94a47.28,47.28,0,0,0-3.57-3.91c-1.06-1-2.16-2-3.3-2.89S25.39,446.37,26.7,444.9Z" transform="translate(74 -2.21)"/><rect class="cls-23" x="154.72" y="256.99" width="13.84" height="0.64" transform="translate(-52.88 159.74) rotate(-39.57)"/><path class="cls-23" d="M159.11,262.86l-.23-.6c4.31-1.72,8.66-3.55,12.92-5.42l.25.58C167.79,259.3,163.44,261.13,159.11,262.86Z" transform="translate(74 -2.21)"/><path class="cls-23" d="M51.06,415.31l-.49-.4c19.62-24.52,38.32-50.26,55.6-76.5l.23-.35.28.32a26.67,26.67,0,0,0,5.7,5,20,20,0,0,0-5.25-8.08l-.77-.73,9.44,1.62a32.57,32.57,0,0,0-7.57-3.69l-.24-.08,0-.25c2.21-27.54,5.24-55.39,9-82.77l.64.09c-3.77,27.28-6.8,55-9,82.49a33.23,33.23,0,0,1,8.68,4.52l1.11.8-10.16-1.75a20.89,20.89,0,0,1,5,8.47l.23.8-.71-.43a27.61,27.61,0,0,1-6.32-5.28C89.25,365.25,70.61,390.88,51.06,415.31Z" transform="translate(74 -2.21)"/><path class="cls-23" d="M218.3,435.21c-8.73-27.38-17.83-55.06-27.05-82.27a4.39,4.39,0,0,1-.23-3.17,4.22,4.22,0,0,1,2.19-1.88,9,9,0,0,0,1.11-.65l-6.92-.15.58-.54a42.51,42.51,0,0,0,5.88-6.76,39.55,39.55,0,0,0-7.41,3l-.35.19-.1-.39a655.65,655.65,0,0,0-27.09-79.88l.58-.24a654.17,654.17,0,0,1,27,79.57,40.67,40.67,0,0,1,8-3.07l.82-.22-.47.7a43,43,0,0,1-5.91,7.06l6.83.16-.43.51a6.18,6.18,0,0,1-1.88,1.31,3.71,3.71,0,0,0-1.9,1.57,3.85,3.85,0,0,0,.25,2.71c9.22,27.21,18.32,54.89,27.06,82.28Z" transform="translate(74 -2.21)"/><path class="cls-23" d="M53.18,450.31a2.06,2.06,0,0,1-1.16-.44A6,6,0,0,1,50,446.92a14.52,14.52,0,0,1-.62-3.48l.64-.06a13.43,13.43,0,0,0,.59,3.33,5.31,5.31,0,0,0,1.83,2.65,1.17,1.17,0,0,0,1,.27c.48-.2.45-1,.31-1.48-.53-1.87-2-3.34-3.31-4.64l.41-.49a7.18,7.18,0,0,0,5.64,1.07,1.23,1.23,0,0,0,.42-.16.63.63,0,0,0,.11-.72,1.56,1.56,0,0,0-.71-.68c-1.93-1-4.27,0-5.18.49l-.31-.56c2.13-1.16,4.24-1.33,5.79-.49a2.18,2.18,0,0,1,1,1,1.25,1.25,0,0,1-.3,1.48,1.65,1.65,0,0,1-.66.28,7.93,7.93,0,0,1-4.42-.27A9.31,9.31,0,0,1,54.32,448c.25.85.14,1.91-.68,2.25A1.18,1.18,0,0,1,53.18,450.31Z" transform="translate(74 -2.21)"/><path class="cls-23" d="M47.14,457.23h0a.41.41,0,0,1-.36-.33,49.77,49.77,0,0,1-.92-5.32c-.08-.62-.16-1.17-.25-1.73s-.17-1.12-.26-1.74V448l.08-.11c2.23-2.84,4.6-5.65,7.05-8.33l.47.43c-2.41,2.64-4.74,5.39-6.94,8.19.08.56.16,1.08.24,1.59s.17,1.12.26,1.74a45.63,45.63,0,0,0,.87,5.12h0l.08.41A.35.35,0,0,1,47.14,457.23Zm-.26-.47a.28.28,0,0,0,.07.32l.17-.18Zm.27.09v0h0Z" transform="translate(74 -2.21)"/><path class="cls-23" d="M243.37,439.45l0-.63c2.83-.16,5.76-.47,7.74-2.31a3.26,3.26,0,0,0,1.15-2.21.63.63,0,0,0-.11-.45c-.11-.13-.35-.19-.74-.16-3.35.2-6.23,2.41-8.1,4.06l-.35-.38v0l-.62-.17a29.91,29.91,0,0,1,1.89-4.92c.16-.33.65-1.34,1.57-1.34h0a.9.9,0,0,1,.59.21,1.15,1.15,0,0,1,.18,1.17,11.39,11.39,0,0,1-1.35,3.07,12.39,12.39,0,0,1,6.15-2.37,1.49,1.49,0,0,1,1.27.39,1.24,1.24,0,0,1,.26.87A3.78,3.78,0,0,1,251.5,437C249.37,439,246.32,439.29,243.37,439.45Zm2.38-7.84c-.35,0-.68.32-1,1a28.32,28.32,0,0,0-1.77,4.56,11.07,11.07,0,0,0,2.94-5c.1-.37,0-.49,0-.52A.2.2,0,0,0,245.75,431.61Z" transform="translate(74 -2.21)"/><path class="cls-23" d="M255.32,447.34a67.24,67.24,0,0,1-8.23-2.37,2.21,2.21,0,0,1-.68-.35,2.24,2.24,0,0,1-.5-.63l-4.74-8,.55-.32,4.74,8a1.86,1.86,0,0,0,.35.47,1.79,1.79,0,0,0,.5.24,65.41,65.41,0,0,0,8.15,2.34Z" transform="translate(74 -2.21)"/><path class="cls-31" d="M115,118.26l-.77-.24a31.25,31.25,0,0,1-6,2.83,22.47,22.47,0,0,1,3.46,1.66,18.56,18.56,0,0,0,2.49,1.69c17.35,10.24,14.67,57.64,14.48,61.93h6.6C135.5,185.73,134.47,122.55,115,118.26Z" transform="translate(74 -2.21)"/><path class="cls-31" d="M69.61,287.32h0A49.41,49.41,0,0,1,35.1,226.56l18.28-66.3,95.25,26.25-18.27,66.31A49.4,49.4,0,0,1,69.61,287.32Z" transform="translate(74 -2.21)"/><path class="cls-27" d="M77.65,205.13s15.32.17,18.39,0c0,0,5.2,7.12,6.65,9.8a27,27,0,0,0,6-2.57c-2.42,4.1-4.12,8.34-6.54,12.44-5.41-.19-10.81.15-16.21,0,1.76-.92,4.26-2.79,6.13-3.95A46,46,0,0,0,87.81,214s-9,14.47-9.36,14.64l-12.25-6.9Z" transform="translate(74 -2.21)"/><path class="cls-32" d="M87.94,214.2a1.14,1.14,0,0,1,.09-.26c-3.25-3-6.54-6-10-8.81h-.38L66.2,221.76l12.25,6.9c.39-.17,9.36-14.64,9.36-14.64Z" transform="translate(74 -2.21)"/><path class="cls-27" d="M117,245.43s-8.09,13-9.53,15.72c0,0-8.79.76-11.83.6a26.67,26.67,0,0,0-.92,6.48c-2.26-4.19-5-7.84-7.26-12,3-4.53,5.48-9.32,8.39-13.88-.12,2,.18,5.1.2,7.29a46.53,46.53,0,0,0,8.08-.11s-7.73-15.17-7.67-15.6L108.7,227Z" transform="translate(74 -2.21)"/><path class="cls-32" d="M103.9,249.52a1.73,1.73,0,0,1,.17.21c4.28-1.2,8.54-2.48,12.72-4l.2-.31L108.7,227,96.45,233.9c-.06.43,7.67,15.6,7.67,15.6Z" transform="translate(74 -2.21)"/><path class="cls-27" d="M62,258.52S56,244.4,54.65,241.66c0,0,4.46-7.62,6.34-10a27.11,27.11,0,0,0-4.76-4.5c4.73.59,9.29.46,14,1,2,5,4.44,9.85,6.48,14.85-1.55-1.24-4.26-2.79-6.06-4a46.48,46.48,0,0,0-4.59,6.66s16.86,2.46,17.17,2.75l-1.45,14Z" transform="translate(74 -2.21)"/><path class="cls-32" d="M66.19,245.46a1.15,1.15,0,0,1-.26,0c-1.49,4.19-2.91,8.4-4.1,12.68.1.22.15.35.15.35l19.82,3.87,1.45-14c-.31-.29-17.17-2.75-17.17-2.75Z" transform="translate(74 -2.21)"/><path class="cls-19" d="M69.86,179.12c-3.92,6.21-15,22-2.25,32.73,3.14,2.65,89,.46,89,.46a38.86,38.86,0,0,1,1.17-26.13c-17,0-42.07.25-53.87.2,2.36-3.7,22-27.8,22.29-32.43.74-11.94-9.9-28.79-18-32.51C108.24,121.44,77.51,167,69.86,179.12Z" transform="translate(74 -2.21)"/><path class="cls-25" d="M69.86,179.12c7.65-12.11,38.38-57.68,38.38-57.68a19.75,19.75,0,0,1,6.94,5.21c-6.58,4.66-12.2,10.84-17.19,17-3.67,4.55-7.08,9.29-10.53,14A96.59,96.59,0,0,0,78.4,172C74,181,70.75,195.21,81.3,201.45c4.24,2.52,9.28,3.33,14.12,3.8,5.93.57,11.89,1,17.83,1.44,7.66.55,15.3.54,23,.78,6.4.19,12.93.84,19.24-.42a47.66,47.66,0,0,0,1.19,5.26s-85.9,2.19-89-.46C54.91,201.13,65.94,185.33,69.86,179.12Z" transform="translate(74 -2.21)"/><path class="cls-26" d="M97.24,201.86l-.44-.58c-1-1.24-.37-2.89.16-4,1-2.22,1.78-3.77,2.74-5.53a28.3,28.3,0,0,1-4,1.61c-.7.24-1.43.49-2.21.78a1.81,1.81,0,0,1-1.61-.13,1.44,1.44,0,0,1-.7-1,2.61,2.61,0,0,1,.61-1.93c2.07-2.71,5.38-4.05,8-4.91l.22-.07a5.81,5.81,0,0,0,3.93-2.81c2.29-3.15,4.68-6.6,7-9.93,4.82-6.94,9.8-14.12,14.19-19.16l1,.84c-4.35,5-9.31,12.14-14.11,19-2.32,3.33-4.71,6.78-7,10a8.93,8.93,0,0,1-1.83,2,9.38,9.38,0,0,1-2.74,1.24l-.21.06c-2.47.81-5.55,2-7.41,4.48a1.47,1.47,0,0,0-.37.92.21.21,0,0,0,.12.15.59.59,0,0,0,.49,0c.79-.3,1.54-.56,2.24-.8a22.83,22.83,0,0,0,4.56-1.94,1,1,0,0,1,1.42,1.38c-1.17,2.06-2,3.72-3.14,6.23a4.62,4.62,0,0,0-.55,1.91,29.94,29.94,0,0,0,6.57-11.08l1.22.4a31.42,31.42,0,0,1-7.6,12.32Z" transform="translate(74 -2.21)"/><rect class="cls-26" x="179.1" y="185.37" width="49.99" height="1.28"/><path class="cls-33" d="M208.4,114.18c0-.13,0-.25,0-.37a19.12,19.12,0,0,1,6.75-14.43c4.64-3.88,10.63-5.73,16.57-6.85a56.86,56.86,0,0,1,17-.91c2.87.33,5.74.95,8.61,1.43q3.52.32,7,.71a22.24,22.24,0,0,0,3.15-.22l-1.18.44.74.09a104.73,104.73,0,0,0-2.26,18.33l-9.52.32a39.37,39.37,0,0,0,5.68,5l-7.38,7.66a3.78,3.78,0,0,1-1.76,1.23,3.72,3.72,0,0,1-1.86-.24,65.18,65.18,0,0,1-10.06-4.12l5.51,8.86c-5.3,1.59-10.76,3.19-16.26,2.68-7.34-.68-15-5.77-18.66-12.07a15.36,15.36,0,0,1-2-6.27l-.07,0Q208.39,114.81,208.4,114.18Z" transform="translate(74 -2.21)"/><path class="cls-32" d="M274.41,157.14a7.65,7.65,0,0,1-3.33,2.22c-1.31.31-3-.35-3.23-1.67-.31-1.55,1.3-2.79,2.79-3.32-2.28-4.05-4.58-8.15-7.78-11.53s-7.41-6-12-6.39-9.38,1.85-11.38,5.9a17.42,17.42,0,0,0-5.31,14.26c.59,6.64,4.32,12.62,8.81,17.55a28,28,0,0,1,4.53-7.92c-.18,2.49-.37,5-.55,7.48a4.08,4.08,0,0,0,.15,1.84,3.86,3.86,0,0,0,1.73,1.68,32.72,32.72,0,0,0,10.94,4.17l1-8.41c1.31,3.27,2.88,6.82,6.05,8.34a14.15,14.15,0,0,0,3.68,1l13.39,2.42A64.25,64.25,0,0,0,274.41,157.14Z" transform="translate(74 -2.21)"/><path class="cls-28" d="M220.78,184.71a139.52,139.52,0,0,0-3-17c-.72-3.32-1.48-6.75-2.06-10.16-2-11.42-1.48-20.16,1.55-27.53,2.36-5.75,20.62-27.48,43.79-33.69l.27,1c-24.15,6.47-41.44,29-43.12,33.09-2.95,7.19-3.43,15.76-1.49,27,.58,3.38,1.33,6.8,2,10.11a138.73,138.73,0,0,1,3,17.11Z" transform="translate(74 -2.21)"/><path class="cls-28" d="M225.34,185.79a260.65,260.65,0,0,1-.23-34.57c.2-3.4.51-6.69,2-9.55s4.66-5.4,8.29-4.87c2.4.34,4.3,1.93,6.19,3.67,13.57,12.46,26.22,26.24,38.46,39.56l-.75.69c-12.22-13.31-24.86-27.07-38.4-39.5-1.77-1.63-3.53-3.12-5.64-3.42-3.15-.45-6,1.93-7.26,4.35-1.44,2.68-1.73,5.85-1.93,9.13a260.4,260.4,0,0,0,.23,34.44Z" transform="translate(74 -2.21)"/><path class="cls-32" d="M191.37,145a6,6,0,0,0,.88,3,2.07,2.07,0,0,0,2.77.62c1-.78.62-2.32,0-3.39a44,44,0,0,1,10.44-3,15,15,0,0,1,10.41,2.2c2.89,2,4.7,5.81,3.87,9.24a13.53,13.53,0,0,1-4,11.2c-3.67,3.69-8.91,5.41-14.06,6.11a22.35,22.35,0,0,0,1.25-7l-3.42,4.75a3.21,3.21,0,0,1-1,1,3,3,0,0,1-1.89.14,25.38,25.38,0,0,1-8.64-3l3.6-5.54c-2.42,1.3-5.14,2.64-7.8,2a10.86,10.86,0,0,1-2.71-1.23l-9.24-5.26A50.32,50.32,0,0,1,191.37,145Z" transform="translate(74 -2.21)"/><path class="cls-28" d="M223.9,180.94l-1-.08a50,50,0,0,0-1.9-18.44c-.83-2.82-2.32-6.82-5.51-9-3.45-2.35-8.16-2.09-11.88-1.59s-7.62,1.28-11.33,2c-6,1.22-12.19,2.49-18.42,2.62l0-1c6.14-.12,12.29-1.38,18.24-2.59,3.72-.77,7.57-1.55,11.4-2.06s8.85-.78,12.58,1.76c3.46,2.36,5,6.58,5.92,9.55A51.33,51.33,0,0,1,223.9,180.94Z" transform="translate(74 -2.21)"/><path class="cls-24" d="M233,171.29h89.41a0,0,0,0,1,0,0v10.06a44.71,44.71,0,0,1-44.71,44.71h0A44.71,44.71,0,0,1,233,181.36V171.29A0,0,0,0,1,233,171.29Z"/><path class="cls-20" d="M172.71,186.45a2.94,2.94,0,0,1,1.28-.39,1.11,1.11,0,0,1,1.12.84,1.57,1.57,0,0,1-.65,1.2,33.06,33.06,0,0,1-4,3.22c-.81.55-1.85,1.17-2.17,2.15,2.41,1.22,6.44.5,9,.12,3.1-.46,6.16-1.21,9.27-1.64.58-.08,1.38,0,1.48.58.07.43-.34.78-.71,1-4.49,2.88-9.76,4.27-14.92,5.61a63.81,63.81,0,0,0,13.46-2.07,3.25,3.25,0,0,1,1.63-.15,1.07,1.07,0,0,1,.85,1.2,1.49,1.49,0,0,1-.83.82c-4.31,2.34-9.23,3.26-14,4.15l12.13-1c.88-.07,2.15.2,2,1.09-.07.61-.79.89-1.4,1a63.71,63.71,0,0,1-13.41,1.56l8.84.42c.76,0,4.26.44,2.51,2a2.76,2.76,0,0,1-1.92.49,280.61,280.61,0,0,1-28.7-1.35c-.51-.05-1-8-1-8.82-.1-1.57-.15-3.14-.17-4.71,0-2.21.81-1.92,2.81-2.15a51.37,51.37,0,0,0,6-1,52,52,0,0,0,11.28-4.05Z" transform="translate(74 -2.21)"/><path class="cls-34" d="M420.49,264.07c.29.54.43,1.06.18,1.43-.43.65-1.45.27-2.06-.21-1.67-1.35-3-3.1-4.91-4.16a28.16,28.16,0,0,0-4.45-1.64,7.1,7.1,0,0,1-3.83-2.64,2.32,2.32,0,0,1-.22-2.37,2,2,0,0,1,1.83-.84,5.13,5.13,0,0,1,2,.62,48,48,0,0,1,6.45,4.26,16.24,16.24,0,0,1,3.53,3.54A15.89,15.89,0,0,1,420.49,264.07Z" transform="translate(74 -2.21)"/><path class="cls-34" d="M394.24,252.27c-1.23-2-2.66-3.94-3.95-5.8a38.1,38.1,0,0,1,12.38.13,1.46,1.46,0,0,1,.69.24,1.55,1.55,0,0,1,.45.76c1.07,3,1.35,4.68,4.08,6.36a12,12,0,0,1,2.88,3.15q2.16,3.06,4,6.31c.88,1.55,2.52,4.36,1.12,5.92-1.22,1.35-5.22,2-6.93,2.55-2,.66-3.77,2.28-6,1.15a7.66,7.66,0,0,1-2.91-3,19.31,19.31,0,0,1-2.78-9.16A18.29,18.29,0,0,0,394.24,252.27Z" transform="translate(74 -2.21)"/><path class="cls-29" d="M378,465c1,.24,1.84,1,2.86,1.12l.05,0c0,1.13,0,2.26-.07,3.39-1.34-.11-8,.3-11-1.13-.51-.24-.25-4,.06-5.35Z" transform="translate(74 -2.21)"/><rect class="cls-20" x="371.81" y="420.65" width="15.42" height="28.43" transform="translate(790.71 901.11) rotate(-174.63)"/><path class="cls-32" d="M388,452.62l7.2,6.95s4.49,1.71,11,4.34a71.89,71.89,0,0,0,10.83,2.7.39.39,0,0,1-.05.78c-15.29,1.19-25-.71-45.94-1.84a1.91,1.91,0,0,1-1.55-.64,1.94,1.94,0,0,1-.18-1.17l1-20.95c0-.81,15.69-.29,16.64.48C387.31,443.57,388,452.62,388,452.62Z" transform="translate(74 -2.21)"/><path class="cls-23" d="M392.76,448.86a16.72,16.72,0,0,1-6.31-1.69l.25-.59c2.61,1.12,5.37,2.14,8,1.38a3.21,3.21,0,0,0,2-1.46.72.72,0,0,0,.11-.45c0-.18-.23-.33-.6-.48-3.08-1.31-6.65-.61-9.06,0l-.14-.51,0,0-.47-.43a29.73,29.73,0,0,1,3.88-3.56c.29-.22,1.2-.91,2-.5a.93.93,0,0,1,.44.46,1.17,1.17,0,0,1-.36,1.13,11.58,11.58,0,0,1-2.58,2.15,12.3,12.3,0,0,1,6.56.61,1.5,1.5,0,0,1,1,.92,1.3,1.3,0,0,1-.16.89,3.76,3.76,0,0,1-2.4,1.78A7.06,7.06,0,0,1,392.76,448.86Zm-.95-7.72a2,2,0,0,0-1.07.5,30.28,30.28,0,0,0-3.61,3.28,10.93,10.93,0,0,0,4.85-3.13c.25-.28.25-.41.23-.47s-.06-.08-.13-.12A.6.6,0,0,0,391.81,441.14Z" transform="translate(74 -2.21)"/><path class="cls-23" d="M393.63,459.55a67.63,67.63,0,0,1-6.3-5.79,2.08,2.08,0,0,1-.46-.61,2.14,2.14,0,0,1-.16-.79l-.7-9.25.64,0,.69,9.24a1.7,1.7,0,0,0,.11.57,1.74,1.74,0,0,0,.34.44,66.3,66.3,0,0,0,6.24,5.73Z" transform="translate(74 -2.21)"/><path class="cls-29" d="M277.49,464.16c1,.24,1.84,1,2.86,1.12l.06,0c0,1.13,0,2.26-.08,3.39-1.34-.11-7.95.29-11-1.13-.52-.25-.26-4,.05-5.35Z" transform="translate(74 -2.21)"/><rect class="cls-20" x="271.29" y="419.82" width="15.42" height="28.43" transform="translate(590.19 890.03) rotate(-174.63)"/><path class="cls-32" d="M287.48,451.78l7.21,7s4.49,1.7,11,4.34a70.62,70.62,0,0,0,10.84,2.69c.45.06.4.75-.06.79-15.29,1.18-25-.72-45.94-1.84a1.86,1.86,0,0,1-1.54-.65,1.93,1.93,0,0,1-.19-1.17l1-20.95c0-.81,15.7-.28,16.64.49C286.79,442.74,287.48,451.78,287.48,451.78Z" transform="translate(74 -2.21)"/><path class="cls-23" d="M292.32,448.56a16,16,0,0,1-6.16-1.66l.25-.59c2.54,1.1,5.24,2.1,7.76,1.35a3.18,3.18,0,0,0,2-1.42.67.67,0,0,0,.1-.44c0-.16-.22-.31-.57-.46-2.3-1-5.11-1-8.85,0l-.14-.49,0,0-.47-.43A29.66,29.66,0,0,1,290,441c.29-.22,1.17-.9,2-.49a.82.82,0,0,1,.43.45,1.13,1.13,0,0,1-.35,1.11,11.52,11.52,0,0,1-2.49,2.08,12,12,0,0,1,6.37.6,1.46,1.46,0,0,1,1,.9,1.25,1.25,0,0,1-.15.88,3.7,3.7,0,0,1-2.35,1.75A7.42,7.42,0,0,1,292.32,448.56Zm-.93-7.54a1.94,1.94,0,0,0-1,.48,27.83,27.83,0,0,0-3.5,3.19,10.67,10.67,0,0,0,4.7-3.05c.25-.28.24-.41.23-.45a.25.25,0,0,0-.13-.11A.53.53,0,0,0,291.39,441Z" transform="translate(74 -2.21)"/><path class="cls-23" d="M293.17,459a63.36,63.36,0,0,1-6.16-5.65,2.1,2.1,0,0,1-.45-.61,2.21,2.21,0,0,1-.16-.77l-.68-9,.64-.05.68,9a1.63,1.63,0,0,0,.1.55,1.65,1.65,0,0,0,.33.43,63.24,63.24,0,0,0,6.1,5.59Z" transform="translate(74 -2.21)"/><path class="cls-19" d="M367.86,250.37l-4.16-16a127.21,127.21,0,0,1-8.62-16.06c-13.12,0-51,1.26-64.72,2-1.75,5-3.78,10-5.51,15-.66,19.5-1.78,51.93-2.13,54.91-1.11,9.3-2.33,18.59-3.4,27.91q-4.51,39.18-9,78.37-2.1,18.24-4.19,36.47l26.35,5S315.69,309,325,263.72c1-.1,2.29.11,3.26,0L366,332.66l-.67,98.55,28.52,2,8.31-107Z" transform="translate(74 -2.21)"/><path class="cls-31" d="M355,125.37q-1.59-6.54-3.2-13.06c.45,1.83,5.86,9.25,7.71,9.65,2.78.61,9.18-5.19,11.49-6.67-7.59-6-15.6-12.57-18.35-21.84-1.24-4.19-1.3-8.64-2.28-12.89-1.6-7-5.9-13.46-12.13-17a21.1,21.1,0,0,0-16-2c-6.69,1.92-12.92.16-18.42,5.81-3.76,3.88-5.77,9.12-7.1,14.35-1.22,4.8-1.95,9.77-4,14.28a34.51,34.51,0,0,1-7.08,9.86c-2.47,2.49-7.28,4.95-8.92,7.85,9.44,9.21,24.58,15,37.36,17.14A67.81,67.81,0,0,0,355,125.37Z" transform="translate(74 -2.21)"/><path class="cls-35" d="M336.52,112.56c-.91-5.06-2.11-9.9-3.36-14.92a161.61,161.61,0,0,0-5.37-17.07c-.74-2-1.41-4-2.28-5.94a10.2,10.2,0,0,0-11.33-6A16.89,16.89,0,0,0,307.31,72a18.6,18.6,0,0,0-4.76,5.09c-2.82,4.67-2.63,10.36-4.48,15.38-1.71,4.63-3.35,9.38-6.74,13.13a28.83,28.83,0,0,0-3.24,3.92c-1.35,2.14,4.71,5.57,6.44,6.61a1.4,1.4,0,0,0,.86.28,1.37,1.37,0,0,0,.73-.46l4.87-4.77q-1.46,4.89-2.92,9.78c6.26,2.53,13.09,3.12,19.79,2.86,1.69-.06,19.72-1.18,19.7-2.06A58.68,58.68,0,0,0,336.52,112.56Z" transform="translate(74 -2.21)"/><path class="cls-34" d="M333.71,99.49a3.5,3.5,0,0,1,.84,1.84c.74,3.37,1.36,6.77,2,10.15q2,9.94,4,19.88a2.61,2.61,0,0,1,0,1.68,2.3,2.3,0,0,1-.7.76,14.6,14.6,0,0,1-18-.5c-4.3-3.76-5.92-9.7-7-15.32-.46-2.4-2.9-10.35-1.07-12,1.53-1.34,5.71-1.92,7.67-2.68,2.68-1,5.33-2.12,8-3.1C331.38,99.55,332.79,98.65,333.71,99.49Z" transform="translate(74 -2.21)"/><path class="cls-36" d="M323.84,113.89c4.26-4,7.07-9.28,9.05-14.75-3.54.79-15,6-19.78,7,.58,1.72,1.56,7.2,2.49,12.15A18.08,18.08,0,0,0,323.84,113.89Z" transform="translate(74 -2.21)"/><path class="cls-37" d="M320.9,65.22a17.41,17.41,0,0,0-7.48,2.69,24.74,24.74,0,0,0-10.17,12.48,51.3,51.3,0,0,0-2.77,17.16c0,3.8.49,7.71,2.38,11a8.33,8.33,0,0,0,3.52,3.51,10.46,10.46,0,0,0,5.61.51,46.27,46.27,0,0,0,8.94-1.93,21.2,21.2,0,0,0,7.32-3.71,23.65,23.65,0,0,0,2.69-2.79q1.79-2.09,3.45-4.27a40.42,40.42,0,0,0,3-3.77,29.32,29.32,0,0,0,2.06-4.26A33.21,33.21,0,0,0,341.55,83c.26-2.72.57-6.39-.36-9-.68-1.93-3.42-3.58-5.11-4.57a34.41,34.41,0,0,0-7.57-3.09,22,22,0,0,0-6.7-1.15Z" transform="translate(74 -2.21)"/><g class="cls-38"><path class="cls-39" d="M341.55,83c.26-2.72.57-6.39-.36-9-.68-1.93-3.42-3.58-5.11-4.57a34.41,34.41,0,0,0-7.57-3.09,22,22,0,0,0-6.7-1.15l-.91.06a17.41,17.41,0,0,0-7.48,2.69A24.18,24.18,0,0,0,309,71.39a5.41,5.41,0,0,0,.09,2.49c.62,2.14,2.4,3.78,4.1,5.11,3.82,3,8.16,4.88,11.24,8.76a38.35,38.35,0,0,1,7.05,15.71c1-1.18,1.95-2.37,2.88-3.6a40.42,40.42,0,0,0,3-3.77,29.32,29.32,0,0,0,2.06-4.26A33.21,33.21,0,0,0,341.55,83Z" transform="translate(74 -2.21)"/></g><g class="cls-38"><path class="cls-39" d="M305.73,89.54a4.06,4.06,0,0,1-1.6,3,12.73,12.73,0,0,0-2.26,1.55,2.91,2.91,0,0,0-.05,3.43,1.45,1.45,0,0,0,1,.7,1.74,1.74,0,0,0,.79-.22,6,6,0,0,0,2.85-2.53,6.73,6.73,0,0,0,.5-3.24,4.94,4.94,0,0,0-1-3.21" transform="translate(74 -2.21)"/></g><path class="cls-37" d="M331.48,93.32a6.23,6.23,0,0,1,5.93-2.08c3.31.7,2.47,6.18.85,8-1.46,1.66-3.91,2.21-6,2.36-2.4.18-5,.17-7-1.43" transform="translate(74 -2.21)"/><g class="cls-38"><path class="cls-39" d="M336.19,99.22c-1.73,1.24-3.58,1.18-5.55.87-.13-1.26,1.61-3.37,2.46-4.23a7,7,0,0,1,4.83-2.18.57.57,0,0,1,.46.14.55.55,0,0,1,.11.31A5.51,5.51,0,0,1,336.19,99.22Z" transform="translate(74 -2.21)"/></g><path class="cls-28" d="M302,98.58a7.34,7.34,0,0,1-.67-2.34,3.4,3.4,0,0,1,.13-1.17,2.13,2.13,0,0,1,.82-1c.39-.28.88-.5,1.37-.78A4,4,0,0,0,305,92.1a6,6,0,0,0,1-3.28,19.26,19.26,0,0,0-.2-2.74c-.2-1.53-.14-2.47-.21-2.48a6.26,6.26,0,0,0-.14,2.51,24.84,24.84,0,0,1,.09,2.69,5.63,5.63,0,0,1-.91,3c-.62.93-1.74,1.23-2.61,1.88a2.41,2.41,0,0,0-.94,1.25,3.63,3.63,0,0,0-.09,1.33A3.46,3.46,0,0,0,302,98.58Z" transform="translate(74 -2.21)"/><path class="cls-28" d="M305.28,97.65c0-.13-.4-.13-.8-.06s-.72.18-.72.32.36.25.81.17S305.32,97.78,305.28,97.65Z" transform="translate(74 -2.21)"/><path class="cls-28" d="M337.16,94a3.54,3.54,0,0,0-1.47.33,9.31,9.31,0,0,0-5.17,4.92,3.36,3.36,0,0,0-.4,1.45,14.44,14.44,0,0,1,2.79-4.11A14.67,14.67,0,0,1,337.16,94Z" transform="translate(74 -2.21)"/><path class="cls-28" d="M332.49,99.26s.32,0,.74-.25a3.71,3.71,0,0,0,1.7-3.24c0-.49-.16-.77-.21-.76a7.88,7.88,0,0,1-.59,2.4A7.66,7.66,0,0,1,332.49,99.26Z" transform="translate(74 -2.21)"/><path class="cls-28" d="M310.68,88.48a1.5,1.5,0,0,1,1.06-.3,1.48,1.48,0,0,1,1,.53,1.5,1.5,0,0,1,.3,1.06l0,.18a1.48,1.48,0,0,1-.53,1,1.46,1.46,0,0,1-1.06.3,1.39,1.39,0,0,1-1-.53,1.5,1.5,0,0,1-.31-1.06l0-.17A1.52,1.52,0,0,1,310.68,88.48Z" transform="translate(74 -2.21)"/><path class="cls-36" d="M308.33,96.81c-.8-1.29-1-3,.57-3.94a1.19,1.19,0,0,1,.15-.09l0,0a7.82,7.82,0,0,1,7,.87c1.6,1.21,1.21,4.06-.37,5.11-1.94,1.3-4.69.18-6.38-1A6,6,0,0,1,308.33,96.81Z" transform="translate(74 -2.21)"/><path class="cls-40" d="M308.56,100.75a8.07,8.07,0,0,1-1.7-.13,3.61,3.61,0,0,0-1-.12,1.51,1.51,0,0,0-.42.1h0a1.36,1.36,0,0,0-1,.82l-.1.12a1.81,1.81,0,0,0-1.66-.63c-.38.06-.63.85-.41,1.14l0,0h0a1.58,1.58,0,0,0,.91.28,3.33,3.33,0,0,0,.82.14,9.67,9.67,0,0,0,2.4-.36,4.41,4.41,0,0,0,2.05-1.26h-.06Z" transform="translate(74 -2.21)"/><path class="cls-28" d="M302.14,102.07a9.24,9.24,0,0,0,2.92,0,9.6,9.6,0,0,0,2.79-.91,5.06,5.06,0,0,1-2.73,1.3A5,5,0,0,1,302.14,102.07Z" transform="translate(74 -2.21)"/><path class="cls-40" d="M306.08,102.8a2.34,2.34,0,0,0,1.38-1.09,13.72,13.72,0,0,1-2.34.63c-.52.08-1.42-.06-1.86.33s.26.51.7.54A4.86,4.86,0,0,0,306.08,102.8Z" transform="translate(74 -2.21)"/><path class="cls-28" d="M309.76,88.78a2.24,2.24,0,0,1,.86-1,2,2,0,0,1,1.34-.27,1.7,1.7,0,0,1,1.15.75,2.61,2.61,0,0,1,.33,1.26,4.84,4.84,0,0,0-.59-1.08,1.53,1.53,0,0,0-1-.54,2,2,0,0,0-1.12.15A3.4,3.4,0,0,0,309.76,88.78Z" transform="translate(74 -2.21)"/><path class="cls-28" d="M301.81,88.05a1.36,1.36,0,0,1,1.9.22,1.42,1.42,0,0,1,.29,1l0,.16a1.41,1.41,0,0,1-.5.91,1.34,1.34,0,0,1-1.9-.22,1.42,1.42,0,0,1-.29-1l0-.16A1.41,1.41,0,0,1,301.81,88.05Z" transform="translate(74 -2.21)"/><path class="cls-28" d="M301.2,88.36a2.14,2.14,0,0,1,.82-.92,1.81,1.81,0,0,1,1.25-.24,1.53,1.53,0,0,1,1.08.7,2.38,2.38,0,0,1,.32,1.18,4.54,4.54,0,0,0-.56-1,1.48,1.48,0,0,0-.9-.5,2,2,0,0,0-1.06.14A3.46,3.46,0,0,0,301.2,88.36Z" transform="translate(74 -2.21)"/><path class="cls-41" d="M356,135c4.05,11.88,34.88,70.31,41.32,82.75-.36,5.68-26.76,4.61-30.78-2.75-4.29-7.87-23-42.14-26.83-50.22C339,163.28,356,135,356,135Z" transform="translate(74 -2.21)"/><path class="cls-24" d="M290.35,209.84a16.05,16.05,0,0,1,.12,4.32,17.89,17.89,0,0,1-2.12,5.29c-3.07,6-5.62,20.29-6.33,27.68,15.75,3.19,31.93,1,47.84,0,8.7-.52,17.32-1.37,26-2.42,2.85-.34,5.72-.59,8.55-1,1-.16,2-.32,3.05-.57-1-8.7-4.54-17-8.22-25a69.06,69.06,0,0,1-3-7.29,26.74,26.74,0,0,1-.72-2.62,48.31,48.31,0,0,1-.77-10.27c0-7.24-1.68-16.63,0-23.66.56-2.38,2.22-3.38,3.56-5.33a17.38,17.38,0,0,0,2.65-10.24,50.52,50.52,0,0,0-2.18-11.65c-1.1-4.07-1.61-8-2.71-12.05-2.58-1.52-5.77-3.18-8.36-4.7-.9-.53-7.77-3.79-7.77-4.57.57,3.3-2.32,6.29-5.44,7.52a14.53,14.53,0,0,1-12.39-.92c-2.3-1.33-6.2-8-6.62-8.76a102.5,102.5,0,0,1-12.65,3.4c-3,.67-6.95,1.69-10.38,2.5-2.65.63-5.3,1.27-7.93,2,0,.19,0,.37.05.55C287.52,157.87,287.31,183.94,290.35,209.84Z" transform="translate(74 -2.21)"/><path class="cls-41" d="M397.32,217.75c-.53-1.2-27.1-18.4-27.1-18.4-1,.6-3.68,1.27-4.49,2.07a4.94,4.94,0,0,0-2,3.37c-.52,2.21.25,4.57,1.13,6.7,2.73,6.58,22.2,38.54,24.19,42,6.21-2.36,15.39-5.57,21.59-7.93C410.08,244.36,400.43,224.82,397.32,217.75Z" transform="translate(74 -2.21)"/><path class="cls-28" d="M390.11,254.05l-.66-1.1c6.48-3.84,13.86-5.54,21-7.19l.29,1.24C403.69,248.63,396.41,250.31,390.11,254.05Z" transform="translate(74 -2.21)"/><path class="cls-31" d="M321.77,78.34c-.4,5.11-.78,10.43,1.1,15.2,1.55,3.9,4.49,7.1,6.31,10.88,3.81,7.91,2.28,17.34-.56,25.65,4.21.6,12.14-.63,16.38-1.07-.32,0-7.68-22.77-8-25.1-.18-1.42-1.38-2.48-2.55-3.31a7.66,7.66,0,0,1-3-3c-1.74-4.3,4.8-6,7.8-5.23a2,2,0,0,0,1.39.08,1.76,1.76,0,0,0,.74-1.13,49,49,0,0,0,2.15-12.48c.1-2.5-.05-5.16-1.46-7.21a10,10,0,0,0-5.7-3.6c-2.68-.73-8-1.59-10.66-.23C322.41,69.5,322,75.13,321.77,78.34Z" transform="translate(74 -2.21)"/><path class="cls-23" d="M269.68,430.68l-.63-.06c.6-5.73,1.16-11.54,1.71-17.16,1.7-17.33,3.45-35.26,6.37-52.7l.07-.46.4.24a19.92,19.92,0,0,0,10.82,2.69A67.75,67.75,0,0,0,278,355l-1.25-.8,1.46.22a25.54,25.54,0,0,0,11-.81c-3.31-.78-6.63-1.63-10.36-2.87l-.22-.08v-2.07l0-.06a6.07,6.07,0,0,0,.84-2.5,25.6,25.6,0,0,1,.79-5.36c.2-.86.39-1.76.54-2.63,1.89-11.87,3.3-23.44,4.67-34.62.87-7.07,1.76-14.37,2.77-21.66l.63.08c-1,7.29-1.9,14.59-2.76,21.66-1.37,11.18-2.79,22.76-4.68,34.64-.15.89-.35,1.8-.54,2.67a24.58,24.58,0,0,0-.78,5.22,6.27,6.27,0,0,1-.88,2.71v1.46c4,1.34,7.6,2.21,11.2,3.06l1.06.25-1,.36a26.25,26.25,0,0,1-11,1.34,67.78,67.78,0,0,1,9.94,8.12l.49.49-.69.05a20.48,20.48,0,0,1-11.5-2.5c-2.87,17.27-4.6,35-6.28,52.2C270.85,419.15,270.28,425,269.68,430.68Z" transform="translate(74 -2.21)"/><path class="cls-23" d="M328.47,264l-.34-.53A147.45,147.45,0,0,0,342.3,253l.41.49A145.89,145.89,0,0,1,328.47,264Z" transform="translate(74 -2.21)"/><path class="cls-23" d="M328.06,263.14l-.63,0c.52-7.74.67-15.58.45-23.33l.64,0C328.74,247.52,328.59,255.39,328.06,263.14Z" transform="translate(74 -2.21)"/><path class="cls-23" d="M368.36,429.66l-.61-88.9.43.15a23,23,0,0,0,15-.12L367,335.44l14.18-4.37-9.26.58a6.52,6.52,0,0,1-3.55-.48,6.41,6.41,0,0,1-2.2-2.6l-36.63-64.4.55-.31,36.63,64.39a4.28,4.28,0,0,0,5.16,2.76l14.6-.9-17.38,5.35,16,5.28-.8.32a23.58,23.58,0,0,1-15.89.59l.61,88Z" transform="translate(74 -2.21)"/><path class="cls-41" d="M290.35,209.84a16.05,16.05,0,0,1,.12,4.32,17.89,17.89,0,0,1-2.12,5.29c-3.07,6-5.62,20.29-6.33,27.68,15.75,3.19,31.93,1,47.84,0,8.7-.52,17.32-1.37,26-2.42,2.85-.34,5.72-.59,8.55-1,1-.16,2-.32,3.05-.57-1-8.7-4.54-17-8.22-25a69.06,69.06,0,0,1-3-7.29,26.74,26.74,0,0,1-.72-2.62,37.54,37.54,0,0,1-.74-7.18,13.17,13.17,0,0,1-8.9,3.37,17.63,17.63,0,0,1-9.4-2.95,44.72,44.72,0,0,1-5.39-4.51,17.44,17.44,0,0,0-6.47-3.51c-4.16-1.27-8.54-1.6-12.57-3.34a21.24,21.24,0,0,1-9.6-8.38c-4.41-7.25-4.39-16-5.61-24.2-1.41-9.36-3.23-18.66-6.56-27.51-1.92.47-3.85.94-5.76,1.44,0,.19,0,.37.05.55C287.52,157.87,287.31,183.94,290.35,209.84Z" transform="translate(74 -2.21)"/><path class="cls-24" d="M276.87,138.19a46.72,46.72,0,0,0-4.56,9.92q-5.43,14.7-10.85,29.41c-3.23,8.76-7,17.55-9.29,26.51a7,7,0,0,0,1.7,6.12,17,17,0,0,0,5.31,3.86,122.24,122.24,0,0,0,16.58,6.69c7.17,2.5,14.35,5,21.58,7.29,3.55,1.12,7.11,2.2,10.7,3.21,1.43.41,3.09,1.27,4.49.78,1.19-.42,2.25-1.95,3-2.92a29.66,29.66,0,0,0,5.15-11.85c.77-4,1.44-7.26-2.84-8.72-9.33-3.16-18.67-6.35-27.49-10.79-2.32-1.16-6.94-3.09-7.08-6s1.7-7.12,2.54-10c2-6.72,4.29-13.37,5.51-20.3s1.2-14.72-1.48-21.47c-.79-2-2.46-8.37-4.8-9C282.25,130.31,278.14,136.29,276.87,138.19Z" transform="translate(74 -2.21)"/><path class="cls-28" d="M314.29,209.34l-28.68-13.2a4.83,4.83,0,0,0-2.21-.63,4.42,4.42,0,0,0-2.11,1,39.52,39.52,0,0,0-5.43,4.66,3,3,0,0,1-2.45,1.22,1.86,1.86,0,0,1-1.25-.79,2.46,2.46,0,0,1-.42-1.84,4.48,4.48,0,0,1,1.53-2.36,15.87,15.87,0,0,1,2.74-2,51.52,51.52,0,0,1-6,0l-1-.06.48-.88a5.67,5.67,0,0,1,4.62-2.59,18.69,18.69,0,0,1,3.09.08c.61,0,1.24.1,1.85.11a1.77,1.77,0,0,0,.91-.16,2,2,0,0,0,.48-.87c3.73-10.79,7-21.89,9.59-33l1.25.3c-2.65,11.14-5.89,22.29-9.64,33.11a2.9,2.9,0,0,1-.93,1.49,2.66,2.66,0,0,1-1.68.4c-.65,0-1.3-.06-1.94-.11a16.31,16.31,0,0,0-2.87-.07,5.17,5.17,0,0,0-2.86,1,49,49,0,0,0,8.81-.49l.24,1.25a14.79,14.79,0,0,0-6.32,3.42A3.35,3.35,0,0,0,273,200a1.21,1.21,0,0,0,.19.87.62.62,0,0,0,.4.26c.43.06.92-.4,1.35-.85a42.07,42.07,0,0,1,5.61-4.8,5.55,5.55,0,0,1,2.76-1.21,5.79,5.79,0,0,1,2.84.74l28.67,13.2Z" transform="translate(74 -2.21)"/><rect class="cls-23" x="342.3" y="71.89" width="6.77" height="351.46" transform="translate(-3.5 203.8) rotate(-30)"/><polygon class="cls-23" points="308.96 120.58 299.46 115.33 308.81 109.72 308.96 120.58"/><polygon class="cls-23" points="318.38 115.1 308.88 109.85 318.23 104.25 318.38 115.1"/><polygon class="cls-23" points="327.81 109.63 318.3 104.38 327.65 98.77 327.81 109.63"/><polygon class="cls-23" points="337.23 104.15 327.73 98.9 337.07 93.29 337.23 104.15"/><polygon class="cls-23" points="346.65 98.67 337.15 93.42 346.5 87.82 346.65 98.67"/><polygon class="cls-23" points="356.07 93.19 346.57 87.95 355.92 82.34 356.07 93.19"/><polygon class="cls-23" points="365.5 87.72 355.99 82.47 365.34 76.86 365.5 87.72"/><rect class="cls-23" x="218.69" y="92.11" width="76.29" height="7" transform="translate(60.74 139.81) rotate(-30.17)"/><path class="cls-34" d="M340.5,212.51a4.74,4.74,0,0,0-4-1.95,16.12,16.12,0,0,0-4.53.9,40.93,40.93,0,0,1-9.61,1.78c-1.17,0-3-.32-4.65-.34-1.83,2.39-2.6,6-3,8.6a39.31,39.31,0,0,0-.41,5.5h.32a23.63,23.63,0,0,1,7.29.93c2.19.65,4.29,1.62,6.51,2.21,2,.53,4.54.9,6.48,0,1.56-.72,2.53-3,1.34-4.5a3.66,3.66,0,0,0,2.43-4.47,3.28,3.28,0,0,0,.84-4.67A2.84,2.84,0,0,0,340.5,212.51Z" transform="translate(74 -2.21)"/><path class="cls-23" d="M347.2,175.94a1.1,1.1,0,0,1,0-1,2.38,2.38,0,0,1,1.69-1A14.47,14.47,0,0,0,360.29,159a28.4,28.4,0,0,0-1.09-5.21l-3.54-12.87,1.23-.34,3.54,12.87a30.65,30.65,0,0,1,1.14,5.45,15.8,15.8,0,0,1-12.46,16.25,1.53,1.53,0,0,0-.78.36.17.17,0,0,0,0-.12Z" transform="translate(74 -2.21)"/><path class="cls-23" d="M315.2,177.68c-1.25,0-2.5,0-3.74-.13l.09-1.27a52.62,52.62,0,0,0,10.27-.29l.16,1.27A55,55,0,0,1,315.2,177.68Z" transform="translate(74 -2.21)"/><path class="cls-23" d="M389.47,253.19a241.26,241.26,0,0,1-22.55-40l-.25-.57,4.24-2a25.74,25.74,0,0,0-2.9.39.76.76,0,0,1-.86-.48.74.74,0,0,1,.31-.92,24.66,24.66,0,0,0,4.62-3.67,12.67,12.67,0,0,0-6.18,3.47l-.63.65-11-22.59,1.15-.56,10.18,21a14,14,0,0,1,8.15-3.5l1.61-.12-1.09,1.19a29.55,29.55,0,0,1-4.29,4c.92-.09,1.82-.14,2.78-.18a.88.88,0,0,1,.91.69.9.9,0,0,1-.49,1l-4.87,2.26a241.79,241.79,0,0,0,22.17,39.21Z" transform="translate(74 -2.21)"/><polygon class="cls-30" points="503.02 328.14 525.64 275.26 500.35 260.85 467.05 307.65 503.02 328.14"/><polygon class="cls-30" points="503.52 313.23 512.31 298.84 553.48 285.7 556.24 291.79 503.52 313.23"/><rect class="cls-30" x="479.9" y="282.17" width="3.69" height="17.15" transform="translate(-0.14 201.31) rotate(-22.2)"/><path class="cls-30" d="M405.45,295.71A23.93,23.93,0,0,1,401,287a22.37,22.37,0,0,1,.75-14.69,13.73,13.73,0,0,1,8.82-8.2,13.23,13.23,0,0,1,10.14,1.5c.55.31,1.09.67,1.63,1.05a20.92,20.92,0,0,1,2.11,1.78c.65-1,1.29-2.06,1.92-3.11-4.78-4.34-10.91-6.31-16.76-4.7-4.94,1.35-8.91,5-11.17,10.25a25.91,25.91,0,0,0-.92,17.07,27,27,0,0,0,5.86,10.93C404.07,297.79,404.76,296.75,405.45,295.71Z" transform="translate(74 -2.21)"/><path class="cls-37" d="M403.79,266a23.51,23.51,0,0,1,1.55-7.06c1.18.58,1.47,2.12,1.59,3.44q.39,4.4.45,8.8c.12-3.22.25-6.44.37-9.66a2.48,2.48,0,0,1,.79-2.11c1.31,1,1.56,2.79,1.71,4.41l.6,6.57a75,75,0,0,1,.58-10.28c.06-.49.22-1.09.71-1.18,2.19,2.55,2.45,6.18,2.62,9.54l-.46-8.61c-.05-.88.09-2,.95-2.23,1.91,1.7,2.36,4.47,2.69,7a11.59,11.59,0,0,1,0,4.47,3.89,3.89,0,0,1-3,3,11.47,11.47,0,0,0-1.66.1,5.14,5.14,0,0,0-1.84,1.28,2.19,2.19,0,0,1-2.06.62c-.41-.16-.73-.53-1.16-.58a1.84,1.84,0,0,0-1,.35,4.26,4.26,0,0,1-3.37.64c-1.94-.62-1.24-1.95-.89-3.2A23.4,23.4,0,0,0,403.79,266Z" transform="translate(74 -2.21)"/><path class="cls-31" d="M337.22,65.37c-5.89-2-13.1-4.38-19-2.33-6.5,2.27-13.41,7-16,13.41a43,43,0,0,0,9.57,3.29,2.54,2.54,0,0,0,1.37-.09,2.69,2.69,0,0,0,1-1.06A44,44,0,0,1,318.87,73c-.31.6-3.44,7.28-3.07,7.43l3.08,1.18a1.58,1.58,0,0,0,1.08.13,1.52,1.52,0,0,0,.71-1c.74-1.87,1.47-3.75,2.2-5.62l.05,7.78c0,.87,6.82.5,7.47.4a20.31,20.31,0,0,0,7.23-2.56c2.75-1.61,10.09-7.61,7.38-11.39C343.59,67.42,339.35,66.11,337.22,65.37Z" transform="translate(74 -2.21)"/><path class="cls-28" d="M316.42,87c.14-.75-1.52-2.15-2-2.48a5.36,5.36,0,0,0-3.46-.77,2.09,2.09,0,0,0-.85.25.86.86,0,0,0-.45.73.72.72,0,0,0,.18.45A10.89,10.89,0,0,1,316.42,87Z" transform="translate(74 -2.21)"/><path class="cls-28" d="M305,83a2.09,2.09,0,0,0-.86-.25,5.7,5.7,0,0,0-2.59.35,7,7,0,0,1-.26,1.63,12,12,0,0,1,4-.55.79.79,0,0,0,.18-.45A.86.86,0,0,0,305,83Z" transform="translate(74 -2.21)"/></g></g></svg>