<svg xmlns="http://www.w3.org/2000/svg" viewBox="0 0 469.66 453.87"><defs><style>.cls-1,.cls-5{fill:#92e3a9;}.cls-2,.cls-7{fill:#fff;}.cls-2{opacity:0.7;}.cls-3,.cls-6{fill:none;}.cls-3,.cls-5,.cls-6,.cls-7,.cls-8{stroke:#263238;stroke-miterlimit:10;}.cls-4,.cls-8{fill:#263238;}.cls-6{stroke-width:0.5px;}</style></defs><g id="Background_Simple" data-name="Background Simple"><path class="cls-1" d="M319.29,61C307.54,42.83,291.16,28.49,268,23,192,5,162,63,146,95c-7.42,14.84-21.9-2.25-28.71-8.76C105,74.46,90.57,59,72,59.86c-7.71.34-15,3.79-21.11,8.55-36.12,28.32-25.56,85.42-17.42,124,4.27,20.17,9.89,40,14,60.23,1.9,9.38,7.24,26.73.54,35.4-17,22-38,94-17,152s91,8,159-21c42.57-18.15,88.13,11.9,124.51,31.29,31.2,16.64,67.54,30.65,102.85,18.76,15.35-5.16,30.29-14.33,35.12-30.74,3.12-10.59,1.61-22-1.41-32.65-7.23-25.47-13.28-52-9.41-78.57,4-27.15,17.64-52.69,27.34-78.09,21-55,40-116-3-164-9.2-10.27-21.44-15.19-34.25-8-17.06,9.66-28,29.22-38.27,45.18-5.21,8.11-15.1,30.63-26.48,31.77-16,1.6-23.4-29.51-26.23-40.6C336.14,95.24,329.44,76.69,319.29,61Z" transform="translate(-22.2 -19.61)"/><path class="cls-2" d="M319.29,61C307.54,42.83,291.16,28.49,268,23,192,5,162,63,146,95c-7.42,14.84-21.9-2.25-28.71-8.76C105,74.46,90.57,59,72,59.86c-7.71.34-15,3.79-21.11,8.55-36.12,28.32-25.56,85.42-17.42,124,4.27,20.17,9.89,40,14,60.23,1.9,9.38,7.24,26.73.54,35.4-17,22-38,94-17,152s91,8,159-21c42.57-18.15,88.13,11.9,124.51,31.29,31.2,16.64,67.54,30.65,102.85,18.76,15.35-5.16,30.29-14.33,35.12-30.74,3.12-10.59,1.61-22-1.41-32.65-7.23-25.47-13.28-52-9.41-78.57,4-27.15,17.64-52.69,27.34-78.09,21-55,40-116-3-164-9.2-10.27-21.44-15.19-34.25-8-17.06,9.66-28,29.22-38.27,45.18-5.21,8.11-15.1,30.63-26.48,31.77-16,1.6-23.4-29.51-26.23-40.6C336.14,95.24,329.44,76.69,319.29,61Z" transform="translate(-22.2 -19.61)"/></g><g id="Hearts"><path class="cls-3" d="M348,205.25h0a8.15,8.15,0,0,0-11.53,0l-.84.84-.84-.85a8.15,8.15,0,1,0-11.52,11.52l.84.85,11.52,11.52,11.52-11.52.85-.85A8.15,8.15,0,0,0,348,205.25Z" transform="translate(-22.2 -19.61)"/><path class="cls-3" d="M78.46,408.26h0a8.15,8.15,0,0,0-11.09-3.14l-1,.58-.58-1a8.14,8.14,0,1,0-14.22,7.94l.58,1,7.94,14.22,14.23-7.95,1-.58A8.14,8.14,0,0,0,78.46,408.26Z" transform="translate(-22.2 -19.61)"/><path class="cls-3" d="M171.32,280.53h0a8.15,8.15,0,0,0-10.75,4.14l-.48,1.09-1.09-.49a8.15,8.15,0,0,0-6.61,14.9l1.09.48,14.9,6.61,6.6-14.89.49-1.1A8.14,8.14,0,0,0,171.32,280.53Z" transform="translate(-22.2 -19.61)"/><path class="cls-3" d="M196.23,63.06h0a5.33,5.33,0,0,0-7,2.71l-.31.71-.72-.31a5.33,5.33,0,0,0-4.33,9.75l.72.32,9.75,4.32,4.33-9.75.32-.72A5.32,5.32,0,0,0,196.23,63.06Z" transform="translate(-22.2 -19.61)"/><path class="cls-3" d="M261.76,391.31h0a5.33,5.33,0,0,0-7.44-1.25l-.63.45-.46-.64a5.33,5.33,0,0,0-8.69,6.19l.45.64,6.19,8.69,8.69-6.18.64-.46A5.33,5.33,0,0,0,261.76,391.31Z" transform="translate(-22.2 -19.61)"/><path class="cls-3" d="M307.44,59.25h0A5.33,5.33,0,0,0,300,58l-.63.45-.46-.64A5.33,5.33,0,0,0,290.22,64l.45.64,6.19,8.69,8.69-6.18.64-.46A5.33,5.33,0,0,0,307.44,59.25Z" transform="translate(-22.2 -19.61)"/><path class="cls-3" d="M390.93,48.49h0a5.33,5.33,0,0,0-7,2.72l-.32.71-.71-.32a5.34,5.34,0,0,0-4.33,9.76l.72.31L389,66l4.33-9.75.31-.72A5.33,5.33,0,0,0,390.93,48.49Z" transform="translate(-22.2 -19.61)"/><path class="cls-3" d="M56.78,119.85h0a5.33,5.33,0,0,0-7.27-2l-.68.38-.39-.68a5.34,5.34,0,1,0-9.28,5.27l.39.68,5.27,9.28,9.28-5.27.68-.39A5.33,5.33,0,0,0,56.78,119.85Z" transform="translate(-22.2 -19.61)"/><path class="cls-3" d="M97.69,202.34h0a5.34,5.34,0,0,0-7.28-2l-.68.38-.38-.68a5.34,5.34,0,1,0-9.28,5.27l.38.68,5.27,9.28L95,210l.68-.39A5.34,5.34,0,0,0,97.69,202.34Z" transform="translate(-22.2 -19.61)"/><path class="cls-3" d="M439,332h0a5.35,5.35,0,0,0-7.28-2l-.67.39-.39-.68a5.34,5.34,0,1,0-9.28,5.27l.39.68,5.26,9.28,9.29-5.27.68-.39A5.33,5.33,0,0,0,439,332Z" transform="translate(-22.2 -19.61)"/></g><g id="Shadow"><ellipse class="cls-4" cx="228.72" cy="424.39" rx="81.5" ry="11"/></g><g id="Cactus_6" data-name="Cactus 6"><path class="cls-5" d="M382.74,370.68s-8-28,10-36.67,26.67,14.67,21.33,36.67Z" transform="translate(-22.2 -19.61)"/><path class="cls-6" d="M400.89,334.92s-9.78,3.26-13.05,13.37a41.22,41.22,0,0,0-1.63,18.59" transform="translate(-22.2 -19.61)"/><path class="cls-6" d="M403.17,337.53s-7.82,5.87-9.13,16-1,14-1,14" transform="translate(-22.2 -19.61)"/><path class="cls-6" d="M405.78,336.88s-4.24,20.22-4.24,30.65" transform="translate(-22.2 -19.61)"/><path class="cls-6" d="M406.11,335.57s5.22,11.09,1.95,31.64" transform="translate(-22.2 -19.61)"/><path class="cls-6" d="M408.06,335.57s6.2,9.13,4.24,30.66" transform="translate(-22.2 -19.61)"/><path class="cls-7" d="M409.7,335.57s-4.57-7.17-4.24-4.89l.32,2.28s-3.59-.65-3.26,1.31a2.1,2.1,0,0,0,2,2s-4.24.33-2.94,2,5.55-.33,5.55-.33-2,2.29-.33,3.27,2.61-2,2.61-2,.65,4.89,2.28,3.91.33-3.58.33-3.58,3.26,1.3,3.91-.33-1.3-2.28-1.3-2.28,1.3-3.27.32-3.27-2.61,2-2.61,2,1.63-6.85-1-5.22S409.7,335.57,409.7,335.57Z" transform="translate(-22.2 -19.61)"/><line class="cls-3" x1="359.51" y1="347.25" x2="357.83" y2="347.08"/><line class="cls-3" x1="359.01" y1="344.05" x2="356.82" y2="344.05"/><line class="cls-3" x1="359.01" y1="341.36" x2="356.32" y2="340.69"/><line class="cls-3" x1="358.5" y1="337.66" x2="356.82" y2="336.48"/><line class="cls-3" x1="359.01" y1="333.45" x2="356.15" y2="333.28"/><line class="cls-3" x1="359.01" y1="330.76" x2="357.66" y2="329.25"/><line class="cls-3" x1="360.02" y1="327.57" x2="358.17" y2="325.21"/><line class="cls-3" x1="362.04" y1="322.52" x2="359.34" y2="322.69"/><line class="cls-3" x1="364.05" y1="319.83" x2="362.04" y2="318.99"/><line class="cls-3" x1="365.57" y1="317.14" x2="364.56" y2="315.79"/><line class="cls-3" x1="368.76" y1="315.45" x2="367.25" y2="313.77"/><line class="cls-3" x1="372.13" y1="313.6" x2="371.62" y2="310.91"/><line class="cls-3" x1="376.33" y1="312.26" x2="376.33" y2="309.73"/><line class="cls-3" x1="380.04" y1="312.59" x2="380.54" y2="310.24"/><line class="cls-3" x1="390.97" y1="323.7" x2="394" y2="322.52"/><line class="cls-3" x1="392.65" y1="327.57" x2="394.17" y2="327.57"/><line class="cls-3" x1="393.66" y1="332.44" x2="395.51" y2="332.11"/><line class="cls-3" x1="393.66" y1="337.49" x2="395.51" y2="337.32"/><line class="cls-3" x1="393.66" y1="341.7" x2="395.68" y2="341.7"/><line class="cls-3" x1="393.16" y1="345.4" x2="395.01" y2="345.73"/><path class="cls-7" d="M376.17,366,380,391.73a4.81,4.81,0,0,0,4.8,4.61h27.85a4.81,4.81,0,0,0,4.8-4.6l4.81-25.45Z" transform="translate(-22.2 -19.61)"/></g><g id="Cactus_5" data-name="Cactus 5"><path class="cls-5" d="M408.83,254s8.26-11.58,14.88-7,1.24,10.75-4.55,12.4a14.67,14.67,0,0,1-10.33-.82Z" transform="translate(-22.2 -19.61)"/><path class="cls-5" d="M396,242.88s-7.44-31,8.27-35.15,16.54,13.65,12.81,21.09S401,246.18,401,246.18Z" transform="translate(-22.2 -19.61)"/><path class="cls-5" d="M392.29,248.67s-4.55-14.06-13.23-11.17-5.38,9.92,2.48,14.89,11.57,5,11.57,5Z" transform="translate(-22.2 -19.61)"/><path class="cls-5" d="M393.94,274.3s-7.85-9.51-5.37-21.5,14.88-13.64,20.67-5.38-4.55,26.88-4.55,26.88Z" transform="translate(-22.2 -19.61)"/><line class="cls-3" x1="368.29" y1="249.26" x2="365.15" y2="249.26"/><line class="cls-3" x1="366.62" y1="244.85" x2="365.15" y2="245.06"/><line class="cls-3" x1="366.2" y1="240.03" x2="363.05" y2="241.08"/><line class="cls-3" x1="365.57" y1="237.3" x2="363.47" y2="237.3"/><line class="cls-3" x1="360.74" y1="234.36" x2="359.48" y2="236.04"/><line class="cls-3" x1="357.59" y1="231.84" x2="355.92" y2="234.36"/><line class="cls-3" x1="354.66" y1="229.33" x2="352.77" y2="231.42"/><line class="cls-3" x1="352.77" y1="226.81" x2="349.83" y2="227.65"/><line class="cls-3" x1="351.51" y1="223.87" x2="348.99" y2="223.87"/><line class="cls-3" x1="352.14" y1="220.51" x2="350.46" y2="218.63"/><line class="cls-3" x1="355.71" y1="218.42" x2="353.61" y2="215.9"/><line class="cls-3" x1="358.85" y1="217.58" x2="358.22" y2="215.06"/><line class="cls-3" x1="362.84" y1="218.21" x2="363.05" y2="216.32"/><line class="cls-3" x1="365.36" y1="220.09" x2="366.62" y2="218.42"/><line class="cls-3" x1="367.88" y1="223.45" x2="369.34" y2="220.93"/><line class="cls-3" x1="371.65" y1="224.5" x2="370.18" y2="222.4"/><line class="cls-3" x1="372.91" y1="220.72" x2="371.02" y2="220.3"/><line class="cls-3" x1="372.28" y1="216.32" x2="369.55" y2="215.9"/><line class="cls-3" x1="372.28" y1="212.75" x2="369.13" y2="211.7"/><line class="cls-3" x1="372.07" y1="207.51" x2="369.34" y2="207.09"/><line class="cls-3" x1="371.86" y1="202.68" x2="369.76" y2="202.89"/><line class="cls-3" x1="372.7" y1="199.11" x2="371.02" y2="198.48"/><line class="cls-3" x1="373.54" y1="195.76" x2="371.65" y2="194.71"/><line class="cls-3" x1="375.43" y1="192.4" x2="373.33" y2="191.14"/><line class="cls-3" x1="377.95" y1="189.67" x2="377.11" y2="188.2"/><line class="cls-3" x1="382.08" y1="188.13" x2="381.3" y2="186.1"/><line class="cls-3" x1="386.97" y1="187.36" x2="387.6" y2="184.84"/><line class="cls-3" x1="392.63" y1="189.25" x2="393.47" y2="186.73"/><line class="cls-3" x1="395.15" y1="193.03" x2="397.88" y2="191.77"/><line class="cls-3" x1="396.83" y1="197.43" x2="398.93" y2="197.43"/><line class="cls-3" x1="397.04" y1="202.47" x2="399.56" y2="202.47"/><line class="cls-3" x1="395.99" y1="206.88" x2="397.46" y2="207.72"/><line class="cls-3" x1="394.52" y1="210.65" x2="396.2" y2="211.28"/><line class="cls-3" x1="391.79" y1="214.43" x2="393.47" y2="215.27"/><line class="cls-3" x1="388.86" y1="217.58" x2="391.17" y2="218.84"/><line class="cls-3" x1="386.76" y1="219.88" x2="388.65" y2="222.19"/><line class="cls-3" x1="382.56" y1="223.03" x2="385.71" y2="223.03"/><line class="cls-3" x1="386.34" y1="226.18" x2="387.81" y2="224.92"/><line class="cls-3" x1="388.65" y1="229.75" x2="389.91" y2="228.49"/><line class="cls-3" x1="393.26" y1="227.86" x2="392.84" y2="225.34"/><line class="cls-3" x1="396.41" y1="226.18" x2="396.41" y2="224.08"/><line class="cls-3" x1="400.4" y1="226.81" x2="401.24" y2="224.71"/><line class="cls-3" x1="403.96" y1="229.12" x2="406.9" y2="227.86"/><line class="cls-3" x1="404.8" y1="233.31" x2="406.9" y2="233.73"/><line class="cls-3" x1="403.33" y1="236.04" x2="406.69" y2="237.72"/><line class="cls-3" x1="401.03" y1="238.14" x2="402.5" y2="239.82"/><line class="cls-3" x1="396.96" y1="239.81" x2="397.88" y2="241.92"/><line class="cls-3" x1="393.05" y1="240.66" x2="392.84" y2="242.55"/><line class="cls-3" x1="389.91" y1="239.82" x2="389.28" y2="242.96"/><line class="cls-3" x1="387.18" y1="244.22" x2="390.12" y2="244.43"/><line class="cls-3" x1="386.13" y1="246.95" x2="388.23" y2="247.79"/><line class="cls-3" x1="385.29" y1="249.89" x2="386.55" y2="250.31"/><path class="cls-4" d="M393.64,252.61a.95.95,0,1,0-.94.94A.95.95,0,0,0,393.64,252.61Z" transform="translate(-22.2 -19.61)"/><path class="cls-4" d="M386.61,247.36a.95.95,0,0,0-1.89,0,.95.95,0,1,0,1.89,0Z" transform="translate(-22.2 -19.61)"/><path class="cls-4" d="M382,247.47a.95.95,0,1,0-1.89,0,.95.95,0,0,0,1.89,0Z" transform="translate(-22.2 -19.61)"/><path class="cls-4" d="M386.19,242.85a.95.95,0,0,0-1.89,0,.95.95,0,1,0,1.89,0Z" transform="translate(-22.2 -19.61)"/><path class="cls-4" d="M379.69,242.85a.95.95,0,1,0-.95,1A.95.95,0,0,0,379.69,242.85Z" transform="translate(-22.2 -19.61)"/><path class="cls-4" d="M399.83,249.36a.95.95,0,1,0-.94.94A.94.94,0,0,0,399.83,249.36Z" transform="translate(-22.2 -19.61)"/><path class="cls-4" d="M395.84,248.2a.95.95,0,0,0-1.89,0,.95.95,0,1,0,1.89,0Z" transform="translate(-22.2 -19.61)"/><circle class="cls-4" cx="383.82" cy="229.96" r="0.94"/><circle class="cls-4" cx="386.55" cy="232.68" r="0.94"/><path class="cls-4" d="M415.46,255.65a.95.95,0,1,0-.94.94A.94.94,0,0,0,415.46,255.65Z" transform="translate(-22.2 -19.61)"/><path class="cls-4" d="M417.24,252.4a.94.94,0,1,0-.94.94A.95.95,0,0,0,417.24,252.4Z" transform="translate(-22.2 -19.61)"/><circle class="cls-4" cx="398.72" cy="231.01" r="0.94"/><path class="cls-4" d="M422.07,255.13a.95.95,0,1,0-.94.94A.94.94,0,0,0,422.07,255.13Z" transform="translate(-22.2 -19.61)"/><circle class="cls-4" cx="377.74" cy="219.26" r="0.94"/><path class="cls-4" d="M407.59,236a.95.95,0,0,0-1.89,0,.95.95,0,1,0,1.89,0Z" transform="translate(-22.2 -19.61)"/><path class="cls-4" d="M403.19,232.15a.95.95,0,1,0-.95.94A.95.95,0,0,0,403.19,232.15Z" transform="translate(-22.2 -19.61)"/><circle class="cls-4" cx="374.59" cy="212.12" r="0.94"/><path class="cls-4" d="M412.52,232.36a.94.94,0,1,0-.94.94A.94.94,0,0,0,412.52,232.36Z" transform="translate(-22.2 -19.61)"/><path class="cls-4" d="M408.33,228.79a.95.95,0,1,0-.95,1A.95.95,0,0,0,408.33,228.79Z" transform="translate(-22.2 -19.61)"/><path class="cls-4" d="M404.87,222.08a.95.95,0,1,0-1.89,0,.95.95,0,0,0,1.89,0Z" transform="translate(-22.2 -19.61)"/><path class="cls-4" d="M404.55,213.9a.95.95,0,1,0-.94.94A.94.94,0,0,0,404.55,213.9Z" transform="translate(-22.2 -19.61)"/><circle class="cls-4" cx="392.84" cy="207.72" r="0.94"/><path class="cls-4" d="M412.42,222.5a.95.95,0,1,0-1.89,0,.95.95,0,0,0,1.89,0Z" transform="translate(-22.2 -19.61)"/><path class="cls-4" d="M413.47,212.43a.95.95,0,1,0-1.89,0,.95.95,0,0,0,1.89,0Z" transform="translate(-22.2 -19.61)"/><path class="cls-4" d="M409.9,216.62a.95.95,0,0,0-1.89,0,.95.95,0,1,0,1.89,0Z" transform="translate(-22.2 -19.61)"/><path class="cls-4" d="M415.67,219.35a.95.95,0,0,0-1.89,0,.95.95,0,1,0,1.89,0Z" transform="translate(-22.2 -19.61)"/><path class="cls-4" d="M400.77,225.65a.94.94,0,1,0-.94.94A.94.94,0,0,0,400.77,225.65Z" transform="translate(-22.2 -19.61)"/><circle class="cls-4" cx="377.21" cy="198.06" r="0.94"/><circle class="cls-4" cx="375.01" cy="236.67" r="0.94"/><circle class="cls-4" cx="379.52" cy="225.55" r="0.94"/><circle class="cls-4" cx="381.51" cy="233.21" r="0.94"/><circle class="cls-4" cx="363.89" cy="232.58" r="0.94"/><path class="cls-4" d="M392.49,257.75a.95.95,0,1,0-1.89,0,.95.95,0,0,0,1.89,0Z" transform="translate(-22.2 -19.61)"/><path class="cls-4" d="M402.77,259.85a.95.95,0,1,0-1.89,0,.95.95,0,0,0,1.89,0Z" transform="translate(-22.2 -19.61)"/><circle class="cls-4" cx="369.13" cy="244.22" r="0.94"/><circle class="cls-4" cx="377.95" cy="246.95" r="0.94"/><path class="cls-4" d="M407.59,258.59a.95.95,0,1,0-.94.94A.95.95,0,0,0,407.59,258.59Z" transform="translate(-22.2 -19.61)"/><circle class="cls-4" cx="383.09" cy="244.43" r="0.94"/><circle class="cls-4" cx="373.54" cy="243.17" r="0.94"/><path class="cls-7" d="M379.17,266.63,383,295.07a4.81,4.81,0,0,0,4.8,4.6h20.85a4.81,4.81,0,0,0,4.8-4.6l4.81-28.1Z" transform="translate(-22.2 -19.61)"/><polyline class="cls-3" points="359.58 265.47 365.74 256.32 376.72 266.57 386.61 255.95 392.94 265.67"/></g><g id="Cactus_4" data-name="Cactus 4"><path class="cls-5" d="M385.24,106.16a53.31,53.31,0,0,1-2.7-9.1c-1.35-6.06-6.74-9.1-9.43-1s-1.69,12.8,3,16.85,8.09,2.35,8.09,2.35Z" transform="translate(-22.2 -19.61)"/><path class="cls-6" d="M376.48,93.35a17,17,0,0,0-.68,11.8,11.6,11.6,0,0,0,7.75,7.75" transform="translate(-22.2 -19.61)"/><path class="cls-6" d="M378.5,93s-1.35,6.4.67,10.44a11.48,11.48,0,0,0,5.73,5.39" transform="translate(-22.2 -19.61)"/><path class="cls-5" d="M412.53,114.55a47.94,47.94,0,0,0,2.41-8.15c1.21-5.43,6-8.14,8.45-.9s1.51,11.47-2.71,15.09-7.25,2.11-7.25,2.11Z" transform="translate(-22.2 -19.61)"/><path class="cls-6" d="M420.37,103.08a15.25,15.25,0,0,1,.61,10.57,10.38,10.38,0,0,1-6.94,6.94" transform="translate(-22.2 -19.61)"/><path class="cls-6" d="M418.56,102.78s1.21,5.74-.6,9.36a10.28,10.28,0,0,1-5.13,4.83" transform="translate(-22.2 -19.61)"/><path class="cls-5" d="M382.88,129.74s-1.35-21.9,2-32,16.51-16.84,22.91-6.4,8.09,28.3,7.75,37.06Z" transform="translate(-22.2 -19.61)"/><path class="cls-6" d="M396.36,88s-7.75,9.44-9.1,20.56a63,63,0,0,0,1,20.55" transform="translate(-22.2 -19.61)"/><line class="cls-6" x1="377.19" y1="69.03" x2="376.13" y2="110.73"/><path class="cls-6" d="M402.08,88.3s9.77,20.22,7.08,41.44" transform="translate(-22.2 -19.61)"/><path class="cls-7" d="M379.17,130.75,380,150.4a4.81,4.81,0,0,0,4.8,4.61h27.85a4.81,4.81,0,0,0,4.8-4.61l.81-19.31Z" transform="translate(-22.2 -19.61)"/><rect class="cls-7" x="353.54" y="107.1" width="45.17" height="7.27" rx="1.61"/><line class="cls-3" x1="360.48" y1="104.26" x2="357.85" y2="103.85"/><line class="cls-3" x1="359.67" y1="99.6" x2="356.43" y2="100"/><line class="cls-3" x1="356.43" y1="95.55" x2="354.61" y2="97.98"/><line class="cls-3" x1="352.18" y1="92.51" x2="349.14" y2="93.52"/><line class="cls-3" x1="347.11" y1="89.26" x2="349.74" y2="87.85"/><line class="cls-3" x1="346.1" y1="83.79" x2="349.74" y2="83.59"/><line class="cls-3" x1="347.51" y1="78.12" x2="349.95" y2="78.52"/><line class="cls-3" x1="348.73" y1="72.85" x2="351.16" y2="74.88"/><line class="cls-3" x1="352.99" y1="68.59" x2="354.4" y2="71.23"/><line class="cls-3" x1="358.46" y1="68.39" x2="357.85" y2="72.44"/><line class="cls-3" x1="361.5" y1="73.26" x2="359.67" y2="75.08"/><line class="cls-3" x1="362.71" y1="70.42" x2="364.74" y2="73.26"/><line class="cls-3" x1="366.77" y1="66.97" x2="368.59" y2="68.8"/><line class="cls-3" x1="371.43" y1="62.72" x2="372.85" y2="67.58"/><line class="cls-3" x1="378.52" y1="62.31" x2="378.52" y2="66.77"/><line class="cls-3" x1="386.63" y1="64.95" x2="383.79" y2="68.39"/><line class="cls-3" x1="389.87" y1="70.82" x2="387.23" y2="74.07"/><line class="cls-3" x1="391.49" y1="77.51" x2="388.85" y2="78.73"/><line class="cls-3" x1="391.49" y1="81.77" x2="393.31" y2="84.4"/><line class="cls-3" x1="395.34" y1="78.52" x2="395.95" y2="80.96"/><line class="cls-3" x1="402.03" y1="79.94" x2="400.41" y2="83.59"/><line class="cls-3" x1="402.03" y1="88.05" x2="405.07" y2="86.22"/><line class="cls-3" x1="402.63" y1="93.92" x2="405.88" y2="93.92"/><line class="cls-3" x1="401.01" y1="99.4" x2="403.44" y2="101.02"/><line class="cls-3" x1="396.96" y1="102.23" x2="397.57" y2="104.26"/></g><g id="Cactus_3" data-name="Cactus 3"><path class="cls-5" d="M69.29,128.52s-1.91-3.19-1.91-9.89,2.55-8.3,2.55-8.3-4.46-6.06-3.83-12.44S69,89.27,69,89.27s-4.14-7,.32-9.89,4.79,9.26,4.79,9.26a10,10,0,0,1,3.19,7c.32,4.78-2.87,12.44-2.87,12.44s5.1,8,5.74,13.08-.32,7.34-.32,7.34Z" transform="translate(-22.2 -19.61)"/><path class="cls-5" d="M79.82,128.52s-2.55-15-.63-18.82,3.19-6.07,3.19-6.07-1.6-8.61-1-14S84,78.43,89.08,78.74s2.23,21.38,1,23.62,1.92,9.57,1.6,16.91-2.55,10.53-2.55,10.53Z" transform="translate(-22.2 -19.61)"/><path class="cls-5" d="M97.05,130.12s-2.55-2.87-2.55-9.89S95.78,110,95.78,110A22.91,22.91,0,0,1,94.5,99.49c.64-6.07,3.19-9.26,3.19-9.26a6.3,6.3,0,0,1,0-8c3.19-4.46,7.66.32,4.79,8,0,0,3.19,5.75,2.87,11.49s-2.23,8.29-2.23,8.29A27.33,27.33,0,0,1,106,121.18c0,5.75-2.24,8.94-2.24,8.94Z" transform="translate(-22.2 -19.61)"/><path class="cls-6" d="M69.29,103.32a16.43,16.43,0,0,1,0-6.13c1.42-6.56,2.31-8,2.31-8s-3.2-3.37-2.31-6.91" transform="translate(-22.2 -19.61)"/><path class="cls-6" d="M72.34,128.76s-2.83-10.29-.53-18.09a25.26,25.26,0,0,1-2.08-5.33" transform="translate(-22.2 -19.61)"/><path class="cls-6" d="M88.86,113a52.47,52.47,0,0,0-1.44-8.51s3-5.67,3-10.11S90.08,86,90.08,86" transform="translate(-22.2 -19.61)"/><path class="cls-6" d="M81.73,120.29a36.28,36.28,0,0,0,2.32,7.93,16.17,16.17,0,0,0,4.79-9.75,24.91,24.91,0,0,0,.13-3.36" transform="translate(-22.2 -19.61)"/><path class="cls-6" d="M84.11,97.06a28.65,28.65,0,0,0,1.36,5.45s-4.44,5.68-4.26,12.77c0,.85.08,1.69.16,2.5" transform="translate(-22.2 -19.61)"/><path class="cls-6" d="M88.3,81.76A19.83,19.83,0,0,0,84.05,91a17.28,17.28,0,0,0-.2,3.12" transform="translate(-22.2 -19.61)"/><path class="cls-6" d="M97.15,112.81a24.24,24.24,0,0,0,.55,8.5,59.7,59.7,0,0,1,1.78,6.38" transform="translate(-22.2 -19.61)"/><path class="cls-6" d="M98.87,93.14A34.57,34.57,0,0,0,97,100.56a29.33,29.33,0,0,0,.54,9s-.1.54-.2,1.42" transform="translate(-22.2 -19.61)"/><path class="cls-6" d="M101.43,82.83s-2.13,2-2.31,3.9a14.59,14.59,0,0,0,.53,4.43s-.24.55-.58,1.44" transform="translate(-22.2 -19.61)"/><path class="cls-6" d="M103.31,121.09c0-.5.07-1,.07-1.38,0-2.84-2.13-8-2.13-8s2-6.74,1.77-12.06" transform="translate(-22.2 -19.61)"/><path class="cls-6" d="M102.14,128.05s.61-2.71,1-5.31" transform="translate(-22.2 -19.61)"/><path class="cls-6" d="M74.3,92.94a22.46,22.46,0,0,1-.54,13.12" transform="translate(-22.2 -19.61)"/><line class="cls-5" x1="46.21" y1="105.89" x2="44.13" y2="105.44"/><line class="cls-5" x1="44.72" y1="101.27" x2="43.53" y2="101.12"/><line class="cls-5" x1="44.72" y1="97.39" x2="42.93" y2="96.34"/><line class="cls-5" x1="45.77" y1="93.81" x2="44.27" y2="92.61"/><line class="cls-5" x1="47.73" y1="90.72" x2="45.62" y2="90.22"/><line class="cls-5" x1="45.77" y1="87.54" x2="43.68" y2="86.64"/><line class="cls-5" x1="43.68" y1="82.17" x2="41.89" y2="82.17"/><line class="cls-5" x1="43.91" y1="78.28" x2="42.34" y2="77.99"/><line class="cls-5" x1="44.42" y1="74.41" x2="42.78" y2="73.22"/><line class="cls-5" x1="45.92" y1="70.68" x2="44.42" y2="70.68"/><line class="cls-5" x1="45.62" y1="66.2" x2="43.53" y2="64.71"/><line class="cls-5" x1="45.02" y1="61.88" x2="43.83" y2="60.09"/><line class="cls-5" x1="48.6" y1="59.64" x2="48.75" y2="58.3"/><line class="cls-5" x1="51.29" y1="61.43" x2="53.52" y2="60.68"/><line class="cls-5" x1="51.88" y1="66.2" x2="53.23" y2="65.01"/><line class="cls-5" x1="53.23" y1="69.93" x2="54.27" y2="69.04"/><line class="cls-5" x1="54.87" y1="73.51" x2="55.91" y2="73.22"/><line class="cls-5" x1="54.72" y1="77.1" x2="56.21" y2="76.95"/><line class="cls-5" x1="53.82" y1="82.47" x2="56.51" y2="81.57"/><line class="cls-5" x1="53.52" y1="85.75" x2="55.61" y2="85.3"/><line class="cls-5" x1="52.33" y1="89.03" x2="53.52" y2="88.88"/><line class="cls-5" x1="56.36" y1="91.12" x2="54.72" y2="90.22"/><line class="cls-5" x1="57.55" y1="88.73" x2="56.21" y2="87.69"/><line class="cls-5" x1="59.05" y1="85" x2="58.15" y2="83.81"/><line class="cls-5" x1="59.64" y1="80.23" x2="57.85" y2="79.63"/><line class="cls-5" x1="59.19" y1="76.05" x2="57.55" y2="75.31"/><line class="cls-5" x1="58.6" y1="70.23" x2="56.36" y2="69.34"/><line class="cls-5" x1="59.64" y1="66.5" x2="58.15" y2="65.31"/><line class="cls-5" x1="60.84" y1="62.33" x2="59.19" y2="60.68"/><line class="cls-5" x1="63.52" y1="60.24" x2="62.33" y2="57.85"/><line class="cls-5" x1="66.88" y1="59.14" x2="67.85" y2="57.7"/><line class="cls-5" x1="69.64" y1="62.03" x2="70.68" y2="61.13"/><line class="cls-5" x1="69.64" y1="66.65" x2="71.28" y2="66.2"/><line class="cls-5" x1="69.79" y1="71.28" x2="71.28" y2="70.98"/><line class="cls-5" x1="69.49" y1="75.75" x2="70.98" y2="75.75"/><line class="cls-5" x1="68.59" y1="80.68" x2="69.79" y2="80.23"/><line class="cls-5" x1="67.85" y1="85.9" x2="69.64" y2="86.2"/><line class="cls-5" x1="68.59" y1="91.12" x2="70.53" y2="90.67"/><line class="cls-5" x1="69.64" y1="97.54" x2="71.13" y2="97.09"/><line class="cls-5" x1="69.19" y1="102.91" x2="70.53" y2="102.61"/><line class="cls-5" x1="72.47" y1="95.45" x2="71.73" y2="95.45"/><line class="cls-5" x1="73.37" y1="92.46" x2="72.17" y2="92.02"/><line class="cls-5" x1="72.92" y1="88.43" x2="70.53" y2="88.43"/><line class="cls-5" x1="72.17" y1="84.56" x2="70.53" y2="84.41"/><line class="cls-5" x1="71.73" y1="79.03" x2="70.23" y2="78.59"/><line class="cls-5" x1="72.77" y1="75.01" x2="71.58" y2="74.26"/><line class="cls-5" x1="74.41" y1="71.58" x2="73.37" y2="71.13"/><line class="cls-5" x1="73.67" y1="67.7" x2="72.47" y2="67.55"/><line class="cls-5" x1="74.26" y1="64.71" x2="73.07" y2="63.67"/><line class="cls-5" x1="76.35" y1="61.73" x2="74.56" y2="60.53"/><line class="cls-5" x1="79.19" y1="60.83" x2="80.08" y2="59.94"/><line class="cls-5" x1="81.42" y1="65.01" x2="83.51" y2="65.01"/><line class="cls-5" x1="80.83" y1="69.49" x2="82.17" y2="68.89"/><line class="cls-5" x1="81.87" y1="73.66" x2="83.51" y2="73.22"/><line class="cls-5" x1="83.07" y1="78.89" x2="84.86" y2="78.29"/><line class="cls-5" x1="82.92" y1="83.06" x2="84.41" y2="82.47"/><line class="cls-5" x1="81.87" y1="88.58" x2="83.66" y2="88.73"/><line class="cls-5" x1="82.32" y1="92.91" x2="83.66" y2="92.31"/><line class="cls-5" x1="83.96" y1="98.43" x2="85.3" y2="97.83"/><line class="cls-5" x1="83.81" y1="103.06" x2="85.01" y2="103.06"/><path class="cls-7" d="M67.84,130.75l-1.47,6.74L63,151.3a6.25,6.25,0,0,0,6.25,6h36.19a6.24,6.24,0,0,0,6.24-6l-3.33-13.39-1.47-6.83Z" transform="translate(-22.2 -19.61)"/><rect class="cls-7" x="42.21" y="107.1" width="45.17" height="7.27" rx="1.61"/></g><g id="Cactus_2" data-name="Cactus 2"><path class="cls-5" d="M71.61,273.36s-9.91-39.64-2.47-41.7,12.8,40.46,12.8,40.46Z" transform="translate(-22.2 -19.61)"/><path class="cls-5" d="M83.49,272.64s-9.08-52,.83-52.85,7,54.92,7,54.92Z" transform="translate(-22.2 -19.61)"/><path class="cls-5" d="M90.1,273.73s2.07-45,12.8-43.36-.41,43.77-.41,43.77Z" transform="translate(-22.2 -19.61)"/><line class="cls-6" x1="51.56" y1="253.19" x2="44.88" y2="216.73"/><line class="cls-6" x1="45.82" y1="212.39" x2="55.12" y2="252.42"/><line class="cls-6" x1="58.38" y1="252.26" x2="50.63" y2="214.56"/><line class="cls-6" x1="57.76" y1="216.11" x2="62.57" y2="253.19"/><line class="cls-6" x1="64.28" y1="253.66" x2="58.54" y2="206.96"/><line class="cls-6" x1="59.93" y1="201.84" x2="66.29" y2="254.43"/><line class="cls-6" x1="63.97" y1="201.38" x2="67.69" y2="254.75"/><line class="cls-6" x1="70.02" y1="254.43" x2="76.69" y2="212.86"/><line class="cls-6" x1="72.5" y1="254.59" x2="80.71" y2="210.76"/><line class="cls-6" x1="76.07" y1="254.43" x2="83.67" y2="213.63"/><line class="cls-6" x1="79.02" y1="254.59" x2="85.22" y2="225.42"/><line class="cls-5" x1="47.21" y1="245.28" x2="45.35" y2="245.28"/><line class="cls-5" x1="46.28" y1="240.78" x2="45.04" y2="240.78"/><line class="cls-5" x1="45.51" y1="236.28" x2="43.64" y2="236.28"/><line class="cls-5" x1="44.88" y1="231.94" x2="42.87" y2="232.09"/><line class="cls-5" x1="44.57" y1="228.06" x2="42.25" y2="227.91"/><line class="cls-5" x1="44.11" y1="223.56" x2="42.25" y2="223.41"/><line class="cls-5" x1="43.95" y1="219.06" x2="42.56" y2="218.44"/><line class="cls-5" x1="44.57" y1="215.49" x2="43.33" y2="213.94"/><line class="cls-5" x1="46.94" y1="212.05" x2="46.59" y2="210.68"/><line class="cls-5" x1="49.54" y1="213.01" x2="49.69" y2="210.84"/><line class="cls-5" x1="52.49" y1="218.6" x2="54.5" y2="216.27"/><line class="cls-5" x1="54.66" y1="225.42" x2="55.59" y2="223.56"/><line class="cls-5" x1="56.21" y1="230.08" x2="56.68" y2="229.3"/><line class="cls-5" x1="57.45" y1="220.61" x2="56.21" y2="219.53"/><line class="cls-5" x1="57.61" y1="214.41" x2="55.12" y2="212.55"/><line class="cls-5" x1="55.9" y1="207.74" x2="57.61" y2="209.75"/><line class="cls-5" x1="58.54" y1="205.1" x2="56.52" y2="202.31"/><line class="cls-5" x1="60.55" y1="200.44" x2="60.4" y2="198.27"/><line class="cls-5" x1="65.05" y1="201.38" x2="65.83" y2="198.58"/><line class="cls-5" x1="66.45" y1="206.03" x2="68.47" y2="203.24"/><line class="cls-5" x1="67.38" y1="210.06" x2="69.55" y2="208.51"/><line class="cls-5" x1="68.78" y1="215.96" x2="70.48" y2="213.79"/><line class="cls-5" x1="69.4" y1="220.61" x2="70.64" y2="219.37"/><line class="cls-5" x1="72.81" y1="220.61" x2="72.03" y2="218.75"/><line class="cls-5" x1="71.72" y1="224.8" x2="70.79" y2="223.25"/><line class="cls-5" x1="74.67" y1="215.96" x2="73.59" y2="214.41"/><line class="cls-5" x1="77.15" y1="212.39" x2="76.07" y2="210.99"/><line class="cls-5" x1="79.33" y1="210.99" x2="78.86" y2="208.2"/><line class="cls-5" x1="82.12" y1="211.46" x2="83.05" y2="209.44"/><line class="cls-5" x1="85.07" y1="215.49" x2="85.84" y2="214.41"/><line class="cls-5" x1="85.38" y1="219.84" x2="86.77" y2="219.37"/><line class="cls-5" x1="85.38" y1="224.34" x2="86.93" y2="224.34"/><line class="cls-5" x1="84.45" y1="235.04" x2="86" y2="235.04"/><line class="cls-5" x1="85.22" y1="229.61" x2="86.62" y2="229.3"/><line class="cls-5" x1="83.52" y1="241.25" x2="84.29" y2="241.25"/><line class="cls-5" x1="82.43" y1="246.37" x2="83.52" y2="247.14"/><line class="cls-5" x1="48.14" y1="249.32" x2="45.97" y2="249.16"/><path class="cls-7" d="M67.84,270.29l.82,24.78a4.8,4.8,0,0,0,4.8,4.6H101.3a4.79,4.79,0,0,0,4.8-4.6l.82-24.44Z" transform="translate(-22.2 -19.61)"/><line class="cls-7" x1="45.81" y1="259.98" x2="84.61" y2="259.98"/><line class="cls-7" x1="46.54" y1="265.1" x2="84.61" y2="265.1"/></g><g id="Cactus_1" data-name="Cactus 1"><path class="cls-5" d="M105.9,361.84a18.78,18.78,0,1,1-18.78-19.08A18.94,18.94,0,0,1,105.9,361.84Z" transform="translate(-22.2 -19.61)"/><polyline class="cls-3" points="48.76 336.89 54.56 337.81 49.37 328.95"/><polyline class="cls-3" points="53.64 340.86 54.56 337.81 56.39 330.18"/><line class="cls-3" x1="54.56" y1="337.81" x2="57.61" y2="336.89"/><polyline class="cls-3" points="65.55 330.48 68.29 333.23 66.77 336.89"/><line class="cls-3" x1="69.51" y1="332.62" x2="71.65" y2="329.56"/><line class="cls-3" x1="68.29" y1="333.23" x2="74.09" y2="336.28"/><polyline class="cls-3" points="62.19 340.86 62.49 343.61 58.83 343.3"/><polyline class="cls-3" points="67.38 341.47 62.49 343.61 60.97 346.96"/><line class="cls-3" x1="62.49" y1="343.61" x2="66.16" y2="347.58"/><polyline class="cls-3" points="61.88 322.24 65.24 325.29 66.16 320.1"/><line class="cls-3" x1="66.46" y1="325.6" x2="70.73" y2="322.54"/><polyline class="cls-3" points="86.61 333.84 80.2 338.72 80.5 334.14"/><line class="cls-3" x1="79.59" y1="339.94" x2="84.78" y2="340.86"/><line class="cls-3" x1="78.37" y1="339.64" x2="74.4" y2="339.33"/><line class="cls-3" x1="79.59" y1="341.16" x2="78.67" y2="343.91"/><polyline class="cls-3" points="70.73 348.8 73.48 350.63 71.34 353.38"/><line class="cls-3" x1="76.23" y1="346.66" x2="74.4" y2="349.1"/><line class="cls-3" x1="75.62" y1="350.63" x2="79.59" y2="350.32"/><line class="cls-3" x1="73.48" y1="350.63" x2="75.31" y2="353.99"/><polyline class="cls-3" points="53.34 346.35 53.34 350.02 50.59 350.02"/><polyline class="cls-3" points="56.69 348.49 53.34 350.02 53.64 352.76"/><line class="cls-3" x1="53.33" y1="350.02" x2="58.52" y2="351.85"/><path class="cls-7" d="M67.84,372.08l.82,19.65a4.8,4.8,0,0,0,4.8,4.61H101.3a4.79,4.79,0,0,0,4.8-4.6l.82-19.32Z" transform="translate(-22.2 -19.61)"/><rect class="cls-7" x="42.21" y="348.43" width="45.17" height="7.27" rx="1.61"/></g><g id="Character"><path class="cls-7" d="M297.67,430.36c-3.5-5-3-7-3-7l-13-172.5-30-1.45v0l-.5,0-.51,0v0l-30,1.45-13,172.5s.5,2-3,7-10,8.5-10,11a3.39,3.39,0,0,0,3.5,3.5h23.5s2.5-1.5,2.5-6.5.5-16,.5-16l22.5-143.5h8l22.5,143.5s.5,11,.5,16,2.5,6.5,2.5,6.5h23.5a3.39,3.39,0,0,0,3.5-3.5C307.67,438.86,301.17,435.36,297.67,430.36Z" transform="translate(-22.2 -19.61)"/><polygon class="cls-8" points="259.47 231.25 229.48 229.8 229.48 229.75 228.98 229.78 228.47 229.75 228.47 229.8 198.48 231.25 187.37 378.75 206.25 378.75 224.98 259.25 228.47 259.25 229.48 259.25 232.97 259.25 251.71 378.75 270.59 378.75 259.47 231.25"/><rect class="cls-7" x="207.36" y="394.58" width="23.7" height="9.78" rx="1.82" transform="translate(4.33 -33.06) rotate(3.74)"/><rect class="cls-7" x="271.7" y="394.58" width="23.7" height="9.78" rx="1.82" transform="translate(570.36 759.98) rotate(176.26)"/><path class="cls-7" d="M224.18,438.36c0-2.44.12-6.32.24-9.65h-2.93v-3.48c0-2.39-1.52-7-7.83-6.74s-5.65,5.65-5.65,5.65h-.34c-.13,1-.71,3-3,6.22-3.5,5-10,8.5-10,11a3.39,3.39,0,0,0,3.5,3.5h23.5S224.18,443.36,224.18,438.36Z" transform="translate(-22.2 -19.61)"/><path class="cls-7" d="M194.72,441.1c0,.09,0,.18,0,.26a3.39,3.39,0,0,0,3.5,3.5h23.5a5.93,5.93,0,0,0,2.2-3.76Z" transform="translate(-22.2 -19.61)"/><path class="cls-7" d="M278,438.36c0-2.44-.12-6.32-.24-9.65h2.93v-3.48c0-2.39,1.53-7,7.83-6.74s5.65,5.65,5.65,5.65h.34c.13,1,.71,3,3,6.22,3.5,5,10,8.5,10,11a3.39,3.39,0,0,1-3.5,3.5h-23.5S278,443.36,278,438.36Z" transform="translate(-22.2 -19.61)"/><path class="cls-7" d="M307.43,441.1c0,.09,0,.18,0,.26a3.39,3.39,0,0,1-3.5,3.5h-23.5a5.93,5.93,0,0,1-2.2-3.76Z" transform="translate(-22.2 -19.61)"/><path class="cls-8" d="M247.42,86a12.14,12.14,0,0,0-5.83,1.32C237,89.61,227.73,95,224.52,101.7c-4.34,9-.67,24-.67,30.33s-19.33,68.67-19,78,18.67,21.33,47.33,18.67,39.67-11.34,40-19.67-19.33-62.67-19.33-80,.33-25-2.33-30C268,94.39,260.7,86.32,247.42,86Z" transform="translate(-22.2 -19.61)"/><path class="cls-7" d="M195.86,138.93s1.12-.28,3.63.84a44.57,44.57,0,0,1,8.11,4.75c3.63,2.51,3.91,8.38,5.87,7s1.95-5.31.27-7.26-4.19-5.59-4.19-5.59l4.75-2.52L207.51,122c.39-1.29-6.79.5-9.69,4.67a13.31,13.31,0,0,1-3.08,3.35s-33.25,19.85-36.61,26-3.91,10.62-2.79,11.18,21.24,6.43,29.06,8.67A89.32,89.32,0,0,0,197,178.61l-2.8-18.25-15.37-1.31s9.22-13.42,12-16.49S195.86,138.93,195.86,138.93Z" transform="translate(-22.2 -19.61)"/><path class="cls-7" d="M203.7,127.6l5,9.43a1.77,1.77,0,0,0,2.42.76l4-2.17a1.9,1.9,0,0,0,.77-2.54l-6-11.31a1.88,1.88,0,0,0-2.71-.69l-3.75,2.5a1.75,1.75,0,0,0-.63,2.16Z" transform="translate(-22.2 -19.61)"/><line class="cls-3" x1="185.16" y1="114.86" x2="192.03" y2="111.04"/><line class="cls-3" x1="183.33" y1="111.19" x2="190.35" y2="107.23"/><line class="cls-3" x1="181.5" y1="107.99" x2="188.36" y2="104.18"/><path class="cls-3" d="M178.81,159.05s-6.63,6-13,7.65" transform="translate(-22.2 -19.61)"/><path class="cls-3" d="M204.22,131.06a8,8,0,0,1-5.07,2.62" transform="translate(-22.2 -19.61)"/><path class="cls-7" d="M296.45,136.26s-1.11-.28-3.63.84a44.81,44.81,0,0,0-8.1,4.75c-3.64,2.51-3.92,8.38-5.87,7s-2-5.31-.28-7.27,4.19-5.59,4.19-5.59L278,133.47l6.79-14.18c-.39-1.29,6.79.51,9.7,4.67a13.39,13.39,0,0,0,3.07,3.36s33.26,19.84,36.61,26,3.91,10.62,2.8,11.18-21.24,6.42-29.07,8.66a87.29,87.29,0,0,1-12.57,2.79l6.18-19.58,12,0s-9.22-13.41-12-16.49S296.45,136.26,296.45,136.26Z" transform="translate(-22.2 -19.61)"/><path class="cls-7" d="M288.61,124.93l-5,9.44a1.78,1.78,0,0,1-2.42.75l-4-2.17a1.87,1.87,0,0,1-.77-2.53l6-11.32a1.88,1.88,0,0,1,2.71-.69l3.76,2.51a1.73,1.73,0,0,1,.62,2.15Z" transform="translate(-22.2 -19.61)"/><line class="cls-3" x1="262.75" y1="112.19" x2="255.89" y2="108.38"/><line class="cls-3" x1="264.58" y1="108.53" x2="257.57" y2="104.56"/><line class="cls-3" x1="266.41" y1="105.33" x2="259.55" y2="101.51"/><path class="cls-3" d="M313.5,156.38s6.63,6,13,7.65" transform="translate(-22.2 -19.61)"/><path class="cls-3" d="M288.09,128.4a8.07,8.07,0,0,0,5.07,2.62" transform="translate(-22.2 -19.61)"/><path class="cls-7" d="M239.24,136.41s0,9.29-1.4,13.65-5.24,3.51-8.4,2.93-16.71,2.67-16.71,2.67l-22.38,4,6.38,23.67s13,.15,15.1,1.93,4.22,14.31,4.19,15.29,2.48,39.2,2.27,46.29-.77,9-.77,9,21.79-.56,34.48.31,30.82-.29,30.82-.29-2.09-36-2.64-42.14,2-26.6,3.84-29.72,14.83-5.18,14.83-5.18l6.36-24.26s-18.76-2.28-23.9-2.44l-23.7-.71s-2.61-10.6-2.49-14.51Z" transform="translate(-22.2 -19.61)"/><path class="cls-7" d="M262.35,151.54l-4.74-.14s-2.61-10.6-2.49-14.51l-15.88-.48s0,9.29-1.4,13.65c-1.07,3.46-3.73,3.64-6.37,3.27.88,4,4.24,14.3,15.71,15.37C257.72,169.68,261.23,157.86,262.35,151.54Z" transform="translate(-22.2 -19.61)"/><path class="cls-8" d="M255.12,137.3l-.54-.43-13-.39-2.34,1.42c0,1.11-.09,2.74-.22,4.51,2.35,2.14,5.9,4.85,9.34,5.42,2.91.48,5.72-1.18,7.84-3A48.62,48.62,0,0,1,255.12,137.3Z" transform="translate(-22.2 -19.61)"/><path class="cls-3" d="M234.24,172.44a38.94,38.94,0,0,0,1.61,3.59" transform="translate(-22.2 -19.61)"/><path class="cls-3" d="M229.85,156.36a113.92,113.92,0,0,0,3.41,13.32" transform="translate(-22.2 -19.61)"/><path class="cls-3" d="M225.85,157.7s1.33,14,3.33,20" transform="translate(-22.2 -19.61)"/><path class="cls-3" d="M267.32,166.13a42.9,42.9,0,0,1-3.14,4.23" transform="translate(-22.2 -19.61)"/><path class="cls-3" d="M273.85,153.7a80.43,80.43,0,0,1-5.3,10.48" transform="translate(-22.2 -19.61)"/><path class="cls-3" d="M274.52,159.7s-3.67,12.66-7.67,16.66" transform="translate(-22.2 -19.61)"/><path class="cls-7" d="M249.46,97.59s-9.32,9-13.06,11.34a62.63,62.63,0,0,0-5.49,3.75l1.25,7.13s-3.07-3.76-4.66.35,2.94,7.91,3.9,8.68a10.83,10.83,0,0,0,2.16,1.28s3.47,6.47,5.13,8.23,6.88,6.81,11.82,5.25,8.5-5.86,10-8.26a29.3,29.3,0,0,0,2.65-7s6.27-5.19,5.16-8.89a3.35,3.35,0,0,0-4.57-2.34l-.75-7.61S252.26,102.08,249.46,97.59Z" transform="translate(-22.2 -19.61)"/><polyline class="cls-3" points="227.25 94.61 228.43 104.18 224.02 104.3"/><path class="cls-3" d="M236.76,113.35s2.3-3.36,7.14-1.74" transform="translate(-22.2 -19.61)"/><path class="cls-3" d="M250.51,111.32a8.5,8.5,0,0,1,7.79,1.21" transform="translate(-22.2 -19.61)"/><path class="cls-3" d="M242.42,128.19a11.09,11.09,0,0,0,11.75-.38" transform="translate(-22.2 -19.61)"/><path class="cls-4" d="M243,117.45c0,1.08-.61,1.94-1.28,1.92s-1.2-.92-1.16-2,.6-1.93,1.28-1.91S243,116.37,243,117.45Z" transform="translate(-22.2 -19.61)"/><path class="cls-4" d="M255.72,116.85c0,1.08-.6,1.94-1.28,1.92s-1.19-.91-1.16-2,.61-1.94,1.28-1.92S255.76,115.78,255.72,116.85Z" transform="translate(-22.2 -19.61)"/><path class="cls-5" d="M242,203.66a33.64,33.64,0,0,1-1.73-5.84c-.87-3.89-4.33-5.84-6.06-.65s-1.08,8.22,2,10.82,5.19,1.51,5.19,1.51Z" transform="translate(-22.2 -19.61)"/><path class="cls-6" d="M236.32,195.44a10.92,10.92,0,0,0-.43,7.57,7.45,7.45,0,0,0,5,5" transform="translate(-22.2 -19.61)"/><path class="cls-6" d="M237.62,195.22s-.86,4.11.43,6.71a7.34,7.34,0,0,0,3.68,3.46" transform="translate(-22.2 -19.61)"/><path class="cls-5" d="M259.47,209.05a31,31,0,0,0,1.55-5.23c.77-3.49,3.87-5.23,5.42-.58s1,7.36-1.74,9.69-4.65,1.35-4.65,1.35Z" transform="translate(-22.2 -19.61)"/><path class="cls-6" d="M264.51,201.69a9.76,9.76,0,0,1,.38,6.78,6.66,6.66,0,0,1-4.45,4.46" transform="translate(-22.2 -19.61)"/><path class="cls-6" d="M263.34,201.49s.78,3.69-.38,6a6.6,6.6,0,0,1-3.3,3.1" transform="translate(-22.2 -19.61)"/><path class="cls-5" d="M240.43,218.8s-.86-14.06,1.3-20.55,10.6-10.81,14.71-4.11,5.19,18.17,5,23.8Z" transform="translate(-22.2 -19.61)"/><path class="cls-6" d="M249.09,192s-5,6.06-5.85,13.19a40.64,40.64,0,0,0,.65,13.2" transform="translate(-22.2 -19.61)"/><line class="cls-6" x1="228.83" y1="172.8" x2="228.15" y2="199.58"/><path class="cls-6" d="M252.76,192.2s6.27,13,4.54,26.6" transform="translate(-22.2 -19.61)"/><path class="cls-7" d="M238.05,219.45l.53,12.62a3.08,3.08,0,0,0,3.08,3h17.88a3.08,3.08,0,0,0,3.08-3l.52-12.4Z" transform="translate(-22.2 -19.61)"/><rect class="cls-7" x="213.65" y="197.25" width="29" height="4.67" rx="1.61"/><line class="cls-3" x1="218.11" y1="195.42" x2="216.42" y2="195.16"/><line class="cls-3" x1="217.59" y1="192.43" x2="215.51" y2="192.69"/><line class="cls-3" x1="215.51" y1="189.83" x2="214.33" y2="191.39"/><line class="cls-3" x1="212.77" y1="187.88" x2="210.82" y2="188.53"/><line class="cls-3" x1="209.52" y1="185.8" x2="211.21" y2="184.88"/><line class="cls-3" x1="208.87" y1="182.28" x2="211.21" y2="182.15"/><line class="cls-3" x1="209.78" y1="178.64" x2="211.34" y2="178.9"/><line class="cls-3" x1="210.56" y1="175.26" x2="212.12" y2="176.56"/><line class="cls-3" x1="213.29" y1="172.52" x2="214.2" y2="174.22"/><line class="cls-3" x1="216.81" y1="172.39" x2="216.42" y2="175"/><line class="cls-3" x1="218.76" y1="175.52" x2="217.59" y2="176.69"/><line class="cls-3" x1="219.54" y1="173.7" x2="220.84" y2="175.52"/><line class="cls-3" x1="222.14" y1="171.48" x2="223.31" y2="172.65"/><line class="cls-3" x1="225.13" y1="168.75" x2="226.04" y2="171.87"/><line class="cls-3" x1="229.69" y1="168.49" x2="229.69" y2="171.35"/><line class="cls-3" x1="234.89" y1="170.18" x2="233.07" y2="172.39"/><line class="cls-3" x1="236.97" y1="173.96" x2="235.28" y2="176.04"/><line class="cls-3" x1="238.01" y1="178.25" x2="236.32" y2="179.03"/><line class="cls-3" x1="238.01" y1="180.98" x2="239.19" y2="182.67"/><line class="cls-3" x1="240.49" y1="178.9" x2="240.88" y2="180.46"/><line class="cls-3" x1="244.78" y1="179.81" x2="243.74" y2="182.15"/><line class="cls-3" x1="244.78" y1="185.01" x2="246.73" y2="183.84"/><line class="cls-3" x1="245.17" y1="188.79" x2="247.25" y2="188.79"/><line class="cls-3" x1="244.13" y1="192.3" x2="245.69" y2="193.34"/><line class="cls-3" x1="241.53" y1="194.12" x2="241.92" y2="195.42"/><path class="cls-4" d="M240.91,179.74v.75H240v-.8c0-.75-.3-1.21-1-1.21s-1,.46-1,1.21v4.44c0,.75.31,1.21,1,1.21s1-.46,1-1.21V183h.89v1c0,1.27-.6,2.11-1.89,2.11s-1.89-.84-1.89-2.11v-4.34c0-1.27.6-2.11,1.89-2.11S240.91,178.47,240.91,179.74Z" transform="translate(-22.2 -19.61)"/><path class="cls-4" d="M242.71,184.42l-.32,1.69h-.86l1.6-8.4h1.36l1.6,8.4h-.93l-.33-1.69Zm.12-.81h1.87l-.94-4.84Z" transform="translate(-22.2 -19.61)"/><path class="cls-4" d="M250.52,179.74v.75h-.88v-.8c0-.75-.3-1.21-1-1.21s-1,.46-1,1.21v4.44c0,.75.31,1.21,1,1.21s1-.46,1-1.21V183h.88v1c0,1.27-.6,2.11-1.89,2.11s-1.88-.84-1.88-2.11v-4.34c0-1.27.6-2.11,1.88-2.11S250.52,178.47,250.52,179.74Z" transform="translate(-22.2 -19.61)"/><path class="cls-4" d="M252.59,186.11v-7.55H251v-.85h4v.85h-1.55v7.55Z" transform="translate(-22.2 -19.61)"/><path class="cls-4" d="M256.58,184.13c0,.75.3,1.21,1,1.21s1-.46,1-1.21v-6.42h.87v6.37c0,1.27-.58,2.12-1.88,2.12s-1.87-.85-1.87-2.12v-6.37h.92Z" transform="translate(-22.2 -19.61)"/><path class="cls-4" d="M264,179.73V180h-.88v-.27c0-.76-.29-1.2-1-1.2s-1,.44-1,1.19c0,1.88,2.82,2.06,2.82,4.42,0,1.27-.61,2.1-1.9,2.1s-1.88-.83-1.88-2.1v-.48h.87v.53c0,.76.32,1.2,1,1.2s1-.44,1-1.2c0-1.87-2.8-2-2.8-4.41,0-1.3.59-2.1,1.85-2.1S264,178.46,264,179.73Z" transform="translate(-22.2 -19.61)"/><path class="cls-4" d="M239.7,246.35V238h.94v7.54H243v.85Z" transform="translate(-22.2 -19.61)"/><path class="cls-4" d="M243.67,240c0-1.28.64-2.11,1.92-2.11s1.93.83,1.93,2.11v4.34c0,1.28-.63,2.12-1.93,2.12s-1.92-.84-1.92-2.12Zm.93,4.39c0,.77.32,1.21,1,1.21s1-.44,1-1.21v-4.43c0-.76-.31-1.22-1-1.22s-1,.46-1,1.22Z" transform="translate(-22.2 -19.61)"/><path class="cls-4" d="M249.11,238l1.37,7.3,1.35-7.3h.87l-1.58,8.39h-1.37L248.16,238Z" transform="translate(-22.2 -19.61)"/><path class="cls-4" d="M256.4,241.67v.84h-2v3h2.52v.85h-3.45V238h3.45v.85h-2.52v2.86Z" transform="translate(-22.2 -19.61)"/><path class="cls-4" d="M259.61,238c1.32,0,1.87.67,1.87,1.92v.68c0,.92-.32,1.5-1,1.73.76.22,1.05.85,1.05,1.75v1.3a2.05,2.05,0,0,0,.17,1h-1a2.18,2.18,0,0,1-.15-1V244c0-.94-.45-1.24-1.23-1.24h-.66v3.58h-.93V238Zm-.24,3.95c.74,0,1.19-.24,1.19-1.15V240c0-.76-.28-1.15-1-1.15h-.92v3.1Z" transform="translate(-22.2 -19.61)"/></g></svg>