<svg id="visual" viewBox="0 0 960 540" width="960" height="540" xmlns="http://www.w3.org/2000/svg" xmlns:xlink="http://www.w3.org/1999/xlink" version="1.1"><rect x="0" y="0" width="960" height="540" fill="#001220"></rect><defs><linearGradient id="grad1_0" x1="43.8%" y1="100%" x2="100%" y2="0%"><stop offset="14.444444444444446%" stop-color="#4fc287" stop-opacity="1"></stop><stop offset="85.55555555555554%" stop-color="#4fc287" stop-opacity="1"></stop></linearGradient></defs><defs><linearGradient id="grad1_1" x1="43.8%" y1="100%" x2="100%" y2="0%"><stop offset="14.444444444444446%" stop-color="#4fc287" stop-opacity="1"></stop><stop offset="85.55555555555554%" stop-color="#006571" stop-opacity="1"></stop></linearGradient></defs><defs><linearGradient id="grad1_2" x1="43.8%" y1="100%" x2="100%" y2="0%"><stop offset="14.444444444444446%" stop-color="#001220" stop-opacity="1"></stop><stop offset="85.55555555555554%" stop-color="#006571" stop-opacity="1"></stop></linearGradient></defs><defs><linearGradient id="grad2_0" x1="0%" y1="100%" x2="56.3%" y2="0%"><stop offset="14.444444444444446%" stop-color="#4fc287" stop-opacity="1"></stop><stop offset="85.55555555555554%" stop-color="#4fc287" stop-opacity="1"></stop></linearGradient></defs><defs><linearGradient id="grad2_1" x1="0%" y1="100%" x2="56.3%" y2="0%"><stop offset="14.444444444444446%" stop-color="#006571" stop-opacity="1"></stop><stop offset="85.55555555555554%" stop-color="#4fc287" stop-opacity="1"></stop></linearGradient></defs><defs><linearGradient id="grad2_2" x1="0%" y1="100%" x2="56.3%" y2="0%"><stop offset="14.444444444444446%" stop-color="#006571" stop-opacity="1"></stop><stop offset="85.55555555555554%" stop-color="#001220" stop-opacity="1"></stop></linearGradient></defs><g transform="translate(960, 540)"><path d="M-486 0C-476.4 -63.7 -466.7 -127.3 -441.6 -182.9C-416.5 -238.5 -376 -286.1 -332.3 -332.3C-288.7 -378.6 -241.9 -423.6 -186 -449C-130.1 -474.4 -65 -480.2 0 -486L0 0Z" fill="#00394d"></path><path d="M-324 0C-317.6 -42.4 -311.1 -84.9 -294.4 -121.9C-277.7 -159 -250.7 -190.7 -221.6 -221.6C-192.5 -252.4 -161.3 -282.4 -124 -299.3C-86.7 -316.3 -43.4 -320.1 0 -324L0 0Z" fill="#009485"></path><path d="M-162 0C-158.8 -21.2 -155.6 -42.4 -147.2 -61C-138.8 -79.5 -125.3 -95.4 -110.8 -110.8C-96.2 -126.2 -80.6 -141.2 -62 -149.7C-43.4 -158.1 -21.7 -160.1 0 -162L0 0Z" fill="#4fc287"></path></g><g transform="translate(0, 0)"><path d="M486 0C485.9 70.8 485.8 141.7 449 186C412.2 230.3 338.6 248.2 292.7 292.7C246.9 337.3 228.6 408.6 184.5 445.3C140.3 482 70.1 484 0 486L0 0Z" fill="#00394d"></path><path d="M324 0C323.9 47.2 323.9 94.4 299.3 124C274.8 153.5 225.8 165.4 195.2 195.2C164.6 224.9 152.4 272.4 123 296.9C93.5 321.3 46.8 322.7 0 324L0 0Z" fill="#009485"></path><path d="M162 0C162 23.6 161.9 47.2 149.7 62C137.4 76.8 112.9 82.7 97.6 97.6C82.3 112.4 76.2 136.2 61.5 148.4C46.8 160.7 23.4 161.3 0 162L0 0Z" fill="#4fc287"></path></g></svg>