<svg id="visual" viewBox="0 0 1920 1080" width="1920" height="1080" xmlns="http://www.w3.org/2000/svg" xmlns:xlink="http://www.w3.org/1999/xlink" version="1.1"><path d="M0 152L29.2 152C58.3 152 116.7 152 174.8 139.5C233 127 291 102 349.2 91.2C407.3 80.3 465.7 83.7 523.8 98C582 112.3 640 137.7 698.2 150.3C756.3 163 814.7 163 872.8 159.3C931 155.7 989 148.3 1047.2 148.3C1105.3 148.3 1163.7 155.7 1221.8 163C1280 170.3 1338 177.7 1396.2 177.7C1454.3 177.7 1512.7 170.3 1570.8 166.7C1629 163 1687 163 1745.2 164.8C1803.3 166.7 1861.7 170.3 1890.8 172.2L1920 174L1920 0L1890.8 0C1861.7 0 1803.3 0 1745.2 0C1687 0 1629 0 1570.8 0C1512.7 0 1454.3 0 1396.2 0C1338 0 1280 0 1221.8 0C1163.7 0 1105.3 0 1047.2 0C989 0 931 0 872.8 0C814.7 0 756.3 0 698.2 0C640 0 582 0 523.8 0C465.7 0 407.3 0 349.2 0C291 0 233 0 174.8 0C116.7 0 58.3 0 29.2 0L0 0Z" fill="#91b7c3"></path><path d="M0 314L29.2 317.7C58.3 321.3 116.7 328.7 174.8 317.8C233 307 291 278 349.2 296C407.3 314 465.7 379 523.8 398.8C582 418.7 640 393.3 698.2 400.5C756.3 407.7 814.7 447.3 872.8 487C931 526.7 989 566.3 1047.2 555.5C1105.3 544.7 1163.7 483.3 1221.8 472.5C1280 461.7 1338 501.3 1396.2 526.5C1454.3 551.7 1512.7 562.3 1570.8 573.2C1629 584 1687 595 1745.2 553.7C1803.3 512.3 1861.7 418.7 1890.8 371.8L1920 325L1920 172L1890.8 170.2C1861.7 168.3 1803.3 164.7 1745.2 162.8C1687 161 1629 161 1570.8 164.7C1512.7 168.3 1454.3 175.7 1396.2 175.7C1338 175.7 1280 168.3 1221.8 161C1163.7 153.7 1105.3 146.3 1047.2 146.3C989 146.3 931 153.7 872.8 157.3C814.7 161 756.3 161 698.2 148.3C640 135.7 582 110.3 523.8 96C465.7 81.7 407.3 78.3 349.2 89.2C291 100 233 125 174.8 137.5C116.7 150 58.3 150 29.2 150L0 150Z" fill="#79a7b7"></path><path d="M0 509L29.2 501.7C58.3 494.3 116.7 479.7 174.8 474.2C233 468.7 291 472.3 349.2 488.7C407.3 505 465.7 534 523.8 541.2C582 548.3 640 533.7 698.2 551.7C756.3 569.7 814.7 620.3 872.8 660C931 699.7 989 728.3 1047.2 719.3C1105.3 710.3 1163.7 663.7 1221.8 645.7C1280 627.7 1338 638.3 1396.2 650.8C1454.3 663.3 1512.7 677.7 1570.8 688.5C1629 699.3 1687 706.7 1745.2 672.5C1803.3 638.3 1861.7 562.7 1890.8 524.8L1920 487L1920 323L1890.8 369.8C1861.7 416.7 1803.3 510.3 1745.2 551.7C1687 593 1629 582 1570.8 571.2C1512.7 560.3 1454.3 549.7 1396.2 524.5C1338 499.3 1280 459.7 1221.8 470.5C1163.7 481.3 1105.3 542.7 1047.2 553.5C989 564.3 931 524.7 872.8 485C814.7 445.3 756.3 405.7 698.2 398.5C640 391.3 582 416.7 523.8 396.8C465.7 377 407.3 312 349.2 294C291 276 233 305 174.8 315.8C116.7 326.7 58.3 319.3 29.2 315.7L0 312Z" fill="#6097ab"></path><path d="M0 660L29.2 642C58.3 624 116.7 588 174.8 580.8C233 573.7 291 595.3 349.2 615.2C407.3 635 465.7 653 523.8 671C582 689 640 707 698.2 734C756.3 761 814.7 797 872.8 816.7C931 836.3 989 839.7 1047.2 832.3C1105.3 825 1163.7 807 1221.8 794.5C1280 782 1338 775 1396.2 782.3C1454.3 789.7 1512.7 811.3 1570.8 814.8C1629 818.3 1687 803.7 1745.2 771.2C1803.3 738.7 1861.7 688.3 1890.8 663.2L1920 638L1920 485L1890.8 522.8C1861.7 560.7 1803.3 636.3 1745.2 670.5C1687 704.7 1629 697.3 1570.8 686.5C1512.7 675.7 1454.3 661.3 1396.2 648.8C1338 636.3 1280 625.7 1221.8 643.7C1163.7 661.7 1105.3 708.3 1047.2 717.3C989 726.3 931 697.7 872.8 658C814.7 618.3 756.3 567.7 698.2 549.7C640 531.7 582 546.3 523.8 539.2C465.7 532 407.3 503 349.2 486.7C291 470.3 233 466.7 174.8 472.2C116.7 477.7 58.3 492.3 29.2 499.7L0 507Z" fill="#538394"></path><path d="M0 1081L29.2 1081C58.3 1081 116.7 1081 174.8 1081C233 1081 291 1081 349.2 1081C407.3 1081 465.7 1081 523.8 1081C582 1081 640 1081 698.2 1081C756.3 1081 814.7 1081 872.8 1081C931 1081 989 1081 1047.2 1081C1105.3 1081 1163.7 1081 1221.8 1081C1280 1081 1338 1081 1396.2 1081C1454.3 1081 1512.7 1081 1570.8 1081C1629 1081 1687 1081 1745.2 1081C1803.3 1081 1861.7 1081 1890.8 1081L1920 1081L1920 636L1890.8 661.2C1861.7 686.3 1803.3 736.7 1745.2 769.2C1687 801.7 1629 816.3 1570.8 812.8C1512.7 809.3 1454.3 787.7 1396.2 780.3C1338 773 1280 780 1221.8 792.5C1163.7 805 1105.3 823 1047.2 830.3C989 837.7 931 834.3 872.8 814.7C814.7 795 756.3 759 698.2 732C640 705 582 687 523.8 669C465.7 651 407.3 633 349.2 613.2C291 593.3 233 571.7 174.8 578.8C116.7 586 58.3 622 29.2 640L0 658Z" fill="#466f7e"></path></svg>