<svg id="visual" viewBox="0 0 1920 1080" width="1920" height="1080" xmlns="http://www.w3.org/2000/svg" xmlns:xlink="http://www.w3.org/1999/xlink" version="1.1"><rect x="0" y="0" width="1920" height="1080" fill="#001220"></rect><defs><linearGradient id="grad1_0" x1="43.8%" y1="0%" x2="100%" y2="100%"><stop offset="14.444444444444446%" stop-color="#6bb97b" stop-opacity="1"></stop><stop offset="85.55555555555554%" stop-color="#6bb97b" stop-opacity="1"></stop></linearGradient></defs><defs><linearGradient id="grad1_1" x1="43.8%" y1="0%" x2="100%" y2="100%"><stop offset="14.444444444444446%" stop-color="#6bb97b" stop-opacity="1"></stop><stop offset="85.55555555555554%" stop-color="#168e79" stop-opacity="1"></stop></linearGradient></defs><defs><linearGradient id="grad1_2" x1="43.8%" y1="0%" x2="100%" y2="100%"><stop offset="14.444444444444446%" stop-color="#006269" stop-opacity="1"></stop><stop offset="85.55555555555554%" stop-color="#168e79" stop-opacity="1"></stop></linearGradient></defs><defs><linearGradient id="grad1_3" x1="43.8%" y1="0%" x2="100%" y2="100%"><stop offset="14.444444444444446%" stop-color="#006269" stop-opacity="1"></stop><stop offset="85.55555555555554%" stop-color="#003849" stop-opacity="1"></stop></linearGradient></defs><defs><linearGradient id="grad1_4" x1="43.8%" y1="0%" x2="100%" y2="100%"><stop offset="14.444444444444446%" stop-color="#001220" stop-opacity="1"></stop><stop offset="85.55555555555554%" stop-color="#003849" stop-opacity="1"></stop></linearGradient></defs><defs><linearGradient id="grad2_0" x1="0%" y1="0%" x2="56.3%" y2="100%"><stop offset="14.444444444444446%" stop-color="#6bb97b" stop-opacity="1"></stop><stop offset="85.55555555555554%" stop-color="#6bb97b" stop-opacity="1"></stop></linearGradient></defs><defs><linearGradient id="grad2_1" x1="0%" y1="0%" x2="56.3%" y2="100%"><stop offset="14.444444444444446%" stop-color="#168e79" stop-opacity="1"></stop><stop offset="85.55555555555554%" stop-color="#6bb97b" stop-opacity="1"></stop></linearGradient></defs><defs><linearGradient id="grad2_2" x1="0%" y1="0%" x2="56.3%" y2="100%"><stop offset="14.444444444444446%" stop-color="#168e79" stop-opacity="1"></stop><stop offset="85.55555555555554%" stop-color="#006269" stop-opacity="1"></stop></linearGradient></defs><defs><linearGradient id="grad2_3" x1="0%" y1="0%" x2="56.3%" y2="100%"><stop offset="14.444444444444446%" stop-color="#003849" stop-opacity="1"></stop><stop offset="85.55555555555554%" stop-color="#006269" stop-opacity="1"></stop></linearGradient></defs><defs><linearGradient id="grad2_4" x1="0%" y1="0%" x2="56.3%" y2="100%"><stop offset="14.444444444444446%" stop-color="#003849" stop-opacity="1"></stop><stop offset="85.55555555555554%" stop-color="#001220" stop-opacity="1"></stop></linearGradient></defs><g transform="translate(1920, 0)"><path d="M0 972C-124.8 935.4 -249.7 898.9 -346.3 836.1C-443 773.3 -511.4 684.4 -608.8 608.8C-706.2 533.3 -832.6 471.2 -898 372C-963.4 272.7 -967.7 136.4 -972 0L0 0Z" fill="#002435"></path><path d="M0 777.6C-99.9 748.4 -199.8 719.1 -277.1 668.9C-354.4 618.7 -409.1 547.5 -487.1 487.1C-565 426.6 -666.1 377 -718.4 297.6C-770.7 218.2 -774.1 109.1 -777.6 0L0 0Z" fill="#004d5b"></path><path d="M0 583.2C-74.9 561.3 -149.8 539.3 -207.8 501.7C-265.8 464 -306.8 410.6 -365.3 365.3C-423.7 320 -499.6 282.7 -538.8 223.2C-578 163.6 -580.6 81.8 -583.2 0L0 0Z" fill="#007873"></path><path d="M0 388.8C-49.9 374.2 -99.9 359.6 -138.5 334.4C-177.2 309.3 -204.6 273.7 -243.5 243.5C-282.5 213.3 -333.1 188.5 -359.2 148.8C-385.3 109.1 -387.1 54.5 -388.8 0L0 0Z" fill="#43a47b"></path><path d="M0 194.4C-25 187.1 -49.9 179.8 -69.3 167.2C-88.6 154.7 -102.3 136.9 -121.8 121.8C-141.2 106.7 -166.5 94.2 -179.6 74.4C-192.7 54.5 -193.5 27.3 -194.4 0L0 0Z" fill="#6bb97b"></path></g><g transform="translate(0, 1080)"><path d="M0 -972C124.2 -949.9 248.5 -927.9 366.2 -884.2C484 -840.4 595.3 -775 687.3 -687.3C779.3 -599.6 851.9 -489.5 896.2 -371.2C940.4 -252.9 956.2 -126.5 972 0L0 0Z" fill="#002435"></path><path d="M0 -777.6C99.4 -760 198.8 -742.3 293 -707.3C387.2 -672.3 476.3 -620 549.8 -549.8C623.4 -479.7 681.5 -391.6 716.9 -297C752.3 -202.3 765 -101.2 777.6 0L0 0Z" fill="#004d5b"></path><path d="M0 -583.2C74.5 -570 149.1 -556.7 219.7 -530.5C290.4 -504.3 357.2 -465 412.4 -412.4C467.6 -359.7 511.2 -293.7 537.7 -222.7C564.2 -151.8 573.7 -75.9 583.2 0L0 0Z" fill="#007873"></path><path d="M0 -388.8C49.7 -380 99.4 -371.2 146.5 -353.7C193.6 -336.2 238.1 -310 274.9 -274.9C311.7 -239.8 340.8 -195.8 358.5 -148.5C376.2 -101.2 382.5 -50.6 388.8 0L0 0Z" fill="#43a47b"></path><path d="M0 -194.4C24.8 -190 49.7 -185.6 73.2 -176.8C96.8 -168.1 119.1 -155 137.5 -137.5C155.9 -119.9 170.4 -97.9 179.2 -74.2C188.1 -50.6 191.2 -25.3 194.4 0L0 0Z" fill="#6bb97b"></path></g></svg>