<svg xmlns="http://www.w3.org/2000/svg" xmlns:xlink="http://www.w3.org/1999/xlink" viewBox="0 0 750 500"><defs><style>.cls-1,.cls-11,.cls-18,.cls-26,.cls-27,.cls-29,.cls-32,.cls-36,.cls-44,.cls-45,.cls-5,.cls-50,.cls-52,.cls-53,.cls-54,.cls-55,.cls-6,.cls-7{fill:none;}.cls-2{fill:#a7d8e7;}.cls-3{fill:#2a1e27;}.cls-4,.cls-52,.cls-53{opacity:0.23;}.cls-26,.cls-27,.cls-5,.cls-52,.cls-53,.cls-6,.cls-7{stroke:#2a1e27;}.cls-11,.cls-18,.cls-26,.cls-27,.cls-29,.cls-32,.cls-36,.cls-44,.cls-45,.cls-5,.cls-50,.cls-52,.cls-53,.cls-54,.cls-55,.cls-6,.cls-62,.cls-7{stroke-miterlimit:10;}.cls-5,.cls-52{stroke-width:0.75px;}.cls-6{stroke-width:0.75px;}.cls-7{stroke-width:0.73px;}.cls-8{fill:#a42201;}.cls-9{fill:#2b0c15;}.cls-10{fill:#fff;}.cls-11{stroke:#fff;}.cls-11,.cls-18,.cls-54{stroke-width:0.5px;}.cls-12{fill:#e03d27;}.cls-13{clip-path:url(#clip-path);}.cls-14{fill:#c60202;}.cls-15{fill:#9e0505;}.cls-16{fill:red;opacity:0.51;}.cls-17{fill:#ee6e65;}.cls-18{stroke:#2b0c15;}.cls-19{fill:#351a02;}.cls-20{fill:#281903;}.cls-21{fill:#576410;}.cls-22{fill:#1d2805;}.cls-23{fill:#eea641;}.cls-24{fill:#ce6d0d;}.cls-25{clip-path:url(#clip-path-2);}.cls-26{stroke-width:0.74px;}.cls-27{stroke-width:0.64px;}.cls-28{fill:#4c360a;}.cls-29{stroke:#191102;stroke-width:1.82px;}.cls-30{fill:#f4c7c1;}.cls-31{fill:#e08a22;}.cls-32{stroke:#595757;}.cls-32,.cls-36{stroke-width:0.46px;}.cls-33{fill:#cc7e1f;}.cls-34{fill:#881c6c;}.cls-35{fill:#f2e342;}.cls-36,.cls-54,.cls-55{stroke:#1d2805;}.cls-37{fill:#34420b;}.cls-38{fill:#c12910;}.cls-39{fill:#efc2b9;}.cls-40{fill:#fedfd7;}.cls-41{fill:#e74a27;}.cls-42{clip-path:url(#clip-path-3);}.cls-43{fill:#603102;}.cls-44,.cls-50{stroke:#030303;}.cls-44{stroke-width:0.4px;}.cls-45{stroke:#589ec4;stroke-width:0.91px;}.cls-46{fill:#589ec4;}.cls-47{fill:#d3091d;}.cls-48,.cls-49,.cls-65{fill:#fa1e23;}.cls-49{opacity:0.38;}.cls-50{stroke-width:0.45px;}.cls-51{fill:#030303;}.cls-53{stroke-width:0.75px;}.cls-55{stroke-width:0.5px;}.cls-56{fill:#d37e18;}.cls-57{fill:#f7ccc4;}.cls-58{fill:#374b9d;}.cls-59{fill:#ed6e39;}.cls-60{fill:#f0ec90;}.cls-61{clip-path:url(#clip-path-4);}.cls-62{fill:#fefffe;stroke:#fefffe;stroke-width:0.24px;}.cls-63{clip-path:url(#clip-path-5);}.cls-64{fill:#bc0822;}.cls-65{opacity:0.24;}</style><clipPath id="clip-path"><path class="cls-1" d="M611.17,146.92a26,26,0,0,0-8.77-1.72c.38-1.3,1-4,.09-4.71-9.92,1.39-17.06-1.71-18.76-1.55-1.12.1-1.17,2.74-1.07,4.54-1,.07-5.08.86-7,1.15,0,.57,1.56,2.23,1.62,2.81.42,4.61,2.56,7.4,3.77,11.86s2.29,9.06,3.89,13.43c11.5,11.14,24.06,12.62,28.37,5.82.05-1.38.08-3.81,0-6.74l1,12.07s2.56,1.17,15.35-4.18C623.19,145,611.17,146.92,611.17,146.92Z"/></clipPath><clipPath id="clip-path-2"><path class="cls-1" d="M583.9,174.24a.46.46,0,0,1-.21-.24c-1-2.61-.6-5.25-1.31-7.94a50.71,50.71,0,0,0-5.62-12.94c-1.23-2.14-2.72-5.62-4.08-7.83-5.19.85-8.11,2.06-11.22,6.4-5.35,7.44-2.68,46.86,26,58,17,4.18,21.28.81,21.28.81s-2.9-9.42,1.28-15.23C604,193.53,587.46,186.21,583.9,174.24Z"/></clipPath><clipPath id="clip-path-3"><path class="cls-1" d="M233.62,181.42s8.14,3.18,15.9,2.87,13.25-1.4,15.42-2.95c-1.55,3.41-1.55,6.82.31,8.06s1.55,34.11,1.55,34.11-17.05,7.45-35,0c-.62-12.71,0-33.49,0-33.49S234.86,184.52,233.62,181.42Z"/></clipPath><clipPath id="clip-path-4"><path class="cls-1" d="M433.3,142.91c4.3,1,17.1,4.35,17.1,4.35s-3.57,13.27,1.54,20.93c3.83,12.51,24.51,137.87,24.51,137.87s-28.09,5.88-42.13,3.32-26-4.08-30.38-1.78c2.29-14.56,10.21-122.56,9.7-134.81s8.17-25.28,8.93-32.43C430.74,142.4,430.61,142.31,433.3,142.91Z"/></clipPath><clipPath id="clip-path-5"><path class="cls-1" d="M399.39,189.11c.42.21,3.4-8.64,7.85-11-4.59-4.92-3.71-4.62-7.41-11.17s-4.66-9-6.74-9.35-.22,5.18.67,6.37-7.7-12.66-11.11-14.6-4.44,0-.88,5.81,4.29,6.11,4.29,6.11-11.11-9.09-13.18-8.49.73,6,7.33,11.17c1.58,1.22,2.74,3.87-3.18-.15S367,159,367.55,161.56s10.07,8.63,10.51,10-8.73-1-10.95.3,6.36,4,10.51,4.17C379.1,176.45,396.72,187.77,399.39,189.11Z"/></clipPath></defs><g id="BACKGROUND"><rect class="cls-2" width="750" height="500"/></g><g id="OBJECTS"><path class="cls-3" d="M37.49,458.56H691c8.82,0,17.67.19,26.49,0h1.16a.75.75,0,0,0,0-1.5H65.14c-8.82,0-17.67-.19-26.49,0H37.49a.75.75,0,0,0,0,1.5Z"/><g class="cls-4"><rect class="cls-5" x="556.28" y="76.7" width="155.91" height="257.64" rx="77.96"/><line class="cls-5" x1="634.23" y1="76.7" x2="634.23" y2="334.34"/><line class="cls-6" x1="556.53" y1="140.85" x2="712.11" y2="140.85"/><line class="cls-5" x1="556.11" y1="206.83" x2="712.02" y2="206.83"/><line class="cls-7" x1="559.6" y1="275.45" x2="708.7" y2="275.45"/></g><path class="cls-8" d="M626.66,180.7s12.6,25,19.83,30.13c-10.89,5.36-17.28,1.28-17.28,1.28s-11.74-20.43-11.49-28.85S626.66,180.7,626.66,180.7Z"/><circle class="cls-9" cx="591.17" cy="113.72" r="36"/><path class="cls-10" d="M612.25,129.68a3.19,3.19,0,1,1-3.58-2.76A3.18,3.18,0,0,1,612.25,129.68Z"/><path class="cls-10" d="M610.15,123.64a.7.7,0,1,1-.79-.6A.7.7,0,0,1,610.15,123.64Z"/><line class="cls-11" x1="609.5" y1="123.99" x2="609.32" y2="128.13"/><path class="cls-12" d="M583.28,116.79s-2.07-3-4.74-1.47-2.58,8.06,2.55,7.94S583.28,116.79,583.28,116.79Z"/><path class="cls-12" d="M586.32,130l-1.92,13.77s8.52,5.74,16.28.46a29.34,29.34,0,0,0,1.08-8.37Z"/><path class="cls-10" d="M611.06,147.08a26,26,0,0,0-8.77-1.72c.38-1.3,1-4,.09-4.71-9.92,1.39-17-1.71-18.76-1.55-1.12.1-1.17,2.74-1.07,4.54-1,.07-5.08.86-7,1.15,0,.57,1.56,2.23,1.62,2.81.42,4.61,2.56,7.4,3.78,11.86s2.29,9.06,3.88,13.43c11.5,11.14,24.07,12.62,28.37,5.82.06-1.38.08-3.81.05-6.74l1,12.07s2.56,1.17,15.35-4.18C623.08,145.2,611.06,147.08,611.06,147.08Z"/><g class="cls-13"><path class="cls-9" d="M558.66,166.74s3.74,4.77,4.08,8.17,2.73,9.54,2.73,9.54,2.72,4.42,2,7.15,4.43,11.57,4.43,11.57,2,9.87,1,14-2.39,0-2.39,0,1.37-6.64-.34-11.75-4-9.16-4.42-14.29c-.34-4.43-2.38-6.64-4.09-9.71s.68-7.15-1.7-9.19S558.66,166.74,558.66,166.74Z"/><path class="cls-9" d="M560.15,147.09s4.42,5.63,4.82,9.65S568.19,168,568.19,168s3.22,5.23,2.42,8.45,5.23,13.68,5.23,13.68,2.41,11.67,1.21,16.5-1.54-1.26-1.54-1.26a39.34,39.34,0,0,0-1.68-12.62c-2-6-4.77-10.83-5.23-16.9-.41-5.23-2.82-7.85-4.83-11.47s.8-8.45-2-10.87S560.15,147.09,560.15,147.09Z"/><path class="cls-9" d="M568.33,144.51s4.38,6.15,4.78,10.54,3.18,12.3,3.18,12.3,3.19,5.71,2.39,9.22,5.17,14.93,5.17,14.93,2.39,12.74,1.2,18-1.54.13-1.54.13.34-8.7-1.64-15.28-4.72-11.82-5.18-18.45c-.4-5.71-2.78-8.56-4.77-12.52s.79-9.22-2-11.85S568.33,144.51,568.33,144.51Z"/><path class="cls-9" d="M576.43,144.12s4.38,6.15,4.78,10.54,3.18,12.3,3.18,12.3,3.18,5.71,2.39,9.22S592,191.11,592,191.11s2.39,12.74,1.19,18-1.8,3.24-1.8,3.24S592,200.56,590,194s-4.71-11.82-5.17-18.45C584.39,169.81,582,167,580,163s.8-9.23-2-11.86S576.43,144.12,576.43,144.12Z"/><path class="cls-9" d="M584.26,137.47s4.38,6.86,4.78,11.77S592.22,163,592.22,163s3.18,6.38,2.39,10.3S599.78,190,599.78,190s2.39,14.22,1.19,20.11-1.8,3.62-1.8,3.62.61-13.19-1.38-20.54-4.71-13.2-5.17-20.6c-.4-6.38-2.79-9.57-4.78-14s.8-10.3-2-13.24S584.26,137.47,584.26,137.47Z"/><path class="cls-9" d="M592.43,137.12s4.38,6.87,4.78,11.78,3.18,13.73,3.18,13.73,3.18,6.37,2.39,10.3S608,189.6,608,189.6s2.39,14.23,1.19,20.11-1.8,3.62-1.8,3.62.61-13.18-1.38-20.54-4.71-13.2-5.17-20.6c-.4-6.37-2.79-9.56-4.78-14s.8-10.3-2-13.24S592.43,137.12,592.43,137.12Z"/><path class="cls-9" d="M599.92,137.8s4.38,6.87,4.78,11.78,3.18,13.73,3.18,13.73,3.18,6.38,2.39,10.3,5.17,16.68,5.17,16.68,2.39,14.22,1.19,20.1-1.8,3.63-1.8,3.63.61-13.19-1.38-20.55-4.71-13.2-5.17-20.6c-.4-6.37-2.79-9.56-4.78-14s.8-10.3-2-13.25S599.92,137.8,599.92,137.8Z"/><path class="cls-9" d="M609.11,140.7s4.38,6.86,4.78,11.77,3.18,13.73,3.18,13.73,3.18,6.38,2.39,10.3,5.17,16.68,5.17,16.68,2.39,14.22,1.2,20.11-1.81,3.62-1.81,3.62.61-13.19-1.38-20.54-4.71-13.2-5.17-20.6c-.4-6.38-2.79-9.57-4.78-14s.8-10.3-2-13.24S609.11,140.7,609.11,140.7Z"/><path class="cls-9" d="M616.94,141s4.38,6.87,4.78,11.77,3.18,13.73,3.18,13.73,3.18,6.38,2.39,10.3,5.17,16.68,5.17,16.68,2.39,14.22,1.19,20.11-1.8,3.62-1.8,3.62.61-13.19-1.38-20.54-4.71-13.2-5.17-20.6c-.4-6.38-2.79-9.57-4.78-14s.8-10.3-2-13.24S616.94,141,616.94,141Z"/></g><path class="cls-12" d="M583.08,110s-1.28,12.71,1.39,18.76,9.85,9.61,16.83,8.22,12.59-17.8,10.27-29-6.86-11-11.75-11S585.52,99.13,583.08,110Z"/><path class="cls-9" d="M610,102.58s-3.1,4.42-6.9,5.43-3.72.7-2.48-.16,3.18-4.57,3.18-4.57-5.2,4.65-8.38,5.58,1.4-2.4,2.64-4.65-6.74,5.27-10.23,6.2.93-.62,2.48-3.64-3.41,3.1-6.28,4.5-3.65.62-3.65.62,3.11-7.6,7.14-12,7-6.44,13.49-5.82S610,102.58,610,102.58Z"/><path class="cls-9" d="M601.89,136.79s-4.68,1.78-11.49-1.62A17.87,17.87,0,0,0,601.89,138Z"/><path class="cls-14" d="M600.7,129.37s-.24-1.63-1.4-1.46a17.43,17.43,0,0,1-5-.4c3.14,2.32,6.8,3.25,10.93,1.22a11,11,0,0,1-3.08-.53C600.87,127.86,600.7,129.37,600.7,129.37Z"/><path class="cls-9" d="M579.26,117.73a3.23,3.23,0,0,1,1.94,1.19,3.19,3.19,0,0,1,.62,2.33c0,.15.21.15.23,0a3.41,3.41,0,0,0-2.73-3.74c-.15,0-.21.19-.06.22Z"/><path class="cls-9" d="M581.16,118.52a1.87,1.87,0,0,0-2.45.76.12.12,0,0,0,.2.12,1.63,1.63,0,0,1,2.13-.68c.14.06.26-.14.12-.2Z"/><path class="cls-10" d="M583.3,128.83a3.19,3.19,0,1,1-3.58-2.76A3.18,3.18,0,0,1,583.3,128.83Z"/><path class="cls-10" d="M581.2,122.79a.7.7,0,1,1-.78-.6A.7.7,0,0,1,581.2,122.79Z"/><line class="cls-11" x1="580.55" y1="123.14" x2="580.37" y2="127.28"/><path class="cls-9" d="M598.19,116.67a4,4,0,0,0-2.53-1.54,4.77,4.77,0,0,0-3.22.29c-.17.08,0,.35.16.26a4.49,4.49,0,0,1,3-.25,3.67,3.67,0,0,1,2.34,1.4c.11.16.38,0,.27-.16Z"/><path class="cls-9" d="M592,114.89a2.79,2.79,0,0,1,.19.33l0,.09v0h0v0a1.34,1.34,0,0,1,.07.18.15.15,0,0,0,.19.11.16.16,0,0,0,.11-.19,2.73,2.73,0,0,0-.35-.73.16.16,0,0,0-.22-.06.16.16,0,0,0,0,.21Z"/><path class="cls-9" d="M593.46,114.53a2.29,2.29,0,0,1,.07.34v0s0,.1,0,.15a.22.22,0,0,0,.05.11.12.12,0,0,0,.11,0,.14.14,0,0,0,.15-.15,2.35,2.35,0,0,0-.09-.53.16.16,0,0,0-.19-.1.15.15,0,0,0-.11.18Z"/><path class="cls-9" d="M594.85,114.41c0,.1,0,.21,0,.31s0,0,0,.08v0s0,0,0,0l0,.15a.16.16,0,0,0,.3.09,4,4,0,0,0,.06-.68.16.16,0,0,0-.15-.16.16.16,0,0,0-.16.16Z"/><path class="cls-9" d="M596.28,114.76l-.15.46a.15.15,0,0,0,.11.19.16.16,0,0,0,.19-.1l.15-.47a.16.16,0,0,0-.11-.19.15.15,0,0,0-.19.11Z"/><circle class="cls-9" cx="595.89" cy="116.11" r="0.73"/><path class="cls-9" d="M599.94,114.56s-.87-1.3-4-2.17c-2.39-.66-4.07-.81-5.39,0s-1.36,1.74-1.36,1.74a4.14,4.14,0,0,1,3.14-1.55C593.74,112.54,597.34,113.59,599.94,114.56Z"/><path class="cls-9" d="M606.21,117.63a3.47,3.47,0,0,1,2.19-1.32,4.25,4.25,0,0,1,2.79.23c.17.08.31-.16.15-.25a4.59,4.59,0,0,0-3-.26,3.77,3.77,0,0,0-2.37,1.45.15.15,0,0,0,.25.15Z"/><path class="cls-9" d="M611.54,115.66a2.85,2.85,0,0,0-.33.68.15.15,0,0,0,.1.18.14.14,0,0,0,.18-.1l.06-.16,0-.05v0h0a.2.2,0,0,0,0-.08,2.48,2.48,0,0,1,.18-.31.14.14,0,0,0-.25-.14Z"/><path class="cls-9" d="M610.1,115.4a2.64,2.64,0,0,0-.08.49.14.14,0,0,0,.14.14.15.15,0,0,0,.15-.14.66.66,0,0,1,0-.14v0c0-.11,0-.21.07-.32a.15.15,0,0,0-.1-.18.16.16,0,0,0-.18.11Z"/><path class="cls-9" d="M608.79,115.35a3.39,3.39,0,0,0,.06.64.15.15,0,0,0,.18.1.15.15,0,0,0,.1-.18l0-.14s0,0,0,0v0s0,0,0-.07,0-.2,0-.3a.15.15,0,0,0-.14-.14.15.15,0,0,0-.15.14Z"/><path class="cls-9" d="M607.47,115.76l.14.44a.14.14,0,0,0,.18.1.15.15,0,0,0,.1-.18l-.14-.43a.15.15,0,0,0-.18-.1.14.14,0,0,0-.1.17Z"/><path class="cls-9" d="M608.09,116.81a.69.69,0,1,0,.68-.68A.68.68,0,0,0,608.09,116.81Z"/><path class="cls-9" d="M604.38,115.43a49.87,49.87,0,0,0-.13,6,23.29,23.29,0,0,1,.13,2.89c0,.35-.08.87-.48,1a2,2,0,0,1-.77,0,3.54,3.54,0,0,1-1.55-.47c-.16-.08-.29.16-.14.24a3.28,3.28,0,0,0,2.67.39c.8-.38.55-1.87.5-2.56a48.8,48.8,0,0,1,0-7.55c0-.17-.26-.17-.27,0Z"/><path class="cls-15" d="M594.45,127.6s2.25,3.4,5,3.7,5.8-2.57,5.8-2.57-3.93,1.46-6.57.65A19.76,19.76,0,0,1,594.45,127.6Z"/><path class="cls-16" d="M597.91,121.85a3.34,3.34,0,1,1-3.34-3.33A3.33,3.33,0,0,1,597.91,121.85Z"/><path class="cls-9" d="M612.3,112.62a10.79,10.79,0,0,0-3.53.26c-3.22.64-4.18,1.87-4.18,1.87,2.65-.77,6.29-1.55,7.73-1.42A2.43,2.43,0,0,1,612.3,112.62Z"/><path class="cls-16" d="M611.49,120.56a3.33,3.33,0,1,0-2.73,5.23,3.18,3.18,0,0,0,1.23-.25A33.91,33.91,0,0,0,611.49,120.56Z"/><path class="cls-10" d="M563.77,184l6.75,29.77s8.84-7.44,7.44-13S563.77,184,563.77,184Z"/><path class="cls-17" d="M619.59,185.3l-.05,0c-1.38-5.46-9.35-37.06-8.79-37.93s-5.89-1.88-5.89-1.88l1.86,16.13-17.67,2.17s-6.2-16.13-11.79-19.23c-1.86.31-5.27.93-5.27.93s9.67,14.9,10.39,20.62c.61,4.92,2.9,18.06-6.42,34.9l-.25.09s-1.47,11.39-5.89,11.63c-11.4,80.24-32.1,210.38-32.1,210.38h57L606.15,267l4.42,156.37,58.9-.47Z"/><path class="cls-9" d="M570.14,213a125.23,125.23,0,0,0,56-4.27c.41-.13.24-.78-.18-.65a124.51,124.51,0,0,1-55.61,4.27c-.42-.07-.61.59-.18.65Z"/><path class="cls-9" d="M584.68,213.94a30.06,30.06,0,0,1-17.09,14.57c-.39.14-.22.77.18.64a30.8,30.8,0,0,0,17.48-14.88c.19-.37-.38-.7-.57-.33Z"/><path class="cls-9" d="M619.15,210.63a23.53,23.53,0,0,0,2.88,8.46,21.29,21.29,0,0,0,2.43,3.38c.86,1,1.94,2.29,3.24,2.66a.32.32,0,0,0,.18-.62c-1.25-.36-2.37-1.78-3.18-2.74a20.27,20.27,0,0,1-2.33-3.4,23,23,0,0,1-2.6-7.91c-.06-.41-.68-.23-.62.17Z"/><polygon class="cls-9" points="606.11 267.64 603.81 273.13 603.17 309 606.11 267.64"/><path class="cls-18" d="M592.15,168.55l14.92-1.77a2.49,2.49,0,0,1,2.71,1.84c1.38,5.23,3.84,18.56-6.61,19.49C593,189,590.53,176.7,590,171.3A2.49,2.49,0,0,1,592.15,168.55Z"/><path class="cls-9" d="M588.11,165.57a1.73,1.73,0,1,1-1.73-1.72A1.73,1.73,0,0,1,588.11,165.57Z"/><path class="cls-9" d="M612.11,162a1.73,1.73,0,1,1-1.73-1.72A1.73,1.73,0,0,1,612.11,162Z"/><line class="cls-18" x1="590.28" y1="173.04" x2="610.32" y2="170.49"/><polygon class="cls-12" points="558.45 422.7 562.89 434.75 582.25 434.03 584.9 422.7 558.45 422.7"/><path class="cls-10" d="M562.61,433.52l-1.1,20.54h46.27s3-4.93-.27-6.85-23.82-11.77-23.82-11.77V432.7Z"/><path class="cls-19" d="M561.61,454v3.6h2.92v-1.1a.6.6,0,0,1,.59-.59.6.6,0,0,1,.59.59v1.1h3.13v-1.1a.59.59,0,0,1,1.18,0v1.1h3.43v-1.1a.6.6,0,0,1,.59-.59.6.6,0,0,1,.58.59v1.1H578v-1.3a.6.6,0,0,1,.59-.59.6.6,0,0,1,.59.59v1.3h3.73v-1.3a.6.6,0,0,1,.59-.59.6.6,0,0,1,.59.59v1.3h4.23v-1.4a.6.6,0,0,1,.59-.59.6.6,0,0,1,.59.59v1.4h3.73v-1.4a.6.6,0,0,1,.59-.59.6.6,0,0,1,.59.59v1.4H598v-1.4a.6.6,0,0,1,.59-.59.6.6,0,0,1,.59.59v1.4h3.73V456a.6.6,0,0,1,.59-.59.6.6,0,0,1,.59.59v1.6h3.82V454Z"/><path class="cls-20" d="M583.66,443.21a11,11,0,0,1,6.84-4.27c.2,0,.12-.34-.08-.3a11.29,11.29,0,0,0-7,4.41c-.12.16.16.32.28.16Z"/><path class="cls-20" d="M587.24,444.46a8.62,8.62,0,0,1,5.86-4.13c.2,0,.2-.34,0-.31A8.89,8.89,0,0,0,587,444.3c-.12.17.16.33.27.16Z"/><path class="cls-20" d="M590.42,445.55a9.42,9.42,0,0,1,2.49-2.62,5.87,5.87,0,0,1,3.56-1.34c.21,0,.2-.31,0-.32a6.22,6.22,0,0,0-3.72,1.38,9.83,9.83,0,0,0-2.6,2.74c-.11.17.16.33.27.16Z"/><polygon class="cls-9" points="558.49 423.13 575.21 423.38 559.17 424.7 558.49 423.13"/><polygon class="cls-12" points="625.69 423.3 629.89 436.32 648.04 435.52 651.72 423.3 625.69 423.3"/><polygon class="cls-9" points="625.77 423.38 640.57 423.25 626.23 425.04 625.77 423.38"/><path class="cls-10" d="M628.65,433.52l-1.1,20.53h46.27s3-4.93-.27-6.84-23.82-11.77-23.82-11.77V432.7Z"/><path class="cls-19" d="M627.65,454v3.61h2.92v-1.1a.59.59,0,0,1,1.18,0v1.1h3.13v-1.1a.59.59,0,1,1,1.17,0v1.1h3.43v-1.1a.6.6,0,0,1,.59-.59.59.59,0,0,1,.59.59v1.1H644v-1.3a.6.6,0,0,1,.59-.59.59.59,0,0,1,.59.59v1.3h3.73v-1.3a.6.6,0,0,1,.59-.59.59.59,0,0,1,.59.59v1.3h4.23v-1.4a.6.6,0,0,1,.59-.59.59.59,0,0,1,.59.59v1.4h3.73v-1.4a.6.6,0,0,1,.59-.59.59.59,0,0,1,.59.59v1.4H664v-1.4a.59.59,0,1,1,1.18,0v1.4h3.73V456a.59.59,0,0,1,1.17,0v1.61h3.82V454Z"/><path class="cls-20" d="M649.69,443.2a11,11,0,0,1,6.85-4.26c.2,0,.12-.35-.08-.31a11.29,11.29,0,0,0-7,4.41c-.12.17.15.33.27.16Z"/><path class="cls-20" d="M653.28,444.46a8.6,8.6,0,0,1,5.86-4.13c.2,0,.2-.34,0-.32A8.92,8.92,0,0,0,653,444.3c-.11.17.17.33.28.16Z"/><path class="cls-20" d="M656.46,445.54a9.41,9.41,0,0,1,2.49-2.62,6,6,0,0,1,3.56-1.34c.2,0,.2-.3,0-.31a6.16,6.16,0,0,0-3.72,1.38,9.84,9.84,0,0,0-2.61,2.73c-.11.17.17.33.28.16Z"/><path class="cls-21" d="M652.53,181.81s11.58-24.34,20.77-26.9c-6.3,6.81-12.6,18.05-13.62,22S652.53,181.81,652.53,181.81Z"/><path class="cls-21" d="M645.64,210s-2.21-31.81,23.32-38.57c8.17-2.2,12.93-.85,12.93-.85s-30.46,13.54-34.72,40.27Z"/><path class="cls-22" d="M647.22,210a38.78,38.78,0,0,1,2.62-14.43,30.2,30.2,0,0,1,3.25-7,30.91,30.91,0,0,1,4.44-5.12,49.71,49.71,0,0,1,23.2-12.32c.17,0,.09-.29-.07-.26a50.17,50.17,0,0,0-19.17,8.87,40.48,40.48,0,0,0-7.62,7.29,32,32,0,0,0-4.81,10A36.76,36.76,0,0,0,647,210c0,.17.28.17.27,0Z"/><path class="cls-21" d="M645.76,210.66c.78.09-3.1-16.75-11.94-22.33s-6.51-14.73-8.68-19.07-7.6-10.7-7.6-10.7.93,2.64-.62,7.91a19.18,19.18,0,0,0,2.33,15c3.56,5.43,6.82,11.63,11.47,18.14S639.09,209.88,645.76,210.66Z"/><path class="cls-22" d="M618.55,159.27a194.71,194.71,0,0,0,6.24,23.63,18.74,18.74,0,0,0,2.13,4.5,33,33,0,0,0,3.54,4,82.44,82.44,0,0,1,7.24,9.11c2.3,3.31,4.53,6.67,7,9.83.11.14.3-.05.2-.19-2.88-3.64-5.38-7.53-8.08-11.3-1.27-1.77-2.59-3.51-4-5.17-1.58-1.87-3.38-3.53-4.93-5.42a20.33,20.33,0,0,1-3.34-6.91c-.77-2.42-1.48-4.85-2.16-7.3q-2.05-7.38-3.61-14.89c0-.17-.3-.09-.26.08Z"/><path class="cls-22" d="M650.74,168.11s8.17-9.71,15.32-9.2c.34,2.56-4.42,20.09-16,29.11C648.7,179.85,647.85,173,650.74,168.11Z"/><path class="cls-21" d="M666,159.26a55.83,55.83,0,0,0-16.68,28.82c0,.17.22.24.26.07a55.55,55.55,0,0,1,16.61-28.7c.13-.12-.06-.31-.19-.19Z"/><path class="cls-22" d="M646.49,210.83c.34-.68,4.6-14.64,19.4-14.64C658.91,202.15,646.49,210.83,646.49,210.83Z"/><path class="cls-21" d="M647,210.19a46,46,0,0,1,17.91-13.38c.16-.07.09-.33-.07-.26a46.18,46.18,0,0,0-18,13.45c-.11.13.08.32.19.19Z"/><path class="cls-21" d="M647.81,196.47s.62-9,5-15.51-2.94-21.71-16.28-24c-5.27.15-5.73,2-5.73,7.44s2.17,10.54,6.66,13.49S647.81,187.32,647.81,196.47Z"/><path class="cls-22" d="M634.33,157.16c1.51,3.14,3.82,5.77,5.65,8.72a39.85,39.85,0,0,1,4.32,9.6,40.81,40.81,0,0,1,.71,20.67c0,.17.22.24.26.08a41,41,0,0,0-.6-20.42,40.38,40.38,0,0,0-4-9.36c-1.91-3.22-4.46-6-6.08-9.43-.08-.16-.31,0-.24.14Z"/><path class="cls-22" d="M616.49,159s7.83,6.47,8.51,11.06,3.34,14,9.08,19.59,11.86,21.77,11.86,21.77,3.57-12.93,3.74-19.4-5.62-11.92-9.7-15.49S628.91,161.51,616.49,159Z"/><path class="cls-21" d="M617.65,159.56a91.25,91.25,0,0,1,9.56,7.28c2.94,2.56,6,5.27,8.13,8.6s3.22,6.94,5.22,10.21,4.56,5.9,6.1,9.25c2,4.42.87,9.32-.26,13.81,0,.17.22.24.26.08.92-3.66,1.88-7.53,1.12-11.31s-3.53-6.76-5.65-9.91a47.29,47.29,0,0,1-3.08-5.17c-1-1.88-1.72-3.85-2.7-5.72-1.86-3.54-4.81-6.32-7.75-9a94.3,94.3,0,0,0-10.81-8.38c-.15-.09-.28.14-.14.24Z"/><path class="cls-23" d="M627.6,209h.68c2.62,0,12.84-.11,31,.18-2.56,14-4.09,30-4.09,30H632.36Z"/><rect class="cls-24" x="625.77" y="208.28" width="35.36" height="5.62"/><path class="cls-9" d="M639,213.81,658.32,215l.34-1.19Z"/><path class="cls-20" d="M677.74,241.26c0,1.41-14.58,2.56-32.56,2.56s-32.56-1.15-32.56-2.56,14.57-2.56,32.56-2.56S677.74,239.84,677.74,241.26Z"/><polygon class="cls-20" points="639.17 242.32 598.32 457.81 593.72 458.32 635.11 241.83 639.17 242.32"/><polygon class="cls-20" points="651.08 242.22 691.93 457.71 696.54 458.22 655.14 241.73 651.08 242.22"/><rect class="cls-20" x="618.57" y="341.72" width="53.96" height="4.43"/><path class="cls-12" d="M628.51,214s-1-4.66-.39-7.37-1.09-4.77-7.91-5.93A101.84,101.84,0,0,1,608.35,198c-3.57-.91-3.1-.65-4.34,1.67s.7,10.19.7,10.19,6.33-.47,10.08-.47a13.13,13.13,0,0,1,6.28,1.25s4.18,7.48,5,8.9,3.06,5,3.69,6.31,2.27,3.24,3.66,3c.14-1.32-1.36-4.72-1.36-4.72s1.62.86,2.13.63.08-2.46-.84-4.56c1.4-.26.93-.51.93-.51S634.55,217.21,628.51,214Z"/><path class="cls-10" d="M584,174.25a.5.5,0,0,1-.21-.24c-1-2.61-.6-5.25-1.31-7.95a50.5,50.5,0,0,0-5.62-12.93c-1.23-2.14-2.72-5.62-4.08-7.83-5.19.85-8.11,2.06-11.23,6.4-5.35,7.44-2.67,46.86,26.05,58,17,4.19,21.28.82,21.28.82s-2.9-9.42,1.28-15.24C604.1,193.54,587.57,186.22,584,174.25Z"/><g class="cls-25"><path class="cls-9" d="M558.49,166.4s3.74,4.77,4.08,8.17,2.73,9.54,2.73,9.54,2.72,4.42,2,7.15,4.43,11.57,4.43,11.57,2,9.87,1,14-2.39,0-2.39,0,1.37-6.64-.34-11.75-4-9.16-4.42-14.3c-.34-4.42-2.38-6.63-4.09-9.7s.68-7.15-1.7-9.19S558.49,166.4,558.49,166.4Z"/><path class="cls-9" d="M560,146.74s4.42,5.64,4.82,9.66S568,167.67,568,167.67s3.22,5.23,2.42,8.45,5.23,13.68,5.23,13.68,2.41,11.67,1.2,16.5-1.53-1.26-1.53-1.26a39.34,39.34,0,0,0-1.68-12.62c-2-6-4.77-10.83-5.23-16.9-.41-5.23-2.82-7.85-4.83-11.47s.8-8.45-2-10.87S560,146.74,560,146.74Z"/><path class="cls-9" d="M568.16,144.17s4.38,6.15,4.78,10.54,3.18,12.3,3.18,12.3,3.19,5.71,2.39,9.22,5.17,14.93,5.17,14.93,2.39,12.74,1.2,18-1.54.13-1.54.13.34-8.7-1.65-15.28-4.71-11.82-5.17-18.45c-.4-5.71-2.78-8.56-4.77-12.52s.79-9.22-2-11.85S568.16,144.17,568.16,144.17Z"/><path class="cls-9" d="M576.26,143.78s4.38,6.15,4.78,10.54,3.18,12.3,3.18,12.3,3.18,5.71,2.39,9.22,5.17,14.93,5.17,14.93,2.39,12.74,1.19,18-1.8,3.24-1.8,3.24.61-11.8-1.38-18.39-4.71-11.82-5.17-18.45c-.4-5.71-2.79-8.56-4.78-12.51s.8-9.23-2-11.86S576.26,143.78,576.26,143.78Z"/><path class="cls-9" d="M584.09,137.13s4.38,6.86,4.78,11.77,3.18,13.73,3.18,13.73,3.18,6.38,2.39,10.3,5.17,16.68,5.17,16.68,2.39,14.22,1.19,20.11-1.8,3.62-1.8,3.62.61-13.19-1.38-20.54-4.71-13.2-5.17-20.6c-.4-6.38-2.79-9.57-4.78-14s.8-10.3-2-13.24S584.09,137.13,584.09,137.13Z"/><path class="cls-9" d="M592.26,136.78s4.38,6.87,4.78,11.77,3.18,13.74,3.18,13.74,3.18,6.37,2.39,10.3,5.17,16.67,5.17,16.67,2.39,14.23,1.19,20.11-1.8,3.62-1.8,3.62.61-13.18-1.38-20.54-4.71-13.2-5.17-20.6c-.4-6.37-2.79-9.56-4.78-14s.8-10.3-2-13.24S592.26,136.78,592.26,136.78Z"/><path class="cls-9" d="M599.75,137.46s4.38,6.87,4.77,11.78S607.71,163,607.71,163s3.18,6.38,2.39,10.3,5.17,16.67,5.17,16.67,2.39,14.23,1.19,20.11-1.8,3.62-1.8,3.62.61-13.18-1.38-20.54-4.71-13.2-5.17-20.6c-.4-6.37-2.79-9.56-4.78-14s.8-10.3-2-13.24S599.75,137.46,599.75,137.46Z"/><path class="cls-9" d="M608.94,140.36s4.38,6.86,4.78,11.77,3.18,13.73,3.18,13.73,3.18,6.38,2.39,10.3,5.17,16.68,5.17,16.68,2.39,14.22,1.19,20.11-1.8,3.62-1.8,3.62.61-13.19-1.38-20.54-4.71-13.2-5.17-20.6c-.4-6.38-2.79-9.57-4.78-14s.8-10.3-2-13.24S608.94,140.36,608.94,140.36Z"/><path class="cls-9" d="M616.77,140.7s4.38,6.86,4.78,11.77,3.18,13.73,3.18,13.73,3.18,6.38,2.39,10.3,5.17,16.68,5.17,16.68,2.39,14.22,1.19,20.11-1.8,3.62-1.8,3.62.61-13.19-1.38-20.54-4.71-13.2-5.17-20.6c-.4-6.38-2.79-9.57-4.78-14s.8-10.3-2-13.24S616.77,140.7,616.77,140.7Z"/></g><path class="cls-9" d="M576.53,202.66s-5.1-3.92-6.81-9c.85,4.93,4.43,9.7,6.13,10.38A8.1,8.1,0,0,0,576.53,202.66Z"/><g class="cls-4"><path class="cls-5" d="M128,71.55h0a87,87,0,0,1,87,87V327.83a0,0,0,0,1,0,0h-174a0,0,0,0,1,0,0V158.57a87,87,0,0,1,87-87Z"/><line class="cls-5" x1="128.19" y1="71.23" x2="128.19" y2="328.09"/><line class="cls-26" x1="44.15" y1="135.79" x2="211.64" y2="135.79"/><line class="cls-5" x1="41.09" y1="198.83" x2="214.7" y2="198.83"/><line class="cls-5" x1="40.7" y1="267.26" x2="214.32" y2="267.26"/></g><path class="cls-10" d="M143.27,172.88S155.6,213.12,156.06,228c11.4,1.86,15.82-12.33,17.91-20s-20.46-40.47-20.46-40.47Z"/><path class="cls-9" d="M159.68,226.12a1.12,1.12,0,0,0,0-2.24,1.12,1.12,0,0,0,0,2.24Z"/><rect class="cls-27" x="73.02" y="396.36" width="39.57" height="60.77"/><path class="cls-21" d="M96,276.19c.84-1,4.94,16.89,18.26,13.81,1.41-2.19,4.41-7.11,4.41-7.11s-6.83,1.91-12.11-1.08-1.3-2.33,4-1.51,11.15-2.69,11.15-2.69l1.54-6s-13.42,8.32-20,3.37c-.2-1.27,13.35-.93,18.66-8.23l-3.66-3.55s-13.57,10.31-16.52,6.38c-.76-2.52,14-4.9,16.48-8.55a23.11,23.11,0,0,0-5.66-4.31s-7.79,10.47-9.81,7.79,8.59-5.18,8.33-10.41c-2.21-2.86-4-.31-5.45-2.45s-7.29-4.23-7.29-4.23,2,11.17,0,13.54-4.6-5.89-3.41-11.14L96,244.59s-8.46,1.75-10.6,3.59c1.52,5,8.74,16.66,7.68,18.84s-6.61-7.49-6-11.83,1.34-6.88,1.34-6.88-5.42-.64-7.2,1.19,3.08,12.95,8.22,18.66c2.39,3-.09,6.32-4-1a57.75,57.75,0,0,1-5.27-14.73s-8.62,3.38-5.84,7.86,13.92,13.51,8.65,11.24-8.43-8.18-8.43-8.18-1,5.07.65,7,7.08,2.61,9.83,5.27-6.52-1.34-8.69-1.31S86.39,287.52,96,276.19Z"/><path class="cls-22" d="M95.94,275.94l2-7.26a22.14,22.14,0,0,1,2.75-6.09c1.2-1.94,2.38-3.89,3.62-5.81a10.78,10.78,0,0,0,2-4.45c0-.17-.24-.25-.26-.08-.28,2-1.41,3.45-2.45,5.12q-1.83,2.92-3.65,5.87c-2.35,3.8-3.1,8.36-4.27,12.63,0,.17.22.24.26.07Z"/><path class="cls-22" d="M98.59,265.86a14.54,14.54,0,0,1-4.37-4.36,16.08,16.08,0,0,1-1.79-6.31c-.39-3.2-.31-6.51-2.44-9.13-.11-.14-.3.05-.19.19,2.49,3.07,2,7.34,2.67,11a12.54,12.54,0,0,0,2,5.16,16.25,16.25,0,0,0,3.93,3.65c.14.1.28-.13.14-.23Z"/><path class="cls-22" d="M115.17,259c-2.48,1.89-4.77,4.11-7.51,5.63a11.86,11.86,0,0,1-8.83,1.25c-.16-.05-.24.22-.07.26a12,12,0,0,0,8.35-.92c3.06-1.46,5.53-4,8.19-6,.14-.1,0-.34-.13-.23Z"/><path class="cls-22" d="M120.3,265.24c-3.46,2.25-7.07,4.84-11,6.19a12.53,12.53,0,0,1-11.62-1.81c-.14-.1-.28.13-.14.23a12.71,12.71,0,0,0,11.09,2.08c4.25-1.22,8.14-4.07,11.8-6.46.15-.09,0-.33-.13-.23Z"/><path class="cls-22" d="M121.88,275.28a30.52,30.52,0,0,1-13.1,2.41,15.5,15.5,0,0,1-6.59-1.64,25.75,25.75,0,0,1-5.28-3.88c-.13-.12-.32.07-.19.19,3.21,3,6.72,5.11,11.15,5.53A30.3,30.3,0,0,0,122,275.54c.16-.06.09-.32-.08-.26Z"/><path class="cls-22" d="M115.92,287.14a29.2,29.2,0,0,1-19.63-12.79c-.09-.14-.33,0-.23.14a29.45,29.45,0,0,0,19.79,12.91c.17,0,.25-.23.07-.26Z"/><path class="cls-22" d="M96.09,274.21a21,21,0,0,1-8.26,3.94,13,13,0,0,1-5.19,0A23.14,23.14,0,0,1,78,276.48c-.15-.07-.29.16-.13.23,3,1.37,6,2.32,9.35,1.81a20.64,20.64,0,0,0,9-4.08c.14-.1,0-.34-.14-.23Z"/><path class="cls-22" d="M97.23,269.45A13,13,0,0,1,91,267.16a16.89,16.89,0,0,1-4.37-5.27,19.09,19.09,0,0,1-2.12-6.47,28.65,28.65,0,0,1-.36-6.92c0-.18-.26-.18-.27,0-.3,4.69.29,10.13,2.91,14.16A16.61,16.61,0,0,0,91,267.5a13.38,13.38,0,0,0,6.23,2.22c.17,0,.17-.25,0-.27Z"/><path class="cls-22" d="M96.67,272c-5,2.55-10.53-.58-13.73-4.53a36.89,36.89,0,0,1-6.72-12.64.13.13,0,0,0-.26.07,30.55,30.55,0,0,0,2.82,6.73,39.34,39.34,0,0,0,4.62,6.8c3.28,3.67,8.64,6.22,13.4,3.8.16-.07,0-.31-.13-.23Z"/><path class="cls-22" d="M96.34,273.17c-8,4.07-16-1.2-21.9-6.45-.13-.11-.32.08-.19.19,6,5.34,14.1,10.62,22.23,6.5.15-.08,0-.31-.14-.24Z"/><path class="cls-22" d="M82.56,361.89A287.39,287.39,0,0,1,91,294.23q2.33-9.37,5.28-18.58c.14-.46-.58-.66-.73-.2a288.28,288.28,0,0,0-13,66.91q-.7,9.75-.74,19.53a.38.38,0,0,0,.75,0Z"/><path class="cls-21" d="M74.34,313.34s-4.83-26-8.77-26.68c-4.2-.7-4.93-.48-4.93-.48s12.87,16.43,8.25,18a172.65,172.65,0,0,0-12.22-18l-5.23,2.17S63.49,303.46,60.49,303,51.68,288.62,49,289.28s-5.25,3.37-5.25,3.37,12.48,6.91,10.65,7.71-11.24-8.56-12.85-6.31S38,303.36,38,303.36s11.43.62,11.86,2.56S40,307.5,35.77,304.75c-1.94,6.1-.9,7.93,2.21,8.72s14.77-3.75,15.83-2.4S39,318,39,318l2.79,4.15s10.51-6.74,11-5.28-7.85,6.32-7.85,6.32a10.93,10.93,0,0,0,5.4,1c2.41-.43,8.59-7.27,10.71-10.47S70.47,309,74.34,313.34Z"/><path class="cls-22" d="M73,306a19.49,19.49,0,0,0-.56-17.83c4.45.22,9.79,3.83,9.79,3.83A15.86,15.86,0,0,1,79.83,305c.55,2.3,7.55-3.68,5.08-11.44,3.31,2.73,6.59,6.41,4.86,8.54s-9.16,5.45-8.47,6.91,6.43-1.9,7.92-4c2-.92,4.25,3.71-.64,6.73s-11,5.52-15.29.25A21.43,21.43,0,0,0,73,306Z"/><path class="cls-22" d="M72.61,311.61c5.88,8.63,7.45,19.92,8.22,30.09.44,5.76.56,11.54.64,17.32s.16,11.52.08,17.29a162.26,162.26,0,0,1-1.35,19.82c-.06.48.66.68.72.2,1.62-11.71,1.48-23.56,1.32-35.35-.15-11.47-.23-23.11-2.82-34.35-1.24-5.38-3-10.8-6.16-15.39-.27-.4-.92,0-.65.37Z"/><path class="cls-21" d="M115.83,341c-1.36.68.85,10,.85,10a10.91,10.91,0,0,1-4.42-3.24c-1.37-2-.69-11.23.17-15s-3.24-10-9-9.87c0,0,22.17-14.49,25.37-12.09,3.4,2.56,3.74,3.24,3.74,3.24s-20.77,2-18.72,6.47A172,172,0,0,1,135.23,317l2.05,5.28S118,324,120.43,325.89s16.51-3.57,17.87-1.19,1.19,6.13,1.19,6.13-13.62-4.26-12.94-2.38,14,2.21,13.45,4.93-4.26,9-4.26,9-8.34-7.83-10-6.8,5.62,8.17,10.56,9.36c-3.07,5.61-5.11,6.13-7.83,4.42s-7.49-13.27-9.2-13.1,5.28,15.49,5.28,15.49l-4.94.85"/><path class="cls-22" d="M109.7,318.91A19.5,19.5,0,0,1,123,307c-3.24-3.06-9.53-4.43-9.53-4.43a15.88,15.88,0,0,0-7.83,10.73c-2.05,1.19-2.56-8,4.76-11.58-4.25-.51-9.19-.34-9.53,2.39s2.38,10.38.85,10.89-3.06-6-2.55-8.51c-.68-2-5.62-.51-4.43,5.11s3.58,11.74,10.39,11.23A21.46,21.46,0,0,1,109.7,318.91Z"/><path class="cls-22" d="M104.22,322.19c-7.21.47-10,8.27-10.36,14.46A81.23,81.23,0,0,0,94.54,348c1.06,11.84,2.25,23.68,2.86,35.55.13,2.58.24,5.17.23,7.75a16.74,16.74,0,0,1-.38,4.63c-.15.47.59.68.74.2a13.76,13.76,0,0,0,.39-3.62c.06-2.07,0-4.14-.08-6.21-.22-5.63-.65-11.26-1.11-16.88-.8-9.88-2-19.74-2.54-29.63-.37-6.39,1.58-16.31,9.57-16.82.49,0,.49-.8,0-.77Z"/><path class="cls-22" d="M89.56,395.67c-3.41-17.16-13.38-32.17-16.86-49.3a56,56,0,0,1-1-7.51c-.13-2.05-.12-4.82,2-5.83.44-.22,0-.88-.39-.67-3.33,1.57-2.5,6.51-2.15,9.41a70.84,70.84,0,0,0,3,13c2.84,8.89,6.89,17.33,10.2,26a95.61,95.61,0,0,1,4.48,15.05c.1.49.84.28.74-.2Z"/><path class="cls-21" d="M71.23,337.89c.09,1.3-15.32-8.68-22.72,2.81.51,2.56,1.79,8.17,1.79,8.17s3.57-6.13,9.44-7.66S62.3,342,58,345s-6.13,9.7-6.13,9.7l3.06,5.37s3.83-15.32,12-16.34c1,.76-8.93,10-7.66,18.89h5.11s2.55-16.85,7.4-16.09c2.3,1.28-6.63,13.28-5.87,17.62a22.93,22.93,0,0,0,7.07-.85s-1.71-12.94,1.61-12.43-2.55,9.71,1.28,13.28c3.57.51,3.06-2.55,5.62-2s8.17-2,8.17-2-9.19-6.64-9.45-9.71,7.4,1,10.21,5.62l2.81,4.6s4.85-7.15,5.11-10c-4.6-2.55-17.87-5.87-18.64-8.17s10,.77,12.51,4.34A69.16,69.16,0,0,1,96,352.7s4.34-3.32,4.34-5.87-11.23-7.15-18.89-7.66c-3.83-.51-4.34-4.6,3.57-2a57.66,57.66,0,0,1,14,6.89s3.83-8.42-1.27-9.7-19.41,0-14.05-2,11.75,0,11.75,0-2.81-4.34-5.36-4.6-6.9,3.06-10.73,3.06,5.62-3.57,7.15-5.1S70.21,323.09,71.23,337.89Z"/><path class="cls-22" d="M71.42,338.05l3.64,6.59a22.09,22.09,0,0,1,2.27,6.28c.49,2.24,1,4.46,1.45,6.7a10.77,10.77,0,0,0,1.66,4.6c.1.14.33,0,.23-.14-1.2-1.64-1.39-3.44-1.81-5.37q-.72-3.39-1.46-6.76c-1-4.37-3.6-8.16-5.74-12a.14.14,0,0,0-.24.13Z"/><path class="cls-22" d="M76.55,347.12a14.19,14.19,0,0,1,6.64.23,17.26,17.26,0,0,1,5.4,3.3c2.45,2,4.64,4.31,7.92,4.7.17,0,.17-.25,0-.27-3.82-.46-6.38-3.72-9.33-5.87a13.3,13.3,0,0,0-4.93-2.39,16,16,0,0,0-5.77,0c-.17,0-.1.29.07.26Z"/><path class="cls-22" d="M69.44,363.61c.47-3.19.54-6.52,1.57-9.61a11.75,11.75,0,0,1,5.36-6.71c.15-.09,0-.32-.14-.24A12,12,0,0,0,71,353.24c-1.29,3.24-1.31,6.88-1.82,10.3,0,.17.23.24.26.07Z"/><path class="cls-22" d="M61.4,362.69q.74-3.22,1.6-6.44a28.52,28.52,0,0,1,2.13-5.95,12.47,12.47,0,0,1,9.42-6.5c.17,0,.17-.29,0-.27a12.71,12.71,0,0,0-9.17,5.79,22.74,22.74,0,0,0-2.38,5.9c-.69,2.45-1.3,4.92-1.86,7.4,0,.17.23.24.26.07Z"/><path class="cls-22" d="M53.27,356.59a30.89,30.89,0,0,1,7.17-10.36,16.5,16.5,0,0,1,5.73-3.69,24,24,0,0,1,7.19-1.11.14.14,0,1,0,0-.27,24.72,24.72,0,0,0-7.1,1.06,16.33,16.33,0,0,0-5.53,3.38A30.66,30.66,0,0,0,53,356.46c-.07.15.16.29.23.13Z"/><path class="cls-22" d="M49.29,343.93a29.24,29.24,0,0,1,23-4.5c.17,0,.24-.22.07-.26a29.53,29.53,0,0,0-23.2,4.53c-.14.1,0,.33.14.23Z"/><path class="cls-22" d="M72.52,339.4a20.54,20.54,0,0,1,3.42-8.91,13.08,13.08,0,0,1,3.29-3.18,22.61,22.61,0,0,1,4.67-2.12c.17-.06.1-.32-.07-.26a22.25,22.25,0,0,0-4.74,2.15,13.16,13.16,0,0,0-3.16,3,20.49,20.49,0,0,0-3.67,9.27c0,.17.23.24.26.07Z"/><path class="cls-22" d="M75,343.6a12.62,12.62,0,0,1,7.28-2.81,18.92,18.92,0,0,1,6.44,1.1c4,1.38,7.57,4.49,10.26,7.63.11.13.3-.06.19-.19-2.87-3.35-6.83-6.74-11.17-7.94a17.68,17.68,0,0,0-6.65-.8,13.26,13.26,0,0,0-6.54,2.82c-.14.11,0,.3.19.19Z"/><path class="cls-22" d="M73.64,341.38c1.88-5.4,8-6.93,13.15-6.3a36.86,36.86,0,0,1,13.48,4.38c.15.08.29-.15.14-.24a31.53,31.53,0,0,0-6.79-2.89,38,38,0,0,0-8.44-1.66c-4.78-.23-10.11,1.78-11.8,6.63-.06.17.2.24.26.08Z"/><path class="cls-22" d="M73.07,340.31C76,331.83,85.42,330,93.28,329.69c.17,0,.17-.28,0-.27-4.47.19-9,.63-13.1,2.67a14.47,14.47,0,0,0-7.37,8.15c-.06.17.2.24.26.07Z"/><polygon class="cls-28" points="223.85 221.04 258.85 228.7 302.28 220.02 251.95 212.36 223.85 221.04"/><polygon class="cls-20" points="224.47 221.04 222.32 228.19 257.6 234.96 257.47 228.32 224.47 221.04"/><polygon class="cls-20" points="302.15 219.89 302.92 225.38 257.72 234.96 257.47 228.45 302.15 219.89"/><path class="cls-29" d="M149.64,457.64,259.06,114.2a5.11,5.11,0,0,1,4.85-3.4l26.29.16a5.1,5.1,0,0,1,4.95,6.22l-73,341.14"/><line class="cls-29" x1="340.62" y1="457.64" x2="289.1" y2="144.97"/><path class="cls-29" d="M270.87,231.51c-.46,3.26,17.32,226.13,17.32,226.13"/><path class="cls-30" d="M244.11,172.71c2.57-1.29,8-4.55,7.49-5.52-.66-1.16-7.13,2-7.13,2,2.63-1.51,8.41-5.57,7.4-6.23-1.25-.81-9.68,3.46-9.68,3.46s8.11-3.54,7-4.77-11.77,3.69-15.51,8.2c-2.19,3.09-5,8.3-5,8.3L214,194.65l-5.72-23.85-11.44,10.87,4.42,20.65s4.34,16.85,8.87,12.65c.63-.58,21.5-23,21.5-23s7.13-11.47,9.57-14.28a9,9,0,0,0,.58-.7c2.59-1.17,9.92-5.25,9.59-5.78S244.11,172.71,244.11,172.71Z"/><path class="cls-9" d="M205.6,117.61a63.94,63.94,0,0,0-3.47-8.75C199.44,100.38,193.51,90,182,90.39a19.41,19.41,0,0,0-15.07,7.67,33.73,33.73,0,0,0-6.79,9.47c-4.22,8.53-5.27,18.17-8.31,27.11-1.72,5.07-4.38,9.63-6.85,14.33-3.36,2.06-4.62,8.2,1.51,8.71,6.44.55,23.1,6.59,32.87,11.09s17.14.47,17.14.47,5.81-3.18,4.18-7.6a26.42,26.42,0,0,1-1.88-9.52c.52-3.56,1.11-7.11,1.93-10.62a80.52,80.52,0,0,1,4.09-12.29,18.74,18.74,0,0,0,1.56-5.68A16.5,16.5,0,0,0,205.6,117.61Zm-51.45,18.68c-1.62,5.21-5.89,9.88-7.78,11.65a104,104,0,0,0,5-9.9,99.34,99.34,0,0,0,4.13-13.75c1.89-7.59,3.9-15.39,8.53-21.77a52.87,52.87,0,0,0-3.5,8.65C158.41,117.6,156.16,129.77,154.15,136.29Zm51.34-11.74a28.1,28.1,0,0,1-2.07,6c-.34.82-.66,1.64-1,2.47,1.31-5.91,2.16-12.37,1.23-17.85-.09-.51-.19-1-.31-1.62.56,1.4,1.07,2.81,1.49,4.23A15,15,0,0,1,205.49,124.55Z"/><path class="cls-10" d="M145.37,176.72S138.85,170,137.92,164s2.21-12.56,6.05-14.19,16.75-2.55,16.75-2.55L180.37,152s14.42,2.09,17,6.86S207,176.37,207,176.37l-8.72,7.44-25-1.07-10-13.58S149.9,171.13,145.37,176.72Z"/><path class="cls-23" d="M172.5,176.91s4.91,31.92-8.73,49.75c-5.43,2-12.2-1.06-12.2-1.06L115.75,424.84l58.46-.78L190.8,270.72l-5,154.27,42.79-1.08-15.2-187L201,178.46l-2.9-5Z"/><path class="cls-9" d="M190.49,273.2l.93-5.89s1.86,29.46-1.86,52.4C189.56,292.73,190.49,273.2,190.49,273.2Z"/><path class="cls-9" d="M171.41,228.75a29.11,29.11,0,0,1-10.13,13.6c-4.19,3.06-9,4.77-13.95,6.28-.41.13-.24.79.19.66,5.21-1.6,10.33-3.44,14.7-6.79a30,30,0,0,0,9.85-13.57c.15-.41-.51-.59-.66-.18Z"/><path class="cls-31" d="M152.65,148.07c-.23.16,13.82,16,18.86,26.33a4.72,4.72,0,0,0,2.89-1.74s-11.59-21.1-18-25C154.44,147.84,152.65,148.07,152.65,148.07Z"/><path class="cls-32" d="M166.92,166.92l4.46-1.32a.93.93,0,0,1,1.13.54l.85,2.09a.93.93,0,0,1-.57,1.24l-4.36,1.44a.94.94,0,0,1-1.15-.52l-.95-2.2A.93.93,0,0,1,166.92,166.92Z"/><path class="cls-31" d="M171.17,173.72s1.87,4.94,3.15,5.45,2.38.43,2.64-1.19-2.73-5.53-2.73-5.53Z"/><path class="cls-32" d="M168.8,170.73l4.46-1.32a.93.93,0,0,1,1.13.54l.85,2.09a.93.93,0,0,1-.57,1.24l-4.36,1.43a.93.93,0,0,1-1.15-.52l-.95-2.2A.93.93,0,0,1,168.8,170.73Z"/><path class="cls-31" d="M194.74,174.74S192,159.09,184,152.45a35.22,35.22,0,0,1,6.81,2.21s7.32,11.74,6.47,20.08C196.79,178.15,194.74,175.26,194.74,174.74Z"/><path class="cls-33" d="M151.57,225.6s-2-2-1.55-8.07-1.63-23.72-3-32.09c11.63,16.05,11.84,41.9,11.84,41.9Z"/><path class="cls-9" d="M151.77,226.44c15.14,3.32,31.06,3,45.69-2.39a74.94,74.94,0,0,0,11.91-5.64.3.3,0,0,0-.31-.52,76.12,76.12,0,0,1-43.74,9.93,94.79,94.79,0,0,1-13.39-2c-.38-.09-.54.5-.16.58Z"/><path class="cls-9" d="M200.43,223.43c2,4.71,6.37,8.63,11.68,8.64a.31.31,0,0,0,0-.61c-5,0-9.23-3.74-11.1-8.19-.15-.36-.74-.2-.58.16Z"/><path class="cls-9" d="M146.66,159.15h-.13a.91.91,0,0,0-.43.1.77.77,0,0,0-.36.23.88.88,0,0,0-.24.36.83.83,0,0,0-.09.44l0,.3a1.07,1.07,0,0,0,.29.49l.22.18a1.16,1.16,0,0,0,.57.15h.13a.72.72,0,0,0,.43-.1.85.85,0,0,0,.37-.23,1,1,0,0,0,.23-.36.8.8,0,0,0,.09-.43l0-.3a1.18,1.18,0,0,0-.28-.5l-.23-.17a1.07,1.07,0,0,0-.57-.16Z"/><path class="cls-9" d="M182.66,163.61a1.13,1.13,0,0,0,0-2.25,1.13,1.13,0,0,0,0,2.25Z"/><path class="cls-9" d="M154.7,167.53a1.13,1.13,0,0,0,0-2.25,1.13,1.13,0,0,0,0,2.25Z"/><path class="cls-9" d="M155.21,155.32h-.12a1,1,0,0,0-.44.1,1,1,0,0,0-.59.59.84.84,0,0,0-.1.44l0,.3a1.07,1.07,0,0,0,.29.49l.23.18a1.1,1.1,0,0,0,.57.15h.12a.75.75,0,0,0,.44-.1,1,1,0,0,0,.59-.59.91.91,0,0,0,.1-.43l0-.3a1.2,1.2,0,0,0-.29-.5l-.23-.17a1,1,0,0,0-.57-.16Z"/><path class="cls-9" d="M160.7,164.08a1.13,1.13,0,0,0,0-2.25,1.13,1.13,0,0,0,0,2.25Z"/><path class="cls-9" d="M166,158v.13a.8.8,0,0,0,.1.43,1,1,0,0,0,.59.59.84.84,0,0,0,.44.1l.29,0a1.1,1.1,0,0,0,.5-.29l.18-.23a1.09,1.09,0,0,0,.15-.56V158a.78.78,0,0,0-.1-.43,1,1,0,0,0-.59-.6.94.94,0,0,0-.43-.1l-.3,0a1.2,1.2,0,0,0-.5.29l-.18.23a1.16,1.16,0,0,0-.15.57Z"/><path class="cls-9" d="M174.87,159.44a1.13,1.13,0,0,0,0-2.25,1.13,1.13,0,0,0,0,2.25Z"/><path class="cls-9" d="M186.36,156.85a1.13,1.13,0,0,0,0-2.25,1.13,1.13,0,0,0,0,2.25Z"/><path class="cls-9" d="M195.27,158.52l.13.13a.86.86,0,0,0,.36.23.91.91,0,0,0,.43.1.88.88,0,0,0,.43-.1.89.89,0,0,0,.37-.23l.17-.23a1.17,1.17,0,0,0,.16-.57l0-.3a1.16,1.16,0,0,0-.29-.49l-.13-.13a.77.77,0,0,0-.36-.23.75.75,0,0,0-.44-.1.72.72,0,0,0-.43.1.77.77,0,0,0-.36.23l-.18.23a1.09,1.09,0,0,0-.15.56l0,.3a1.1,1.1,0,0,0,.29.5Z"/><path class="cls-9" d="M199.38,165.74a1.13,1.13,0,0,0,0-2.25,1.13,1.13,0,0,0,0,2.25Z"/><path class="cls-9" d="M188.4,168.93a1.13,1.13,0,0,0,0-2.25,1.13,1.13,0,0,0,0,2.25Z"/><path class="cls-9" d="M188.36,162.51a1.13,1.13,0,0,0,0-2.25,1.13,1.13,0,0,0,0,2.25Z"/><path class="cls-9" d="M180.36,169.57a1.13,1.13,0,0,0,0-2.25,1.13,1.13,0,0,0,0,2.25Z"/><path class="cls-9" d="M174.32,165.19a1.13,1.13,0,0,0,0-2.25,1.13,1.13,0,0,0,0,2.25Z"/><path class="cls-9" d="M176.66,176.47a1.13,1.13,0,0,0,0-2.25,1.13,1.13,0,0,0,0,2.25Z"/><path class="cls-9" d="M185.6,174.93a1.13,1.13,0,0,0,0-2.25,1.13,1.13,0,0,0,0,2.25Z"/><path class="cls-9" d="M194,175.7a1.13,1.13,0,0,0,0-2.25,1.13,1.13,0,0,0,0,2.25Z"/><path class="cls-9" d="M171,176.85a1.13,1.13,0,0,0,0-2.25,1.13,1.13,0,0,0,0,2.25Z"/><path class="cls-9" d="M166.32,170.34a1.13,1.13,0,0,0,0-2.25,1.13,1.13,0,0,0,0,2.25Z"/><path class="cls-9" d="M146.4,154.64a1.13,1.13,0,0,0,0-2.25,1.13,1.13,0,0,0,0,2.25Z"/><path class="cls-9" d="M144.49,173.91a1.13,1.13,0,0,0,0-2.25,1.13,1.13,0,0,0,0,2.25Z"/><path class="cls-9" d="M140.91,165.87a1.13,1.13,0,0,0,0-2.25,1.13,1.13,0,0,0,0,2.25Z"/><path class="cls-9" d="M147.43,167.91a1.13,1.13,0,0,0,0-2.25,1.13,1.13,0,0,0,0,2.25Z"/><path class="cls-9" d="M141.68,158.34a1.13,1.13,0,0,0,0-2.25,1.13,1.13,0,0,0,0,2.25Z"/><path class="cls-9" d="M153.43,148.81h-.13a1,1,0,0,0-.44.1.82.82,0,0,0-.36.23.86.86,0,0,0-.23.36,1,1,0,0,0-.1.44l0,.3a1.16,1.16,0,0,0,.29.49l.23.18a1.13,1.13,0,0,0,.57.15h.13a.83.83,0,0,0,.43-.1,1,1,0,0,0,.59-.59.8.8,0,0,0,.1-.43l0-.3a1.1,1.1,0,0,0-.29-.5L154,149a1.09,1.09,0,0,0-.56-.15Z"/><path class="cls-9" d="M160.83,150.81H161a.91.91,0,0,0,.43-.1.86.86,0,0,0,.36-.23,1,1,0,0,0,.24-.37.78.78,0,0,0,.09-.43l0-.3a1.07,1.07,0,0,0-.29-.49l-.22-.18a1.16,1.16,0,0,0-.57-.15h-.13a.78.78,0,0,0-.43.09,1,1,0,0,0-.37.24.86.86,0,0,0-.23.36.91.91,0,0,0-.1.43l0,.3a1.2,1.2,0,0,0,.29.5l.23.17a1.17,1.17,0,0,0,.57.16Z"/><path class="cls-9" d="M179.66,155.34v.13a.91.91,0,0,0,.1.43.77.77,0,0,0,.23.36.88.88,0,0,0,.36.24.83.83,0,0,0,.44.09l.3,0a1.07,1.07,0,0,0,.49-.29l.18-.22a1.16,1.16,0,0,0,.15-.57v-.13a.8.8,0,0,0-.09-.43,1,1,0,0,0-.24-.37,1,1,0,0,0-.36-.23.8.8,0,0,0-.43-.09l-.3,0a1.18,1.18,0,0,0-.5.28l-.17.23a1.07,1.07,0,0,0-.16.57Z"/><path class="cls-9" d="M193.89,165.61a1.13,1.13,0,0,0,0-2.25,1.13,1.13,0,0,0,0,2.25Z"/><path class="cls-9" d="M148.06,183a1.13,1.13,0,0,0,0-2.25,1.13,1.13,0,0,0,0,2.25Z"/><path class="cls-9" d="M153,187.7a1.13,1.13,0,0,0,0-2.25,1.13,1.13,0,0,0,0,2.25Z"/><path class="cls-9" d="M152.74,192.93a1.13,1.13,0,0,0,0-2.25,1.13,1.13,0,0,0,0,2.25Z"/><path class="cls-9" d="M158.4,194.85a1.13,1.13,0,0,0,0-2.25,1.13,1.13,0,0,0,0,2.25Z"/><path class="cls-9" d="M155.6,201a1.13,1.13,0,0,0,0-2.25,1.13,1.13,0,0,0,0,2.25Z"/><path class="cls-9" d="M163.13,202.38a1.13,1.13,0,0,0,0-2.25,1.13,1.13,0,0,0,0,2.25Z"/><path class="cls-9" d="M157.26,208.64a1.13,1.13,0,0,0,0-2.25,1.13,1.13,0,0,0,0,2.25Z"/><path class="cls-9" d="M163.64,210.55a1.13,1.13,0,0,0,0-2.25,1.13,1.13,0,0,0,0,2.25Z"/><path class="cls-9" d="M169.77,206.85a1.13,1.13,0,0,0,0-2.25,1.13,1.13,0,0,0,0,2.25Z"/><path class="cls-9" d="M167.44,216.19v-.13a.8.8,0,0,0-.09-.43.88.88,0,0,0-.24-.36.77.77,0,0,0-.36-.23.8.8,0,0,0-.43-.1l-.3,0a1.1,1.1,0,0,0-.5.29l-.17.23a1.1,1.1,0,0,0-.16.56v.13a.88.88,0,0,0,.1.43.89.89,0,0,0,.23.37,1,1,0,0,0,.37.23.88.88,0,0,0,.43.1l.3,0a1.16,1.16,0,0,0,.49-.29l.18-.23a1.16,1.16,0,0,0,.15-.57Z"/><path class="cls-9" d="M159.55,217.7a1.13,1.13,0,0,0,0-2.25,1.13,1.13,0,0,0,0,2.25Z"/><path class="cls-9" d="M165.17,224.47a1.13,1.13,0,0,0,0-2.25,1.13,1.13,0,0,0,0,2.25Z"/><path class="cls-10" d="M234.47,131.72s2.17-4.67,4.81-4.14,2.61,6.2-.09,7.21S234.47,131.72,234.47,131.72Z"/><path class="cls-10" d="M233.48,131.58c-.87.19-3.41.83-4.48,3.06s5.69,6,6.76,1.32c.57-2.46-.11-3.54-.86-4A2.59,2.59,0,0,0,233.48,131.58Z"/><path class="cls-10" d="M234.72,132.05s1.95-4.76-.17-6.33-6.21,2.29-5.16,4.95S234.72,132.05,234.72,132.05Z"/><path class="cls-34" d="M234.16,131.49s-.09-4.88-2.13-3.78C229.24,129.21,234.16,131.49,234.16,131.49Z"/><path class="cls-34" d="M234.72,132.05s1.3-3.53,3.43-2.65S237.79,133.17,234.72,132.05Z"/><path class="cls-34" d="M232.65,132.53a11.13,11.13,0,0,0-2.55,1.93,4.83,4.83,0,0,1,1.09-1.21A3.84,3.84,0,0,1,232.65,132.53Z"/><path class="cls-34" d="M233.21,133a12.56,12.56,0,0,1-.76,2,21.35,21.35,0,0,1-1,1.9c.23-.68.53-1.32.81-2l.47-1C232.89,133.59,233.07,133.28,233.21,133Z"/><path class="cls-34" d="M234.47,133.06a4.38,4.38,0,0,1,.33,1.65,2.16,2.16,0,0,1-.56,1.56,3,3,0,0,0,.37-1.57A11.47,11.47,0,0,0,234.47,133.06Z"/><path class="cls-35" d="M234.78,132.27s.24-1.83-1.71-1-2.41,1.17-2,1.34.33.32.57.75.79,0,.94.46.66.1,1.09.17.54.9,1,.6S234.78,132.27,234.78,132.27Z"/><path class="cls-34" d="M236.23,132.92a.1.1,0,0,0,0-.2.1.1,0,0,0,0,.2Z"/><path class="cls-34" d="M236,132.61a.14.14,0,0,0,0-.28.14.14,0,0,0,0,.28Z"/><path class="cls-34" d="M236.53,133.29a.14.14,0,0,0,0-.28.14.14,0,0,0,0,.28Z"/><path class="cls-34" d="M236.61,132.66a.14.14,0,0,0,0-.28.14.14,0,0,0,0,.28Z"/><path class="cls-34" d="M236.85,132.91a.1.1,0,0,0,0-.19.1.1,0,1,0,0,.19Z"/><path class="cls-34" d="M234.5,130.51a.1.1,0,1,0,0-.19.1.1,0,0,0,0,.19Z"/><path class="cls-34" d="M234.65,130.17a.14.14,0,0,0,0-.28.14.14,0,0,0,0,.28Z"/><path class="cls-34" d="M234.42,131a.14.14,0,0,0,0-.28.14.14,0,0,0,0,.28Z"/><path class="cls-34" d="M235,130.69a.14.14,0,0,0,0-.28.14.14,0,0,0,0,.28Z"/><path class="cls-34" d="M234.88,131a.1.1,0,0,0,0-.2.1.1,0,0,0,0,.2Z"/><path class="cls-34" d="M232.11,131.31a.1.1,0,1,0,0-.19.1.1,0,0,0,0,.19Z"/><path class="cls-34" d="M231.74,131.18a.14.14,0,0,0,0-.28.14.14,0,0,0,0,.28Z"/><path class="cls-34" d="M232.54,131.46a.14.14,0,0,0,0-.28.14.14,0,0,0,0,.28Z"/><path class="cls-34" d="M232.27,130.89a.14.14,0,0,0,0-.28.14.14,0,0,0,0,.28Z"/><path class="cls-34" d="M232.63,131a.1.1,0,0,0,0-.19.1.1,0,0,0,0,.19Z"/><path class="cls-36" d="M235.82,133.81c.06.27,10.31,32.62,8.07,43.87"/><path class="cls-37" d="M254.83,181.1c.12.76,0-5.43,2.95-8.07S271,160.94,271,160.94a13.82,13.82,0,0,0-9.61,2.33C256.54,166.52,253.44,172,254.83,181.1Z"/><path class="cls-38" d="M264.68,181c0,1.58-6.93,2.87-15.47,2.87s-15.46-1.29-15.46-2.87,6.92-2.87,15.46-2.87S264.68,179.44,264.68,181Z"/><path class="cls-22" d="M254.45,184.74s2.32-42.33,17.67-64.19c-11.39,11.63-24.65,37.06-23,63.65C251.19,193.35,254.45,184.74,254.45,184.74Z"/><path class="cls-21" d="M252.88,186.36s-.41-13,13.55-15.53c6.87-1.24,7.82.94,10.42.86S256.79,179.09,252.88,186.36Z"/><path class="cls-37" d="M248.32,184.35c.29.4.78-35-7.75-50.54C239.79,150.71,240.1,173,248.32,184.35Z"/><path class="cls-10" d="M250.12,136.54s-1.18-5.58,1.5-6.87,6.44,3.76,4.72,6.44S250.12,136.54,250.12,136.54Z"/><path class="cls-10" d="M249.15,137.07c-.64.76-2.46,3-1.93,5.69s9,1.5,6.87-3.32c-1.14-2.56-2.45-3.07-3.44-3A2.91,2.91,0,0,0,249.15,137.07Z"/><path class="cls-10" d="M250.57,136.66s-1.45-5.51-4.37-5.49-4,6.16-1.28,7.82S250.57,136.66,250.57,136.66Z"/><path class="cls-34" d="M249.69,136.54s-3.33-4.26-4.4-1.93C243.82,137.79,249.69,136.54,249.69,136.54Z"/><path class="cls-34" d="M250.57,136.66s-1.2-4,1.27-4.63S254,135.61,250.57,136.66Z"/><path class="cls-34" d="M249.05,138.47a12.15,12.15,0,0,0-1,3.4,5.08,5.08,0,0,1,.16-1.79A4,4,0,0,1,249.05,138.47Z"/><path class="cls-34" d="M249.83,138.47a12.9,12.9,0,0,1,.65,2.28,20.22,20.22,0,0,1,.39,2.33c-.25-.75-.41-1.52-.59-2.29l-.23-1.16C250,139.25,249.93,138.85,249.83,138.47Z"/><path class="cls-34" d="M251,137.72A4.7,4.7,0,0,1,252.4,139a2.37,2.37,0,0,1,.54,1.76,3.16,3.16,0,0,0-.71-1.63A11.28,11.28,0,0,0,251,137.72Z"/><path class="cls-35" d="M250.76,136.82s-1-1.78-2.14.29-1.36,2.65-.86,2.5.5.08,1,.29.72-.5,1.14-.21.65-.36,1.08-.58,1.07.43,1.29-.14S250.76,136.82,250.76,136.82Z"/><path class="cls-34" d="M252.41,136.45a.11.11,0,0,0,0-.21.11.11,0,0,0,0,.21Z"/><path class="cls-34" d="M252,136.34a.16.16,0,0,0,0-.31.16.16,0,0,0,0,.31Z"/><path class="cls-34" d="M252.89,136.59a.16.16,0,0,0,0-.31.16.16,0,0,0,0,.31Z"/><path class="cls-34" d="M252.55,136a.16.16,0,0,0,0-.31.16.16,0,0,0,0,.31Z"/><path class="cls-34" d="M253,136a.11.11,0,0,0,0-.22c-.13,0-.13.22,0,.22Z"/><path class="cls-34" d="M249.28,135.47a.11.11,0,0,0,0-.22c-.13,0-.13.22,0,.22Z"/><path class="cls-34" d="M249.16,135.07a.16.16,0,0,0,0-.31.16.16,0,0,0,0,.31Z"/><path class="cls-34" d="M249.5,136a.16.16,0,0,0,0-.32.16.16,0,0,0,0,.32Z"/><path class="cls-34" d="M249.78,135.32a.16.16,0,0,0,0-.31.16.16,0,0,0,0,.31Z"/><path class="cls-34" d="M250,135.65a.11.11,0,0,0,0-.21.11.11,0,0,0,0,.21Z"/><path class="cls-34" d="M247.7,137.76a.11.11,0,0,0,0-.21.11.11,0,0,0,0,.21Z"/><path class="cls-34" d="M247.25,137.91a.16.16,0,0,0,0-.31.16.16,0,0,0,0,.31Z"/><path class="cls-34" d="M248.15,137.62a.16.16,0,0,0,0-.31.16.16,0,0,0,0,.31Z"/><path class="cls-34" d="M247.54,137.3a.16.16,0,0,0,0-.31.16.16,0,0,0,0,.31Z"/><path class="cls-34" d="M247.93,137.11a.11.11,0,0,0,0-.21.11.11,0,0,0,0,.21Z"/><path class="cls-36" d="M249.41,143.26c0,.24,1.7,29.08-.7,38.07"/><path class="cls-39" d="M222.26,141.55c.22-.11,6.22-1.41,8.07-2.63s.36,2.38-1.35,3S222.26,141.55,222.26,141.55Z"/><path class="cls-22" d="M244.65,180.44s-13.26-41.63-21.86-55.12C226,147.18,231.62,171.14,244.65,180.44Z"/><path class="cls-40" d="M242.77,141.1c-1.68-1-10.61,2.75-10.61,2.75s8-4.43,7.61-4.91c-.91-1.09-6.3.52-9.44,1.25a25,25,0,0,1-4.66,0,2.64,2.64,0,0,0,0,.28c-2.24.15-5.27,4.27-5.84,4.92-1.4,1.58-30.58,31.67-38,44.27-3.07-3.23-18.1-21.49-18.1-21.49s-11.31-.48-17.61,6.47c0,0,16,32.31,38.29,39.9,2.26-1.45,15.35-15.67,22.78-33.28,4.69-10.34,8.19-14.11,11.88-21.15,1.09-2.09,3.91-3.64,6.19-4.69,2.1-.58,5.9-2.13,5.9-2.13s10.33-3.57,10.23-4.62-8,1.1-8,1.1,9.17-4.05,8.55-5.5c-.32-.73-8.92,2.79-8.92,2.79S243.67,141.64,242.77,141.1Z"/><path class="cls-41" d="M233.59,181.1s8.14,3.18,15.89,2.87,13.26-1.4,15.43-2.95c-1.55,3.41-1.55,6.82.31,8.06s1.55,34.11,1.55,34.11-17,7.45-35,0c-.62-12.71,0-33.49,0-33.49S234.83,184.2,233.59,181.1Z"/><g class="cls-42"><path class="cls-10" d="M237.31,207.27a1.37,1.37,0,0,0,0-2.73,1.37,1.37,0,0,0,0,2.73Z"/><path class="cls-10" d="M236.07,197.66a1.37,1.37,0,0,0,0-2.73,1.37,1.37,0,0,0,0,2.73Z"/><path class="cls-10" d="M243.36,201.07a1.37,1.37,0,0,0,0-2.73,1.37,1.37,0,0,0,0,2.73Z"/><path class="cls-10" d="M241.5,192.23a1.37,1.37,0,0,0,0-2.73,1.37,1.37,0,0,0,0,2.73Z"/><path class="cls-10" d="M255.3,189.91a1.37,1.37,0,0,0,0-2.74,1.37,1.37,0,0,0,0,2.74Z"/><path class="cls-10" d="M262.74,198.74a1.37,1.37,0,0,0,0-2.73,1.37,1.37,0,0,0,0,2.73Z"/><path class="cls-10" d="M254.68,198.59a1.37,1.37,0,0,0,0-2.73,1.37,1.37,0,0,0,0,2.73Z"/><path class="cls-10" d="M264.14,189.44a1.37,1.37,0,0,0,0-2.73,1.37,1.37,0,0,0,0,2.73Z"/><path class="cls-10" d="M234.37,186.34a1.37,1.37,0,0,0,0-2.73,1.37,1.37,0,0,0,0,2.73Z"/><path class="cls-10" d="M231.42,204.17a1.37,1.37,0,0,0,0-2.73,1.37,1.37,0,0,0,0,2.73Z"/><path class="cls-10" d="M235,215.18a1.37,1.37,0,0,0,0-2.73,1.37,1.37,0,0,0,0,2.73Z"/><path class="cls-10" d="M240.58,218.55a1.37,1.37,0,0,0,0-2.73,1.37,1.37,0,0,0,0,2.73Z"/><path class="cls-10" d="M244.6,211.46a1.37,1.37,0,0,0,0-2.73,1.37,1.37,0,0,0,0,2.73Z"/><path class="cls-10" d="M248.79,218.13a1.37,1.37,0,0,0,0-2.74,1.37,1.37,0,0,0,0,2.74Z"/><path class="cls-10" d="M251,207a1.37,1.37,0,0,0,0-2.73,1.37,1.37,0,0,0,0,2.73Z"/><path class="cls-10" d="M260.41,208.51a1.37,1.37,0,0,0,0-2.73,1.37,1.37,0,0,0,0,2.73Z"/><path class="cls-10" d="M262.54,220.41a1.37,1.37,0,0,0,0-2.73,1.37,1.37,0,0,0,0,2.73Z"/><path class="cls-10" d="M266.31,209.44a1.37,1.37,0,0,0,0-2.73,1.37,1.37,0,0,0,0,2.73Z"/><path class="cls-10" d="M255.45,214.71a1.37,1.37,0,0,0,0-2.73,1.37,1.37,0,0,0,0,2.73Z"/><path class="cls-10" d="M250.34,227a1.37,1.37,0,0,0,0-2.73,1.37,1.37,0,0,0,0,2.73Z"/><path class="cls-10" d="M266.31,217a1.37,1.37,0,0,0,0-2.73,1.37,1.37,0,0,0,0,2.73Z"/><path class="cls-10" d="M230.49,221.38a1.37,1.37,0,0,0,0-2.73,1.37,1.37,0,0,0,0,2.73Z"/><path class="cls-10" d="M256.77,226.05a1.37,1.37,0,0,0,0-2.74,1.37,1.37,0,0,0,0,2.74Z"/><path class="cls-10" d="M237,225.47a1.37,1.37,0,0,0,0-2.73,1.37,1.37,0,0,0,0,2.73Z"/></g><path class="cls-21" d="M241.93,173.16s-4.79-1.12-3.29,4.32a40.83,40.83,0,0,0,4.25,10.89c2,3.58,5.49,11.52,4.84,14.92,2.83-4.94,5.21-11.74,3.4-17.65S247.23,170.73,241.93,173.16Z"/><path class="cls-9" d="M147,175.85s4.47-5.23,13.66-7.53c-5.23.64-11.36,2.36-14.61,6.29A11.61,11.61,0,0,0,147,175.85Z"/><polygon class="cls-40" points="134.45 424.49 135.34 436.7 152.7 436.19 156.83 424.49 134.45 424.49"/><path class="cls-43" d="M135,436.63l-.93,17.44h39.3s2.56-4.19-.23-5.81-20.23-10-20.23-10v-2.33Z"/><path class="cls-19" d="M134.15,454v3.06h2.48v-.94a.51.51,0,0,1,.5-.5.51.51,0,0,1,.5.5v.94h2.66v-.94a.51.51,0,0,1,.5-.5.51.51,0,0,1,.5.5v.94h2.91v-.94a.51.51,0,0,1,.5-.5.51.51,0,0,1,.5.5v.94H148v-1.11a.5.5,0,0,1,1,0v1.11h3.17v-1.11a.5.5,0,0,1,1,0v1.11h3.6v-1.19a.5.5,0,0,1,1,0v1.19H161v-1.19a.5.5,0,0,1,1,0v1.19h3.09v-1.19a.5.5,0,0,1,.5-.5.51.51,0,0,1,.5.5v1.19h3.17v-1.36a.5.5,0,0,1,1,0v1.36h3.24V454Z"/><path class="cls-19" d="M159.39,447.33a7.93,7.93,0,0,1,4.57-3.56.13.13,0,0,0-.07-.26,8.21,8.21,0,0,0-4.74,3.69.14.14,0,0,0,.24.13Z"/><path class="cls-19" d="M154.94,444.51a6.6,6.6,0,0,1,4.6-3c.18,0,.1-.28-.07-.26a6.84,6.84,0,0,0-4.76,3.14c-.09.14.14.28.23.13Z"/><path class="cls-19" d="M156.58,446.21c1.37-1.59,2.93-3.36,5.15-3.63.17,0,.17-.3,0-.27-2.3.29-3.91,2.05-5.34,3.71-.12.13.07.32.19.19Z"/><polygon class="cls-9" points="134.66 427.17 151.51 424.45 134.49 424.28 134.66 427.17"/><polygon class="cls-40" points="197.35 424.23 197.98 437.21 215 436.53 221.63 424.23 197.35 424.23"/><polygon class="cls-9" points="197.64 426.49 215.51 424.28 197.3 424.28 197.64 426.49"/><path class="cls-43" d="M198.27,436.75l-.93,17.45h39.31s2.56-4.19-.23-5.82-20.24-10-20.24-10v-2.32Z"/><path class="cls-19" d="M197.43,454.11v3.07h2.48v-.94a.5.5,0,0,1,1,0v.94h2.66v-.94a.5.5,0,0,1,1,0v.94h2.91v-.94a.5.5,0,0,1,1,0v.94h2.83v-1.11a.5.5,0,0,1,1,0v1.11h3.17v-1.11a.5.5,0,0,1,1,0v1.11h3.6V456a.51.51,0,0,1,.5-.5.5.5,0,0,1,.5.5v1.19h3.17V456a.51.51,0,0,1,.5-.5.5.5,0,0,1,.5.5v1.19h3.08V456a.51.51,0,0,1,.5-.5.5.5,0,0,1,.5.5v1.19h3.17v-1.36a.5.5,0,0,1,.5-.5.5.5,0,0,1,.5.5v1.36h3.25v-3.07Z"/><path class="cls-19" d="M222.66,447.46a7.92,7.92,0,0,1,4.58-3.56.14.14,0,0,0-.08-.26,8.24,8.24,0,0,0-4.73,3.68c-.09.15.15.29.23.14Z"/><path class="cls-19" d="M218.22,444.64a6.53,6.53,0,0,1,4.6-3c.17,0,.1-.29-.07-.26A6.78,6.78,0,0,0,218,444.5c-.1.15.14.29.23.14Z"/><path class="cls-19" d="M219.85,446.33c1.38-1.58,2.94-3.35,5.15-3.63.17,0,.18-.29,0-.27-2.29.29-3.9,2.06-5.34,3.71-.11.13.08.33.19.19Z"/><path class="cls-40" d="M170.37,127s-1.63,14.6-10,20.3c2.89,4.47,12.42,12.47,19.65,4.76.12-3.83,2.59-9.95,4.21-11.23C179,138.5,170.37,127,170.37,127Z"/><path class="cls-44" d="M198.85,123a2.22,2.22,0,0,1,2.54-1,5.24,5.24,0,0,1,3,2l-.55.27s-.15,6-3.55,5.58S198.45,123.26,198.85,123Z"/><path class="cls-40" d="M171,121.94a24.94,24.94,0,0,0-.23,6.81s4.07,13.14,14.15,12.21c5-.47,7.17-4.52,9-8.55,2.79.93,3.91.35,3.91.35l.31-10.06a46.14,46.14,0,0,0,1.55-10.06,11.26,11.26,0,0,0-3.14-7.44s-12.44-10.35-23.25,8.14A46.36,46.36,0,0,0,171,121.94Z"/><path class="cls-9" d="M198.94,106.5l.23-.14s-4.11-7.21-10.7-9.38-17.44.93-17.6,15.82a25.1,25.1,0,0,0,4.17,1.42,16.8,16.8,0,0,0,10.87.49c4.88-1.36,9.25-4.54,13.1-7.73A.28.28,0,0,0,198.94,106.5Zm-18.26,8.28a11,11,0,0,0,2-.36c4.16-1.14,11.79-5.38,15-7.21C193,111,186.76,114.78,180.68,114.78Z"/><path class="cls-40" d="M173.32,114.49s-2.07-3-4.74-1.47-2.57,8,2.56,7.94S173.32,114.49,173.32,114.49Z"/><path class="cls-9" d="M169.25,116.53a3.19,3.19,0,0,1,.41,4.33c-.09.12.11.24.2.12a3.41,3.41,0,0,0-.45-4.61c-.11-.1-.28.06-.16.16Z"/><path class="cls-9" d="M170.48,118.17a1.87,1.87,0,0,0-2.5-.58c-.13.07,0,.27.12.2a1.65,1.65,0,0,1,2.18.5c.09.13.29,0,.2-.12Z"/><path class="cls-45" d="M172.68,125.51a6.32,6.32,0,1,1-7.25-5.23A6.32,6.32,0,0,1,172.68,125.51Z"/><path class="cls-46" d="M170.05,119.69a1.28,1.28,0,1,1-1.47-1.06A1.29,1.29,0,0,1,170.05,119.69Z"/><path class="cls-9" d="M187.87,118.34a10.28,10.28,0,0,1,3.4,0c1.77.32,4.91,1.83,5.55,1.8s1.43-.43-.43-1.31a18.09,18.09,0,0,0-5.82-1.74C188.26,116.79,187.87,118.34,187.87,118.34Z"/><path class="cls-9" d="M195,123.66a3.48,3.48,0,0,0-2.21-1.35,4.21,4.21,0,0,0-2.82.25c-.16.08,0,.31.14.23a3.88,3.88,0,0,1,2.6-.22,3.21,3.21,0,0,1,2.06,1.23c.09.14.33,0,.23-.14Z"/><path class="cls-9" d="M189.52,122.1a1.69,1.69,0,0,1,.17.29l0,.07v0s0,0,0,0l0,0a.75.75,0,0,1,.05.16.13.13,0,0,0,.17.09.12.12,0,0,0,.09-.16,2.26,2.26,0,0,0-.3-.65.14.14,0,0,0-.24.14Z"/><path class="cls-9" d="M190.84,121.79a1.36,1.36,0,0,1,.06.29v0a.53.53,0,0,1,0,.13.25.25,0,0,0,0,.09.13.13,0,0,0,.1,0,.13.13,0,0,0,.13-.13,1.77,1.77,0,0,0-.08-.46.14.14,0,0,0-.17-.1.14.14,0,0,0-.09.17Z"/><path class="cls-9" d="M192.06,121.67a2.53,2.53,0,0,1,0,.28s0,0,0,.07v0h0a.89.89,0,0,1,0,.14.13.13,0,0,0,.1.16.14.14,0,0,0,.17-.09,4,4,0,0,0,.05-.6.13.13,0,0,0-.14-.13.13.13,0,0,0-.13.13Z"/><path class="cls-9" d="M193.31,122l-.13.41a.14.14,0,0,0,.09.17.15.15,0,0,0,.17-.1l.13-.41a.14.14,0,0,0-.09-.16.13.13,0,0,0-.17.09Z"/><path class="cls-9" d="M194.15,123.44a.64.64,0,0,1-1.28,0,.64.64,0,0,1,1.28,0Z"/><path class="cls-47" d="M186.42,133s2.44,3.45,4.3,4.34c.54-.11,1.28-1.38,1.28-1.38Z"/><path class="cls-48" d="M192.06,135.2a.71.71,0,0,0-.82-1,13.9,13.9,0,0,1-5.06-1.45c1.46,1.74,5.47,3.58,5.82,3.23a4.83,4.83,0,0,0,.68-1.09S192.7,134.58,192.06,135.2Z"/><path class="cls-49" d="M191.26,127.53a3.34,3.34,0,1,1-3.34-3.33A3.34,3.34,0,0,1,191.26,127.53Z"/><path class="cls-50" d="M189.55,119.68a12.14,12.14,0,0,0-1.42,4.65c-.12,2.36,1.46,4.62,3.86,4.4a5.4,5.4,0,0,0,4.49-4.29c.44-2-.79-3.41-2.68-4.12a34.08,34.08,0,0,0-4.48-1.17Z"/><path class="cls-51" d="M196.59,123.4a2.71,2.71,0,0,1,1.82.35,2.54,2.54,0,0,1-.3,1.16s-.42-1.12-1.62-.21C196.8,123.42,196.59,123.4,196.59,123.4Z"/><path class="cls-51" d="M173.86,113.07l14.73,9,.77-1.78s-13.14-6.63-13.18-6.79A13.21,13.21,0,0,0,173.86,113.07Z"/><path class="cls-9" d="M184.06,141s-6.93-1.4-11.06-7c2,3.41,6.34,8,10.17,8.17C183.81,141.34,184.06,141,184.06,141Z"/><circle class="cls-52" cx="429.89" cy="144.7" r="78.89"/><line class="cls-53" x1="430.15" y1="66.15" x2="430.15" y2="223.77"/><line class="cls-53" x1="351" y1="144.7" x2="508.79" y2="144.7"/><path class="cls-21" d="M397.37,127.44c.08.15,5.06-3.64,1.7-9.67C397.42,119.12,394.51,122.07,397.37,127.44Z"/><path class="cls-21" d="M392.53,137.51s3.45-6.4-1.55-8.86C388.66,132,392.53,137.51,392.53,137.51Z"/><path class="cls-22" d="M394.66,132.46s2.86-5.56-.41-10.49A8,8,0,0,0,394.66,132.46Z"/><path class="cls-21" d="M397,128.29s8,1.37,10.9-2.82C402.08,123.76,397,128.29,397,128.29Z"/><path class="cls-22" d="M400.55,123.83s1.39-6.76,7.46-7.64A8.17,8.17,0,0,1,400.55,123.83Z"/><path class="cls-21" d="M392.51,137.35s3.07-5.1,8.51-4.08C398.27,139.8,392.51,137.35,392.51,137.35Z"/><path class="cls-22" d="M394.4,132.66s3.5-4,8.62-3.83A8.58,8.58,0,0,1,394.4,132.66Z"/><path class="cls-22" d="M390.82,143.46c.13.12,1.7-4.7-3.38-9C387,136.12,386.39,139.59,390.82,143.46Z"/><path class="cls-22" d="M390.43,143s3.5-4,8.62-3.83A8.58,8.58,0,0,1,390.43,143Z"/><path class="cls-21" d="M389.5,151s.84-8.12-3.52-10.69C384.65,146.28,389.5,151,389.5,151Z"/><path class="cls-21" d="M389.32,151s7-2.17,7.61-6.7C391.53,145.31,389.32,151,389.32,151Z"/><path class="cls-54" d="M401.71,122.44c-8.29,8.1-11.37,20.12-12.58,31.65"/><path class="cls-21" d="M405.76,135c.06.17,5.44-3,2.8-9.41C406.78,126.72,403.54,129.32,405.76,135Z"/><path class="cls-22" d="M401.9,139.79s3.49-5.19.81-10.47A8,8,0,0,0,401.9,139.79Z"/><path class="cls-21" d="M405,135.85s7.83,2.3,11.15-1.53C410.48,131.94,405,135.85,405,135.85Z"/><path class="cls-22" d="M409.33,131.77s2.17-6.56,8.3-6.73A8.18,8.18,0,0,1,409.33,131.77Z"/><path class="cls-21" d="M398.31,144.65s3.65-4.71,8.93-3.07C403.75,147.74,398.31,144.65,398.31,144.65Z"/><path class="cls-22" d="M401.69,139.82s3.94-3.55,9-2.8A8.56,8.56,0,0,1,401.69,139.82Z"/><path class="cls-21" d="M398.16,144.76s3.49-5.2.81-10.47A8,8,0,0,0,398.16,144.76Z"/><path class="cls-22" d="M394.8,153.16c.14.11,3.4-5.22-1.91-9.63C391.85,145.38,390.2,149.19,394.8,153.16Z"/><path class="cls-21" d="M394.24,154.11s8-1.63,9.14-6.56C397.3,148.07,394.24,154.11,394.24,154.11Z"/><path class="cls-54" d="M393.45,157.43a55.07,55.07,0,0,1,2.29-7.22,45.77,45.77,0,0,1,6.46-11.06,31.08,31.08,0,0,1,11.2-9.69"/><path class="cls-21" d="M379.33,119.61c-.16.07.34-4.68,6.53-7C385.62,114.22,384.77,117.48,379.33,119.61Z"/><path class="cls-21" d="M378.34,131.6s1-7.21,6.47-6.26C384.73,129.38,378.34,131.6,378.34,131.6Z"/><path class="cls-22" d="M379,126s1-6.18,6.5-8.25A8,8,0,0,1,379,126Z"/><path class="cls-22" d="M379.31,115.56s2.84-6.29-1.55-10.57A8.16,8.16,0,0,0,379.31,115.56Z"/><path class="cls-21" d="M378.37,131.48s.51-5.94-4.49-8.31C372.27,130.07,378.37,131.48,378.37,131.48Z"/><path class="cls-22" d="M379.08,126.32s-.48-5.28-4.71-8.17A8.59,8.59,0,0,0,379.08,126.32Z"/><path class="cls-22" d="M377.76,137.77c-.16.07-.4-5,5.65-7.79C383.42,131.72,383.06,135.21,377.76,137.77Z"/><path class="cls-22" d="M374.55,151.92s.9-8.11,5.72-9.69C380.3,148.33,374.55,151.92,374.55,151.92Z"/><path class="cls-22" d="M374.45,151.46s-4.4-5.89-2.22-9.9C376,145.55,374.45,151.46,374.45,151.46Z"/><path class="cls-21" d="M379.49,120.09s-2.31-7.8-7.2-8.63C373.35,117.43,379.49,120.09,379.49,120.09Z"/><path class="cls-21" d="M376.77,143.44s1-6.19,6.5-8.25A8,8,0,0,1,376.77,143.44Z"/><path class="cls-21" d="M376.65,143.4s-.48-5.28-4.72-8.16A8.58,8.58,0,0,0,376.65,143.4Z"/><path class="cls-22" d="M378,137.73s-2-6.78-6.25-7.5C372.63,135.42,378,137.73,378,137.73Z"/><path class="cls-54" d="M373.12,157.16a147.64,147.64,0,0,0,6.18-42.33"/><path class="cls-21" d="M366.27,121.64c-.15.1-.78-4.63,4.69-8.36C371.11,114.92,371.05,118.28,366.27,121.64Z"/><path class="cls-21" d="M368.12,133.52s-.75-7.23,4.81-7.59C373.81,129.87,368.12,133.52,368.12,133.52Z"/><path class="cls-22" d="M367.44,127.94s-.53-6.24,4.38-9.54A8,8,0,0,1,367.44,127.94Z"/><path class="cls-22" d="M365.29,117.71s1.28-6.78-4-9.91A8.17,8.17,0,0,0,365.29,117.71Z"/><path class="cls-21" d="M368.12,133.41s-.9-5.9-6.32-7C361.86,133.46,368.12,133.41,368.12,133.41Z"/><path class="cls-22" d="M367.6,128.21s-1.71-5-6.51-6.82A8.59,8.59,0,0,0,367.6,128.21Z"/><path class="cls-22" d="M369,139.66c-.14.11-1.56-4.75,3.66-8.9C373.08,132.44,373.55,135.92,369,139.66Z"/><path class="cls-22" d="M369.2,154.16s-1-8.09,3.29-10.76C374,149.33,369.2,154.16,369.2,154.16Z"/><path class="cls-22" d="M369,153.74s-5.67-4.68-4.49-9.09C369.14,147.63,369,153.74,369,153.74Z"/><path class="cls-21" d="M366.53,122.07s-4.08-7-9-6.7C359.93,120.93,366.53,122.07,366.53,122.07Z"/><path class="cls-21" d="M369.38,145.4s-.53-6.23,4.38-9.54A8,8,0,0,1,369.38,145.4Z"/><path class="cls-21" d="M369.25,145.39s-1.71-5-6.5-6.82A8.57,8.57,0,0,0,369.25,145.39Z"/><path class="cls-22" d="M369.2,139.57s-3.54-6.12-7.84-5.82C363.47,138.58,369.2,139.57,369.2,139.57Z"/><path class="cls-54" d="M369.05,159.6a147.88,147.88,0,0,0-3.94-42.6"/><path class="cls-21" d="M390.49,118.45c.12.12,1.59-4.42-3.16-9.07C386.89,111,386.35,114.29,390.49,118.45Z"/><path class="cls-21" d="M386.55,129.82s2-7-3.41-8.35C381.58,125.2,386.55,129.82,386.55,129.82Z"/><path class="cls-22" d="M388.22,124.44s1.62-6-2.65-10.18A8.05,8.05,0,0,0,388.22,124.44Z"/><path class="cls-22" d="M392.15,114.76s-.07-6.91,5.69-9A8.15,8.15,0,0,1,392.15,114.76Z"/><path class="cls-21" d="M386.58,129.7s1.93-5.64,7.48-5.78C392.76,130.89,386.58,129.7,386.58,129.7Z"/><path class="cls-22" d="M388,124.68s2.58-4.63,7.63-5.55A8.56,8.56,0,0,1,388,124.68Z"/><path class="cls-22" d="M384.6,135.7c.12.13,2.38-4.4-2-9.42C381.84,127.86,380.76,131.2,384.6,135.7Z"/><path class="cls-22" d="M381.84,149.94s2.44-7.78-1.35-11.18C378,144.33,381.84,149.94,381.84,149.94Z"/><path class="cls-22" d="M382.11,149.56s6.43-3.59,6-8.15C383.06,143.53,382.11,149.56,382.11,149.56Z"/><path class="cls-21" d="M390.15,118.83s5.27-6.2,10.11-5C396.87,118.89,390.15,118.83,390.15,118.83Z"/><path class="cls-21" d="M383.22,141.28s1.62-6-2.65-10.18A8,8,0,0,0,383.22,141.28Z"/><path class="cls-21" d="M383.34,141.3s2.58-4.63,7.63-5.55A8.56,8.56,0,0,1,383.34,141.3Z"/><path class="cls-22" d="M384.42,135.58s4.58-5.39,8.78-4.33C390.26,135.63,384.42,135.58,384.42,135.58Z"/><path class="cls-55" d="M381,155.32a146.89,146.89,0,0,1,11.42-41.23"/><polygon class="cls-23" points="364.28 147.17 359 174.75 388.62 181.89 396.96 155.85 364.28 147.17"/><polygon class="cls-56" points="363.77 146.83 362.75 151.09 395.6 159.43 397.13 155.17 363.77 146.83"/><polygon class="cls-57" points="492.53 418.72 492.77 437.92 474.05 441.58 471.66 419.45 492.53 418.72"/><polygon class="cls-9" points="492.66 424.47 473.17 422.09 492.55 422.26 492.66 424.47"/><path class="cls-43" d="M493.79,437.68l1.38-4.44-25.78.42,1,7.11a29.81,29.81,0,0,0-7.56,2.18,17.07,17.07,0,0,0-9.53,11.14l43.06-1Z"/><polygon class="cls-19" points="453.26 454.09 453.55 457.15 496.48 456.09 496.32 453.13 453.26 454.09"/><polygon class="cls-57" points="430.69 419.44 430.93 438.64 412.21 442.3 409.82 420.18 430.69 419.44"/><polygon class="cls-9" points="430.82 425.2 411.33 422.81 430.71 422.98 430.82 425.2"/><path class="cls-43" d="M432,438.4l1.38-4.44-25.78.43,1,7.11c-3.45.68-6.28,1.42-7.56,2.18a17,17,0,0,0-9.52,11.13l43.06-1Z"/><polygon class="cls-19" points="391.43 454.81 391.71 457.88 434.64 456.81 434.49 453.85 391.43 454.81"/><path class="cls-58" d="M468.62,194.83c-5.08,0-50.39-4.48-52.6-4.43L411.71,235,396.52,422l46.05,1.08L449,285.13l1.78,137.1,58.66.68Z"/><polygon class="cls-9" points="448.25 309.57 449.94 349.94 450.62 309.43 448.25 309.57"/><path class="cls-59" d="M468.9,196.53a19.7,19.7,0,0,0,.18,4.54,4.77,4.77,0,0,0,1.63,3c.4.29,1.06.65,1.5.24a2.68,2.68,0,0,0,.51-1.58,6.25,6.25,0,0,0-.68-3.47,7.58,7.58,0,0,0-1.15-1.66c-.55-.6-1.22-1.08-1.82-1.62-.35-.33-.88.2-.53.53.56.5,1.17,1,1.69,1.49a6.31,6.31,0,0,1,1.13,1.59,5.24,5.24,0,0,1,.52,3.62c0,.09-.06.39-.14.45s-.35,0-.48-.12a2.55,2.55,0,0,1-.65-.62,4.4,4.4,0,0,1-.7-1.58,16.64,16.64,0,0,1-.26-4.78c0-.48-.73-.48-.75,0Z"/><path class="cls-59" d="M469.14,197.2a6.89,6.89,0,0,1,3.52.31c1.17.57,1.53,1.82,2.17,2.84,1.43,2.28,4.17,2.26,6.51,1.64a.38.38,0,0,0-.19-.73,6.38,6.38,0,0,1-4.16,0c-1.23-.53-1.67-1.65-2.29-2.74a3.89,3.89,0,0,0-2.23-1.91,8.49,8.49,0,0,0-3.33-.19c-.48,0-.49.79,0,.75Z"/><path class="cls-59" d="M462.49,196.28l6.38-.26.64,2.81s-5.49,1-8,.77S462.49,196.28,462.49,196.28Z"/><path class="cls-59" d="M469,196.74a19.32,19.32,0,0,1,2.29-3.11,10.3,10.3,0,0,1,2.87-2.48c.48-.23,1.26-.49,1.52.16a1.66,1.66,0,0,1-.46,1.64,5.69,5.69,0,0,1-1.53,1.07q-.85.47-1.74.84a21.73,21.73,0,0,1-4.22,1.32c-.48.1-.28.82.2.73a22.81,22.81,0,0,0,4.47-1.43c1.27-.55,2.85-1.2,3.66-2.39.66-1,.65-2.78-.83-2.93s-2.75,1.18-3.66,2.08a21.38,21.38,0,0,0-3.22,4.12.38.38,0,0,0,.65.38Z"/><path class="cls-59" d="M470.55,198c2.81.66,2.38,4.45,2.74,6.59a8.22,8.22,0,0,0,3.72,5.53c.41.26.79-.39.38-.65a7.65,7.65,0,0,1-2.6-2.79,9.44,9.44,0,0,1-.94-3.95c-.16-2.12-.65-4.88-3.1-5.45-.47-.11-.67.61-.2.72Z"/><path class="cls-60" d="M493.41,150.78a35.69,35.69,0,0,0-5.23-14.59c-2.85-4.49-6.83-8-10.41-11.93a29.22,29.22,0,0,1-7-11.74c-.28-1.64-.54-3.31-.8-4.94a3.8,3.8,0,0,0-.16-1c-.74-4.63-1.49-8.89-2.67-11.44-3.24-7-8.69-12.09-14.3-9.71-2.39-3.06-21-5.1-23.36,15.41a120,120,0,0,1-.53,17.53l0,.05a46,46,0,0,1-9.39,19.09c-2.24,2.7-5,4.82-7.32,7.46a13.24,13.24,0,0,0-3.16,8.62,17.89,17.89,0,0,0,1.77,7.58,24.43,24.43,0,0,0,3.38,8.86c9.54,16.1,47.29,25.93,66.58,6.16,4.43-2.25,9-4.8,11-9.6S494.07,155.93,493.41,150.78Zm-82.84,7.76a14.81,14.81,0,0,1-.49-7.9c1-4.64,4.82-7.13,7.91-10.38a46.6,46.6,0,0,0,10-16.4,31.67,31.67,0,0,1-2,6.46C421.47,140.57,410.58,147.59,410.57,158.54Zm81.6,4a15.11,15.11,0,0,1-4.5,8.33,26.69,26.69,0,0,1-5.5,3.65,36.5,36.5,0,0,0,5.51-8.67s7.83-18.72-12.08-38.63c-1.94-2.06-3.16-6-4.09-10.49a26.44,26.44,0,0,0,2.86,4.65c3,3.91,6.76,7.17,10,10.9A35.13,35.13,0,0,1,492.17,162.58Z"/><path class="cls-60" d="M469.6,82.36a7.85,7.85,0,0,0-3.3-5.51,9.24,9.24,0,0,0-5.94-4.14,9.13,9.13,0,0,0-10.05,2.44,8.05,8.05,0,0,0-1.84,5c-.05,1.6,0,3.65,1.26,4.84a9.33,9.33,0,0,0,8.89,7,8.89,8.89,0,0,0,5.12-1.63.36.36,0,0,0,.47.12,11.11,11.11,0,0,0,4.09-2.83A7.79,7.79,0,0,0,469.6,82.36Zm-20.24-.09c0,.16,0,.32,0,.48a10.38,10.38,0,0,1-.15-2.81,7.16,7.16,0,0,1,1.84-4.53A7.78,7.78,0,0,1,455.8,73,9.71,9.71,0,0,0,449.36,82.27Zm18.2,5.11a8.39,8.39,0,0,1-2.44,1.81,10,10,0,0,0,2.75-6.92,10.11,10.11,0,0,0-.64-3.54,6.29,6.29,0,0,1,1.62,3.63A6.91,6.91,0,0,1,467.56,87.38Z"/><path class="cls-58" d="M442.06,133.72s-13,.77-14.55,8.94C426,150.57,419.6,194,419.6,194l49.27,2s18-36.93,5.36-55.66c-4.36-6.48-10.21-8-13.44-11.91C457.21,131.77,442.06,133.72,442.06,133.72Z"/><polygon class="cls-59" points="449.13 146.91 461.98 129.72 462.92 130.66 450.49 147.25 449.13 146.91"/><polygon class="cls-59" points="433 143.55 440.66 133.85 442.57 133.55 434.57 143.68 433 143.55"/><path class="cls-59" d="M433.38,142.91c4.31,1,17.11,4.35,17.11,4.35s-3.58,13.27,1.53,20.93c3.83,12.51,24.51,137.87,24.51,137.87s-28.08,5.88-42.13,3.32-26-4.08-30.38-1.78c2.3-14.56,10.21-122.56,9.7-134.81s8.17-25.28,8.94-32.43C430.83,142.4,430.7,142.31,433.38,142.91Z"/><g class="cls-61"><path class="cls-62" d="M474.92,197.86V141.61H418.67v.07H362.61v56.24h0v56.25h0v56h0v56.25h56.25v-.07h56.06V310.11h0V253.86h0v-56Zm-9.31-37.36h9.14v9.11h-9.14Zm0-.24v-9.11h9.13v9.11Zm0-18.46h9.13v9.11h-9.13Zm0,28h9.12V179h-9.12Zm9.12,9.37v9.13h-9.12V179.2Zm-9.12,9.34h9.12v9.13h-9.12Zm0,28.2h9.13v9.11h-9.13Zm0-.24v-9.12h9.13v9.12Zm0-18.47h9.13v9.12h-9.13Zm0,28h9.13v9.13h-9.13Zm9.12,9.36v9.13h-9.11v-9.13Zm-18.42-93.65h9.13v9.13h-9.13Zm0,9.36h9.13v9.12h-9.13Zm0,9.36h9.14v9.11h-9.14Zm9.35,130.72v-9.13h9.12v9.13Zm9.12.23v9.13h-9.12v-9.13Zm-9.17,56v-9.14h9.13v9.14Zm9.12.23v9.13h-9.11v-9.13Zm-9.11-28.28v-9.12h9.13v9.12Zm9.13.23v9.11h-9.13v-9.11Zm-9.36-.23h-9.12v-9.13h9.12Zm0,.22v9.12h-9.13v-9.12ZM456,263.17H446.9v-9.08H456Zm0,.23v9.13h-9.13V263.4Zm-18.53,65.37v-9.14h9.13v9.14Zm0,9.57h9.13v9.13h-9.13Zm-.17-46.9v9.13h-9.13v-9.13Zm-9.13-.22v-9.13h9.13v9.13Zm0-9.35v-9.13h9.14v9.13Zm9.09,65.8v9.14h-9.12v-9.14Zm-9.12-.21v-9.14h9.12v9.14Zm0-9.35V329h9.13v9.13Zm0-9.33v-9.15h9.11v9.15Zm0-9.38v-9.13h9.14v9.13Zm-18.89.08h-9.12v-9.13h9.12Zm0,.23v9.11h-9.13v-9.11ZM400,263.24h-9.14v-9.07H400Zm0,.23v9.14h-9.13v-9.14Zm-18.53,65.37v-9.13h9.13v9.13Zm0,9.57h9.12v9.14h-9.12Zm-.18-46.9v9.14h-9.13v-9.14Zm-9.13-.22v-9.13h9.13v9.13Zm0-9.35v-9.12h9.13v9.12Zm9.08,65.81v9.13h-9.12v-9.13Zm-9.12-.22v-9.14h9.12v9.14Zm0-9.35v-9.13h9.14v9.13Zm0-9.33v-9.14h9.12v9.14Zm0-9.37v-9.14h9.14v9.14Zm9.36-93.56V216.8h9.13v9.12Zm9.11.23v9.14h-9.12v-9.14Zm18.71,9.12h-9.13v-9.11h9.13Zm0-56.23H400.2v-9.12h9.14Zm-18.53,56.23v-9.12h9.13v9.12Zm9.12.24v9.13h-9.12v-9.13Zm-9.12-9.59v-9.11H400v9.11ZM400,179h-9.14v-9.12H400Zm0,.23v9.13h-9.12v-9.13Zm0,9.35v9.12h-9.14v-9.12Zm-.05,28H390.8v-9.14h9.14Zm-9.13,28.26h9.13v9.09h-9.13Zm-.17-47.11H381.5v-9.12h9.14Zm-.05,56.2h-9.13v-9.09h9.13Zm-18.69-9.32h-9.14v-9.13h9.14Zm0-56.23H362.8v-9.13h9.14Zm0-18.7H362.8v-9.13h9.14Zm0,.22V179H362.8v-9.13Zm0,18.7v9.14H362.8v-9.14Zm0,28h-9.14v-9.12h9.14Zm0,.23v9.13h-9.14V216.8Zm0,9.35v9.13h-9.14v-9.13Zm0,18.7v9.09h-9.14v-9.09Zm.28,27.76v-9.14h9.11v9.14Zm0-9.37v-9.07h9.13v9.07Zm18.42,56.24h-9.12v-9.14h9.12Zm-9.09-28h9.15v9.11h-9.15Zm9.14-.22H381.5v-9.14h9.13Zm-9.13-18.7v-9.14h9.13v9.14Zm9.13-9.37h-9.12v-9.07h9.12Zm9.58.23h9.13v9.12h-9.13Zm9.12-.23h-9.12v-9.07h9.12Zm.18-46.43h9.12v9.11h-9.12Zm0-.24v-9.12h9.12v9.12Zm.05-56h9.11v9.12h-9.11Zm0-.23v-9.12h9.11v9.12ZM428,216.49h-9.14v-9.11H428Zm9.56,9.36v-9.12h9.14v9.12Zm9.12.23v9.14h-9.13v-9.14Zm.23,9.12v-9.12H456v9.12Zm9.12.23v9.14h-9.12v-9.14Zm-9.12-9.58v-9.12H456v9.12ZM456.05,179h-9.14v-9.12h9.14Zm0,.23v9.13h-9.12V179.2Zm0,9.34v9.13h-9.14v-9.13Zm-.06,28h-9.13v-9.13H456Zm-9.13,28.27H456v9.08h-9.14Zm-.16-47.11h-9.14v-9.13h9.14Zm-.05,56.19h-9.13v-9.08h9.13Zm-27.83,84.47H428v9.13h-9.13Zm0-.22V329H428v9.13Zm0-27.84H428v9.14h-9.13Zm0-28.18H428v9.13h-9.13Zm0-.21v-9.14H428v9.14Zm0-27.79H428v9.09h-9.13Zm9.36,18.45V263.4h9.12v9.14Zm0-9.37v-9.08h9.13v9.08Zm18.42,56.23h-9.12v-9.13h9.12Zm-9.09-27.95h9.15v9.12h-9.15Zm9.13-.21h-9.12V282.1h9.12Zm-9.12-18.7V263.4h9.13v9.14Zm9.13-9.37h-9.12v-9.08h9.12Zm9.57.23h9.13v9.12h-9.13Zm9.13-.23h-9.13v-9.08h9.13Zm.22,0v-9.08h9.13v9.08Zm9.13.23v9.12h-9.13V263.4Zm-9.39-28.2h-9.13v-9.12h9.13Zm0-56.24h-9.14v-9.11h9.14Zm-9.14.24h9.14v9.13h-9.14Zm0,9.35h9.14v9.12h-9.14Zm0,9.47h9.12v9.13h-9.12Zm0,9.36h9.13v9.12h-9.13Zm0,9.35h9.13v9.12h-9.13Zm0,18.7h9.14v9.14h-9.14Zm9.13,9.36v9.07h-9.13v-9.07Zm-9.29-75.18h-9.14V160.5h9.14Zm0-9.33h-9.13v-9.14H456Zm-9.14-18.5H456v9.14H446.9Zm0,56.24H456v9.13h-9.14Zm-.15-28.41h-9.13V160.5h9.13Zm0,.24V179h-9.12v-9.13Zm-9.11-28.07h9.12v9.13h-9.12Zm0,9.36h9.13v9.14h-9.13Zm0,28.06h9.15v9.11h-9.15Zm0,18.81h9.12v9.14h-9.12Zm0,9.37h9.13v9.14h-9.13Zm0,28.05h9.15v9.12H437.5Zm-9.28-93.65h9.13v9.13h-9.13Zm9.12,9.36v9.15h-9.12v-9.15Zm-9.14,9.35h9.14v9.12H428.2Zm9.14,18.69v9.14h-9.13v-9.14Zm-9.13-.22v-9.13h9.13V179Zm0,9.59h9.15v9.11H428.2Zm0,9.47h9.14v9.13h-9.14Zm9.12,9.36v9.14h-9.11v-9.14Zm-9.13,9.34h9.13v9.13h-9.13Zm9.13,18.7v9.13h-9.12v-9.13Zm-9.12-.22v-9.13h9.12v9.13Zm9.14,9.58v9.08h-9.15v-9.08ZM428,160.26h-9.14v-9.12H428Zm-9.15-18.48H428v9.14h-9.13Zm0,18.71H428v9.13h-9.13Zm0,9.35H428V179h-9.13Zm0,9.35H428v9.12h-9.14Zm0,9.35H428v9.14h-9.13Zm0,9.48H428v9.14h-9.13Zm0,18.7H428v9.14h-9.13Zm0,9.35H428v9.14h-9.13Zm0,9.35H428v9.13h-9.13Zm9.13,9.36v9.08h-9.13v-9.08Zm-18.4-102.91h9.12V151h-9.12Zm0,28h9.12V179h-9.12Zm9.12,9.36v9.13h-9.12v-9.13Zm-9.12,9.34h9.12v9.13h-9.12Zm0,9.5h9.12v9.11h-9.12Zm0,28h9.12v9.13h-9.12Zm9.11,9.37v9.13h-9.11v-9.13Zm0,9.34v9.09H409.5v-9.09Zm-18.42-103h9.12V151h-9.12Zm0,9.36h9.13v9.11h-9.13Zm0,9.35h9.14v9.12H400.2Zm0,18.7h9.14v9.13H400.2Zm0,9.35h9.14v9.13h-9.14Zm0,9.47h9.12v9.13h-9.12Zm0,9.36h9.13v9.12h-9.13Zm0,9.36h9.13v9.11h-9.13Zm0,18.7h9.13v9.13h-9.13Zm9.12,9.35v9.08h-9.13v-9.08ZM400,169.69h-9.14v-9.12H400Zm0-9.34h-9.13v-9.14H400Zm-9.14-18.5H400V151h-9.14Zm0,56.24h9.13v9.13H390.8Zm-.16-28.41h-9.13v-9.11h9.13Zm0,.24v9.14H381.5v-9.14Zm-9.12-28.07h9.12V151h-9.12Zm0,9.37h9.13v9.13H381.5Zm0,28.05h9.15v9.11h-9.15Zm0,18.82h9.12v9.13h-9.12Zm0,9.36h9.13v9.14h-9.13Zm0,28.06h9.14v9.11h-9.14Zm-9.29-93.66h9.13V151h-9.13Zm9.12,9.36v9.15h-9.11v-9.15Zm-9.13,9.35h9.13v9.13h-9.13Zm9.13,18.69v9.14h-9.13v-9.14Zm-9.13-.21V169.9h9.13V179Zm0,9.58h9.15v9.12h-9.15Zm0,9.47h9.14v9.13h-9.14Zm9.13,9.36v9.14h-9.12v-9.14Zm-9.14,9.35h9.14v9.12H372.1Zm9.13,18.69v9.14h-9.12v-9.14Zm-9.12-.22v-9.13h9.12v9.13Zm9.14,9.59v9.08H372.1v-9.08ZM372,160.33h-9.14v-9.11H372Zm-9.16-18.47h9.15V151h-9.15Zm0,56.23h9.14v9.14h-9.14Zm9.19,56.08v9.08h-9.15v-9.08ZM362.8,282v-9.13h9.14V282Zm9.13.22v9.13H362.8v-9.13Zm-9.18,28.18h9.14v9.14h-9.14Zm0,27.83v-9.13h9.14v9.13Zm9.14.22v9.13h-9.14V338.4Zm0,27.84h-9.14v-9.13h9.14Zm0-9.36h-9.14v-9.13h9.14Zm0-28.06h-9.14v-9.11h9.14Zm0-18.82H362.8v-9.13h9.14Zm0-9.36H362.8v-9.13h9.14Zm0-28.05h-9.14v-9.12H372Zm9.3,93.64H372.1v-9.12h9.15Zm0-56.24h-9.15v-9.12h9.15Zm.16,37.77h9.14v9.12h-9.14Zm9.14,18.47h-9.13v-9.12h9.13Zm0-28.05h-9.13v-9.12h9.13Zm0-28.18H381.5v-9.13h9.14Zm0-28.06h-9.13v-9.12h9.13Zm.16,28.4h9.13v9.14H390.8Zm0,9.37h9.14v9.13H390.8Zm9.14,46.52h-9.13v-9.12h9.13Zm-9.13-9.34v-9.13h9.12v9.13Zm9.13-9.36h-9.13v-9.12h9.13Zm0-9.35h-9.14v-9.12H400ZM400,310h-9.14v-9.13H400Zm-9.14-9.34v-9.13H400v9.13Zm9.14-9.37h-9.14v-9.12H400Zm0-9.35h-9.14v-9.12H400Zm9.29,84.3h-9.13v-9.13h9.13Zm0-9.35h-9.13v-9.13h9.13Zm0-9.36h-9.13v-9.12h9.13Zm0-9.35h-9.13v-9.12h9.13Zm0-28.18h-9.14v-9.12h9.14Zm0-9.34H400.2v-9.14h9.14Zm0-9.37H400.2v-9.11h9.14Zm0-9.35H400.2v-9.11h9.14Zm9.29,84.3H409.5V357.1h9.13Zm-9.12-9.35v-9.13h9.11v9.13Zm9.12-9.36h-9.12V338.4h9.12Zm0-9.35h-9.12v-9.11h9.12Zm0-9.35h-9.12v-9.12h9.12Zm0-9.35h-9.12v-9.12h9.12Zm0-9.48h-9.12v-9.13h9.12Zm-9.12-9.34v-9.13h9.12v9.13Zm9.12-9.37h-9.12v-9.13h9.12Zm0-9.35h-9.11v-9.11h9.11Zm0-9.35h-9.11v-9.12h9.11Zm-9.12-9.35v-9.07h9.12v9.07ZM428,366.17h-9.13V357H428Zm0-9.37h-9.13v-9.12H428Zm0-28.05h-9.14v-9.12H428Zm0-18.82h-9.13V300.8H428Zm0-9.36h-9.14v-9.13H428Zm0-28.06h-9.14V263.4H428Zm9.3,93.64h-9.15V357h9.15Zm0-56.23H428.2V300.8h9.15Zm.15,37.77h9.15v9.11H437.5Zm9.15,18.47h-9.13V357h9.13Zm0-28.06h-9.14V329h9.14Zm0-28.18h-9.14V300.8h9.14Zm0-28.05h-9.13v-9.12h9.13Zm.15,28.4H456v9.14h-9.14Zm0,9.36H456v9.14h-9.13ZM456,366.16h-9.14V357H456Zm-9.13-9.34v-9.13H456v9.13Zm9.13-9.36h-9.13v-9.12H456Zm0-9.36h-9.13V329H456Zm.05-28.18h-9.14V300.8h9.14Zm-9.14-9.33v-9.14H456v9.14Zm9.14-9.37h-9.14V282.1h9.14Zm0-9.35h-9.14v-9.12h9.14Zm9.29,84.29h-9.13V357h9.13Zm0-9.34h-9.14v-9.13h9.14Zm0-9.36h-9.13v-9.12h9.13Zm0-9.36h-9.13V329h9.13Zm0-28.17h-9.14v-9.12h9.14Zm0-9.35h-9.14v-9.13h9.14Zm0-9.36h-9.14V282.1h9.14Zm0-9.35h-9.14v-9.12h9.14Zm9.29,84.29h-9.13V357h9.13Zm0-28.05h-9.13V329h9.13Zm0-28.18h-9.12v-9.14h9.12Zm0-28.06h-9.14v-9.11h9.14Zm-9.19-28v-9.09h9.13v9.09Z"/></g><path class="cls-57" d="M443.85,194.74l9.19-29.1s19.66-2.81,23.24,4.08c-3.58,16.85-11,38.05-26.81,45.45-14.81-2.3-28.09-7.91-50.81-28.08,1-4.6,6.64-9.71,6.64-9.71S433.13,193.47,443.85,194.74Z"/><path class="cls-47" d="M399.41,189.19c.42.22,3.4-8.63,7.85-11-4.6-4.91-3.71-4.61-7.41-11.17s-4.66-9-6.74-9.34-.22,5.17.67,6.37-7.7-12.66-11.11-14.6-4.44,0-.89,5.81,4.3,6.1,4.3,6.1-11.11-9.08-13.18-8.48.73,6,7.33,11.17c1.58,1.22,2.74,3.87-3.18-.15s-10.07-4.77-9.48-2.24,10.07,8.64,10.51,10-8.73-1-11,.3,6.37,4,10.52,4.17C379.12,176.54,396.74,187.85,399.41,189.19Z"/><g class="cls-63"><path class="cls-10" d="M386.23,179a.66.66,0,0,0,0-1.31.66.66,0,0,0,0,1.31Z"/><path class="cls-10" d="M397.48,167.91h-.07a.51.51,0,0,0-.25.06.51.51,0,0,0-.35.35.51.51,0,0,0-.06.25l0,.17a.64.64,0,0,0,.16.29l.14.1a.63.63,0,0,0,.33.09h.07a.42.42,0,0,0,.25-.05.52.52,0,0,0,.21-.14.49.49,0,0,0,.14-.21.54.54,0,0,0,.06-.25l0-.18a.62.62,0,0,0-.17-.29l-.13-.1a.63.63,0,0,0-.33-.09Z"/><path class="cls-10" d="M386.82,162.37a.66.66,0,0,0,0-1.31.66.66,0,0,0,0,1.31Z"/><path class="cls-10" d="M376.31,155.07a.66.66,0,0,0,0-1.31.66.66,0,0,0,0,1.31Z"/><path class="cls-10" d="M374.42,158.91a.66.66,0,0,0,0-1.31.66.66,0,0,0,0,1.31Z"/><path class="cls-10" d="M373.42,155.45a.66.66,0,0,0,0-1.31.66.66,0,0,0,0,1.31Z"/><path class="cls-10" d="M377,159a.66.66,0,0,0,0-1.31.66.66,0,0,0,0,1.31Z"/><path class="cls-10" d="M380.38,150.23a.66.66,0,0,0,0-1.31.66.66,0,0,0,0,1.31Z"/><path class="cls-10" d="M385,152.76a.65.65,0,0,0,0-1.3.65.65,0,0,0,0,1.3Z"/><path class="cls-10" d="M383.19,149.94a.66.66,0,0,0,0-1.31.66.66,0,0,0,0,1.31Z"/><path class="cls-10" d="M381.56,154.11a.66.66,0,0,0,0-1.31.66.66,0,0,0,0,1.31Z"/><path class="cls-10" d="M384.67,157.9a.66.66,0,0,0,0-1.31.66.66,0,0,0,0,1.31Z"/><path class="cls-10" d="M388.52,157.68a.66.66,0,0,0,0-1.31.66.66,0,0,0,0,1.31Z"/><path class="cls-10" d="M369.12,161.25a.65.65,0,0,0,0-1.3.65.65,0,0,0,0,1.3Z"/><path class="cls-10" d="M369.86,164.83a.66.66,0,0,0,0-1.31.66.66,0,0,0,0,1.31Z"/><path class="cls-10" d="M374.29,162.61v-.07a.47.47,0,0,0-.05-.26.49.49,0,0,0-.14-.21.46.46,0,0,0-.21-.13.54.54,0,0,0-.25-.06l-.17,0a.77.77,0,0,0-.29.17l-.11.14a.73.73,0,0,0-.08.33v.07a.43.43,0,0,0,.05.25.64.64,0,0,0,.35.35.43.43,0,0,0,.25,0l.17,0a.66.66,0,0,0,.29-.17l.1-.13a.63.63,0,0,0,.09-.33Z"/><path class="cls-10" d="M373.34,166.76h.08a.43.43,0,0,0,.25,0,.49.49,0,0,0,.21-.14.6.6,0,0,0,.14-.21.43.43,0,0,0,.05-.25l0-.17a.66.66,0,0,0-.17-.29l-.13-.1a.63.63,0,0,0-.33-.09h-.08a.43.43,0,0,0-.25,0,.49.49,0,0,0-.21.14.46.46,0,0,0-.13.21.44.44,0,0,0-.06.25l0,.17a.61.61,0,0,0,.17.29l.13.11a.8.8,0,0,0,.33.08Z"/><path class="cls-10" d="M377.71,165.8a.66.66,0,0,0,0-1.31.66.66,0,0,0,0,1.31Z"/><path class="cls-10" d="M377.05,169.67a.66.66,0,0,0,0-1.31.66.66,0,0,0,0,1.31Z"/><path class="cls-10" d="M379.19,162.22a.66.66,0,0,0,0-1.31.66.66,0,0,0,0,1.31Z"/><path class="cls-10" d="M380.08,158.05a.66.66,0,0,0,0-1.31.66.66,0,0,0,0,1.31Z"/><path class="cls-10" d="M382.38,162.45a.66.66,0,0,0,0-1.31.66.66,0,0,0,0,1.31Z"/><path class="cls-10" d="M383.41,167.14a.66.66,0,0,0,0-1.31.66.66,0,0,0,0,1.31Z"/><path class="cls-10" d="M381,170.86a.66.66,0,0,0,0-1.31.66.66,0,0,0,0,1.31Z"/><path class="cls-10" d="M380.75,167.43a.65.65,0,0,0,0-1.3.65.65,0,0,0,0,1.3Z"/><path class="cls-10" d="M377.64,173.24a.66.66,0,0,0,0-1.31.66.66,0,0,0,0,1.31Z"/><path class="cls-10" d="M373.12,172.8a.66.66,0,0,0,0-1.31.66.66,0,0,0,0,1.31Z"/><path class="cls-10" d="M368.9,174a.66.66,0,0,0,0-1.31.66.66,0,0,0,0,1.31Z"/><path class="cls-10" d="M370.09,171.83a.66.66,0,0,0,0-1.31.66.66,0,0,0,0,1.31Z"/><path class="cls-10" d="M372.23,176a.66.66,0,0,0,0-1.31.66.66,0,0,0,0,1.31Z"/><path class="cls-10" d="M375.71,175.85a.66.66,0,0,0,0-1.31.66.66,0,0,0,0,1.31Z"/><path class="cls-10" d="M380.6,177.79a.66.66,0,0,0,0-1.31.66.66,0,0,0,0,1.31Z"/><path class="cls-10" d="M381.93,174.36a.66.66,0,0,0,0-1.31.66.66,0,0,0,0,1.31Z"/><path class="cls-10" d="M388.3,172.28a.66.66,0,0,0,0-1.31.66.66,0,0,0,0,1.31Z"/><path class="cls-10" d="M385.34,170a.66.66,0,0,0,0-1.31.66.66,0,0,0,0,1.31Z"/><path class="cls-10" d="M387.19,165.65a.66.66,0,0,0,0-1.31.66.66,0,0,0,0,1.31Z"/><path class="cls-10" d="M390.89,162.07a.66.66,0,0,0,0-1.31.66.66,0,0,0,0,1.31Z"/><path class="cls-10" d="M396.07,161.25a.65.65,0,0,0,0-1.3.65.65,0,0,0,0,1.3Z"/><path class="cls-10" d="M392.37,159.69a.66.66,0,0,0,0-1.31.66.66,0,0,0,0,1.31Z"/><path class="cls-10" d="M394.08,163.93a.65.65,0,0,0,0-1.3.65.65,0,0,0,0,1.3Z"/><path class="cls-10" d="M398.37,165.8a.66.66,0,0,0,0-1.31.66.66,0,0,0,0,1.31Z"/><path class="cls-10" d="M394.15,168a.66.66,0,0,0,0-1.31.66.66,0,0,0,0,1.31Z"/><path class="cls-10" d="M390.74,166.47a.66.66,0,0,0,0-1.31.66.66,0,0,0,0,1.31Z"/><path class="cls-10" d="M390.89,169.3a.66.66,0,0,0,0-1.31.66.66,0,0,0,0,1.31Z"/><path class="cls-10" d="M394.08,172.8a.66.66,0,0,0,0-1.31.66.66,0,0,0,0,1.31Z"/><path class="cls-10" d="M385,175.63a.66.66,0,0,0,0-1.31.66.66,0,0,0,0,1.31Z"/><path class="cls-10" d="M390.67,177a.66.66,0,0,0,0-1.31.66.66,0,0,0,0,1.31Z"/><path class="cls-10" d="M394,182.4a.66.66,0,0,0,0-1.31.66.66,0,0,0,0,1.31Z"/><path class="cls-10" d="M405,177.71a.66.66,0,0,0,0-1.31.66.66,0,0,0,0,1.31Z"/><path class="cls-10" d="M397.41,175a.66.66,0,0,0,0-1.31.66.66,0,0,0,0,1.31Z"/><path class="cls-10" d="M400.22,172.13a.66.66,0,0,0,0-1.31.66.66,0,0,0,0,1.31Z"/><path class="cls-10" d="M398.37,179.57a.66.66,0,0,0,0-1.31.66.66,0,0,0,0,1.31Z"/><path class="cls-10" d="M394.22,177.34a.66.66,0,0,0,0-1.31.66.66,0,0,0,0,1.31Z"/><path class="cls-10" d="M390.37,181.81a.66.66,0,0,0,0-1.31.66.66,0,0,0,0,1.31Z"/><path class="cls-10" d="M397.41,185.16a.66.66,0,0,0,0-1.31.66.66,0,0,0,0,1.31Z"/><path class="cls-10" d="M396.67,188.21a.66.66,0,0,0,0-1.31.66.66,0,0,0,0,1.31Z"/><path class="cls-10" d="M401.41,184.71a.66.66,0,0,0,0-1.31.66.66,0,0,0,0,1.31Z"/><path class="cls-10" d="M401.18,176.3a.66.66,0,0,0,0-1.31.66.66,0,0,0,0,1.31Z"/><path class="cls-10" d="M404.29,181.73a.66.66,0,0,0,0-1.31.66.66,0,0,0,0,1.31Z"/><path class="cls-10" d="M401.18,180.24a.66.66,0,0,0,0-1.31.66.66,0,0,0,0,1.31Z"/><path class="cls-10" d="M392.59,185.6h.08a.43.43,0,0,0,.25,0,.64.64,0,0,0,.35-.35.43.43,0,0,0,.05-.25l0-.17a.66.66,0,0,0-.17-.29l-.13-.1a.63.63,0,0,0-.33-.09h-.08a.43.43,0,0,0-.25,0,.49.49,0,0,0-.21.14.46.46,0,0,0-.13.21.54.54,0,0,0-.06.25l0,.17a.61.61,0,0,0,.17.29l.13.11a.8.8,0,0,0,.33.08Z"/></g><path class="cls-64" d="M399.41,189.19s.89.38,1,.82a1.65,1.65,0,0,0,.74.75s.45.67,1.71-1.49,5-8.27,6.51-8.86-.37-1.71-1-1.79a2.39,2.39,0,0,1-1.18-.74S402.59,180.41,399.41,189.19Z"/><path class="cls-9" d="M476.28,169.51l-.22,1.36s-10.08-3.78-18.25-4.47C465.94,166.11,470.7,167,476.28,169.51Z"/><polygon class="cls-9" points="406.4 183.68 403.34 191.17 402.23 190.23 406.4 183.68"/><path class="cls-58" d="M450.74,167.09s15.15-2.9,26.56,2.89c2.89-14.47,1.36-32.51-10.73-32.68C459.94,137,450.4,156.53,450.74,167.09Z"/><path class="cls-57" d="M442.47,134c.06.52.06.9.16,1.39a2.88,2.88,0,0,0,1.6,2.44,8.39,8.39,0,0,0,5.06.16,17.79,17.79,0,0,0,6.44-2.78c2.25-1.58,5.48-6.22,5.48-6.22s-3.06-2.56-3.23-13.53c.34-3.75-16.6,9.95-16.6,9.95A19.55,19.55,0,0,1,442.47,134Z"/><path class="cls-9" d="M441.17,124.6s6.06,1.27,10.85-2c-1.66,2.17-5.87,3.64-10.59,3A9,9,0,0,0,441.17,124.6Z"/><path class="cls-58" d="M435.23,119.83c0,2.84-.62,5.15-1.4,5.15s-1.4-2.31-1.4-5.15.62-5.15,1.4-5.15S435.23,117,435.23,119.83Z"/><path class="cls-58" d="M434.55,114.26a.77.77,0,1,1-.76-.77A.76.76,0,0,1,434.55,114.26Z"/><path class="cls-57" d="M432.1,101.3s-1.83,21.72,9.71,23.42,16-8,16.75-12.36c1-5.2,1.58-10.31.48-15.41s-2.42-8.45-6.31-9.2S434.77,84.77,432.1,101.3Z"/><path class="cls-60" d="M429.43,100.79l11.36-.9s1.91-6.38,1.91-5.87-.64,6.13-.64,6.13l2.3-.13.64-6.25.64,6.38,1.91-.13.77-6.25,1,6,14,.63s.39-15.44-17.61-15.06C437.85,85.21,431,90.45,429.43,100.79Z"/><path class="cls-57" d="M457.75,106.07s2.62-3.52,5.44-1.56-1,10.18-5.25,6C455.9,108.52,457.75,106.07,457.75,106.07Z"/><path class="cls-9" d="M459.84,109.92a5.42,5.42,0,0,1,2.11-3.55c.11-.08,0-.27-.11-.18a5.51,5.51,0,0,0-2.2,3.68c0,.13.19.19.2,0Z"/><path class="cls-9" d="M460.38,108.3a4,4,0,0,1,2.49-1.09c.14,0,.14-.23,0-.22a4.35,4.35,0,0,0-2.64,1.15.11.11,0,0,0,.15.16Z"/><path class="cls-58" d="M462.32,116.41c0,2.85-.63,5.15-1.41,5.15s-1.4-2.3-1.4-5.15.63-5.14,1.4-5.14S462.32,113.57,462.32,116.41Z"/><path class="cls-58" d="M461.64,110.84a.77.77,0,1,1-.77-.77A.77.77,0,0,1,461.64,110.84Z"/><path class="cls-9" d="M439.77,105.32a4,4,0,0,0-2.53-1.55,4.79,4.79,0,0,0-3.21.29c-.18.09,0,.35.15.27a4.44,4.44,0,0,1,3-.26,3.67,3.67,0,0,1,2.34,1.4c.11.17.38,0,.27-.15Z"/><path class="cls-9" d="M433.54,103.54a1.77,1.77,0,0,1,.19.33.2.2,0,0,1,0,.08v0h0l0,0,.06.19a.16.16,0,0,0,.3-.09,2.73,2.73,0,0,0-.35-.73.16.16,0,0,0-.27.16Z"/><path class="cls-9" d="M435,103.18a3.38,3.38,0,0,1,.08.34v0a.76.76,0,0,1,0,.15.22.22,0,0,0,.05.11.16.16,0,0,0,.11,0,.16.16,0,0,0,.15-.16,2.36,2.36,0,0,0-.09-.52.15.15,0,0,0-.19-.11.16.16,0,0,0-.11.19Z"/><path class="cls-9" d="M436.43,103.05c0,.1,0,.21,0,.31a.19.19,0,0,1,0,.08v0h0a.9.9,0,0,1,0,.16.16.16,0,0,0,.11.19.17.17,0,0,0,.19-.11,3.91,3.91,0,0,0,.06-.68.16.16,0,1,0-.31,0Z"/><path class="cls-9" d="M437.86,103.4l-.15.47a.16.16,0,0,0,.3.08l.15-.47a.16.16,0,0,0-.11-.19.16.16,0,0,0-.19.11Z"/><circle class="cls-9" cx="437.47" cy="104.75" r="0.73"/><path class="cls-9" d="M447,105.57a3.79,3.79,0,0,1,2.53-1.22,4.4,4.4,0,0,1,2.87.51.16.16,0,0,0,.16-.27,4.76,4.76,0,0,0-3.14-.53,4,4,0,0,0-2.68,1.35c-.12.16.15.31.26.16Z"/><path class="cls-9" d="M452.86,103.92a2.55,2.55,0,0,0-.43.73.15.15,0,0,0,.11.19.16.16,0,0,0,.19-.11l0,0s0,0,0,0v0l0-.08.09-.17.1-.16,0-.07s0,0,0,0l0,0a.18.18,0,0,0,0-.1.18.18,0,0,0,0-.11.15.15,0,0,0-.22,0Z"/><path class="cls-9" d="M451.33,103.55a2.52,2.52,0,0,0-.13.47.23.23,0,0,0,0,.12s.06.07.09.07a.16.16,0,0,0,.12,0s.07-.06.07-.09a2.42,2.42,0,0,1,.13-.48.16.16,0,0,0,0-.12.16.16,0,0,0-.09-.07.17.17,0,0,0-.12,0,.36.36,0,0,0-.07.1Z"/><path class="cls-9" d="M449.94,103.39a2.74,2.74,0,0,0,0,.64.15.15,0,0,0,0,.11.16.16,0,0,0,.11,0,.16.16,0,0,0,.15-.16,3.42,3.42,0,0,1,0-.64.15.15,0,0,0-.16-.15.15.15,0,0,0-.15.15Z"/><path class="cls-9" d="M448.5,103.71l.11.48a.16.16,0,0,0,.19.11.16.16,0,0,0,.11-.19l-.11-.48a.16.16,0,0,0-.19-.11.16.16,0,0,0-.11.19Z"/><path class="cls-9" d="M451.24,104.72a.73.73,0,1,1-.9-.51A.73.73,0,0,1,451.24,104.72Z"/><path class="cls-9" d="M456.07,102.42c-3.06-2.06-7.88-2.11-10.48-.28-.2.14-1,1.14.88.43a16.87,16.87,0,0,1,6.25-.63C454.26,102.06,456.07,102.42,456.07,102.42Z"/><path class="cls-9" d="M433.26,102c2.18-.9,5.59-1.4,7.25.28.12.13.51.87-.55.45a9.25,9.25,0,0,0-4-.79A26.59,26.59,0,0,0,433.26,102Z"/><path class="cls-9" d="M442.06,105.36q-.65,2.81-1.27,5.62c-.14.58-.51,1.44,0,1.94a2,2,0,0,0,2,.19.11.11,0,0,0-.06-.21c-.78.23-2.15.3-1.93-.92.13-.72.32-1.43.49-2.14l1-4.42c0-.14-.17-.2-.2-.06Z"/><path class="cls-48" d="M441.75,117.36c-.06.14-.62-1.16-1.71-.87a3.67,3.67,0,0,1-2.08.05,8.26,8.26,0,0,0,7.78.33c-1-.15-1.68-.16-2.43-.28A1.31,1.31,0,0,0,441.75,117.36Z"/><path class="cls-47" d="M438,116.53s1.91,2.8,4.09,2.64a5.6,5.6,0,0,0,3.64-2.3,9.76,9.76,0,0,1-5.39.61A9.05,9.05,0,0,1,438,116.53Z"/><path class="cls-65" d="M453,110.4a3.34,3.34,0,1,1-3.33-3.32A3.33,3.33,0,0,1,453,110.4Z"/><path class="cls-65" d="M439.91,110.19a3.34,3.34,0,1,1-3.34-3.33A3.33,3.33,0,0,1,439.91,110.19Z"/><path class="cls-27" d="M366.92,457.65h0a19.79,19.79,0,0,1-19.79-19.79v-41H386.7v41A19.78,19.78,0,0,1,366.92,457.65Z"/><path class="cls-22" d="M367.53,335.28a96.13,96.13,0,0,1-4.25,61.47c-.16.39.48.57.64.18a97.29,97.29,0,0,0,6.78-48.38,96,96,0,0,0-2.53-13.45.33.33,0,0,0-.64.18Z"/><path class="cls-21" d="M368.36,309.31s-8.85-9.62-14.63-2,13.78,18,11.74,35.57c6.64-9.19,20.6-31.82,15-38.63S369.05,302.58,368.36,309.31Z"/><path class="cls-22" d="M366.15,341.85a55.57,55.57,0,0,0,2.63-16.29c.08-2.78.05-5.55,0-8.33a39.22,39.22,0,0,0-.64-8.24c0-.16-.3-.09-.26.08a40.6,40.6,0,0,1,.64,8.39c.06,2.7.09,5.4,0,8.1a55.31,55.31,0,0,1-2.62,16.21c-.06.17.2.24.26.08Z"/><path class="cls-22" d="M368,309.51a4.19,4.19,0,0,1-2.34.89,20,20,0,0,0-2.53.55,11.69,11.69,0,0,0-4.39,2.32c-.13.11.06.3.19.19a11.76,11.76,0,0,1,4.87-2.42c1.44-.36,3.25-.28,4.39-1.34.13-.12-.06-.31-.19-.19Z"/><path class="cls-22" d="M368.17,309.51c.71,1.43,2.43,1.74,3.88,1.77a9.89,9.89,0,0,1,3.07.28,2.61,2.61,0,0,1,1.87,2c0,.17.29.17.27,0-.19-1.73-2-2.43-3.52-2.53-1.79-.11-4.36.29-5.34-1.67-.08-.16-.31,0-.23.14Z"/><path class="cls-22" d="M368.36,313.44a4.62,4.62,0,0,1-1.43,2.57,12.48,12.48,0,0,1-2.51,1.55c-1.41.77-3,1.9-3,3.67,0,.17.26.17.27,0,.05-2,2.13-3,3.67-3.86a7.62,7.62,0,0,0,2.17-1.57,5,5,0,0,0,1.1-2.29c0-.17-.23-.24-.26-.07Z"/><path class="cls-22" d="M368.48,313.78c.53.64.72,1.48,1.26,2.11a7.73,7.73,0,0,0,1.8,1.42,4.69,4.69,0,0,1,2,1.82,3.48,3.48,0,0,1-.37,2.89c-.08.15.16.29.24.14a4.21,4.21,0,0,0,.54-2.55,3.19,3.19,0,0,0-1.5-2,17.45,17.45,0,0,1-2.23-1.6c-.7-.68-.9-1.65-1.52-2.38-.12-.13-.31.06-.19.19Z"/><path class="cls-22" d="M368.56,320.88c.19,1.48-1.22,2.44-1.94,3.55a10.28,10.28,0,0,0-1.29,3.65c0,.17.23.24.26.07a9.64,9.64,0,0,1,1.47-3.89c.76-1,1.95-2,1.77-3.38,0-.17-.29-.17-.27,0Z"/><path class="cls-22" d="M368.59,322.3a1.7,1.7,0,0,0,.45,1.58c.46.59,1,1.09,1.54,1.64,1,1.1,1.94,2.71,1.14,4.18-.08.16.15.29.23.14a3.52,3.52,0,0,0-.53-3.71,13.71,13.71,0,0,0-1.43-1.61c-.54-.55-1.41-1.3-1.14-2.15a.13.13,0,0,0-.26-.07Z"/><path class="cls-22" d="M368.27,397.1a75.23,75.23,0,0,0,14.86-45c.05-5.27-.27-10.53-.6-15.79,0-.42-.69-.43-.66,0,.55,8.95,1.1,18-.17,26.88a72.56,72.56,0,0,1-14,33.57c-.25.34.32.67.58.34Z"/><path class="cls-21" d="M385.33,333.21s-7.41-10.76-14.21-4,11.11,19.8,6.63,36.87c7.86-8.17,24.86-28.62,20.25-36.15S387,326.65,385.33,333.21Z"/><path class="cls-22" d="M378.57,365.13a55.45,55.45,0,0,0,4.87-15.66c.45-2.59.8-5.19,1.11-7.8a42.43,42.43,0,0,0,.59-8.78c0-.17-.28-.18-.27,0a39.4,39.4,0,0,1-.51,8.11c-.33,2.81-.69,5.61-1.18,8.4a54.71,54.71,0,0,1-4.85,15.6c-.08.15.16.29.24.13Z"/><path class="cls-22" d="M384.93,333.35a4.5,4.5,0,0,1-2.55.57,17.64,17.64,0,0,0-2.41.17,11.83,11.83,0,0,0-4.74,1.68c-.14.09,0,.33.14.23a11.83,11.83,0,0,1,5.13-1.71c1.48-.16,3.28.18,4.57-.71.14-.1,0-.33-.14-.23Z"/><path class="cls-22" d="M385.11,333.37c.54,1.62,2.33,2.12,3.84,2.35,1.66.25,4.4.7,4.32,2.94a.13.13,0,0,0,.27,0c.07-1.76-1.72-2.69-3.21-3-1.72-.34-4.29-.34-5-2.37-.06-.17-.32-.1-.26.07Z"/><path class="cls-22" d="M384.74,337.32a4.54,4.54,0,0,1-1.82,2.36,13.61,13.61,0,0,1-2.74,1.19c-1.47.55-3.12,1.45-3.4,3.15,0,.17.23.24.26.07.34-2,2.55-2.71,4.21-3.33a7.52,7.52,0,0,0,2.35-1.26,4.87,4.87,0,0,0,1.4-2.11c.06-.16-.2-.24-.26-.07Z"/><path class="cls-22" d="M384.81,337.65c.47.75.53,1.66,1.05,2.4a9.43,9.43,0,0,0,1.63,1.65,4.29,4.29,0,0,1,1.58,2,3.55,3.55,0,0,1-.8,2.75c-.1.14.13.27.23.13a4,4,0,0,0,.89-2.44,3.07,3.07,0,0,0-1.11-2.12c-.63-.62-1.35-1.14-1.93-1.81a4,4,0,0,1-.76-1.38,6.46,6.46,0,0,0-.55-1.36.13.13,0,0,0-.23.14Z"/><path class="cls-22" d="M383.9,344.72c0,1.51-1.64,2.28-2.49,3.31a10.6,10.6,0,0,0-1.72,3.36c-.06.16.2.24.26.07a9.26,9.26,0,0,1,2-3.65c.89-.9,2.18-1.67,2.19-3.09a.14.14,0,0,0-.27,0Z"/><path class="cls-22" d="M383.74,346.09a1.76,1.76,0,0,0,.23,1.68c.4.67.92,1.27,1.36,1.92.8,1.22,1.42,2.89.45,4.2-.1.14.13.28.23.14a3.48,3.48,0,0,0,.09-3.54,12.73,12.73,0,0,0-1.25-1.93c-.45-.61-1.26-1.51-.88-2.33.07-.16-.16-.3-.23-.14Z"/><path class="cls-22" d="M351.71,347.74c-3.95,7.2-1.24,15.51,1.91,22.44,1.87,4.11,3.91,8.15,5.12,12.52a43.86,43.86,0,0,1,1.54,14c0,.42.64.42.66,0a44.91,44.91,0,0,0-1.21-12.86,62.89,62.89,0,0,0-4.39-11.54c-3.45-7.39-7.39-16.34-3.06-24.24.2-.37-.37-.71-.57-.33Z"/><path class="cls-21" d="M350.84,346.91s-12.91-2-12.67,7.58,22,5.53,31.34,20.52c-.53-11.32-3.7-37.73-12.34-39.56S347.19,341.22,350.84,346.91Z"/><path class="cls-22" d="M369.38,373.76a55.4,55.4,0,0,0-8.11-14.42c-1.61-2.15-3.31-4.23-5-6.3a40.94,40.94,0,0,0-5.76-6.22c-.14-.1-.33.09-.2.2a36.71,36.71,0,0,1,5.35,5.72c1.85,2.21,3.68,4.43,5.41,6.74a55.64,55.64,0,0,1,8.08,14.35c.06.16.32.09.26-.07Z"/><path class="cls-22" d="M350.67,347.29a4.39,4.39,0,0,1-1.32,2.21,20.78,20.78,0,0,0-1.58,1.93,11.66,11.66,0,0,0-2,4.57c0,.17.23.24.26.07a11.68,11.68,0,0,1,2.15-4.74c.53-.71,1.13-1.34,1.7-2a4,4,0,0,0,1.06-2c0-.17-.24-.25-.26-.07Z"/><path class="cls-22" d="M350.79,347.17c1.62.74,3.22-.27,4.47-1.25s3.46-2.59,5-1c.13.12.32-.07.19-.19-1.12-1.13-2.87-.71-4.06.06-1.57,1-3.36,3.15-5.45,2.19-.16-.07-.29.16-.14.23Z"/><path class="cls-22" d="M353.41,350.16a4.61,4.61,0,0,1,.41,3.24,18.84,18.84,0,0,1-1,2.65c-.58,1.42-1,3.16,0,4.5.1.14.34,0,.23-.14-1.23-1.67-.2-3.75.5-5.4a5.62,5.62,0,0,0,.11-5c-.08-.15-.32,0-.24.14Z"/><path class="cls-22" d="M353.69,350.33c.86.18,1.57.75,2.45.89a11.54,11.54,0,0,0,2.69-.08,3.27,3.27,0,0,1,2.65.61,4,4,0,0,1,1,2.14c0,.17.29.1.26-.07-.31-1.58-1.23-2.92-3-3-1,0-2,.2-3.07.17a4.39,4.39,0,0,1-1.67-.43,6,6,0,0,0-1.29-.51c-.17,0-.25.23-.08.26Z"/><path class="cls-22" d="M358.21,355.85c1.07,1,.55,2.68.69,4a10.43,10.43,0,0,0,1.27,3.66c.08.15.31,0,.23-.14a9.18,9.18,0,0,1-1.27-4.22c0-1.2.23-2.56-.73-3.48-.12-.12-.31.07-.19.19Z"/><path class="cls-22" d="M359.1,356.91a1.64,1.64,0,0,0,1.24,1c.78.2,1.6.22,2.38.35,1.46.25,3.17.93,3.45,2.57,0,.17.29.1.26-.07a3.51,3.51,0,0,0-2.62-2.53,16.19,16.19,0,0,0-2.41-.42c-.69-.09-1.75-.16-2-.93-.06-.16-.32-.09-.26.07Z"/></g></svg>