<svg xmlns="http://www.w3.org/2000/svg" xmlns:xlink="http://www.w3.org/1999/xlink" viewBox="0 0 703.2 513.36"><defs><style>.cls-1{fill:none;}.cls-2{isolation:isolate;}.cls-3{fill:#fff;}.cls-4,.cls-6{fill:#d7f3e5;}.cls-5{mix-blend-mode:screen;}.cls-14,.cls-5,.cls-6,.cls-9{opacity:0.5;}.cls-14,.cls-6,.cls-9{mix-blend-mode:multiply;}.cls-7{fill:#783838;}.cls-8{fill:#b5c985;}.cls-10,.cls-14{fill:#8ac985;}.cls-11{clip-path:url(#clip-path);}.cls-12{fill:#9fb869;}.cls-13{fill:#97b35d;}.cls-15{fill:#efd0c1;}.cls-16{fill:#ffae06;}.cls-17{fill:#006f7a;}.cls-18{fill:#008d9c;}.cls-19{fill:#ecfacb;}.cls-20{fill:#cc6039;}.cls-21{fill:#efbcac;}.cls-22{fill:#c9846e;}</style><clipPath id="clip-path" transform="translate(40.16)"><rect class="cls-1" width="650" height="500"/></clipPath></defs><g class="cls-2"><g id="BACKGROUND"><rect class="cls-3" x="40.16" width="650" height="500"/><path class="cls-4" d="M603.62,303.6a277.75,277.75,0,0,1-79,194.42H125.43A278.71,278.71,0,0,1,61.26,393.64a275.45,275.45,0,0,1-11.91-49.27A278.56,278.56,0,0,1,322.43,25H325A278.77,278.77,0,0,1,588.65,213.3a274.37,274.37,0,0,1,9.5,35.09A279.78,279.78,0,0,1,603.62,303.6Z" transform="translate(40.16)"/><g class="cls-5"><path class="cls-6" d="M547.41,313.12C469.63,338.75,387.2,341.5,305.32,343c-85.32,1.52-170.67,3-256,1.4a281.26,281.26,0,0,1,1.94-93.09A1133.09,1133.09,0,0,0,547.41,313.12Z" transform="translate(40.16)"/><path class="cls-7" d="M598.15,248.39C556.56,248,512.93,269,470.52,263.45c-46.91-6.18-84.45-43.81-130.82-53.21-33.21-6.74-67.37,1.67-101.2,3.53s-72.2-5.4-91.14-33.5c-8.72-13-12.09-28.64-16.93-43.5a100.48,100.48,0,0,0-10-22.36,279.33,279.33,0,0,1,67.3-53.34c6.93,15,18.7,28.23,32.39,37.74,23,16,50.75,23.29,78.09,29.29s55.27,11.11,80.36,23.49c38.16,18.81,69.09,54,111.05,61,17.73,2.95,35.84.48,53.75-1.08,15.09-1.32,30.67-1.93,45.24,1.79A274.37,274.37,0,0,1,598.15,248.39Z" transform="translate(40.16)"/><path class="cls-6" d="M568,167.22c-20.67-1.84-43.87,2.95-60.75-8.9-11.27-7.92-17-21.63-27.05-31.06-11.22-10.52-26.9-14.83-42.15-16.85s-30.82-2.16-45.71-6a95.07,95.07,0,0,1-52.17-35.1A95.06,95.06,0,0,1,322.43,25H325A278.5,278.5,0,0,1,568,167.22Z" transform="translate(40.16)"/></g><rect class="cls-8" x="40.16" y="364.25" width="650" height="136.6"/><g class="cls-9"><path class="cls-10" d="M85.56,390.26a.5.5,0,0,1-.5-.5V380.5a.5.5,0,0,1,1,0v9.26A.5.5,0,0,1,85.56,390.26Z" transform="translate(40.16)"/><path class="cls-10" d="M92.76,396.06a.5.5,0,0,1-.5-.5v-8.51a.5.5,0,0,1,1,0v8.51A.5.5,0,0,1,92.76,396.06Z" transform="translate(40.16)"/><path class="cls-10" d="M149.05,472.72a.5.5,0,0,1-.5-.5V461.67a.5.5,0,0,1,.5-.5.5.5,0,0,1,.5.5v10.55A.5.5,0,0,1,149.05,472.72Z" transform="translate(40.16)"/><path class="cls-10" d="M156.91,477.24a.5.5,0,0,1-.5-.5v-9.18a.5.5,0,0,1,.5-.5.5.5,0,0,1,.5.5v9.18A.5.5,0,0,1,156.91,477.24Z" transform="translate(40.16)"/><path class="cls-10" d="M469.78,446.46a.5.5,0,0,1-.5-.5v-9.17a.5.5,0,1,1,1,0V446A.5.5,0,0,1,469.78,446.46Z" transform="translate(40.16)"/><path class="cls-10" d="M475.67,452.72a.5.5,0,0,1-.5-.5v-9.54a.5.5,0,0,1,1,0v9.54A.5.5,0,0,1,475.67,452.72Z" transform="translate(40.16)"/><path class="cls-10" d="M382.72,485.85a.51.51,0,0,1-.5-.5V478a.5.5,0,0,1,.5-.5.5.5,0,0,1,.5.5v7.32A.5.5,0,0,1,382.72,485.85Z" transform="translate(40.16)"/><path class="cls-10" d="M138.58,383a.5.5,0,0,1-.5-.5v-4.63a.5.5,0,0,1,1,0v4.63A.5.5,0,0,1,138.58,383Z" transform="translate(40.16)"/><path class="cls-10" d="M145.12,382.31a.5.5,0,0,1-.5-.5v-3.27a.5.5,0,0,1,.5-.5.5.5,0,0,1,.5.5v3.27A.5.5,0,0,1,145.12,382.31Z" transform="translate(40.16)"/><path class="cls-10" d="M255.74,386.89a.5.5,0,0,1-.5-.5V380.5a.51.51,0,0,1,.5-.5.5.5,0,0,1,.5.5v5.89A.5.5,0,0,1,255.74,386.89Z" transform="translate(40.16)"/></g></g><g id="OBJECTS"><path class="cls-3" d="M394.67,129.52a.5.5,0,0,1-.35.4.55.55,0,0,1-.54-.12,14.1,14.1,0,0,1-3.72-7.58,21.12,21.12,0,0,1-.28-3.88A11.86,11.86,0,0,1,394.67,129.52Z" transform="translate(40.16)"/><path class="cls-3" d="M445.48,115.13a16.25,16.25,0,0,1-3.2,8.55.55.55,0,0,1-.68.15.47.47,0,0,1-.27-.56A18.22,18.22,0,0,1,445.48,115.13Z" transform="translate(40.16)"/><path class="cls-3" d="M475.67,128.81a17.83,17.83,0,0,1-.83,3.75.46.46,0,0,1-.61.31.51.51,0,0,1-.39-.64A8.11,8.11,0,0,1,475.67,128.81Z" transform="translate(40.16)"/><path class="cls-3" d="M493.46,154.55H371.58c-2.43-4.27-5.56-10.52-5.93-16.94s1.66-12.55,5.58-16.6c4.34-4.47,11-6.1,16.26-4a9.1,9.1,0,0,1,.84.39,23.78,23.78,0,0,0,.28,5,15.58,15.58,0,0,0,4.14,8.37,2,2,0,0,0,2,.47,2,2,0,0,0,1.35-1.55,13.44,13.44,0,0,0-6.27-13.15,46.35,46.35,0,0,1,.72-5.15c1.55-8,5.22-18.71,13.94-24.3,7.27-4.66,17.17-4.9,25.25-.63,7.57,4,13.28,11.79,15.26,20.79a26.24,26.24,0,0,1,.58,5.57A19.62,19.62,0,0,0,439.9,123a1.93,1.93,0,0,0,1.08,2.2,2,2,0,0,0,2.46-.56,18.7,18.7,0,0,0,3.65-11.08,16.94,16.94,0,0,1,5.79-3.37,17.93,17.93,0,0,1,19.42,6,17.55,17.55,0,0,1,3.47,10.59,9.68,9.68,0,0,0-3.35,5.17,2,2,0,0,0,1.39,2.41,1.93,1.93,0,0,0,2.43-1.25,20,20,0,0,0,1-5.6,7.06,7.06,0,0,1,1.43-.71c3.7-1.33,8.31.1,11.22,3.5,2.51,2.91,3.85,7.17,3.78,12,0,1.41.05,2.79.11,4.13A30.82,30.82,0,0,1,493.46,154.55Z" transform="translate(40.16)"/><path class="cls-3" d="M116.79,182.3a2.14,2.14,0,0,1-1.07,2,1.24,1.24,0,0,1-1.14,0,4.15,4.15,0,0,1-1.88-2.63c-1-3.54-.42-7.53,1.64-11.9A37.25,37.25,0,0,1,116.79,182.3Z" transform="translate(40.16)"/><path class="cls-3" d="M147.59,177a14.43,14.43,0,0,1-1.69,5.69,1.09,1.09,0,0,1-1.47.5,1.06,1.06,0,0,1-.58-1.41A9.84,9.84,0,0,1,147.59,177Z" transform="translate(40.16)"/><path class="cls-3" d="M174.84,196.4a3.92,3.92,0,0,1-1.27,2.89,1.79,1.79,0,0,1-2.53.1,2.87,2.87,0,0,1-.8-3.38,3.12,3.12,0,0,1,2.12-1.41,3.83,3.83,0,0,1,.88-.1,4.65,4.65,0,0,1,1.58.28C174.84,195.33,174.85,195.86,174.84,196.4Z" transform="translate(40.16)"/><path class="cls-3" d="M178.13,201.27a27.68,27.68,0,0,1-1.55,7.41H95.73c-7-10.63-9.5-24-6.6-35.06,1.83-7,6.54-14.12,14.22-13.24a11.86,11.86,0,0,1,6.38,2.93,17.33,17.33,0,0,1,3.71,4.68c-2.69,5.19-3.47,9.94-2.31,14.2a5.79,5.79,0,0,0,2.8,3.69,2.84,2.84,0,0,0,2.54-.1,3.73,3.73,0,0,0,1.94-3.58c-.28-4.69-.92-9.78-3.12-14.2a42.24,42.24,0,0,1,3-4.62c4.42-6,11.36-12.18,19.29-7.66a15.1,15.1,0,0,1,5.47,5.65c3,5.24,4.5,9.63,4.61,13.68-.27.14-.53.3-.78.46a11.42,11.42,0,0,0-4.55,5.69,2.66,2.66,0,0,0,1.43,3.44,2.73,2.73,0,0,0,3.57-1.18,16.08,16.08,0,0,0,2-7.05c0-.11,0-.22,0-.34a15.41,15.41,0,0,1,10.08-.39A21.63,21.63,0,0,1,174.63,193a6.16,6.16,0,0,0-2.6,0,4.81,4.81,0,0,0-3.19,2.18,4.45,4.45,0,0,0,1.16,5.46,3.42,3.42,0,0,0,4.63-.11,5.57,5.57,0,0,0,1.84-4.09c0-.16,0-.33,0-.5A7.5,7.5,0,0,1,178.13,201.27Z" transform="translate(40.16)"/><path class="cls-3" d="M506,228.13a2.7,2.7,0,0,1-1.29,1.48.9.9,0,0,1-.7,0c-.73-.32-.78-1.58-.74-2.31a23.63,23.63,0,0,1,1.1-6A6.65,6.65,0,0,1,506,228.13Z" transform="translate(40.16)"/><path class="cls-3" d="M535.13,225.84c-.2.45-.52,1-.92,1a.44.44,0,0,1-.38-.13,2.84,2.84,0,0,1-.62-1.94,26.06,26.06,0,0,1,1.69-9.13A12.59,12.59,0,0,1,535.13,225.84Z" transform="translate(40.16)"/><path class="cls-3" d="M568,219.4a9.85,9.85,0,0,1-1.76,5.76,2.15,2.15,0,0,1-1.41.88.33.33,0,0,1-.31-.13c-.16-.21-.11-.64.15-1.28A17,17,0,0,1,568,219.4Z" transform="translate(40.16)"/><path class="cls-3" d="M588.89,241.35H489.23a30.8,30.8,0,0,1-1.16-10.53,14.24,14.24,0,0,1,4.55-9.3,9.27,9.27,0,0,1,9.63-1.71,7.09,7.09,0,0,1,.94.52,25.18,25.18,0,0,0-1.32,6.92c-.13,2.39.78,3.3,1.55,3.64a2.25,2.25,0,0,0,1.78,0,4,4,0,0,0,2.06-2.24,8.15,8.15,0,0,0-2.43-8.77,20.45,20.45,0,0,1,6.86-9.1c5.32-3.87,12.68-4.38,17.91-1.23a13.36,13.36,0,0,1,4.47,4.53,27.26,27.26,0,0,0-2.24,10.74,4.2,4.2,0,0,0,1.08,3,1.83,1.83,0,0,0,1.48.46,2.72,2.72,0,0,0,2-1.84,14.11,14.11,0,0,0-.78-12.47,27,27,0,0,1,12.53-13.06c2.58-1.26,6.4-2.52,9.92-1.33,4,1.36,6.85,5.39,8.82,12.67a30.74,30.74,0,0,1,1,5.32,18.42,18.42,0,0,0-4.54,6.58,2.68,2.68,0,0,0,.06,2.63,1.58,1.58,0,0,0,1.4.67,3.41,3.41,0,0,0,2.5-1.43,11.74,11.74,0,0,0,2-7.88,10.67,10.67,0,0,1,6.52-2.65c5.68-.15,10,4.71,11.71,9.31C589.4,229.72,589.24,235.87,588.89,241.35Z" transform="translate(40.16)"/><path class="cls-3" d="M534.9,215.68a12.59,12.59,0,0,1,.23,10.16c-.2.45-.52,1-.92,1a.44.44,0,0,1-.38-.13,2.84,2.84,0,0,1-.62-1.94A26.06,26.06,0,0,1,534.9,215.68Zm-31.66,11.63a23.63,23.63,0,0,1,1.1-6,6.65,6.65,0,0,1,1.63,6.84,2.7,2.7,0,0,1-1.29,1.48.9.9,0,0,1-.7,0C503.25,229.3,503.2,228,503.24,227.31Zm85.65,14H489.23a30.8,30.8,0,0,1-1.16-10.53,14.24,14.24,0,0,1,4.55-9.3,9.27,9.27,0,0,1,9.63-1.71,7.09,7.09,0,0,1,.94.52,25.18,25.18,0,0,0-1.32,6.92c-.13,2.39.78,3.3,1.55,3.64a2.25,2.25,0,0,0,1.78,0,4,4,0,0,0,2.06-2.24,8.15,8.15,0,0,0-2.43-8.77,20.45,20.45,0,0,1,6.86-9.1c5.32-3.87,12.68-4.38,17.91-1.23a13.36,13.36,0,0,1,4.47,4.53,27.26,27.26,0,0,0-2.24,10.74,4.2,4.2,0,0,0,1.08,3,1.83,1.83,0,0,0,1.48.46,2.72,2.72,0,0,0,2-1.84,14.11,14.11,0,0,0-.78-12.47,27,27,0,0,1,12.53-13.06c2.58-1.26,6.4-2.52,9.92-1.33,4,1.36,6.85,5.39,8.82,12.67a30.74,30.74,0,0,1,1,5.32,18.42,18.42,0,0,0-4.54,6.58,2.68,2.68,0,0,0,.06,2.63,1.58,1.58,0,0,0,1.4.67,3.41,3.41,0,0,0,2.5-1.43,11.74,11.74,0,0,0,2-7.88,10.67,10.67,0,0,1,6.52-2.65c5.68-.15,10,4.71,11.71,9.31C589.4,229.72,589.24,235.87,588.89,241.35ZM568,219.4a9.85,9.85,0,0,1-1.76,5.76,2.15,2.15,0,0,1-1.41.88.33.33,0,0,1-.31-.13c-.16-.21-.11-.64.15-1.28A17,17,0,0,1,568,219.4Z" transform="translate(40.16)"/><g class="cls-11"><path class="cls-12" d="M16.52,309.45c-.88,1.54-1.77,2.33-2.72,2.44-1.3.17-2.47-1.15-2.76-2.45a8.9,8.9,0,0,1,.74-4.75,45.06,45.06,0,0,1,6.89-12.28A23.27,23.27,0,0,1,16.52,309.45Z" transform="translate(40.16)"/><path class="cls-12" d="M83.68,310.41a28.14,28.14,0,0,1-2.94,11.12c-.43.84-1.59,2.82-3,2.58a1.27,1.27,0,0,1-1.06-.78c-.55-1.15-.21-3.39.73-5A36.12,36.12,0,0,1,83.68,310.41Z" transform="translate(40.16)"/><path class="cls-12" d="M131.28,331a3.5,3.5,0,0,1-3.15.69,2,2,0,0,1-1.47-1.32,4,4,0,0,1,.42-2.62,15.51,15.51,0,0,1,5.42-6.48,22.35,22.35,0,0,1,.52,3.55C133.18,327.7,132.59,329.77,131.28,331Z" transform="translate(40.16)"/><path class="cls-12" d="M165.19,364.25H-24.18C-33.53,345.09-38.71,328-40,312c-1.06-12.82,4.32-25.79,13.71-33.06,10.11-7.81,24.67-8.62,34.64-1.91a25.29,25.29,0,0,1,9.74,13.24,46.74,46.74,0,0,0-8,13.79,10.35,10.35,0,0,0-.8,5.76c.45,2.06,2.38,4.14,4.74,3.86,1.55-.18,2.87-1.27,4.07-3.32,3.38-5.79,3.87-13,2-19.65A41.51,41.51,0,0,1,38.4,278.29c12.54-4,27-.89,35.92,7.85a31.76,31.76,0,0,1,9.4,21.79,37.71,37.71,0,0,0-7.9,9.47c-1.1,1.87-1.73,4.77-.81,6.7a3.1,3.1,0,0,0,2.41,1.81c1.85.28,3.65-1,4.94-3.57a30.05,30.05,0,0,0,3.17-13.56c6.59-5.44,14.89-8.36,23-7.71,10.87.89,20.42,8.68,23.51,18.37a17.3,17.3,0,0,0-6.58,7.59,5.74,5.74,0,0,0-.5,3.84,3.71,3.71,0,0,0,2.73,2.54,5.31,5.31,0,0,0,4.86-1.09c1.74-1.61,2.51-4.17,2.3-7.62a22.09,22.09,0,0,0-.7-4.44,19.7,19.7,0,0,1,15.28-1.59c8,2.53,14.48,9.94,17,19.34C168.33,345.5,167.94,354.32,165.19,364.25Z" transform="translate(40.16)"/><path class="cls-12" d="M543.69,314.64c-.12,1.41-1.3,3-2.65,3-1.65,0-2.78-2-3.32-3.13a25.9,25.9,0,0,1-1.89-14.22,32.42,32.42,0,0,1,6.5,9.46A9.59,9.59,0,0,1,543.69,314.64Z" transform="translate(40.16)"/><path class="cls-12" d="M607.27,304.77c-.65,1.61-1.88,3.25-3.28,3s-2.08-2.3-2-4.12a19.1,19.1,0,0,1,6.6-13.54A25.35,25.35,0,0,1,607.27,304.77Z" transform="translate(40.16)"/><path class="cls-12" d="M648.36,322.63c-.19.92-.39,1.84-.65,2.75a7.89,7.89,0,0,1-1.63,3.47,2.51,2.51,0,0,1-2.87.69,1.78,1.78,0,0,1-.83-1.26,4.31,4.31,0,0,1,1-3.22A7.36,7.36,0,0,1,648.36,322.63Z" transform="translate(40.16)"/><path class="cls-12" d="M657.49,364.42H524.57A88.56,88.56,0,0,1,511.87,318c.06-4,.38-9.18,2.54-13.65s6-7.61,10.1-8.19a13.57,13.57,0,0,1,9.77,2.85,27.84,27.84,0,0,0,1.87,16.23c1.21,2.64,2.94,4.12,4.87,4.15,2.5.06,4.2-2.34,4.4-4.55a11.21,11.21,0,0,0-1.53-5.85c-1.59-3.23-3.87-7.35-7.42-10.45l-.29-.24a30.22,30.22,0,0,1,.82-3.07,39.8,39.8,0,0,1,10.93-16.46c7.79-7.3,17.37-11.66,27-12.28,10.32-.65,20.69,3.37,27.07,10.51a28,28,0,0,1,6.13,11.31,21,21,0,0,0-7.9,15.38c-.06,2.66,1,5.5,3.52,5.88,2,.32,4-1.21,5.15-4.09a27.33,27.33,0,0,0,1.17-16.51,20.56,20.56,0,0,1,10-4c9.17-1.07,18.92,3.95,24.23,12.48a34.47,34.47,0,0,1,4.36,23.49,9.14,9.14,0,0,0-6.65,3.09,6,6,0,0,0-1.34,4.65,3.4,3.4,0,0,0,1.69,2.47,4.22,4.22,0,0,0,5-1,9.43,9.43,0,0,0,2.06-4.22c.29-1.06.53-2.13.74-3.2a10.43,10.43,0,0,1,4.92,1.74c3.18,2.19,5.46,6,6.76,11.35C664.38,346.2,662.92,355.87,657.49,364.42Z" transform="translate(40.16)"/><path class="cls-12" d="M607.27,304.77c-.65,1.61-1.88,3.25-3.28,3s-2.08-2.3-2-4.12a19.1,19.1,0,0,1,6.6-13.54A25.35,25.35,0,0,1,607.27,304.77Zm-71.44-4.52a32.42,32.42,0,0,1,6.5,9.46,9.59,9.59,0,0,1,1.36,4.93c-.12,1.41-1.3,3-2.65,3-1.65,0-2.78-2-3.32-3.13A25.9,25.9,0,0,1,535.83,300.25Zm121.66,64.17H524.57A88.56,88.56,0,0,1,511.87,318c.06-4,.38-9.18,2.54-13.65s6-7.61,10.1-8.19a13.57,13.57,0,0,1,9.77,2.85,27.84,27.84,0,0,0,1.87,16.23c1.21,2.64,2.94,4.12,4.87,4.15,2.5.06,4.2-2.34,4.4-4.55a11.21,11.21,0,0,0-1.53-5.85c-1.59-3.23-3.87-7.35-7.42-10.45l-.29-.24a30.22,30.22,0,0,1,.82-3.07,39.8,39.8,0,0,1,10.93-16.46c7.79-7.3,17.37-11.66,27-12.28,10.32-.65,20.69,3.37,27.07,10.51a28,28,0,0,1,6.13,11.31,21,21,0,0,0-7.9,15.38c-.06,2.66,1,5.5,3.52,5.88,2,.32,4-1.21,5.15-4.09a27.33,27.33,0,0,0,1.17-16.51,20.56,20.56,0,0,1,10-4c9.17-1.07,18.92,3.95,24.23,12.48a34.47,34.47,0,0,1,4.36,23.49,9.14,9.14,0,0,0-6.65,3.09,6,6,0,0,0-1.34,4.65,3.4,3.4,0,0,0,1.69,2.47,4.22,4.22,0,0,0,5-1,9.43,9.43,0,0,0,2.06-4.22c.29-1.06.53-2.13.74-3.2a10.43,10.43,0,0,1,4.92,1.74c3.18,2.19,5.46,6,6.76,11.35C664.38,346.2,662.92,355.87,657.49,364.42Zm-9.13-41.79c-.19.92-.39,1.84-.65,2.75a7.89,7.89,0,0,1-1.63,3.47,2.51,2.51,0,0,1-2.87.69,1.78,1.78,0,0,1-.83-1.26,4.31,4.31,0,0,1,1-3.22A7.36,7.36,0,0,1,648.36,322.63Z" transform="translate(40.16)"/><path class="cls-12" d="M652.52,500.66a3.3,3.3,0,0,1-.41,1.44,3.35,3.35,0,0,1-1,1.17,3.3,3.3,0,0,1-3.23.31c-9.76-4.3-33.93-16.34-53.3-37.29-.5-.53-1-1.08-1.48-1.63a104.87,104.87,0,0,1-19.37-30.57l5.18-5.3-6.81,1a90.64,90.64,0,0,1-4.91-32.58c0-.55,0-1.11.07-1.67a108.34,108.34,0,0,1,3.21-21.38,3.36,3.36,0,0,1,1.26-1.89,3.15,3.15,0,0,1,1.38-.62,3.2,3.2,0,0,1,1.59.09,108.86,108.86,0,0,1,34.05,18.11l-3.07,8,6.56-5.15c2,1.68,4,3.48,5.92,5.41.46.46.93.92,1.39,1.4C638.38,418.74,655,450.18,652.52,500.66Z" transform="translate(40.16)"/><path class="cls-7" d="M655,506.87l-1.28.78-2.65-4.38-20.55-33.92-36-3.06c-.5-.53-1-1.08-1.48-1.63l36.5,3.1-33.22-54.84-29.19-15.75c0-.55,0-1.11.07-1.67l27.59,14.89-23.12-38.16a3.15,3.15,0,0,1,1.38-.62l41.74,68.91,3.31-42.45c.46.46.93.92,1.39,1.4l-3.37,43.25,36,59.38Z" transform="translate(40.16)"/><path class="cls-13" d="M651.29,508.25a3.41,3.41,0,0,1-.66,1.35,3.32,3.32,0,0,1-2,1.15c-11.17,2-40.7,5.8-70.25-2.59-.73-.2-1.45-.41-2.18-.63-13.57-4.14-27.06-10.92-38.67-21.7l1.9-7.29-4.73,4.54a91.33,91.33,0,0,1-8.28-9.67c-.31-.42-.62-.84-.92-1.27a104.65,104.65,0,0,1-13.32-25.69A3.67,3.67,0,0,1,512,445a3.45,3.45,0,0,1,.47-1.44,3.29,3.29,0,0,1,1.89-1.48,110.21,110.21,0,0,1,54-1.68c.2,3.3,1.15,12.83,1.15,12.83l2.73-11.9q2.67.69,5.38,1.55c.55.17,1.11.35,1.66.54A116.26,116.26,0,0,1,621.69,469c.64.6,1.29,1.21,1.93,1.83a168.93,168.93,0,0,1,27.28,34.87A3.35,3.35,0,0,1,651.29,508.25Z" transform="translate(40.16)"/><path class="cls-7" d="M651.29,508.25a3.41,3.41,0,0,1-.66,1.35L612.8,492l-34.4,16.19c-.73-.2-1.45-.41-2.18-.63L611,491.14l-57.81-26.93-26.78,9.2c-.31-.42-.62-.84-.92-1.27l25.74-8.85L512,445a3.45,3.45,0,0,1,.47-1.44l72.71,33.89-7.51-34.57c.55.17,1.11.35,1.66.54l7.56,34.82,41,19.08L621.69,469c.64.6,1.29,1.21,1.93,1.83l5.92,27.28Z" transform="translate(40.16)"/><path class="cls-12" d="M-22.65,500.66a3.3,3.3,0,0,0,.41,1.44,3.35,3.35,0,0,0,1,1.17,3.3,3.3,0,0,0,3.23.31c9.76-4.3,33.93-16.34,53.3-37.29.5-.53,1-1.08,1.48-1.63a104.87,104.87,0,0,0,19.37-30.57L51,428.79l6.81,1a90.64,90.64,0,0,0,4.91-32.58c0-.55,0-1.11-.07-1.67a108.34,108.34,0,0,0-3.21-21.38,3.36,3.36,0,0,0-1.26-1.89,3.15,3.15,0,0,0-1.38-.62,3.2,3.2,0,0,0-1.59.09,108.86,108.86,0,0,0-34,18.11l3.07,8-6.56-5.15c-2,1.68-4,3.48-5.92,5.41-.46.46-.93.92-1.39,1.4C-8.51,418.74-25.16,450.18-22.65,500.66Z" transform="translate(40.16)"/><path class="cls-7" d="M-25.13,506.87l1.28.78,2.65-4.38L-.65,469.35l36-3.06c.5-.53,1-1.08,1.48-1.63l-36.5,3.1,33.22-54.84,29.19-15.75c0-.55,0-1.11-.07-1.67L35.06,410.39l23.12-38.16a3.15,3.15,0,0,0-1.38-.62L15.06,440.52l-3.31-42.45c-.46.46-.93.92-1.39,1.4l3.37,43.25-36,59.38Z" transform="translate(40.16)"/><path class="cls-13" d="M-21.42,508.25a3.41,3.41,0,0,0,.66,1.35,3.32,3.32,0,0,0,2,1.15c11.17,2,40.7,5.8,70.25-2.59.73-.2,1.45-.41,2.18-.63,13.57-4.14,27.06-10.92,38.67-21.7l-1.9-7.29,4.73,4.54a91.33,91.33,0,0,0,8.28-9.67c.31-.42.62-.84.92-1.27a104.65,104.65,0,0,0,13.32-25.69,3.67,3.67,0,0,0,.2-1.45,3.45,3.45,0,0,0-.47-1.44,3.29,3.29,0,0,0-1.89-1.48,110.21,110.21,0,0,0-54-1.68c-.2,3.3-1.15,12.83-1.15,12.83l-2.73-11.9q-2.67.69-5.38,1.55c-.55.17-1.11.35-1.66.54A116.26,116.26,0,0,0,8.18,469c-.64.6-1.29,1.21-1.93,1.83A168.93,168.93,0,0,0-21,505.71,3.35,3.35,0,0,0-21.42,508.25Z" transform="translate(40.16)"/><path class="cls-7" d="M-21.42,508.25a3.41,3.41,0,0,0,.66,1.35L17.07,492l34.4,16.19c.73-.2,1.45-.41,2.18-.63L18.84,491.14l57.81-26.93,26.78,9.2c.31-.42.62-.84.92-1.27l-25.74-8.85L117.87,445a3.45,3.45,0,0,0-.47-1.44L44.69,477.45l7.51-34.57c-.55.17-1.11.35-1.66.54L43,478.24,2,497.32,8.18,469c-.64.6-1.29,1.21-1.93,1.83L.33,498.12Z" transform="translate(40.16)"/></g><path class="cls-14" d="M563.17,407.61c0,7.1-22.29,4.14-123.68,4.14s-204.71,3-204.71-4.14S317,394.73,418.37,394.73,563.17,400.5,563.17,407.61Z" transform="translate(40.16)"/><path class="cls-15" d="M228,285.69a87.91,87.91,0,0,1-18.34-4.06,10.22,10.22,0,0,0-2.9-.69,3.23,3.23,0,0,0-2.67,1.11c-1.07,1.43-.2,3.48.85,4.93a23,23,0,0,0,5.36,5.28c-6.24.94-12.71,1.9-18.47,4.49a5.33,5.33,0,0,0-2,1.35,2,2,0,0,0-.26,2.26,2.81,2.81,0,0,0,2.15.94,26,26,0,0,0,7.1-.23,37.21,37.21,0,0,0-9.67,4.45,5.85,5.85,0,0,0-1.68,1.45,2.2,2.2,0,0,0-.3,2.11c.56,1.2,2.22,1.26,3.54,1.11a74.12,74.12,0,0,0,11.7-2.34,82.71,82.71,0,0,0-9.1,5.84,5.33,5.33,0,0,0-1.39,1.37,1.89,1.89,0,0,0-.17,1.86c.55,1,2,1,3.14.77a106.93,106.93,0,0,0,13.47-3.8c-1.68,1.82-3.57,3.9-5.26,5.71-.78.85-1.59,2.13-.88,3s2,.48,3,.05c10-4.4,20.41-9,27.88-17.05-3.31-4.26-4.62-9.68-5.73-15A7.74,7.74,0,0,1,228,285.69Z" transform="translate(40.16)"/><path class="cls-16" d="M364.3,224.67c-.46,5.43-3.86,10.11-7.14,14.46-9.86,13-11.76,19.27-21.78,32.18-5.14,6.64-10.41,13.4-17.44,18-6,3.9-21,12.72-27.89,14.41a173.91,173.91,0,0,1-48.72,4.64H241a3.76,3.76,0,0,1-.37,1.29,5.2,5.2,0,0,1-5.14,2.64,6.61,6.61,0,0,1-3.05-1.25,7.79,7.79,0,0,1-.84-.7,10.06,10.06,0,0,1-1.87-2.47,16.17,16.17,0,0,1-1.39-3.84c-.09-.37-.18-.73-.25-1.1-.16-.76-.29-1.53-.42-2.29-.24-1.41-.49-2.82-.74-4.23-.05-.36-.11-.71-.18-1.07-.28-1.65-.57-3.31-.86-5a24.3,24.3,0,0,1-.31-2.46,8,8,0,0,1,0-1.09,5.47,5.47,0,0,1,1.72-4.36,8.34,8.34,0,0,1,3.88-1.44l1.84-.35,1-.19c20.1-3.74,52.09-9.34,63-25.13,10.27-14.83,12.43-23,22.69-37.84,5.9-8.53,11.91-17.18,20-23.71,4.46-3.62,9.77-6.93,11.57-12.37,3.75,10,6.6,20.64,10.35,30.64C363.13,216.13,364.67,220.35,364.3,224.67Z" transform="translate(40.16)"/><path class="cls-7" d="M241.33,308.36H241a3.76,3.76,0,0,1-.37,1.29c-.57-1.67-1.1-3.35-1.63-5-.13-.42-.26-.84-.38-1.26q-1-3.18-1.83-6.37c-.1-.37-.2-.73-.29-1.09-.38-1.4-.74-2.8-1.09-4.21-.09-.37-.18-.74-.26-1.11-.46-1.91-.91-3.84-1.31-5.76-.08-.36-.15-.71-.23-1.06-.21-1-.42-2.06-.61-3.09l1-.19A224.6,224.6,0,0,0,241.33,308.36Z" transform="translate(40.16)"/><path class="cls-7" d="M234.15,284.69l-.28.12a75.15,75.15,0,0,1-8.26,3.09,8,8,0,0,1,0-1.09,75.75,75.75,0,0,0,8-3.06l.08,0a.52.52,0,0,1,.69.28A.53.53,0,0,1,234.15,284.69Z" transform="translate(40.16)"/><path class="cls-7" d="M235.93,291.33l-.49.35A39,39,0,0,1,227,296.4c-.05-.36-.11-.71-.18-1.07a38.16,38.16,0,0,0,8.4-4.76l.11-.08a.53.53,0,1,1,.64.84Z" transform="translate(40.16)"/><path class="cls-7" d="M237,296.76l-.21.22a49.82,49.82,0,0,1-8.45,7c-.09-.37-.18-.73-.25-1.1a47.83,47.83,0,0,0,8.15-6.89.55.55,0,0,1,.26-.14.51.51,0,0,1,.48.12A.53.53,0,0,1,237,296.76Z" transform="translate(40.16)"/><path class="cls-7" d="M239.55,303.9c-.17.25-.34.48-.52.71a29.18,29.18,0,0,1-6.56,6.42,7.79,7.79,0,0,1-.84-.7,28.39,28.39,0,0,0,7-7l0,0a.51.51,0,0,1,.73-.14A.53.53,0,0,1,239.55,303.9Z" transform="translate(40.16)"/><rect class="cls-15" x="367.59" y="364.52" width="31.84" height="23.88"/><polygon class="cls-7" points="367.59 369.54 367.59 372.59 399.43 370.81 399.43 368.88 367.59 369.54"/><path class="cls-7" d="M364.36,406.3h-74c-.61-.94-.21-2.51.31-3.51a3.43,3.43,0,0,1,.08-3.1,8.64,8.64,0,0,1,2-2.48c7.11-6.61,16.22-10.59,24.18-16.15,3.09-2.15,6-4.56,9.41-6.2s7.37-2.47,10.93-1.24,6.39,4.92,5.75,8.63a10,10,0,0,0,13.25-2.46,6.37,6.37,0,0,1,2.18-2.36c1.59-.71,3.48.56,4.18,2.15s.62,3.4.76,5.13c.31,3.66,1.72,7.12,2.58,10.69A15.54,15.54,0,0,1,364.36,406.3Z" transform="translate(40.16)"/><path class="cls-17" d="M416,276.77c0,6.76-3.56,13.6-9.48,16.89s-12.95,2.77-19.47,1.43c-9.36-1.94-16.93-5.63-25-10.67v84.37c-3.4.11-6.81.22-10.21.31l-1.05,0q-12.54.33-25.09.42c-1.69,0-3.69-.13-4.61-1.56a5.19,5.19,0,0,1-.23-3.71c.88-4.64,1.08-8.62,1.95-13.26l-2.37-82.52c-1.26-9.59,3.24-21.41,10.5-27.79,5.61-4.95,13.52-6.64,21-6s14.58,3.25,21.46,6.15a283.16,283.16,0,0,1,35.26,17.89C414.42,262.17,416.05,270,416,276.77Z" transform="translate(40.16)"/><path class="cls-18" d="M351.83,316V369.1l-1.05,0V316a.53.53,0,1,1,1.05,0Z" transform="translate(40.16)"/><polygon class="cls-15" points="582.09 342.21 578.82 373.88 539.62 371.43 542.89 339.76 582.09 342.21"/><polygon class="cls-7" points="557.87 340.64 548.7 372 553.28 372.28 559.6 340.81 557.87 340.64"/><path class="cls-7" d="M553,341.53c-3.58-.82-7.3-1.11-10.71-2.48-1.61-.64-3.19-1.54-4.93-1.62s-3.71,1-3.8,2.78a6.45,6.45,0,0,0,1.14,3,10,10,0,0,1-3.75,12.94c-3-2.23-7.59-1.36-10.29,1.27s-3.74,6.57-3.78,10.33.78,7.47,1.32,11.19c.2,1.37.36,2.75.49,4.13.15,1.54.28,3.1.39,4.66a76.68,76.68,0,0,0-13.31,9.3,8.8,8.8,0,0,0-2,2.47,3.48,3.48,0,0,0-.09,3.11c-.52,1-.93,2.56-.32,3.5l18.05.08v0l11.35.05,0,0,14.31-28.54,2.2-4.39L562,347.92A15.6,15.6,0,0,0,553,341.53Z" transform="translate(40.16)"/><path class="cls-18" d="M518.76,336.88c-.25.9-.51,1.8-.76,2.72-.09.34-.2.69-.29,1-3.33,11.73-7.26,24.34-10.44,35.87-31,4.92-64-2.29-95.22-5.61-11.44-1.21-22.95-2.44-34-5.65-4.65-1.35-9.27-3.08-13.1-6s-6.81-7.28-7.24-12.1c-.62-6.94,4-13.2,8.48-18.52A307.25,307.25,0,0,1,401,293.77c3.76-3.2,8.47-7.7,12.69-10.25,9.43-5.68,20.32-8.44,31.15-10.47,19.85-3.73,40.8-5.66,60.94-7.2,7.23,6.18,9.73,16.77,7.68,26.06s-8,17.33-15.29,23.51c-6.55,5.58-14.12,9.81-21.73,13.86l-2.07,1.1-.31.17C488.55,330.74,504.28,335.5,518.76,336.88Z" transform="translate(40.16)"/><path class="cls-17" d="M518,339.6c-.09.34-.2.69-.29,1-18.23-.92-36.72-1.36-55-1.32h-.66c-8.33,0-16.9.05-24.87-2.65-2.14-.72-5.77-2.43-6-5.72-.18-2.51,1.76-4.53,3.47-6,7.31-6.35,16-11,24.38-15.54,3-1.6,6-3.25,9-5,9.05-5.21,21.75-13.59,27.63-26.38a.53.53,0,0,1,.7-.26.51.51,0,0,1,.25.69c-6,13.07-18.88,21.59-28,26.87-3,1.7-6,3.35-9,5-8.34,4.5-17,9.15-24.2,15.42-1.52,1.31-3.24,3.08-3.1,5.12.18,2.69,3.38,4.16,5.28,4.8,7.79,2.64,16.31,2.62,24.53,2.6h.66C481.1,338.23,499.67,338.67,518,339.6Z" transform="translate(40.16)"/><path class="cls-17" d="M476.39,329.28l-2.07,1.1c-2.52,0-5.05.06-7.57.06-8.09,0-16.2-.19-24.23-.57a.52.52,0,0,1-.5-.54.55.55,0,0,1,.56-.51C453.78,329.35,465.14,329.52,476.39,329.28Z" transform="translate(40.16)"/><path class="cls-17" d="M469.75,329.27a.54.54,0,0,1-.21,0l-15.05-6.78a.53.53,0,0,1-.26-.7.52.52,0,0,1,.69-.26L470,328.26a.53.53,0,0,1-.22,1Z" transform="translate(40.16)"/><path class="cls-17" d="M457.12,334.34h-.52a.52.52,0,0,1-.52-.53.49.49,0,0,1,.53-.52,56.19,56.19,0,0,0,13.18-1.46.53.53,0,0,1,.64.39.53.53,0,0,1-.4.63A56.7,56.7,0,0,1,457.12,334.34Z" transform="translate(40.16)"/><path class="cls-16" d="M507.18,271.11c-.28.27-.56.53-.86.79l-.47.38a29.86,29.86,0,0,1-4.71,3.09c-.3.17-.62.32-.93.48a44.14,44.14,0,0,1-10.65,3.54l-1,.2c-.95.18-1.9.32-2.84.46-1.71.24-3.41.43-5.12.57-.35,0-.7.06-1.05.09-5.21.42-10.45.56-15.65,1.08-8.59.87-17.36,2.78-25.78.79-7.33-1.75-13.63-6.32-19.63-10.87q-26.18-19.87-50.35-42.19c-5.67-5.24-13-9-17.06-15.6s-5.74-14.77-3.74-22.24c.64-2.42,1.65-4.75,1.91-7.25.37-3.61-.88-7.17-1.21-10.78-.41-4.61.12-9.09,2.13-12.72a14.07,14.07,0,0,1,5.36-5.48c2.7-1.56,4.28-4.5,5.52-7.35s2.34-5.89,4.53-8.11l0-.05c2.18-2.2,5.82-3.32,8.43-1.65,2,1.26,2.79,3.68,4.3,5.47,2.21,2.61,5.76,3.71,9.18,3.87s6.8-.5,10.21-.76c8.76-.69,17.56,1.23,25.89,4A120.89,120.89,0,0,1,505,250.68c0,.23.06.48.09.71l.32.27c3,2.46,5.68,5.71,6.18,9.56S510,268.47,507.18,271.11Z" transform="translate(40.16)"/><path class="cls-7" d="M507.18,271.11c-.28.27-.56.53-.86.79-1.69-5.93-3.65-11.8-5.84-17.54a.52.52,0,0,1,.3-.67.53.53,0,0,1,.68.3C503.6,259.59,505.52,265.32,507.18,271.11Z" transform="translate(40.16)"/><path class="cls-7" d="M501.14,275.37c-.3.17-.62.32-.93.48l-4.39-11.22a43.53,43.53,0,0,1-2.3-7.12.53.53,0,1,1,1-.18,43.63,43.63,0,0,0,2.24,6.92Z" transform="translate(40.16)"/><path class="cls-7" d="M489.56,279.39l-1,.2c-1.51-6.4-2.59-11.65-3.87-18a.52.52,0,0,1,.41-.62.54.54,0,0,1,.62.41C487,267.74,488.05,273,489.56,279.39Z" transform="translate(40.16)"/><path class="cls-7" d="M480.57,280.62c-.35,0-.7.06-1.05.09-.56-5.14-1.25-11.37-1.69-16.49a.52.52,0,0,1,.49-.57.55.55,0,0,1,.57.48C479.31,269.25,480,275.47,480.57,280.62Z" transform="translate(40.16)"/><path class="cls-7" d="M505.37,251.66a142.75,142.75,0,0,1-34.91,15.52l-.29-1A142,142,0,0,0,505,250.68c0,.23.06.48.09.71Z" transform="translate(40.16)"/><path class="cls-8" d="M511.37,204.28a33.75,33.75,0,0,0-3.13-6.66c-.42-.7-1.71-2.8-3.94-2.8h0a5,5,0,0,0-3.15,1.48,34.39,34.39,0,0,0-5.09,5.68l-.08.12c-2.07,2.94-4.17,6.28-4.46,8.94-8.53,10.56-31,20.67-31,20.67a23.08,23.08,0,0,1-5,.46c-.4,0-.81,0-1.21,0a28.94,28.94,0,0,1-7.32-1.43c-.34-.12-.68-.23-1-.36a36,36,0,0,1-9.16-5c-.29-.22-.58-.44-.86-.67s-.56-.44-.83-.67a51.64,51.64,0,0,1-5.23-5c-.27-.31-.54-.6-.8-.91a105,105,0,0,1-8.69-11.74c-2.86-4.37-5.65-8.87-9.54-12.36s-7.7-6.28-12.84-5.42c-.94.8-1.89,1.59-2.83,2.37L393.9,192Q389,196,384,199.9l.49-12A99.63,99.63,0,0,1,395.12,147h-7c-13.56,10.09-9.07,49.37-8.22,55.89a200.06,200.06,0,0,1-17.59,11.61l-13.46-32.38s-4.35,3.56-5.38,6.88,13.61,28.41,13.61,28.41q2,4.2,4.17,8.3c.18.36.37.72.56,1.07q4.15,7.81,8.91,15.27c.25.4.52.81.79,1.21h0c1.48,2.32,3,4.6,4.61,6.87a20.55,20.55,0,0,1-2.82,8.76c-.16.32-.34.62-.52.93-1.95,3.33-4.41,6.51-6.34,9.94q-.24.4-.45.81a2.85,2.85,0,0,0-.16.3c-2.66,5.05-4.73,11-4,16.45a7.25,7.25,0,0,0,.16,1,14,14,0,0,0,1.65,4.44c3.3,5.69,10.1,8.09,16,11.09a59.85,59.85,0,0,1,20.77,17.55c6.65,8.93,10.05,20.19,18.8,27.1a33.62,33.62,0,0,1,2.68-7.64c.21-.43.42-.86.65-1.28a41.13,41.13,0,0,1,2.75-4.46h0c.24-.36.5-.72.77-1.07,4.8-6.53,11.3-12.12,17.67-17.23,10.64-8.52,22.09-17.38,26.77-30.19,3.24-8.87,2.8-18.75.47-27.89a118.26,118.26,0,0,0-5-14.88c-.13-.34-.27-.68-.4-1-.49-1.2-1-2.39-1.51-3.57a207.82,207.82,0,0,0,18.81-11.61l1.12-.8a73.54,73.54,0,0,0,11.64-9.87,37.42,37.42,0,0,1,10.81,5.41l1.86-2.54a40.86,40.86,0,0,0-9-4.94l.17,0c.3-.05.58-.11.82-.14a39.81,39.81,0,0,0,7.18-1.84,7,7,0,0,0,4-2.84C512.51,208.18,511.92,205.86,511.37,204.28Zm-2.74,4.3A4.45,4.45,0,0,1,506.3,210a35.11,35.11,0,0,1-6.58,1.69c-.28,0-.58.09-.91.16-1.11.21-3.42.63-4.09.12,0,0-1-1.24,3.83-8.09l.08-.1a29.36,29.36,0,0,1,4.6-5.15c.19-.18.77-.68,1.07-.69.08,0,.5.06,1.24,1.28a31.25,31.25,0,0,1,2.85,6.05C508.73,206.3,509.13,207.72,508.63,208.58Z" transform="translate(40.16)"/><path class="cls-19" d="M455.53,232.17a219.29,219.29,0,0,1-19.6,28.06,20.57,20.57,0,0,1-4.72,4.56,8.55,8.55,0,0,1-4.53,1.39,6,6,0,0,1-2.05-.33c-3.06-1.07-5-4.6-5.26-9.45-.34-7.3,2-14.6,4.08-21,1.83-5.7,3.69-11.51,5.66-17.31.26.31.53.6.8.91-1.88,5.6-3.69,11.21-5.46,16.72-2.15,6.66-4.36,13.55-4,20.65.07,1.66.63,7.15,4.55,8.52a6.72,6.72,0,0,0,5.68-1,19.26,19.26,0,0,0,4.46-4.35,216.06,216.06,0,0,0,19.21-27.41C454.72,232.16,455.13,232.18,455.53,232.17Z" transform="translate(40.16)"/><path class="cls-19" d="M447,230.71q-5.79,9.82-11.68,19.48c-1.65,2.71-3.53,4.16-5.31,4.16a3.18,3.18,0,0,1-1.21-.24c-2.12-.84-2.87-3.55-2-7.27A104,104,0,0,1,435.14,224c.27.23.55.45.83.67a102.7,102.7,0,0,0-8.13,22.42c-.29,1.18-1,5.12,1.35,6s4.4-2.13,5.22-3.49c3.89-6.36,7.75-12.81,11.58-19.29C446.32,230.48,446.66,230.59,447,230.71Z" transform="translate(40.16)"/><path class="cls-19" d="M418.31,310.69a3.47,3.47,0,0,1-2.76,2.58,5.43,5.43,0,0,1-1.13.12A9.78,9.78,0,0,1,412,313c-7.36-1.9-13.6-6.42-19.88-11.28l-.87-.68c-5.65-4.37-11.49-8.9-18.25-11.25a26.63,26.63,0,0,0-11-1.39,7.25,7.25,0,0,1-.16-1,27.34,27.34,0,0,1,11.49,1.44c6.91,2.4,12.83,7,18.54,11.41l.87.68c6.19,4.79,12.35,9.24,19.5,11.09a7.07,7.07,0,0,0,3.12.26,2.47,2.47,0,0,0,1.95-1.75c.3-1.56-1.51-2.79-3.11-3.69a47.73,47.73,0,0,1-18.51-19c-.58-1.08-1.12-2.19-1.65-3.3-1.68-3.47-3.4-7-6.26-9.56a19.09,19.09,0,0,0-10.42-4.22,56.64,56.64,0,0,0-11.5.17,2.85,2.85,0,0,1,.16-.3q.21-.4.45-.81a54.71,54.71,0,0,1,11-.1,20,20,0,0,1,11,4.47c3,2.65,4.8,6.33,6.51,9.89.54,1.09,1.07,2.2,1.64,3.26a46.67,46.67,0,0,0,18.09,18.56C416.6,307,418.73,308.48,418.31,310.69Z" transform="translate(40.16)"/><path class="cls-19" d="M465.92,243.94a10.86,10.86,0,0,0-2.54,2.52c-1.81,2.52-2.86,5.84-3.29,10.45-.13,1.31-.21,2.64-.28,3.94a56.87,56.87,0,0,1-.75,7.42c-1.92,10-8.84,18.07-16.39,26.1-7.13,7.58-14.43,15.35-16.9,25.2a29.08,29.08,0,0,0,.24,14.56c-.27.35-.53.71-.77,1.07a30.15,30.15,0,0,1-.49-15.88c2.54-10.12,9.94-18,17.09-25.61,7.49-8,14.32-15.88,16.19-25.64a55.9,55.9,0,0,0,.73-7.29c.08-1.3.15-2.65.28-4,.28-3,.95-7.44,3.49-11a12.2,12.2,0,0,1,3-2.91C465.65,243.26,465.79,243.6,465.92,243.94Z" transform="translate(40.16)"/><path class="cls-19" d="M395.21,190.91a35.14,35.14,0,0,1-13.31,21.32,69.74,69.74,0,0,1-7.38,4.55c-3.65,2-7.42,4.14-10.35,7.14a20.35,20.35,0,0,0-2.36,2.9c-.19-.35-.38-.71-.56-1.07a21.94,21.94,0,0,1,2.16-2.57c3-3.1,6.88-5.24,10.59-7.32a70,70,0,0,0,7.26-4.47A33.93,33.93,0,0,0,393.9,192Z" transform="translate(40.16)"/><path class="cls-19" d="M483.94,227l-1.12.8a16,16,0,0,0-10.18.74c-6.44,2.84-10.42,9.21-12.63,14.05a103.67,103.67,0,0,0-3.8,10.26c-.9,2.71-1.84,5.52-2.94,8.22-3.61,8.87-9.17,16.88-14.54,24.64l-2.08,3c-5.88,8.55-11.85,17.78-14.63,28.3a39,39,0,0,0,.47,22.7c-.23.42-.44.85-.65,1.28-2.74-7.09-3.08-15.68-.83-24.25,2.81-10.68,8.84-20,14.78-28.63l2.07-3c5.34-7.7,10.86-15.67,14.44-24.43,1.09-2.68,2-5.46,2.91-8.17a102.49,102.49,0,0,1,3.85-10.35c2.28-5,6.42-11.6,13.16-14.59A16.74,16.74,0,0,1,483.94,227Z" transform="translate(40.16)"/><path class="cls-19" d="M413.65,273.87c-1.17,1.9-3.28,2.44-5.32,2.44a16.27,16.27,0,0,1-3.61-.46c-11.73-2.82-22.36-9.39-31.94-16,.18-.31.36-.61.52-.93,9.52,6.56,20.08,13.1,31.67,15.89,2.23.54,6.22,1.05,7.78-1.5.93-1.54.65-3.73-.87-6.52a41,41,0,0,0-16.12-16.19c-7.48-4.12-16-5.76-24.25-7.31h0c-.27-.4-.54-.81-.79-1.21l.74.13c8.4,1.59,17.11,3.24,24.81,7.47a42.23,42.23,0,0,1,16.54,16.62C414.52,269.45,414.8,272,413.65,273.87Z" transform="translate(40.16)"/><path class="cls-15" d="M307.2,330a88,88,0,0,1-17.37,7.16,10.45,10.45,0,0,0-2.78,1.09,3.19,3.19,0,0,0-1.55,2.43c-.06,1.79,1.82,3,3.51,3.57a23.11,23.11,0,0,0,7.41,1.26c-4.58,4.35-9.34,8.83-12.58,14.25A5.2,5.2,0,0,0,283,362a2,2,0,0,0,1.08,2,2.82,2.82,0,0,0,2.31-.46,25.63,25.63,0,0,0,5.69-4.24,37.09,37.09,0,0,0-5.39,9.17,5.84,5.84,0,0,0-.55,2.15,2.18,2.18,0,0,0,1,1.9c1.15.67,2.54-.23,3.53-1.11a72.34,72.34,0,0,0,8.27-8.61,80.55,80.55,0,0,0-4.12,10,5.29,5.29,0,0,0-.37,1.92,1.87,1.87,0,0,0,.93,1.62c1,.53,2.2-.33,3-1.16a106,106,0,0,0,8.89-10.82c-.34,2.45-.71,5.24-1.05,7.7-.16,1.13-.1,2.65,1,3s1.9-.74,2.46-1.64c5.74-9.36,11.6-19.07,13.14-29.93-5.15-1.61-9.33-5.31-13.26-9A7.73,7.73,0,0,1,307.2,330Z" transform="translate(40.16)"/><path class="cls-16" d="M429.36,181.56c-12.38,63-49.49,120.65-101.06,158.92a3,3,0,0,1-.08.41,4.31,4.31,0,0,1-.37,1,7.22,7.22,0,0,1-5.31,3.92c-.66-.39-1.3-.78-1.94-1.19l-.88-.59a60.44,60.44,0,0,1-6.06-4.61c-.28-.23-.54-.46-.8-.71-1.42-1.25-2.77-2.57-4.07-4-.29-.32-.57-.63-.86-1s-.46-.55-.67-.84a8.22,8.22,0,0,1-1.79-4.06c-.29-2.82,2-4.61,4-6.65.26-.27.53-.54.77-.81s.58-.67.83-1c32.32-44.38,65.22-89.9,80.82-142.53,6.78-1.42,11.79-2.61,18.69-2.24S424.68,176.47,429.36,181.56Z" transform="translate(40.16)"/><path class="cls-7" d="M384.46,200.7a.4.4,0,0,1-.15,0A.51.51,0,0,1,384,200c2.14-7,4.61-14,7.34-20.77A.52.52,0,0,1,392,179a.53.53,0,0,1,.3.68c-2.72,6.76-5.18,13.72-7.31,20.68A.53.53,0,0,1,384.46,200.7Z" transform="translate(40.16)"/><path class="cls-7" d="M422.6,209.28a.4.4,0,0,1-.15,0,.51.51,0,0,1-.35-.65c2.46-8.08,4.55-16.38,6.21-24.65a.53.53,0,1,1,1,.21c-1.66,8.31-3.76,16.63-6.24,24.74A.52.52,0,0,1,422.6,209.28Z" transform="translate(40.16)"/><path class="cls-7" d="M328.22,340.89a4.31,4.31,0,0,1-.37,1q-2-1.26-3.91-2.71c-.29-.2-.55-.42-.82-.64a50.56,50.56,0,0,1-5.46-5c-.25-.25-.49-.52-.72-.78a50.25,50.25,0,0,1-4.23-5.31l-.62-.92a45.77,45.77,0,0,1-2.57-4.31c.26-.27.53-.54.77-.81a46.84,46.84,0,0,0,2.84,4.77.71.71,0,0,0,.12.18,50.78,50.78,0,0,0,10.62,11.42l.54.42A44,44,0,0,0,328.22,340.89Z" transform="translate(40.16)"/><path class="cls-7" d="M313.16,326.91l-.45.57c-1.64,2-3.24,4.16-4.78,6.32-.23-.27-.46-.55-.67-.84,1.54-2.18,3.17-4.33,4.83-6.4l.25-.32a.53.53,0,0,1,.75-.07s0,0,0,0a.71.71,0,0,0,.12.18A.55.55,0,0,1,313.16,326.91Z" transform="translate(40.16)"/><path class="cls-7" d="M317.88,333.29l-.22.28a66.69,66.69,0,0,0-4,5.87c-.28-.23-.54-.46-.8-.71a67.13,67.13,0,0,1,4.08-5.94l.1-.14a.53.53,0,0,1,.84.64Z" transform="translate(40.16)"/><path class="cls-7" d="M324.41,338.23a.56.56,0,0,1-.08.4c-.13.19-.27.38-.39.57-1.19,1.75-2.32,3.57-3.34,5.44l-.88-.59c1-1.88,2.17-3.72,3.4-5.49l.34-.52a.54.54,0,0,1,.41-.23.62.62,0,0,1,.32.09A.61.61,0,0,1,324.41,338.23Z" transform="translate(40.16)"/><path class="cls-20" d="M299.45,140.46c-8.25,1.31-16.81-3.72-20.69-11.12s-3.42-16.64.11-24.22c1.7-3.63,4.36-7.18,8.21-8.29,2.93-.85,6.07-.16,9.1-.52,8.73-1,14.44-10.16,22.92-12.48a15.89,15.89,0,0,1,13.7,2.74c2.24,1.74,4.28,4.22,7.12,4.41s5.2-2,7.94-2.64a9.7,9.7,0,0,1,8.45,2.51,20.47,20.47,0,0,1,4.95,7.62,47,47,0,0,1,3.27,23.24c-.53,4.65-2.33,9.89-6.74,11.48-7.16-3.12-14.47-6.26-22.24-7.09s-15.85.13-22.8,3.69C308,132.24,303.49,136.9,299.45,140.46Z" transform="translate(40.16)"/><path class="cls-15" d="M359.41,134.42a7.55,7.55,0,0,1-3.72,5,5.47,5.47,0,0,1-1.45.47,53,53,0,0,1,2.11,15.63c-.32,6.57-3,13.37-8.33,17.17-5.59,4-13.19,4-19.7,1.85a38,38,0,0,1-10.79-5.77,51.45,51.45,0,0,1-7-6.32,77.92,77.92,0,0,1-6.56-8.28c-2.12-3-4.08-6.21-6-9.4A41.85,41.85,0,0,1,293,134c-1-3.84-.84-8.14,1.23-11.53,1.71-2.78,4.51-4.67,7.27-6.39a130.34,130.34,0,0,1,15.62-8.19c4.22-1.86,8.75-3.53,13.35-3,3,.34,7.44,1.6,9.74,3.76a36.28,36.28,0,0,1,7.68,11.47c.14.34.29.67.43,1,0,0,0-.08.05-.11a4.82,4.82,0,0,1,3.15-2.67,4.63,4.63,0,0,1,3.74,1.74,16.7,16.7,0,0,1,4,8A14.19,14.19,0,0,1,359.41,134.42Z" transform="translate(40.16)"/><circle class="cls-21" cx="340.04" cy="143.9" r="9.95" transform="matrix(0.16, -0.99, 0.99, 0.16, 183.69, 456.5)"/><path class="cls-21" d="M320.43,161.75a10,10,0,0,1-2.9,7,51.45,51.45,0,0,1-7-6.32,77.92,77.92,0,0,1-6.56-8.28,10,10,0,0,1,16.42,7.57Z" transform="translate(40.16)"/><path class="cls-15" d="M365.59,139.94l0,.05c-2.19,2.22-3.29,5.25-4.53,8.11s-2.82,5.79-5.52,7.35a14.07,14.07,0,0,0-5.36,5.48,29.15,29.15,0,0,1-3.09-11.34,27.93,27.93,0,0,1,3.77-15.8,8,8,0,0,1,3-3.21c1.3-.7,4-.52,4.79.76A37.78,37.78,0,0,0,365.59,139.94Z" transform="translate(40.16)"/><path class="cls-20" d="M355.29,138.19c-6.89-9.18-7-17.3-6.66-19.28.61-3.61-.59-6-2-9.35a16.45,16.45,0,0,0-7.08-8.13,19.5,19.5,0,0,0-12.79-1.67,47.69,47.69,0,0,0-12.33,4.46,81.46,81.46,0,0,0-16.39,10c-3.4,2.81-6.56,6.24-7.67,10.51-1.48,5.65,1.09,11.59,5.19,15.75-1.36-3-2.85-6-2.59-9.31a3.55,3.55,0,0,1,2.51-3.27,19,19,0,0,1,4.82-.82,28.48,28.48,0,0,0,19.79-11.67,22.84,22.84,0,0,1,3.27-4.2,5.08,5.08,0,0,1,4.91-1.31c1.86.66,2.94,2.76,4.83,3.34a17.3,17.3,0,0,1,2.79.6,3.51,3.51,0,0,1,1.68,2.82,19.51,19.51,0,0,1-.14,3.41,14.36,14.36,0,0,0,3.73,10.37,26.43,26.43,0,0,1,3.55,11.62c.26,3.07-.19,6.49-2.46,8.58a9.87,9.87,0,0,1-5.69,2.18c-2.06.21-4.14.12-6.18.43a16.16,16.16,0,0,0-9.9,5.55c-1.06,1.26-1.92,2.69-3.09,3.85a7.75,7.75,0,0,1-5,1.68s18.69,25.28,36.48,17.82S362.17,147.38,355.29,138.19Z" transform="translate(40.16)"/><path class="cls-7" d="M327.78,138.12a3.08,3.08,0,1,1,.3-3.88A2.78,2.78,0,0,1,327.78,138.12Z" transform="translate(40.16)"/><path class="cls-7" d="M309.82,148.27a3.08,3.08,0,1,1,.3-3.88A2.78,2.78,0,0,1,309.82,148.27Z" transform="translate(40.16)"/><path class="cls-22" d="M322.32,153.35a3.58,3.58,0,0,1-2.9-1.32,5.48,5.48,0,0,1-.61-3.82V148a26.14,26.14,0,0,0-1.1-9.86.53.53,0,0,1,.35-.66.53.53,0,0,1,.66.35,27.39,27.39,0,0,1,1.14,10.26v.17a4.62,4.62,0,0,0,.41,3.11,2.52,2.52,0,0,0,2.1.9,6.28,6.28,0,0,0,2.54-.72.53.53,0,0,1,.7.26.53.53,0,0,1-.25.7,7.29,7.29,0,0,1-3,.81Z" transform="translate(40.16)"/><path class="cls-7" d="M328.63,161a.53.53,0,0,1-.29-1,9.92,9.92,0,0,0,4.33-9.43.52.52,0,1,1,1-.14,10.87,10.87,0,0,1-4.8,10.45A.51.51,0,0,1,328.63,161Z" transform="translate(40.16)"/><path class="cls-22" d="M351.38,129.12a.53.53,0,0,1-.46-.27,5,5,0,0,1,2.38-7.07,3.2,3.2,0,0,1,3.38.33.53.53,0,0,1,0,.74.51.51,0,0,1-.74,0,2.23,2.23,0,0,0-2.27-.14,3.95,3.95,0,0,0-1.88,5.58.53.53,0,0,1-.19.72A.59.59,0,0,1,351.38,129.12Z" transform="translate(40.16)"/><path class="cls-22" d="M356,126.92a8,8,0,0,0-3.11-4.16,7.78,7.78,0,0,1-.75.77,6.86,6.86,0,0,1,2.6,8.56.52.52,0,0,0,.27.69.54.54,0,0,0,.21.05.53.53,0,0,0,.48-.32A8,8,0,0,0,356,126.92Z" transform="translate(40.16)"/><path class="cls-20" d="M318.31,119a4.58,4.58,0,0,1,2.26-2.17,9.28,9.28,0,0,1,3-.73,9,9,0,0,1,5.86,1.4.54.54,0,0,1-.34,1h0a20.49,20.49,0,0,0-5.13.3,20.83,20.83,0,0,0-2.38.64,10.56,10.56,0,0,1-2.65.43h0a.61.61,0,0,1-.63-.59A.62.62,0,0,1,318.31,119Z" transform="translate(40.16)"/><path class="cls-20" d="M303.93,127.53a4.56,4.56,0,0,0-3.13,0,9.45,9.45,0,0,0-2.7,1.52,9,9,0,0,0-3.32,5,.54.54,0,0,0,.42.65.53.53,0,0,0,.5-.15h0a20.41,20.41,0,0,1,4-3.3,23.74,23.74,0,0,1,2.17-1.15,10.81,10.81,0,0,0,2.24-1.5l0,0a.6.6,0,0,0,0-.86A.57.57,0,0,0,303.93,127.53Z" transform="translate(40.16)"/><path class="cls-7" d="M301.36,169.06a17.4,17.4,0,1,1,17.4-17.39A17.41,17.41,0,0,1,301.36,169.06Zm0-33.74a16.35,16.35,0,1,0,16.34,16.35A16.36,16.36,0,0,0,301.36,135.32Z" transform="translate(40.16)"/><path class="cls-7" d="M334,152.76a17.4,17.4,0,1,1,17.4-17.39A17.41,17.41,0,0,1,334,152.76ZM334,119a16.35,16.35,0,1,0,16.35,16.35A16.37,16.37,0,0,0,334,119Z" transform="translate(40.16)"/><path class="cls-8" d="M203.42,201.68c-5.41-10.75-6.92-23.06-7-35.09s1.23-24.05,1.06-36.09a148.22,148.22,0,0,0-5-36c12.08,5.68,20,17.22,23.09,30.2s1.56,26.7-2,39.57C210.17,176.69,204.88,188.9,203.42,201.68Z" transform="translate(40.16)"/><path class="cls-8" d="M194,201.58c-6.78-2.63-12.08-8.21-15.74-14.49s-5.87-13.28-8-20.22l-14.75-47.06C175.89,142.61,189.71,171.23,194,201.58Z" transform="translate(40.16)"/><path class="cls-8" d="M209.58,241.61c-.84-11.58,2.76-23.1,8.06-33.43s12.27-19.7,18.76-29.32A373.35,373.35,0,0,0,256.26,146c3.27,7.13,4.06,15.07,3.34,22.89a74,74,0,0,1-6.24,22.59A112.77,112.77,0,0,1,209.58,241.61Z" transform="translate(40.16)"/><path class="cls-8" d="M203.87,309.7c-1.49-8.24,1.88-16.56,5.9-23.9A125.73,125.73,0,0,1,223.2,266c4.93-5.95,10.43-11.48,14.51-18a91.41,91.41,0,0,1-27.1,53.94C208.14,304.3,204.64,306.35,203.87,309.7Z" transform="translate(40.16)"/><path class="cls-8" d="M203.3,302.62A79.37,79.37,0,0,0,179,248.33c-.81,10,2.24,19.73,6.95,28.62A167.58,167.58,0,0,0,203.3,302.62Z" transform="translate(40.16)"/><path class="cls-7" d="M131.41,237.89l.12.77c5.18-1,9.69-4.13,13.61-7.65s7.46-7.5,11.71-10.62a37.79,37.79,0,0,1,24.49-7.17,18.45,18.45,0,0,0-10.69-4.56c-8.4-.92-16.9,2.17-23.68,7.2S135,227.75,130.54,235C129.79,236.17,130.52,236.77,131.41,237.89Z" transform="translate(40.16)"/><path class="cls-8" d="M88,267c6.16-8.48,11.34-17.63,17-26.46s11.87-17.42,19.73-24.35,17.53-12.15,28-13.28,21.58,2.23,28.56,10c-6-3.49-14.06-2.39-20.45.41s-11.59,7.78-15.93,13.24-8,11.45-12.12,17.06c-5.28,7.13-11.53,13.69-19.11,18.31A39.88,39.88,0,0,1,88,267Z" transform="translate(40.16)"/><path class="cls-8" d="M181.27,214a31.09,31.09,0,0,0-8.19,11.22c-2,4.24-3.35,8.72-5,13.1-6.67,18-17.74,34.84-33.69,45.51.25-17.73,6.46-35.8,16-50.74,3.5-5.47,7.62-10.65,12.87-14.45A25.88,25.88,0,0,1,181.27,214Z" transform="translate(40.16)"/><path class="cls-7" d="M203.58,137.26c.39,20.88.46,41.75.54,62.62l0,62.62,0,62.62-.09,62.61H202l.13-62.62.27-62.61.27-62.62c.15-20.87.29-41.74.76-62.62Z" transform="translate(40.16)"/><path class="cls-7" d="M176.39,209.36A69.86,69.86,0,0,1,192.9,226.5a112.52,112.52,0,0,1,11.2,21.1l-1.49.59a110,110,0,0,0-10.56-21.12,69.07,69.07,0,0,0-15.92-17.36Z" transform="translate(40.16)"/><path class="cls-7" d="M202.65,266.8a128.24,128.24,0,0,1,21.11-52.17l.46.31A127.18,127.18,0,0,0,204.06,267Z" transform="translate(40.16)"/><path class="cls-7" d="M202.39,308.14a212.3,212.3,0,0,1,22.45-38.22A211.15,211.15,0,0,0,204.32,309Z" transform="translate(40.16)"/><path class="cls-7" d="M202.46,300.29a135.22,135.22,0,0,0-16.18-37.81,136.5,136.5,0,0,1,17.83,37.35Z" transform="translate(40.16)"/><path class="cls-7" d="M184.89,187.36c4.75,6.9,9.56,13.89,12.78,21.74s4.74,16.22,6.24,24.46l-1.34.23c-1.36-8.27-2.74-16.56-5.77-24.34s-7.7-14.83-12.33-21.8Z" transform="translate(40.16)"/><path class="cls-17" d="M218.22,391.33c-1.71-.75-3.8-1.51-4.25-3.33a3.47,3.47,0,0,1,.81-2.92,10.14,10.14,0,0,1,2.39-1.92,3.38,3.38,0,0,0-2-3.88,6.56,6.56,0,0,0-4.64-.06c-1.52.45-2.94,1.17-4.46,1.63A13.38,13.38,0,0,1,199,381a40.5,40.5,0,0,0-4.63-1.32,4.63,4.63,0,0,0-4.38,1.4,4.14,4.14,0,0,0-.09,4.37,10,10,0,0,0,3.22,3.24c-.48-.34-3.87,2.36-4.32,2.73a23.46,23.46,0,0,0-3.76,3.76,22.72,22.72,0,0,0-4.55,9.5c-.35,1.66-.24,1.46.91,1.58a31.38,31.38,0,0,0,3.36,0h41.09C225.64,404.91,227.07,395.23,218.22,391.33Z" transform="translate(40.16)"/><path class="cls-7" d="M228,407.61H174.06a8.47,8.47,0,0,1-.27-6.86,5.87,5.87,0,0,1,2.73-3,5.51,5.51,0,0,1,5.34.68,10.53,10.53,0,0,1,3.39,4.42,5.59,5.59,0,0,1,3-4.08,5.25,5.25,0,0,1,7.29,4.83,23.88,23.88,0,0,1,4.11-7.15c1.8-2,4.58-3.35,7.19-2.72a7.61,7.61,0,0,1,4.44,3.52,22.39,22.39,0,0,1,2.17,5.37,4.08,4.08,0,0,1,3.78-3.72,4.34,4.34,0,0,1,4.24,3.5,3.17,3.17,0,0,1,3.24-1.21,4.18,4.18,0,0,1,2.64,2.33A8.42,8.42,0,0,1,228,407.61Z" transform="translate(40.16)"/><path class="cls-7" d="M167.79,412.28a2.74,2.74,0,0,0,2.06,2.32,5.89,5.89,0,0,0,5-.57,2.7,2.7,0,0,0,1.43-2,2.37,2.37,0,0,0-1.4-2C172.89,409,167.83,409.26,167.79,412.28Z" transform="translate(40.16)"/><path class="cls-7" d="M176.74,414.29a2,2,0,0,0,.72,2.22,2.29,2.29,0,0,0,2.31-.35,3.68,3.68,0,0,0,1.55-2.16,2.35,2.35,0,0,0-.85-2.42C178.7,410.34,177.14,412.87,176.74,414.29Z" transform="translate(40.16)"/><path class="cls-7" d="M226.35,414.56a2.49,2.49,0,0,0,2.39.3,2.24,2.24,0,0,0,1-2.11c-.1-2-2.56-4.27-4.56-3S224.91,413.66,226.35,414.56Z" transform="translate(40.16)"/></g></g></svg>